<?xml version="1.0" encoding="utf-8" standalone="no"?>
<!DOCTYPE svg PUBLIC "-//W3C//DTD SVG 1.1//EN"
  "http://www.w3.org/Graphics/SVG/1.1/DTD/svg11.dtd">
<svg xmlns:xlink="http://www.w3.org/1999/xlink" width="460.8pt" height="345.6pt" viewBox="0 0 460.8 345.6" xmlns="http://www.w3.org/2000/svg" version="1.1">
 <metadata>
  <rdf:RDF xmlns:dc="http://purl.org/dc/elements/1.1/" xmlns:cc="http://creativecommons.org/ns#" xmlns:rdf="http://www.w3.org/1999/02/22-rdf-syntax-ns#">
   <cc:Work>
    <dc:type rdf:resource="http://purl.org/dc/dcmitype/StillImage"/>
    <dc:date>2022-09-27T17:19:36.676929</dc:date>
    <dc:format>image/svg+xml</dc:format>
    <dc:creator>
     <cc:Agent>
      <dc:title>Matplotlib v3.5.2, https://matplotlib.org/</dc:title>
     </cc:Agent>
    </dc:creator>
   </cc:Work>
  </rdf:RDF>
 </metadata>
 <defs>
  <style type="text/css">*{stroke-linejoin: round; stroke-linecap: butt}</style>
 </defs>
 <g id="figure_1">
  <g id="patch_1">
   <path d="M 0 345.6 
L 460.8 345.6 
L 460.8 0 
L 0 0 
z
" style="fill: #ffffff"/>
  </g>
  <g id="axes_1">
   <g id="patch_2">
    <path d="M 57.6 307.584 
L 414.72 307.584 
L 414.72 41.472 
L 57.6 41.472 
z
" style="fill: #ffffff"/>
   </g>
   <g id="patch_3">
    <path d="M 57.6 295.488 
L 67.688851 295.488 
L 67.688851 283.238886 
L 57.6 283.238886 
z
" clip-path="url(#pe50e1244b4)" style="fill: #1f77b4"/>
   </g>
   <g id="patch_4">
    <path d="M 57.6 280.176608 
L 73.148313 280.176608 
L 73.148313 267.927494 
L 57.6 267.927494 
z
" clip-path="url(#pe50e1244b4)" style="fill: #1f77b4"/>
   </g>
   <g id="patch_5">
    <path d="M 57.6 264.865215 
L 80.300818 264.865215 
L 80.300818 252.616101 
L 57.6 252.616101 
z
" clip-path="url(#pe50e1244b4)" style="fill: #1f77b4"/>
   </g>
   <g id="patch_6">
    <path d="M 57.6 249.553823 
L 80.355381 249.553823 
L 80.355381 237.304709 
L 57.6 237.304709 
z
" clip-path="url(#pe50e1244b4)" style="fill: #1f77b4"/>
   </g>
   <g id="patch_7">
    <path d="M 57.6 234.24243 
L 80.608535 234.24243 
L 80.608535 221.993316 
L 57.6 221.993316 
z
" clip-path="url(#pe50e1244b4)" style="fill: #1f77b4"/>
   </g>
   <g id="patch_8">
    <path d="M 57.6 218.931038 
L 95.649737 218.931038 
L 95.649737 206.681924 
L 57.6 206.681924 
z
" clip-path="url(#pe50e1244b4)" style="fill: #1f77b4"/>
   </g>
   <g id="patch_9">
    <path d="M 57.6 203.619646 
L 108.996693 203.619646 
L 108.996693 191.370532 
L 57.6 191.370532 
z
" clip-path="url(#pe50e1244b4)" style="fill: #1f77b4"/>
   </g>
   <g id="patch_10">
    <path d="M 57.6 188.308253 
L 123.842915 188.308253 
L 123.842915 176.059139 
L 57.6 176.059139 
z
" clip-path="url(#pe50e1244b4)" style="fill: #1f77b4"/>
   </g>
   <g id="patch_11">
    <path d="M 57.6 172.996861 
L 130.611075 172.996861 
L 130.611075 160.747747 
L 57.6 160.747747 
z
" clip-path="url(#pe50e1244b4)" style="fill: #1f77b4"/>
   </g>
   <g id="patch_12">
    <path d="M 57.6 157.685468 
L 162.97949 157.685468 
L 162.97949 145.436354 
L 57.6 145.436354 
z
" clip-path="url(#pe50e1244b4)" style="fill: #1f77b4"/>
   </g>
   <g id="patch_13">
    <path d="M 57.6 142.374076 
L 184.285754 142.374076 
L 184.285754 130.124962 
L 57.6 130.124962 
z
" clip-path="url(#pe50e1244b4)" style="fill: #1f77b4"/>
   </g>
   <g id="patch_14">
    <path d="M 57.6 127.062684 
L 199.130772 127.062684 
L 199.130772 114.81357 
L 57.6 114.81357 
z
" clip-path="url(#pe50e1244b4)" style="fill: #1f77b4"/>
   </g>
   <g id="patch_15">
    <path d="M 57.6 111.751291 
L 214.68711 111.751291 
L 214.68711 99.502177 
L 57.6 99.502177 
z
" clip-path="url(#pe50e1244b4)" style="fill: #1f77b4"/>
   </g>
   <g id="patch_16">
    <path d="M 57.6 96.439899 
L 243.746468 96.439899 
L 243.746468 84.190785 
L 57.6 84.190785 
z
" clip-path="url(#pe50e1244b4)" style="fill: #1f77b4"/>
   </g>
   <g id="patch_17">
    <path d="M 57.6 81.128506 
L 292.022666 81.128506 
L 292.022666 68.879392 
L 57.6 68.879392 
z
" clip-path="url(#pe50e1244b4)" style="fill: #1f77b4"/>
   </g>
   <g id="patch_18">
    <path d="M 57.6 65.817114 
L 397.714286 65.817114 
L 397.714286 53.568 
L 57.6 53.568 
z
" clip-path="url(#pe50e1244b4)" style="fill: #1f77b4"/>
   </g>
   <g id="matplotlib.axis_1">
    <g id="xtick_1">
     <g id="line2d_1">
      <defs>
       <path id="m23dcc19017" d="M 0 0 
L 0 3.5 
" style="stroke: #000000; stroke-width: 0.8"/>
      </defs>
      <g>
       <use xlink:href="#m23dcc19017" x="57.6" y="307.584" style="stroke: #000000; stroke-width: 0.8"/>
      </g>
     </g>
     <g id="text_1">
      <!-- 0 -->
      <g transform="translate(54.41875 322.182437)scale(0.1 -0.1)">
       <defs>
        <path id="DejaVuSans-30" d="M 2034 4250 
Q 1547 4250 1301 3770 
Q 1056 3291 1056 2328 
Q 1056 1369 1301 889 
Q 1547 409 2034 409 
Q 2525 409 2770 889 
Q 3016 1369 3016 2328 
Q 3016 3291 2770 3770 
Q 2525 4250 2034 4250 
z
M 2034 4750 
Q 2819 4750 3233 4129 
Q 3647 3509 3647 2328 
Q 3647 1150 3233 529 
Q 2819 -91 2034 -91 
Q 1250 -91 836 529 
Q 422 1150 422 2328 
Q 422 3509 836 4129 
Q 1250 4750 2034 4750 
z
" transform="scale(0.015625)"/>
       </defs>
       <use xlink:href="#DejaVuSans-30"/>
      </g>
     </g>
    </g>
    <g id="xtick_2">
     <g id="line2d_2">
      <g>
       <use xlink:href="#m23dcc19017" x="97.719502" y="307.584" style="stroke: #000000; stroke-width: 0.8"/>
      </g>
     </g>
     <g id="text_2">
      <!-- 100000 -->
      <g transform="translate(78.632002 322.182437)scale(0.1 -0.1)">
       <defs>
        <path id="DejaVuSans-31" d="M 794 531 
L 1825 531 
L 1825 4091 
L 703 3866 
L 703 4441 
L 1819 4666 
L 2450 4666 
L 2450 531 
L 3481 531 
L 3481 0 
L 794 0 
L 794 531 
z
" transform="scale(0.015625)"/>
       </defs>
       <use xlink:href="#DejaVuSans-31"/>
       <use xlink:href="#DejaVuSans-30" x="63.623047"/>
       <use xlink:href="#DejaVuSans-30" x="127.246094"/>
       <use xlink:href="#DejaVuSans-30" x="190.869141"/>
       <use xlink:href="#DejaVuSans-30" x="254.492188"/>
       <use xlink:href="#DejaVuSans-30" x="318.115234"/>
      </g>
     </g>
    </g>
    <g id="xtick_3">
     <g id="line2d_3">
      <g>
       <use xlink:href="#m23dcc19017" x="137.839005" y="307.584" style="stroke: #000000; stroke-width: 0.8"/>
      </g>
     </g>
     <g id="text_3">
      <!-- 200000 -->
      <g transform="translate(118.751505 322.182437)scale(0.1 -0.1)">
       <defs>
        <path id="DejaVuSans-32" d="M 1228 531 
L 3431 531 
L 3431 0 
L 469 0 
L 469 531 
Q 828 903 1448 1529 
Q 2069 2156 2228 2338 
Q 2531 2678 2651 2914 
Q 2772 3150 2772 3378 
Q 2772 3750 2511 3984 
Q 2250 4219 1831 4219 
Q 1534 4219 1204 4116 
Q 875 4013 500 3803 
L 500 4441 
Q 881 4594 1212 4672 
Q 1544 4750 1819 4750 
Q 2544 4750 2975 4387 
Q 3406 4025 3406 3419 
Q 3406 3131 3298 2873 
Q 3191 2616 2906 2266 
Q 2828 2175 2409 1742 
Q 1991 1309 1228 531 
z
" transform="scale(0.015625)"/>
       </defs>
       <use xlink:href="#DejaVuSans-32"/>
       <use xlink:href="#DejaVuSans-30" x="63.623047"/>
       <use xlink:href="#DejaVuSans-30" x="127.246094"/>
       <use xlink:href="#DejaVuSans-30" x="190.869141"/>
       <use xlink:href="#DejaVuSans-30" x="254.492188"/>
       <use xlink:href="#DejaVuSans-30" x="318.115234"/>
      </g>
     </g>
    </g>
    <g id="xtick_4">
     <g id="line2d_4">
      <g>
       <use xlink:href="#m23dcc19017" x="177.958507" y="307.584" style="stroke: #000000; stroke-width: 0.8"/>
      </g>
     </g>
     <g id="text_4">
      <!-- 300000 -->
      <g transform="translate(158.871007 322.182437)scale(0.1 -0.1)">
       <defs>
        <path id="DejaVuSans-33" d="M 2597 2516 
Q 3050 2419 3304 2112 
Q 3559 1806 3559 1356 
Q 3559 666 3084 287 
Q 2609 -91 1734 -91 
Q 1441 -91 1130 -33 
Q 819 25 488 141 
L 488 750 
Q 750 597 1062 519 
Q 1375 441 1716 441 
Q 2309 441 2620 675 
Q 2931 909 2931 1356 
Q 2931 1769 2642 2001 
Q 2353 2234 1838 2234 
L 1294 2234 
L 1294 2753 
L 1863 2753 
Q 2328 2753 2575 2939 
Q 2822 3125 2822 3475 
Q 2822 3834 2567 4026 
Q 2313 4219 1838 4219 
Q 1578 4219 1281 4162 
Q 984 4106 628 3988 
L 628 4550 
Q 988 4650 1302 4700 
Q 1616 4750 1894 4750 
Q 2613 4750 3031 4423 
Q 3450 4097 3450 3541 
Q 3450 3153 3228 2886 
Q 3006 2619 2597 2516 
z
" transform="scale(0.015625)"/>
       </defs>
       <use xlink:href="#DejaVuSans-33"/>
       <use xlink:href="#DejaVuSans-30" x="63.623047"/>
       <use xlink:href="#DejaVuSans-30" x="127.246094"/>
       <use xlink:href="#DejaVuSans-30" x="190.869141"/>
       <use xlink:href="#DejaVuSans-30" x="254.492188"/>
       <use xlink:href="#DejaVuSans-30" x="318.115234"/>
      </g>
     </g>
    </g>
    <g id="xtick_5">
     <g id="line2d_5">
      <g>
       <use xlink:href="#m23dcc19017" x="218.07801" y="307.584" style="stroke: #000000; stroke-width: 0.8"/>
      </g>
     </g>
     <g id="text_5">
      <!-- 400000 -->
      <g transform="translate(198.99051 322.182437)scale(0.1 -0.1)">
       <defs>
        <path id="DejaVuSans-34" d="M 2419 4116 
L 825 1625 
L 2419 1625 
L 2419 4116 
z
M 2253 4666 
L 3047 4666 
L 3047 1625 
L 3713 1625 
L 3713 1100 
L 3047 1100 
L 3047 0 
L 2419 0 
L 2419 1100 
L 313 1100 
L 313 1709 
L 2253 4666 
z
" transform="scale(0.015625)"/>
       </defs>
       <use xlink:href="#DejaVuSans-34"/>
       <use xlink:href="#DejaVuSans-30" x="63.623047"/>
       <use xlink:href="#DejaVuSans-30" x="127.246094"/>
       <use xlink:href="#DejaVuSans-30" x="190.869141"/>
       <use xlink:href="#DejaVuSans-30" x="254.492188"/>
       <use xlink:href="#DejaVuSans-30" x="318.115234"/>
      </g>
     </g>
    </g>
    <g id="xtick_6">
     <g id="line2d_6">
      <g>
       <use xlink:href="#m23dcc19017" x="258.197512" y="307.584" style="stroke: #000000; stroke-width: 0.8"/>
      </g>
     </g>
     <g id="text_6">
      <!-- 500000 -->
      <g transform="translate(239.110012 322.182437)scale(0.1 -0.1)">
       <defs>
        <path id="DejaVuSans-35" d="M 691 4666 
L 3169 4666 
L 3169 4134 
L 1269 4134 
L 1269 2991 
Q 1406 3038 1543 3061 
Q 1681 3084 1819 3084 
Q 2600 3084 3056 2656 
Q 3513 2228 3513 1497 
Q 3513 744 3044 326 
Q 2575 -91 1722 -91 
Q 1428 -91 1123 -41 
Q 819 9 494 109 
L 494 744 
Q 775 591 1075 516 
Q 1375 441 1709 441 
Q 2250 441 2565 725 
Q 2881 1009 2881 1497 
Q 2881 1984 2565 2268 
Q 2250 2553 1709 2553 
Q 1456 2553 1204 2497 
Q 953 2441 691 2322 
L 691 4666 
z
" transform="scale(0.015625)"/>
       </defs>
       <use xlink:href="#DejaVuSans-35"/>
       <use xlink:href="#DejaVuSans-30" x="63.623047"/>
       <use xlink:href="#DejaVuSans-30" x="127.246094"/>
       <use xlink:href="#DejaVuSans-30" x="190.869141"/>
       <use xlink:href="#DejaVuSans-30" x="254.492188"/>
       <use xlink:href="#DejaVuSans-30" x="318.115234"/>
      </g>
     </g>
    </g>
    <g id="xtick_7">
     <g id="line2d_7">
      <g>
       <use xlink:href="#m23dcc19017" x="298.317015" y="307.584" style="stroke: #000000; stroke-width: 0.8"/>
      </g>
     </g>
     <g id="text_7">
      <!-- 600000 -->
      <g transform="translate(279.229515 322.182437)scale(0.1 -0.1)">
       <defs>
        <path id="DejaVuSans-36" d="M 2113 2584 
Q 1688 2584 1439 2293 
Q 1191 2003 1191 1497 
Q 1191 994 1439 701 
Q 1688 409 2113 409 
Q 2538 409 2786 701 
Q 3034 994 3034 1497 
Q 3034 2003 2786 2293 
Q 2538 2584 2113 2584 
z
M 3366 4563 
L 3366 3988 
Q 3128 4100 2886 4159 
Q 2644 4219 2406 4219 
Q 1781 4219 1451 3797 
Q 1122 3375 1075 2522 
Q 1259 2794 1537 2939 
Q 1816 3084 2150 3084 
Q 2853 3084 3261 2657 
Q 3669 2231 3669 1497 
Q 3669 778 3244 343 
Q 2819 -91 2113 -91 
Q 1303 -91 875 529 
Q 447 1150 447 2328 
Q 447 3434 972 4092 
Q 1497 4750 2381 4750 
Q 2619 4750 2861 4703 
Q 3103 4656 3366 4563 
z
" transform="scale(0.015625)"/>
       </defs>
       <use xlink:href="#DejaVuSans-36"/>
       <use xlink:href="#DejaVuSans-30" x="63.623047"/>
       <use xlink:href="#DejaVuSans-30" x="127.246094"/>
       <use xlink:href="#DejaVuSans-30" x="190.869141"/>
       <use xlink:href="#DejaVuSans-30" x="254.492188"/>
       <use xlink:href="#DejaVuSans-30" x="318.115234"/>
      </g>
     </g>
    </g>
    <g id="xtick_8">
     <g id="line2d_8">
      <g>
       <use xlink:href="#m23dcc19017" x="338.436517" y="307.584" style="stroke: #000000; stroke-width: 0.8"/>
      </g>
     </g>
     <g id="text_8">
      <!-- 700000 -->
      <g transform="translate(319.349017 322.182437)scale(0.1 -0.1)">
       <defs>
        <path id="DejaVuSans-37" d="M 525 4666 
L 3525 4666 
L 3525 4397 
L 1831 0 
L 1172 0 
L 2766 4134 
L 525 4134 
L 525 4666 
z
" transform="scale(0.015625)"/>
       </defs>
       <use xlink:href="#DejaVuSans-37"/>
       <use xlink:href="#DejaVuSans-30" x="63.623047"/>
       <use xlink:href="#DejaVuSans-30" x="127.246094"/>
       <use xlink:href="#DejaVuSans-30" x="190.869141"/>
       <use xlink:href="#DejaVuSans-30" x="254.492188"/>
       <use xlink:href="#DejaVuSans-30" x="318.115234"/>
      </g>
     </g>
    </g>
    <g id="xtick_9">
     <g id="line2d_9">
      <g>
       <use xlink:href="#m23dcc19017" x="378.55602" y="307.584" style="stroke: #000000; stroke-width: 0.8"/>
      </g>
     </g>
     <g id="text_9">
      <!-- 800000 -->
      <g transform="translate(359.46852 322.182437)scale(0.1 -0.1)">
       <defs>
        <path id="DejaVuSans-38" d="M 2034 2216 
Q 1584 2216 1326 1975 
Q 1069 1734 1069 1313 
Q 1069 891 1326 650 
Q 1584 409 2034 409 
Q 2484 409 2743 651 
Q 3003 894 3003 1313 
Q 3003 1734 2745 1975 
Q 2488 2216 2034 2216 
z
M 1403 2484 
Q 997 2584 770 2862 
Q 544 3141 544 3541 
Q 544 4100 942 4425 
Q 1341 4750 2034 4750 
Q 2731 4750 3128 4425 
Q 3525 4100 3525 3541 
Q 3525 3141 3298 2862 
Q 3072 2584 2669 2484 
Q 3125 2378 3379 2068 
Q 3634 1759 3634 1313 
Q 3634 634 3220 271 
Q 2806 -91 2034 -91 
Q 1263 -91 848 271 
Q 434 634 434 1313 
Q 434 1759 690 2068 
Q 947 2378 1403 2484 
z
M 1172 3481 
Q 1172 3119 1398 2916 
Q 1625 2713 2034 2713 
Q 2441 2713 2670 2916 
Q 2900 3119 2900 3481 
Q 2900 3844 2670 4047 
Q 2441 4250 2034 4250 
Q 1625 4250 1398 4047 
Q 1172 3844 1172 3481 
z
" transform="scale(0.015625)"/>
       </defs>
       <use xlink:href="#DejaVuSans-38"/>
       <use xlink:href="#DejaVuSans-30" x="63.623047"/>
       <use xlink:href="#DejaVuSans-30" x="127.246094"/>
       <use xlink:href="#DejaVuSans-30" x="190.869141"/>
       <use xlink:href="#DejaVuSans-30" x="254.492188"/>
       <use xlink:href="#DejaVuSans-30" x="318.115234"/>
      </g>
     </g>
    </g>
    <g id="text_10">
     <!-- Number of bugs -->
     <g transform="translate(195.954531 335.860562)scale(0.1 -0.1)">
      <defs>
       <path id="DejaVuSans-4e" d="M 628 4666 
L 1478 4666 
L 3547 763 
L 3547 4666 
L 4159 4666 
L 4159 0 
L 3309 0 
L 1241 3903 
L 1241 0 
L 628 0 
L 628 4666 
z
" transform="scale(0.015625)"/>
       <path id="DejaVuSans-75" d="M 544 1381 
L 544 3500 
L 1119 3500 
L 1119 1403 
Q 1119 906 1312 657 
Q 1506 409 1894 409 
Q 2359 409 2629 706 
Q 2900 1003 2900 1516 
L 2900 3500 
L 3475 3500 
L 3475 0 
L 2900 0 
L 2900 538 
Q 2691 219 2414 64 
Q 2138 -91 1772 -91 
Q 1169 -91 856 284 
Q 544 659 544 1381 
z
M 1991 3584 
L 1991 3584 
z
" transform="scale(0.015625)"/>
       <path id="DejaVuSans-6d" d="M 3328 2828 
Q 3544 3216 3844 3400 
Q 4144 3584 4550 3584 
Q 5097 3584 5394 3201 
Q 5691 2819 5691 2113 
L 5691 0 
L 5113 0 
L 5113 2094 
Q 5113 2597 4934 2840 
Q 4756 3084 4391 3084 
Q 3944 3084 3684 2787 
Q 3425 2491 3425 1978 
L 3425 0 
L 2847 0 
L 2847 2094 
Q 2847 2600 2669 2842 
Q 2491 3084 2119 3084 
Q 1678 3084 1418 2786 
Q 1159 2488 1159 1978 
L 1159 0 
L 581 0 
L 581 3500 
L 1159 3500 
L 1159 2956 
Q 1356 3278 1631 3431 
Q 1906 3584 2284 3584 
Q 2666 3584 2933 3390 
Q 3200 3197 3328 2828 
z
" transform="scale(0.015625)"/>
       <path id="DejaVuSans-62" d="M 3116 1747 
Q 3116 2381 2855 2742 
Q 2594 3103 2138 3103 
Q 1681 3103 1420 2742 
Q 1159 2381 1159 1747 
Q 1159 1113 1420 752 
Q 1681 391 2138 391 
Q 2594 391 2855 752 
Q 3116 1113 3116 1747 
z
M 1159 2969 
Q 1341 3281 1617 3432 
Q 1894 3584 2278 3584 
Q 2916 3584 3314 3078 
Q 3713 2572 3713 1747 
Q 3713 922 3314 415 
Q 2916 -91 2278 -91 
Q 1894 -91 1617 61 
Q 1341 213 1159 525 
L 1159 0 
L 581 0 
L 581 4863 
L 1159 4863 
L 1159 2969 
z
" transform="scale(0.015625)"/>
       <path id="DejaVuSans-65" d="M 3597 1894 
L 3597 1613 
L 953 1613 
Q 991 1019 1311 708 
Q 1631 397 2203 397 
Q 2534 397 2845 478 
Q 3156 559 3463 722 
L 3463 178 
Q 3153 47 2828 -22 
Q 2503 -91 2169 -91 
Q 1331 -91 842 396 
Q 353 884 353 1716 
Q 353 2575 817 3079 
Q 1281 3584 2069 3584 
Q 2775 3584 3186 3129 
Q 3597 2675 3597 1894 
z
M 3022 2063 
Q 3016 2534 2758 2815 
Q 2500 3097 2075 3097 
Q 1594 3097 1305 2825 
Q 1016 2553 972 2059 
L 3022 2063 
z
" transform="scale(0.015625)"/>
       <path id="DejaVuSans-72" d="M 2631 2963 
Q 2534 3019 2420 3045 
Q 2306 3072 2169 3072 
Q 1681 3072 1420 2755 
Q 1159 2438 1159 1844 
L 1159 0 
L 581 0 
L 581 3500 
L 1159 3500 
L 1159 2956 
Q 1341 3275 1631 3429 
Q 1922 3584 2338 3584 
Q 2397 3584 2469 3576 
Q 2541 3569 2628 3553 
L 2631 2963 
z
" transform="scale(0.015625)"/>
       <path id="DejaVuSans-20" transform="scale(0.015625)"/>
       <path id="DejaVuSans-6f" d="M 1959 3097 
Q 1497 3097 1228 2736 
Q 959 2375 959 1747 
Q 959 1119 1226 758 
Q 1494 397 1959 397 
Q 2419 397 2687 759 
Q 2956 1122 2956 1747 
Q 2956 2369 2687 2733 
Q 2419 3097 1959 3097 
z
M 1959 3584 
Q 2709 3584 3137 3096 
Q 3566 2609 3566 1747 
Q 3566 888 3137 398 
Q 2709 -91 1959 -91 
Q 1206 -91 779 398 
Q 353 888 353 1747 
Q 353 2609 779 3096 
Q 1206 3584 1959 3584 
z
" transform="scale(0.015625)"/>
       <path id="DejaVuSans-66" d="M 2375 4863 
L 2375 4384 
L 1825 4384 
Q 1516 4384 1395 4259 
Q 1275 4134 1275 3809 
L 1275 3500 
L 2222 3500 
L 2222 3053 
L 1275 3053 
L 1275 0 
L 697 0 
L 697 3053 
L 147 3053 
L 147 3500 
L 697 3500 
L 697 3744 
Q 697 4328 969 4595 
Q 1241 4863 1831 4863 
L 2375 4863 
z
" transform="scale(0.015625)"/>
       <path id="DejaVuSans-67" d="M 2906 1791 
Q 2906 2416 2648 2759 
Q 2391 3103 1925 3103 
Q 1463 3103 1205 2759 
Q 947 2416 947 1791 
Q 947 1169 1205 825 
Q 1463 481 1925 481 
Q 2391 481 2648 825 
Q 2906 1169 2906 1791 
z
M 3481 434 
Q 3481 -459 3084 -895 
Q 2688 -1331 1869 -1331 
Q 1566 -1331 1297 -1286 
Q 1028 -1241 775 -1147 
L 775 -588 
Q 1028 -725 1275 -790 
Q 1522 -856 1778 -856 
Q 2344 -856 2625 -561 
Q 2906 -266 2906 331 
L 2906 616 
Q 2728 306 2450 153 
Q 2172 0 1784 0 
Q 1141 0 747 490 
Q 353 981 353 1791 
Q 353 2603 747 3093 
Q 1141 3584 1784 3584 
Q 2172 3584 2450 3431 
Q 2728 3278 2906 2969 
L 2906 3500 
L 3481 3500 
L 3481 434 
z
" transform="scale(0.015625)"/>
       <path id="DejaVuSans-73" d="M 2834 3397 
L 2834 2853 
Q 2591 2978 2328 3040 
Q 2066 3103 1784 3103 
Q 1356 3103 1142 2972 
Q 928 2841 928 2578 
Q 928 2378 1081 2264 
Q 1234 2150 1697 2047 
L 1894 2003 
Q 2506 1872 2764 1633 
Q 3022 1394 3022 966 
Q 3022 478 2636 193 
Q 2250 -91 1575 -91 
Q 1294 -91 989 -36 
Q 684 19 347 128 
L 347 722 
Q 666 556 975 473 
Q 1284 391 1588 391 
Q 1994 391 2212 530 
Q 2431 669 2431 922 
Q 2431 1156 2273 1281 
Q 2116 1406 1581 1522 
L 1381 1569 
Q 847 1681 609 1914 
Q 372 2147 372 2553 
Q 372 3047 722 3315 
Q 1072 3584 1716 3584 
Q 2034 3584 2315 3537 
Q 2597 3491 2834 3397 
z
" transform="scale(0.015625)"/>
      </defs>
      <use xlink:href="#DejaVuSans-4e"/>
      <use xlink:href="#DejaVuSans-75" x="74.804688"/>
      <use xlink:href="#DejaVuSans-6d" x="138.183594"/>
      <use xlink:href="#DejaVuSans-62" x="235.595703"/>
      <use xlink:href="#DejaVuSans-65" x="299.072266"/>
      <use xlink:href="#DejaVuSans-72" x="360.595703"/>
      <use xlink:href="#DejaVuSans-20" x="401.708984"/>
      <use xlink:href="#DejaVuSans-6f" x="433.496094"/>
      <use xlink:href="#DejaVuSans-66" x="494.677734"/>
      <use xlink:href="#DejaVuSans-20" x="529.882812"/>
      <use xlink:href="#DejaVuSans-62" x="561.669922"/>
      <use xlink:href="#DejaVuSans-75" x="625.146484"/>
      <use xlink:href="#DejaVuSans-67" x="688.525391"/>
      <use xlink:href="#DejaVuSans-73" x="752.001953"/>
     </g>
    </g>
   </g>
   <g id="matplotlib.axis_2">
    <g id="ytick_1">
     <g id="line2d_10">
      <defs>
       <path id="m7e590959a2" d="M 0 0 
L -3.5 0 
" style="stroke: #000000; stroke-width: 0.8"/>
      </defs>
      <g>
       <use xlink:href="#m7e590959a2" x="57.6" y="289.363443" style="stroke: #000000; stroke-width: 0.8"/>
      </g>
     </g>
     <g id="text_11">
      <!-- SelfAPR-Rule12 -->
      <g transform="translate(-25.71875 293.162662)scale(0.1 -0.1)">
       <defs>
        <path id="DejaVuSans-53" d="M 3425 4513 
L 3425 3897 
Q 3066 4069 2747 4153 
Q 2428 4238 2131 4238 
Q 1616 4238 1336 4038 
Q 1056 3838 1056 3469 
Q 1056 3159 1242 3001 
Q 1428 2844 1947 2747 
L 2328 2669 
Q 3034 2534 3370 2195 
Q 3706 1856 3706 1288 
Q 3706 609 3251 259 
Q 2797 -91 1919 -91 
Q 1588 -91 1214 -16 
Q 841 59 441 206 
L 441 856 
Q 825 641 1194 531 
Q 1563 422 1919 422 
Q 2459 422 2753 634 
Q 3047 847 3047 1241 
Q 3047 1584 2836 1778 
Q 2625 1972 2144 2069 
L 1759 2144 
Q 1053 2284 737 2584 
Q 422 2884 422 3419 
Q 422 4038 858 4394 
Q 1294 4750 2059 4750 
Q 2388 4750 2728 4690 
Q 3069 4631 3425 4513 
z
" transform="scale(0.015625)"/>
        <path id="DejaVuSans-6c" d="M 603 4863 
L 1178 4863 
L 1178 0 
L 603 0 
L 603 4863 
z
" transform="scale(0.015625)"/>
        <path id="DejaVuSans-41" d="M 2188 4044 
L 1331 1722 
L 3047 1722 
L 2188 4044 
z
M 1831 4666 
L 2547 4666 
L 4325 0 
L 3669 0 
L 3244 1197 
L 1141 1197 
L 716 0 
L 50 0 
L 1831 4666 
z
" transform="scale(0.015625)"/>
        <path id="DejaVuSans-50" d="M 1259 4147 
L 1259 2394 
L 2053 2394 
Q 2494 2394 2734 2622 
Q 2975 2850 2975 3272 
Q 2975 3691 2734 3919 
Q 2494 4147 2053 4147 
L 1259 4147 
z
M 628 4666 
L 2053 4666 
Q 2838 4666 3239 4311 
Q 3641 3956 3641 3272 
Q 3641 2581 3239 2228 
Q 2838 1875 2053 1875 
L 1259 1875 
L 1259 0 
L 628 0 
L 628 4666 
z
" transform="scale(0.015625)"/>
        <path id="DejaVuSans-52" d="M 2841 2188 
Q 3044 2119 3236 1894 
Q 3428 1669 3622 1275 
L 4263 0 
L 3584 0 
L 2988 1197 
Q 2756 1666 2539 1819 
Q 2322 1972 1947 1972 
L 1259 1972 
L 1259 0 
L 628 0 
L 628 4666 
L 2053 4666 
Q 2853 4666 3247 4331 
Q 3641 3997 3641 3322 
Q 3641 2881 3436 2590 
Q 3231 2300 2841 2188 
z
M 1259 4147 
L 1259 2491 
L 2053 2491 
Q 2509 2491 2742 2702 
Q 2975 2913 2975 3322 
Q 2975 3731 2742 3939 
Q 2509 4147 2053 4147 
L 1259 4147 
z
" transform="scale(0.015625)"/>
        <path id="DejaVuSans-2d" d="M 313 2009 
L 1997 2009 
L 1997 1497 
L 313 1497 
L 313 2009 
z
" transform="scale(0.015625)"/>
       </defs>
       <use xlink:href="#DejaVuSans-53"/>
       <use xlink:href="#DejaVuSans-65" x="63.476562"/>
       <use xlink:href="#DejaVuSans-6c" x="125"/>
       <use xlink:href="#DejaVuSans-66" x="152.783203"/>
       <use xlink:href="#DejaVuSans-41" x="187.988281"/>
       <use xlink:href="#DejaVuSans-50" x="256.396484"/>
       <use xlink:href="#DejaVuSans-52" x="316.699219"/>
       <use xlink:href="#DejaVuSans-2d" x="382.181641"/>
       <use xlink:href="#DejaVuSans-52" x="418.265625"/>
       <use xlink:href="#DejaVuSans-75" x="483.248047"/>
       <use xlink:href="#DejaVuSans-6c" x="546.626953"/>
       <use xlink:href="#DejaVuSans-65" x="574.410156"/>
       <use xlink:href="#DejaVuSans-31" x="635.933594"/>
       <use xlink:href="#DejaVuSans-32" x="699.556641"/>
      </g>
     </g>
    </g>
    <g id="ytick_2">
     <g id="line2d_11">
      <g>
       <use xlink:href="#m7e590959a2" x="57.6" y="274.052051" style="stroke: #000000; stroke-width: 0.8"/>
      </g>
     </g>
     <g id="text_12">
      <!-- SelfAPR-Rule4 -->
      <g transform="translate(-19.35625 277.851269)scale(0.1 -0.1)">
       <use xlink:href="#DejaVuSans-53"/>
       <use xlink:href="#DejaVuSans-65" x="63.476562"/>
       <use xlink:href="#DejaVuSans-6c" x="125"/>
       <use xlink:href="#DejaVuSans-66" x="152.783203"/>
       <use xlink:href="#DejaVuSans-41" x="187.988281"/>
       <use xlink:href="#DejaVuSans-50" x="256.396484"/>
       <use xlink:href="#DejaVuSans-52" x="316.699219"/>
       <use xlink:href="#DejaVuSans-2d" x="382.181641"/>
       <use xlink:href="#DejaVuSans-52" x="418.265625"/>
       <use xlink:href="#DejaVuSans-75" x="483.248047"/>
       <use xlink:href="#DejaVuSans-6c" x="546.626953"/>
       <use xlink:href="#DejaVuSans-65" x="574.410156"/>
       <use xlink:href="#DejaVuSans-34" x="635.933594"/>
      </g>
     </g>
    </g>
    <g id="ytick_3">
     <g id="line2d_12">
      <g>
       <use xlink:href="#m7e590959a2" x="57.6" y="258.740658" style="stroke: #000000; stroke-width: 0.8"/>
      </g>
     </g>
     <g id="text_13">
      <!-- SelfAPR-Rule16 -->
      <g transform="translate(-25.71875 262.539877)scale(0.1 -0.1)">
       <use xlink:href="#DejaVuSans-53"/>
       <use xlink:href="#DejaVuSans-65" x="63.476562"/>
       <use xlink:href="#DejaVuSans-6c" x="125"/>
       <use xlink:href="#DejaVuSans-66" x="152.783203"/>
       <use xlink:href="#DejaVuSans-41" x="187.988281"/>
       <use xlink:href="#DejaVuSans-50" x="256.396484"/>
       <use xlink:href="#DejaVuSans-52" x="316.699219"/>
       <use xlink:href="#DejaVuSans-2d" x="382.181641"/>
       <use xlink:href="#DejaVuSans-52" x="418.265625"/>
       <use xlink:href="#DejaVuSans-75" x="483.248047"/>
       <use xlink:href="#DejaVuSans-6c" x="546.626953"/>
       <use xlink:href="#DejaVuSans-65" x="574.410156"/>
       <use xlink:href="#DejaVuSans-31" x="635.933594"/>
       <use xlink:href="#DejaVuSans-36" x="699.556641"/>
      </g>
     </g>
    </g>
    <g id="ytick_4">
     <g id="line2d_13">
      <g>
       <use xlink:href="#m7e590959a2" x="57.6" y="243.429266" style="stroke: #000000; stroke-width: 0.8"/>
      </g>
     </g>
     <g id="text_14">
      <!-- SelfAPR-Rule15 -->
      <g transform="translate(-25.71875 247.228485)scale(0.1 -0.1)">
       <use xlink:href="#DejaVuSans-53"/>
       <use xlink:href="#DejaVuSans-65" x="63.476562"/>
       <use xlink:href="#DejaVuSans-6c" x="125"/>
       <use xlink:href="#DejaVuSans-66" x="152.783203"/>
       <use xlink:href="#DejaVuSans-41" x="187.988281"/>
       <use xlink:href="#DejaVuSans-50" x="256.396484"/>
       <use xlink:href="#DejaVuSans-52" x="316.699219"/>
       <use xlink:href="#DejaVuSans-2d" x="382.181641"/>
       <use xlink:href="#DejaVuSans-52" x="418.265625"/>
       <use xlink:href="#DejaVuSans-75" x="483.248047"/>
       <use xlink:href="#DejaVuSans-6c" x="546.626953"/>
       <use xlink:href="#DejaVuSans-65" x="574.410156"/>
       <use xlink:href="#DejaVuSans-31" x="635.933594"/>
       <use xlink:href="#DejaVuSans-35" x="699.556641"/>
      </g>
     </g>
    </g>
    <g id="ytick_5">
     <g id="line2d_14">
      <g>
       <use xlink:href="#m7e590959a2" x="57.6" y="228.117873" style="stroke: #000000; stroke-width: 0.8"/>
      </g>
     </g>
     <g id="text_15">
      <!-- SelfAPR-Rule1 -->
      <g transform="translate(-19.35625 231.917092)scale(0.1 -0.1)">
       <use xlink:href="#DejaVuSans-53"/>
       <use xlink:href="#DejaVuSans-65" x="63.476562"/>
       <use xlink:href="#DejaVuSans-6c" x="125"/>
       <use xlink:href="#DejaVuSans-66" x="152.783203"/>
       <use xlink:href="#DejaVuSans-41" x="187.988281"/>
       <use xlink:href="#DejaVuSans-50" x="256.396484"/>
       <use xlink:href="#DejaVuSans-52" x="316.699219"/>
       <use xlink:href="#DejaVuSans-2d" x="382.181641"/>
       <use xlink:href="#DejaVuSans-52" x="418.265625"/>
       <use xlink:href="#DejaVuSans-75" x="483.248047"/>
       <use xlink:href="#DejaVuSans-6c" x="546.626953"/>
       <use xlink:href="#DejaVuSans-65" x="574.410156"/>
       <use xlink:href="#DejaVuSans-31" x="635.933594"/>
      </g>
     </g>
    </g>
    <g id="ytick_6">
     <g id="line2d_15">
      <g>
       <use xlink:href="#m7e590959a2" x="57.6" y="212.806481" style="stroke: #000000; stroke-width: 0.8"/>
      </g>
     </g>
     <g id="text_16">
      <!-- SelfAPR-Rule6 -->
      <g transform="translate(-19.35625 216.6057)scale(0.1 -0.1)">
       <use xlink:href="#DejaVuSans-53"/>
       <use xlink:href="#DejaVuSans-65" x="63.476562"/>
       <use xlink:href="#DejaVuSans-6c" x="125"/>
       <use xlink:href="#DejaVuSans-66" x="152.783203"/>
       <use xlink:href="#DejaVuSans-41" x="187.988281"/>
       <use xlink:href="#DejaVuSans-50" x="256.396484"/>
       <use xlink:href="#DejaVuSans-52" x="316.699219"/>
       <use xlink:href="#DejaVuSans-2d" x="382.181641"/>
       <use xlink:href="#DejaVuSans-52" x="418.265625"/>
       <use xlink:href="#DejaVuSans-75" x="483.248047"/>
       <use xlink:href="#DejaVuSans-6c" x="546.626953"/>
       <use xlink:href="#DejaVuSans-65" x="574.410156"/>
       <use xlink:href="#DejaVuSans-36" x="635.933594"/>
      </g>
     </g>
    </g>
    <g id="ytick_7">
     <g id="line2d_16">
      <g>
       <use xlink:href="#m7e590959a2" x="57.6" y="197.495089" style="stroke: #000000; stroke-width: 0.8"/>
      </g>
     </g>
     <g id="text_17">
      <!-- SelfAPR-Rule9 -->
      <g transform="translate(-19.35625 201.294307)scale(0.1 -0.1)">
       <defs>
        <path id="DejaVuSans-39" d="M 703 97 
L 703 672 
Q 941 559 1184 500 
Q 1428 441 1663 441 
Q 2288 441 2617 861 
Q 2947 1281 2994 2138 
Q 2813 1869 2534 1725 
Q 2256 1581 1919 1581 
Q 1219 1581 811 2004 
Q 403 2428 403 3163 
Q 403 3881 828 4315 
Q 1253 4750 1959 4750 
Q 2769 4750 3195 4129 
Q 3622 3509 3622 2328 
Q 3622 1225 3098 567 
Q 2575 -91 1691 -91 
Q 1453 -91 1209 -44 
Q 966 3 703 97 
z
M 1959 2075 
Q 2384 2075 2632 2365 
Q 2881 2656 2881 3163 
Q 2881 3666 2632 3958 
Q 2384 4250 1959 4250 
Q 1534 4250 1286 3958 
Q 1038 3666 1038 3163 
Q 1038 2656 1286 2365 
Q 1534 2075 1959 2075 
z
" transform="scale(0.015625)"/>
       </defs>
       <use xlink:href="#DejaVuSans-53"/>
       <use xlink:href="#DejaVuSans-65" x="63.476562"/>
       <use xlink:href="#DejaVuSans-6c" x="125"/>
       <use xlink:href="#DejaVuSans-66" x="152.783203"/>
       <use xlink:href="#DejaVuSans-41" x="187.988281"/>
       <use xlink:href="#DejaVuSans-50" x="256.396484"/>
       <use xlink:href="#DejaVuSans-52" x="316.699219"/>
       <use xlink:href="#DejaVuSans-2d" x="382.181641"/>
       <use xlink:href="#DejaVuSans-52" x="418.265625"/>
       <use xlink:href="#DejaVuSans-75" x="483.248047"/>
       <use xlink:href="#DejaVuSans-6c" x="546.626953"/>
       <use xlink:href="#DejaVuSans-65" x="574.410156"/>
       <use xlink:href="#DejaVuSans-39" x="635.933594"/>
      </g>
     </g>
    </g>
    <g id="ytick_8">
     <g id="line2d_17">
      <g>
       <use xlink:href="#m7e590959a2" x="57.6" y="182.183696" style="stroke: #000000; stroke-width: 0.8"/>
      </g>
     </g>
     <g id="text_18">
      <!-- SelfAPR-Rule13 -->
      <g transform="translate(-25.71875 185.982915)scale(0.1 -0.1)">
       <use xlink:href="#DejaVuSans-53"/>
       <use xlink:href="#DejaVuSans-65" x="63.476562"/>
       <use xlink:href="#DejaVuSans-6c" x="125"/>
       <use xlink:href="#DejaVuSans-66" x="152.783203"/>
       <use xlink:href="#DejaVuSans-41" x="187.988281"/>
       <use xlink:href="#DejaVuSans-50" x="256.396484"/>
       <use xlink:href="#DejaVuSans-52" x="316.699219"/>
       <use xlink:href="#DejaVuSans-2d" x="382.181641"/>
       <use xlink:href="#DejaVuSans-52" x="418.265625"/>
       <use xlink:href="#DejaVuSans-75" x="483.248047"/>
       <use xlink:href="#DejaVuSans-6c" x="546.626953"/>
       <use xlink:href="#DejaVuSans-65" x="574.410156"/>
       <use xlink:href="#DejaVuSans-31" x="635.933594"/>
       <use xlink:href="#DejaVuSans-33" x="699.556641"/>
      </g>
     </g>
    </g>
    <g id="ytick_9">
     <g id="line2d_18">
      <g>
       <use xlink:href="#m7e590959a2" x="57.6" y="166.872304" style="stroke: #000000; stroke-width: 0.8"/>
      </g>
     </g>
     <g id="text_19">
      <!-- SelfAPR-Rule2 -->
      <g transform="translate(-19.35625 170.671523)scale(0.1 -0.1)">
       <use xlink:href="#DejaVuSans-53"/>
       <use xlink:href="#DejaVuSans-65" x="63.476562"/>
       <use xlink:href="#DejaVuSans-6c" x="125"/>
       <use xlink:href="#DejaVuSans-66" x="152.783203"/>
       <use xlink:href="#DejaVuSans-41" x="187.988281"/>
       <use xlink:href="#DejaVuSans-50" x="256.396484"/>
       <use xlink:href="#DejaVuSans-52" x="316.699219"/>
       <use xlink:href="#DejaVuSans-2d" x="382.181641"/>
       <use xlink:href="#DejaVuSans-52" x="418.265625"/>
       <use xlink:href="#DejaVuSans-75" x="483.248047"/>
       <use xlink:href="#DejaVuSans-6c" x="546.626953"/>
       <use xlink:href="#DejaVuSans-65" x="574.410156"/>
       <use xlink:href="#DejaVuSans-32" x="635.933594"/>
      </g>
     </g>
    </g>
    <g id="ytick_10">
     <g id="line2d_19">
      <g>
       <use xlink:href="#m7e590959a2" x="57.6" y="151.560911" style="stroke: #000000; stroke-width: 0.8"/>
      </g>
     </g>
     <g id="text_20">
      <!-- SelfAPR-Rule14 -->
      <g transform="translate(-25.71875 155.36013)scale(0.1 -0.1)">
       <use xlink:href="#DejaVuSans-53"/>
       <use xlink:href="#DejaVuSans-65" x="63.476562"/>
       <use xlink:href="#DejaVuSans-6c" x="125"/>
       <use xlink:href="#DejaVuSans-66" x="152.783203"/>
       <use xlink:href="#DejaVuSans-41" x="187.988281"/>
       <use xlink:href="#DejaVuSans-50" x="256.396484"/>
       <use xlink:href="#DejaVuSans-52" x="316.699219"/>
       <use xlink:href="#DejaVuSans-2d" x="382.181641"/>
       <use xlink:href="#DejaVuSans-52" x="418.265625"/>
       <use xlink:href="#DejaVuSans-75" x="483.248047"/>
       <use xlink:href="#DejaVuSans-6c" x="546.626953"/>
       <use xlink:href="#DejaVuSans-65" x="574.410156"/>
       <use xlink:href="#DejaVuSans-31" x="635.933594"/>
       <use xlink:href="#DejaVuSans-34" x="699.556641"/>
      </g>
     </g>
    </g>
    <g id="ytick_11">
     <g id="line2d_20">
      <g>
       <use xlink:href="#m7e590959a2" x="57.6" y="136.249519" style="stroke: #000000; stroke-width: 0.8"/>
      </g>
     </g>
     <g id="text_21">
      <!-- SelfAPR-Rule7 -->
      <g transform="translate(-19.35625 140.048738)scale(0.1 -0.1)">
       <use xlink:href="#DejaVuSans-53"/>
       <use xlink:href="#DejaVuSans-65" x="63.476562"/>
       <use xlink:href="#DejaVuSans-6c" x="125"/>
       <use xlink:href="#DejaVuSans-66" x="152.783203"/>
       <use xlink:href="#DejaVuSans-41" x="187.988281"/>
       <use xlink:href="#DejaVuSans-50" x="256.396484"/>
       <use xlink:href="#DejaVuSans-52" x="316.699219"/>
       <use xlink:href="#DejaVuSans-2d" x="382.181641"/>
       <use xlink:href="#DejaVuSans-52" x="418.265625"/>
       <use xlink:href="#DejaVuSans-75" x="483.248047"/>
       <use xlink:href="#DejaVuSans-6c" x="546.626953"/>
       <use xlink:href="#DejaVuSans-65" x="574.410156"/>
       <use xlink:href="#DejaVuSans-37" x="635.933594"/>
      </g>
     </g>
    </g>
    <g id="ytick_12">
     <g id="line2d_21">
      <g>
       <use xlink:href="#m7e590959a2" x="57.6" y="120.938127" style="stroke: #000000; stroke-width: 0.8"/>
      </g>
     </g>
     <g id="text_22">
      <!-- SelfAPR-Rule8 -->
      <g transform="translate(-19.35625 124.737345)scale(0.1 -0.1)">
       <use xlink:href="#DejaVuSans-53"/>
       <use xlink:href="#DejaVuSans-65" x="63.476562"/>
       <use xlink:href="#DejaVuSans-6c" x="125"/>
       <use xlink:href="#DejaVuSans-66" x="152.783203"/>
       <use xlink:href="#DejaVuSans-41" x="187.988281"/>
       <use xlink:href="#DejaVuSans-50" x="256.396484"/>
       <use xlink:href="#DejaVuSans-52" x="316.699219"/>
       <use xlink:href="#DejaVuSans-2d" x="382.181641"/>
       <use xlink:href="#DejaVuSans-52" x="418.265625"/>
       <use xlink:href="#DejaVuSans-75" x="483.248047"/>
       <use xlink:href="#DejaVuSans-6c" x="546.626953"/>
       <use xlink:href="#DejaVuSans-65" x="574.410156"/>
       <use xlink:href="#DejaVuSans-38" x="635.933594"/>
      </g>
     </g>
    </g>
    <g id="ytick_13">
     <g id="line2d_22">
      <g>
       <use xlink:href="#m7e590959a2" x="57.6" y="105.626734" style="stroke: #000000; stroke-width: 0.8"/>
      </g>
     </g>
     <g id="text_23">
      <!-- SelfAPR-Rule3 -->
      <g transform="translate(-19.35625 109.425953)scale(0.1 -0.1)">
       <use xlink:href="#DejaVuSans-53"/>
       <use xlink:href="#DejaVuSans-65" x="63.476562"/>
       <use xlink:href="#DejaVuSans-6c" x="125"/>
       <use xlink:href="#DejaVuSans-66" x="152.783203"/>
       <use xlink:href="#DejaVuSans-41" x="187.988281"/>
       <use xlink:href="#DejaVuSans-50" x="256.396484"/>
       <use xlink:href="#DejaVuSans-52" x="316.699219"/>
       <use xlink:href="#DejaVuSans-2d" x="382.181641"/>
       <use xlink:href="#DejaVuSans-52" x="418.265625"/>
       <use xlink:href="#DejaVuSans-75" x="483.248047"/>
       <use xlink:href="#DejaVuSans-6c" x="546.626953"/>
       <use xlink:href="#DejaVuSans-65" x="574.410156"/>
       <use xlink:href="#DejaVuSans-33" x="635.933594"/>
      </g>
     </g>
    </g>
    <g id="ytick_14">
     <g id="line2d_23">
      <g>
       <use xlink:href="#m7e590959a2" x="57.6" y="90.315342" style="stroke: #000000; stroke-width: 0.8"/>
      </g>
     </g>
     <g id="text_24">
      <!-- SelfAPR-Rule10 -->
      <g transform="translate(-25.71875 94.114561)scale(0.1 -0.1)">
       <use xlink:href="#DejaVuSans-53"/>
       <use xlink:href="#DejaVuSans-65" x="63.476562"/>
       <use xlink:href="#DejaVuSans-6c" x="125"/>
       <use xlink:href="#DejaVuSans-66" x="152.783203"/>
       <use xlink:href="#DejaVuSans-41" x="187.988281"/>
       <use xlink:href="#DejaVuSans-50" x="256.396484"/>
       <use xlink:href="#DejaVuSans-52" x="316.699219"/>
       <use xlink:href="#DejaVuSans-2d" x="382.181641"/>
       <use xlink:href="#DejaVuSans-52" x="418.265625"/>
       <use xlink:href="#DejaVuSans-75" x="483.248047"/>
       <use xlink:href="#DejaVuSans-6c" x="546.626953"/>
       <use xlink:href="#DejaVuSans-65" x="574.410156"/>
       <use xlink:href="#DejaVuSans-31" x="635.933594"/>
       <use xlink:href="#DejaVuSans-30" x="699.556641"/>
      </g>
     </g>
    </g>
    <g id="ytick_15">
     <g id="line2d_24">
      <g>
       <use xlink:href="#m7e590959a2" x="57.6" y="75.003949" style="stroke: #000000; stroke-width: 0.8"/>
      </g>
     </g>
     <g id="text_25">
      <!-- SelfAPR-Rule5 -->
      <g transform="translate(-19.35625 78.803168)scale(0.1 -0.1)">
       <use xlink:href="#DejaVuSans-53"/>
       <use xlink:href="#DejaVuSans-65" x="63.476562"/>
       <use xlink:href="#DejaVuSans-6c" x="125"/>
       <use xlink:href="#DejaVuSans-66" x="152.783203"/>
       <use xlink:href="#DejaVuSans-41" x="187.988281"/>
       <use xlink:href="#DejaVuSans-50" x="256.396484"/>
       <use xlink:href="#DejaVuSans-52" x="316.699219"/>
       <use xlink:href="#DejaVuSans-2d" x="382.181641"/>
       <use xlink:href="#DejaVuSans-52" x="418.265625"/>
       <use xlink:href="#DejaVuSans-75" x="483.248047"/>
       <use xlink:href="#DejaVuSans-6c" x="546.626953"/>
       <use xlink:href="#DejaVuSans-65" x="574.410156"/>
       <use xlink:href="#DejaVuSans-35" x="635.933594"/>
      </g>
     </g>
    </g>
    <g id="ytick_16">
     <g id="line2d_25">
      <g>
       <use xlink:href="#m7e590959a2" x="57.6" y="59.692557" style="stroke: #000000; stroke-width: 0.8"/>
      </g>
     </g>
     <g id="text_26">
      <!-- SelfAPR-Rule11 -->
      <g transform="translate(-25.71875 63.491776)scale(0.1 -0.1)">
       <use xlink:href="#DejaVuSans-53"/>
       <use xlink:href="#DejaVuSans-65" x="63.476562"/>
       <use xlink:href="#DejaVuSans-6c" x="125"/>
       <use xlink:href="#DejaVuSans-66" x="152.783203"/>
       <use xlink:href="#DejaVuSans-41" x="187.988281"/>
       <use xlink:href="#DejaVuSans-50" x="256.396484"/>
       <use xlink:href="#DejaVuSans-52" x="316.699219"/>
       <use xlink:href="#DejaVuSans-2d" x="382.181641"/>
       <use xlink:href="#DejaVuSans-52" x="418.265625"/>
       <use xlink:href="#DejaVuSans-75" x="483.248047"/>
       <use xlink:href="#DejaVuSans-6c" x="546.626953"/>
       <use xlink:href="#DejaVuSans-65" x="574.410156"/>
       <use xlink:href="#DejaVuSans-31" x="635.933594"/>
       <use xlink:href="#DejaVuSans-31" x="699.556641"/>
      </g>
     </g>
    </g>
   </g>
   <g id="patch_19">
    <path d="M 57.6 307.584 
L 57.6 41.472 
" style="fill: none; stroke: #000000; stroke-width: 0.8; stroke-linejoin: miter; stroke-linecap: square"/>
   </g>
   <g id="patch_20">
    <path d="M 414.72 307.584 
L 414.72 41.472 
" style="fill: none; stroke: #000000; stroke-width: 0.8; stroke-linejoin: miter; stroke-linecap: square"/>
   </g>
   <g id="patch_21">
    <path d="M 57.6 307.584 
L 414.72 307.584 
" style="fill: none; stroke: #000000; stroke-width: 0.8; stroke-linejoin: miter; stroke-linecap: square"/>
   </g>
   <g id="patch_22">
    <path d="M 57.6 41.472 
L 414.72 41.472 
" style="fill: none; stroke: #000000; stroke-width: 0.8; stroke-linejoin: miter; stroke-linecap: square"/>
   </g>
  </g>
 </g>
 <defs>
  <clipPath id="pe50e1244b4">
   <rect x="57.6" y="41.472" width="357.12" height="266.112"/>
  </clipPath>
 </defs>
</svg>
