<?xml version="1.0" encoding="utf-8" standalone="no"?>
<!DOCTYPE svg PUBLIC "-//W3C//DTD SVG 1.1//EN"
  "http://www.w3.org/Graphics/SVG/1.1/DTD/svg11.dtd">
<svg xmlns:xlink="http://www.w3.org/1999/xlink" width="460.8pt" height="345.6pt" viewBox="0 0 460.8 345.6" xmlns="http://www.w3.org/2000/svg" version="1.1">
 <metadata>
  <rdf:RDF xmlns:dc="http://purl.org/dc/elements/1.1/" xmlns:cc="http://creativecommons.org/ns#" xmlns:rdf="http://www.w3.org/1999/02/22-rdf-syntax-ns#">
   <cc:Work>
    <dc:type rdf:resource="http://purl.org/dc/dcmitype/StillImage"/>
    <dc:date>2022-10-25T18:58:26.969768</dc:date>
    <dc:format>image/svg+xml</dc:format>
    <dc:creator>
     <cc:Agent>
      <dc:title>Matplotlib v3.5.2, https://matplotlib.org/</dc:title>
     </cc:Agent>
    </dc:creator>
   </cc:Work>
  </rdf:RDF>
 </metadata>
 <defs>
  <style type="text/css">*{stroke-linejoin: round; stroke-linecap: butt}</style>
 </defs>
 <g id="figure_1">
  <g id="patch_1">
   <path d="M 0 345.6 
L 460.8 345.6 
L 460.8 0 
L 0 0 
z
" style="fill: #ffffff"/>
  </g>
  <g id="axes_1">
   <g id="patch_2">
    <path d="M 44.66 303.64 
L 450 303.64 
L 450 10.8 
L 44.66 10.8 
z
" style="fill: #ffffff"/>
   </g>
   <g id="matplotlib.axis_1">
    <g id="xtick_1">
     <g id="line2d_1">
      <defs>
       <path id="mcb47d52910" d="M 0 0 
L 0 3.5 
" style="stroke: #000000; stroke-width: 0.8"/>
      </defs>
      <g>
       <use xlink:href="#mcb47d52910" x="59.362415" y="303.64" style="stroke: #000000; stroke-width: 0.8"/>
      </g>
     </g>
     <g id="text_1">
      <!-- 0 -->
      <g transform="translate(56.181165 318.238437)scale(0.1 -0.1)">
       <defs>
        <path id="DejaVuSans-30" d="M 2034 4250 
Q 1547 4250 1301 3770 
Q 1056 3291 1056 2328 
Q 1056 1369 1301 889 
Q 1547 409 2034 409 
Q 2525 409 2770 889 
Q 3016 1369 3016 2328 
Q 3016 3291 2770 3770 
Q 2525 4250 2034 4250 
z
M 2034 4750 
Q 2819 4750 3233 4129 
Q 3647 3509 3647 2328 
Q 3647 1150 3233 529 
Q 2819 -91 2034 -91 
Q 1250 -91 836 529 
Q 422 1150 422 2328 
Q 422 3509 836 4129 
Q 1250 4750 2034 4750 
z
" transform="scale(0.015625)"/>
       </defs>
       <use xlink:href="#DejaVuSans-30"/>
      </g>
     </g>
    </g>
    <g id="xtick_2">
     <g id="line2d_2">
      <g>
       <use xlink:href="#mcb47d52910" x="133.805023" y="303.64" style="stroke: #000000; stroke-width: 0.8"/>
      </g>
     </g>
     <g id="text_2">
      <!-- 20 -->
      <g transform="translate(127.442523 318.238437)scale(0.1 -0.1)">
       <defs>
        <path id="DejaVuSans-32" d="M 1228 531 
L 3431 531 
L 3431 0 
L 469 0 
L 469 531 
Q 828 903 1448 1529 
Q 2069 2156 2228 2338 
Q 2531 2678 2651 2914 
Q 2772 3150 2772 3378 
Q 2772 3750 2511 3984 
Q 2250 4219 1831 4219 
Q 1534 4219 1204 4116 
Q 875 4013 500 3803 
L 500 4441 
Q 881 4594 1212 4672 
Q 1544 4750 1819 4750 
Q 2544 4750 2975 4387 
Q 3406 4025 3406 3419 
Q 3406 3131 3298 2873 
Q 3191 2616 2906 2266 
Q 2828 2175 2409 1742 
Q 1991 1309 1228 531 
z
" transform="scale(0.015625)"/>
       </defs>
       <use xlink:href="#DejaVuSans-32"/>
       <use xlink:href="#DejaVuSans-30" x="63.623047"/>
      </g>
     </g>
    </g>
    <g id="xtick_3">
     <g id="line2d_3">
      <g>
       <use xlink:href="#mcb47d52910" x="208.247631" y="303.64" style="stroke: #000000; stroke-width: 0.8"/>
      </g>
     </g>
     <g id="text_3">
      <!-- 40 -->
      <g transform="translate(201.885131 318.238437)scale(0.1 -0.1)">
       <defs>
        <path id="DejaVuSans-34" d="M 2419 4116 
L 825 1625 
L 2419 1625 
L 2419 4116 
z
M 2253 4666 
L 3047 4666 
L 3047 1625 
L 3713 1625 
L 3713 1100 
L 3047 1100 
L 3047 0 
L 2419 0 
L 2419 1100 
L 313 1100 
L 313 1709 
L 2253 4666 
z
" transform="scale(0.015625)"/>
       </defs>
       <use xlink:href="#DejaVuSans-34"/>
       <use xlink:href="#DejaVuSans-30" x="63.623047"/>
      </g>
     </g>
    </g>
    <g id="xtick_4">
     <g id="line2d_4">
      <g>
       <use xlink:href="#mcb47d52910" x="282.690239" y="303.64" style="stroke: #000000; stroke-width: 0.8"/>
      </g>
     </g>
     <g id="text_4">
      <!-- 60 -->
      <g transform="translate(276.327739 318.238437)scale(0.1 -0.1)">
       <defs>
        <path id="DejaVuSans-36" d="M 2113 2584 
Q 1688 2584 1439 2293 
Q 1191 2003 1191 1497 
Q 1191 994 1439 701 
Q 1688 409 2113 409 
Q 2538 409 2786 701 
Q 3034 994 3034 1497 
Q 3034 2003 2786 2293 
Q 2538 2584 2113 2584 
z
M 3366 4563 
L 3366 3988 
Q 3128 4100 2886 4159 
Q 2644 4219 2406 4219 
Q 1781 4219 1451 3797 
Q 1122 3375 1075 2522 
Q 1259 2794 1537 2939 
Q 1816 3084 2150 3084 
Q 2853 3084 3261 2657 
Q 3669 2231 3669 1497 
Q 3669 778 3244 343 
Q 2819 -91 2113 -91 
Q 1303 -91 875 529 
Q 447 1150 447 2328 
Q 447 3434 972 4092 
Q 1497 4750 2381 4750 
Q 2619 4750 2861 4703 
Q 3103 4656 3366 4563 
z
" transform="scale(0.015625)"/>
       </defs>
       <use xlink:href="#DejaVuSans-36"/>
       <use xlink:href="#DejaVuSans-30" x="63.623047"/>
      </g>
     </g>
    </g>
    <g id="xtick_5">
     <g id="line2d_5">
      <g>
       <use xlink:href="#mcb47d52910" x="357.132847" y="303.64" style="stroke: #000000; stroke-width: 0.8"/>
      </g>
     </g>
     <g id="text_5">
      <!-- 80 -->
      <g transform="translate(350.770347 318.238437)scale(0.1 -0.1)">
       <defs>
        <path id="DejaVuSans-38" d="M 2034 2216 
Q 1584 2216 1326 1975 
Q 1069 1734 1069 1313 
Q 1069 891 1326 650 
Q 1584 409 2034 409 
Q 2484 409 2743 651 
Q 3003 894 3003 1313 
Q 3003 1734 2745 1975 
Q 2488 2216 2034 2216 
z
M 1403 2484 
Q 997 2584 770 2862 
Q 544 3141 544 3541 
Q 544 4100 942 4425 
Q 1341 4750 2034 4750 
Q 2731 4750 3128 4425 
Q 3525 4100 3525 3541 
Q 3525 3141 3298 2862 
Q 3072 2584 2669 2484 
Q 3125 2378 3379 2068 
Q 3634 1759 3634 1313 
Q 3634 634 3220 271 
Q 2806 -91 2034 -91 
Q 1263 -91 848 271 
Q 434 634 434 1313 
Q 434 1759 690 2068 
Q 947 2378 1403 2484 
z
M 1172 3481 
Q 1172 3119 1398 2916 
Q 1625 2713 2034 2713 
Q 2441 2713 2670 2916 
Q 2900 3119 2900 3481 
Q 2900 3844 2670 4047 
Q 2441 4250 2034 4250 
Q 1625 4250 1398 4047 
Q 1172 3844 1172 3481 
z
" transform="scale(0.015625)"/>
       </defs>
       <use xlink:href="#DejaVuSans-38"/>
       <use xlink:href="#DejaVuSans-30" x="63.623047"/>
      </g>
     </g>
    </g>
    <g id="xtick_6">
     <g id="line2d_6">
      <g>
       <use xlink:href="#mcb47d52910" x="431.575455" y="303.64" style="stroke: #000000; stroke-width: 0.8"/>
      </g>
     </g>
     <g id="text_6">
      <!-- 100 -->
      <g transform="translate(422.031705 318.238437)scale(0.1 -0.1)">
       <defs>
        <path id="DejaVuSans-31" d="M 794 531 
L 1825 531 
L 1825 4091 
L 703 3866 
L 703 4441 
L 1819 4666 
L 2450 4666 
L 2450 531 
L 3481 531 
L 3481 0 
L 794 0 
L 794 531 
z
" transform="scale(0.015625)"/>
       </defs>
       <use xlink:href="#DejaVuSans-31"/>
       <use xlink:href="#DejaVuSans-30" x="63.623047"/>
       <use xlink:href="#DejaVuSans-30" x="127.246094"/>
      </g>
     </g>
    </g>
    <g id="text_7">
     <!-- Beam size -->
     <g transform="translate(221.605 331.916562)scale(0.1 -0.1)">
      <defs>
       <path id="DejaVuSans-42" d="M 1259 2228 
L 1259 519 
L 2272 519 
Q 2781 519 3026 730 
Q 3272 941 3272 1375 
Q 3272 1813 3026 2020 
Q 2781 2228 2272 2228 
L 1259 2228 
z
M 1259 4147 
L 1259 2741 
L 2194 2741 
Q 2656 2741 2882 2914 
Q 3109 3088 3109 3444 
Q 3109 3797 2882 3972 
Q 2656 4147 2194 4147 
L 1259 4147 
z
M 628 4666 
L 2241 4666 
Q 2963 4666 3353 4366 
Q 3744 4066 3744 3513 
Q 3744 3084 3544 2831 
Q 3344 2578 2956 2516 
Q 3422 2416 3680 2098 
Q 3938 1781 3938 1306 
Q 3938 681 3513 340 
Q 3088 0 2303 0 
L 628 0 
L 628 4666 
z
" transform="scale(0.015625)"/>
       <path id="DejaVuSans-65" d="M 3597 1894 
L 3597 1613 
L 953 1613 
Q 991 1019 1311 708 
Q 1631 397 2203 397 
Q 2534 397 2845 478 
Q 3156 559 3463 722 
L 3463 178 
Q 3153 47 2828 -22 
Q 2503 -91 2169 -91 
Q 1331 -91 842 396 
Q 353 884 353 1716 
Q 353 2575 817 3079 
Q 1281 3584 2069 3584 
Q 2775 3584 3186 3129 
Q 3597 2675 3597 1894 
z
M 3022 2063 
Q 3016 2534 2758 2815 
Q 2500 3097 2075 3097 
Q 1594 3097 1305 2825 
Q 1016 2553 972 2059 
L 3022 2063 
z
" transform="scale(0.015625)"/>
       <path id="DejaVuSans-61" d="M 2194 1759 
Q 1497 1759 1228 1600 
Q 959 1441 959 1056 
Q 959 750 1161 570 
Q 1363 391 1709 391 
Q 2188 391 2477 730 
Q 2766 1069 2766 1631 
L 2766 1759 
L 2194 1759 
z
M 3341 1997 
L 3341 0 
L 2766 0 
L 2766 531 
Q 2569 213 2275 61 
Q 1981 -91 1556 -91 
Q 1019 -91 701 211 
Q 384 513 384 1019 
Q 384 1609 779 1909 
Q 1175 2209 1959 2209 
L 2766 2209 
L 2766 2266 
Q 2766 2663 2505 2880 
Q 2244 3097 1772 3097 
Q 1472 3097 1187 3025 
Q 903 2953 641 2809 
L 641 3341 
Q 956 3463 1253 3523 
Q 1550 3584 1831 3584 
Q 2591 3584 2966 3190 
Q 3341 2797 3341 1997 
z
" transform="scale(0.015625)"/>
       <path id="DejaVuSans-6d" d="M 3328 2828 
Q 3544 3216 3844 3400 
Q 4144 3584 4550 3584 
Q 5097 3584 5394 3201 
Q 5691 2819 5691 2113 
L 5691 0 
L 5113 0 
L 5113 2094 
Q 5113 2597 4934 2840 
Q 4756 3084 4391 3084 
Q 3944 3084 3684 2787 
Q 3425 2491 3425 1978 
L 3425 0 
L 2847 0 
L 2847 2094 
Q 2847 2600 2669 2842 
Q 2491 3084 2119 3084 
Q 1678 3084 1418 2786 
Q 1159 2488 1159 1978 
L 1159 0 
L 581 0 
L 581 3500 
L 1159 3500 
L 1159 2956 
Q 1356 3278 1631 3431 
Q 1906 3584 2284 3584 
Q 2666 3584 2933 3390 
Q 3200 3197 3328 2828 
z
" transform="scale(0.015625)"/>
       <path id="DejaVuSans-20" transform="scale(0.015625)"/>
       <path id="DejaVuSans-73" d="M 2834 3397 
L 2834 2853 
Q 2591 2978 2328 3040 
Q 2066 3103 1784 3103 
Q 1356 3103 1142 2972 
Q 928 2841 928 2578 
Q 928 2378 1081 2264 
Q 1234 2150 1697 2047 
L 1894 2003 
Q 2506 1872 2764 1633 
Q 3022 1394 3022 966 
Q 3022 478 2636 193 
Q 2250 -91 1575 -91 
Q 1294 -91 989 -36 
Q 684 19 347 128 
L 347 722 
Q 666 556 975 473 
Q 1284 391 1588 391 
Q 1994 391 2212 530 
Q 2431 669 2431 922 
Q 2431 1156 2273 1281 
Q 2116 1406 1581 1522 
L 1381 1569 
Q 847 1681 609 1914 
Q 372 2147 372 2553 
Q 372 3047 722 3315 
Q 1072 3584 1716 3584 
Q 2034 3584 2315 3537 
Q 2597 3491 2834 3397 
z
" transform="scale(0.015625)"/>
       <path id="DejaVuSans-69" d="M 603 3500 
L 1178 3500 
L 1178 0 
L 603 0 
L 603 3500 
z
M 603 4863 
L 1178 4863 
L 1178 4134 
L 603 4134 
L 603 4863 
z
" transform="scale(0.015625)"/>
       <path id="DejaVuSans-7a" d="M 353 3500 
L 3084 3500 
L 3084 2975 
L 922 459 
L 3084 459 
L 3084 0 
L 275 0 
L 275 525 
L 2438 3041 
L 353 3041 
L 353 3500 
z
" transform="scale(0.015625)"/>
      </defs>
      <use xlink:href="#DejaVuSans-42"/>
      <use xlink:href="#DejaVuSans-65" x="68.603516"/>
      <use xlink:href="#DejaVuSans-61" x="130.126953"/>
      <use xlink:href="#DejaVuSans-6d" x="191.40625"/>
      <use xlink:href="#DejaVuSans-20" x="288.818359"/>
      <use xlink:href="#DejaVuSans-73" x="320.605469"/>
      <use xlink:href="#DejaVuSans-69" x="372.705078"/>
      <use xlink:href="#DejaVuSans-7a" x="400.488281"/>
      <use xlink:href="#DejaVuSans-65" x="452.978516"/>
     </g>
    </g>
   </g>
   <g id="matplotlib.axis_2">
    <g id="ytick_1">
     <g id="line2d_7">
      <defs>
       <path id="m064224e2bb" d="M 0 0 
L -3.5 0 
" style="stroke: #000000; stroke-width: 0.8"/>
      </defs>
      <g>
       <use xlink:href="#m064224e2bb" x="44.66" y="303.64" style="stroke: #000000; stroke-width: 0.8"/>
      </g>
     </g>
     <g id="text_8">
      <!-- 0 -->
      <g transform="translate(31.2975 307.439219)scale(0.1 -0.1)">
       <use xlink:href="#DejaVuSans-30"/>
      </g>
     </g>
    </g>
    <g id="ytick_2">
     <g id="line2d_8">
      <g>
       <use xlink:href="#m064224e2bb" x="44.66" y="277.599362" style="stroke: #000000; stroke-width: 0.8"/>
      </g>
     </g>
     <g id="text_9">
      <!-- 1 -->
      <g transform="translate(31.2975 281.39858)scale(0.1 -0.1)">
       <use xlink:href="#DejaVuSans-31"/>
      </g>
     </g>
    </g>
    <g id="ytick_3">
     <g id="line2d_9">
      <g>
       <use xlink:href="#m064224e2bb" x="44.66" y="251.558723" style="stroke: #000000; stroke-width: 0.8"/>
      </g>
     </g>
     <g id="text_10">
      <!-- 2 -->
      <g transform="translate(31.2975 255.357942)scale(0.1 -0.1)">
       <use xlink:href="#DejaVuSans-32"/>
      </g>
     </g>
    </g>
    <g id="ytick_4">
     <g id="line2d_10">
      <g>
       <use xlink:href="#m064224e2bb" x="44.66" y="225.518085" style="stroke: #000000; stroke-width: 0.8"/>
      </g>
     </g>
     <g id="text_11">
      <!-- 3 -->
      <g transform="translate(31.2975 229.317303)scale(0.1 -0.1)">
       <defs>
        <path id="DejaVuSans-33" d="M 2597 2516 
Q 3050 2419 3304 2112 
Q 3559 1806 3559 1356 
Q 3559 666 3084 287 
Q 2609 -91 1734 -91 
Q 1441 -91 1130 -33 
Q 819 25 488 141 
L 488 750 
Q 750 597 1062 519 
Q 1375 441 1716 441 
Q 2309 441 2620 675 
Q 2931 909 2931 1356 
Q 2931 1769 2642 2001 
Q 2353 2234 1838 2234 
L 1294 2234 
L 1294 2753 
L 1863 2753 
Q 2328 2753 2575 2939 
Q 2822 3125 2822 3475 
Q 2822 3834 2567 4026 
Q 2313 4219 1838 4219 
Q 1578 4219 1281 4162 
Q 984 4106 628 3988 
L 628 4550 
Q 988 4650 1302 4700 
Q 1616 4750 1894 4750 
Q 2613 4750 3031 4423 
Q 3450 4097 3450 3541 
Q 3450 3153 3228 2886 
Q 3006 2619 2597 2516 
z
" transform="scale(0.015625)"/>
       </defs>
       <use xlink:href="#DejaVuSans-33"/>
      </g>
     </g>
    </g>
    <g id="ytick_5">
     <g id="line2d_11">
      <g>
       <use xlink:href="#m064224e2bb" x="44.66" y="199.477446" style="stroke: #000000; stroke-width: 0.8"/>
      </g>
     </g>
     <g id="text_12">
      <!-- 4 -->
      <g transform="translate(31.2975 203.276665)scale(0.1 -0.1)">
       <use xlink:href="#DejaVuSans-34"/>
      </g>
     </g>
    </g>
    <g id="ytick_6">
     <g id="line2d_12">
      <g>
       <use xlink:href="#m064224e2bb" x="44.66" y="173.436808" style="stroke: #000000; stroke-width: 0.8"/>
      </g>
     </g>
     <g id="text_13">
      <!-- 5 -->
      <g transform="translate(31.2975 177.236026)scale(0.1 -0.1)">
       <defs>
        <path id="DejaVuSans-35" d="M 691 4666 
L 3169 4666 
L 3169 4134 
L 1269 4134 
L 1269 2991 
Q 1406 3038 1543 3061 
Q 1681 3084 1819 3084 
Q 2600 3084 3056 2656 
Q 3513 2228 3513 1497 
Q 3513 744 3044 326 
Q 2575 -91 1722 -91 
Q 1428 -91 1123 -41 
Q 819 9 494 109 
L 494 744 
Q 775 591 1075 516 
Q 1375 441 1709 441 
Q 2250 441 2565 725 
Q 2881 1009 2881 1497 
Q 2881 1984 2565 2268 
Q 2250 2553 1709 2553 
Q 1456 2553 1204 2497 
Q 953 2441 691 2322 
L 691 4666 
z
" transform="scale(0.015625)"/>
       </defs>
       <use xlink:href="#DejaVuSans-35"/>
      </g>
     </g>
    </g>
    <g id="ytick_7">
     <g id="line2d_13">
      <g>
       <use xlink:href="#m064224e2bb" x="44.66" y="147.396169" style="stroke: #000000; stroke-width: 0.8"/>
      </g>
     </g>
     <g id="text_14">
      <!-- 6 -->
      <g transform="translate(31.2975 151.195388)scale(0.1 -0.1)">
       <use xlink:href="#DejaVuSans-36"/>
      </g>
     </g>
    </g>
    <g id="ytick_8">
     <g id="line2d_14">
      <g>
       <use xlink:href="#m064224e2bb" x="44.66" y="121.355531" style="stroke: #000000; stroke-width: 0.8"/>
      </g>
     </g>
     <g id="text_15">
      <!-- 7 -->
      <g transform="translate(31.2975 125.154749)scale(0.1 -0.1)">
       <defs>
        <path id="DejaVuSans-37" d="M 525 4666 
L 3525 4666 
L 3525 4397 
L 1831 0 
L 1172 0 
L 2766 4134 
L 525 4134 
L 525 4666 
z
" transform="scale(0.015625)"/>
       </defs>
       <use xlink:href="#DejaVuSans-37"/>
      </g>
     </g>
    </g>
    <g id="ytick_9">
     <g id="line2d_15">
      <g>
       <use xlink:href="#m064224e2bb" x="44.66" y="95.314892" style="stroke: #000000; stroke-width: 0.8"/>
      </g>
     </g>
     <g id="text_16">
      <!-- 8 -->
      <g transform="translate(31.2975 99.114111)scale(0.1 -0.1)">
       <use xlink:href="#DejaVuSans-38"/>
      </g>
     </g>
    </g>
    <g id="ytick_10">
     <g id="line2d_16">
      <g>
       <use xlink:href="#m064224e2bb" x="44.66" y="69.274254" style="stroke: #000000; stroke-width: 0.8"/>
      </g>
     </g>
     <g id="text_17">
      <!-- 9 -->
      <g transform="translate(31.2975 73.073472)scale(0.1 -0.1)">
       <defs>
        <path id="DejaVuSans-39" d="M 703 97 
L 703 672 
Q 941 559 1184 500 
Q 1428 441 1663 441 
Q 2288 441 2617 861 
Q 2947 1281 2994 2138 
Q 2813 1869 2534 1725 
Q 2256 1581 1919 1581 
Q 1219 1581 811 2004 
Q 403 2428 403 3163 
Q 403 3881 828 4315 
Q 1253 4750 1959 4750 
Q 2769 4750 3195 4129 
Q 3622 3509 3622 2328 
Q 3622 1225 3098 567 
Q 2575 -91 1691 -91 
Q 1453 -91 1209 -44 
Q 966 3 703 97 
z
M 1959 2075 
Q 2384 2075 2632 2365 
Q 2881 2656 2881 3163 
Q 2881 3666 2632 3958 
Q 2384 4250 1959 4250 
Q 1534 4250 1286 3958 
Q 1038 3666 1038 3163 
Q 1038 2656 1286 2365 
Q 1534 2075 1959 2075 
z
" transform="scale(0.015625)"/>
       </defs>
       <use xlink:href="#DejaVuSans-39"/>
      </g>
     </g>
    </g>
    <g id="ytick_11">
     <g id="line2d_17">
      <g>
       <use xlink:href="#m064224e2bb" x="44.66" y="43.233615" style="stroke: #000000; stroke-width: 0.8"/>
      </g>
     </g>
     <g id="text_18">
      <!-- 10 -->
      <g transform="translate(24.935 47.032834)scale(0.1 -0.1)">
       <use xlink:href="#DejaVuSans-31"/>
       <use xlink:href="#DejaVuSans-30" x="63.623047"/>
      </g>
     </g>
    </g>
    <g id="ytick_12">
     <g id="line2d_18">
      <g>
       <use xlink:href="#m064224e2bb" x="44.66" y="17.192977" style="stroke: #000000; stroke-width: 0.8"/>
      </g>
     </g>
     <g id="text_19">
      <!-- 11 -->
      <g transform="translate(24.935 20.992195)scale(0.1 -0.1)">
       <use xlink:href="#DejaVuSans-31"/>
       <use xlink:href="#DejaVuSans-31" x="63.623047"/>
      </g>
     </g>
    </g>
    <g id="text_20">
     <!-- Percentage of cumulative compilable patches -->
     <g transform="translate(18.855313 271.446563)rotate(-90)scale(0.1 -0.1)">
      <defs>
       <path id="DejaVuSans-50" d="M 1259 4147 
L 1259 2394 
L 2053 2394 
Q 2494 2394 2734 2622 
Q 2975 2850 2975 3272 
Q 2975 3691 2734 3919 
Q 2494 4147 2053 4147 
L 1259 4147 
z
M 628 4666 
L 2053 4666 
Q 2838 4666 3239 4311 
Q 3641 3956 3641 3272 
Q 3641 2581 3239 2228 
Q 2838 1875 2053 1875 
L 1259 1875 
L 1259 0 
L 628 0 
L 628 4666 
z
" transform="scale(0.015625)"/>
       <path id="DejaVuSans-72" d="M 2631 2963 
Q 2534 3019 2420 3045 
Q 2306 3072 2169 3072 
Q 1681 3072 1420 2755 
Q 1159 2438 1159 1844 
L 1159 0 
L 581 0 
L 581 3500 
L 1159 3500 
L 1159 2956 
Q 1341 3275 1631 3429 
Q 1922 3584 2338 3584 
Q 2397 3584 2469 3576 
Q 2541 3569 2628 3553 
L 2631 2963 
z
" transform="scale(0.015625)"/>
       <path id="DejaVuSans-63" d="M 3122 3366 
L 3122 2828 
Q 2878 2963 2633 3030 
Q 2388 3097 2138 3097 
Q 1578 3097 1268 2742 
Q 959 2388 959 1747 
Q 959 1106 1268 751 
Q 1578 397 2138 397 
Q 2388 397 2633 464 
Q 2878 531 3122 666 
L 3122 134 
Q 2881 22 2623 -34 
Q 2366 -91 2075 -91 
Q 1284 -91 818 406 
Q 353 903 353 1747 
Q 353 2603 823 3093 
Q 1294 3584 2113 3584 
Q 2378 3584 2631 3529 
Q 2884 3475 3122 3366 
z
" transform="scale(0.015625)"/>
       <path id="DejaVuSans-6e" d="M 3513 2113 
L 3513 0 
L 2938 0 
L 2938 2094 
Q 2938 2591 2744 2837 
Q 2550 3084 2163 3084 
Q 1697 3084 1428 2787 
Q 1159 2491 1159 1978 
L 1159 0 
L 581 0 
L 581 3500 
L 1159 3500 
L 1159 2956 
Q 1366 3272 1645 3428 
Q 1925 3584 2291 3584 
Q 2894 3584 3203 3211 
Q 3513 2838 3513 2113 
z
" transform="scale(0.015625)"/>
       <path id="DejaVuSans-74" d="M 1172 4494 
L 1172 3500 
L 2356 3500 
L 2356 3053 
L 1172 3053 
L 1172 1153 
Q 1172 725 1289 603 
Q 1406 481 1766 481 
L 2356 481 
L 2356 0 
L 1766 0 
Q 1100 0 847 248 
Q 594 497 594 1153 
L 594 3053 
L 172 3053 
L 172 3500 
L 594 3500 
L 594 4494 
L 1172 4494 
z
" transform="scale(0.015625)"/>
       <path id="DejaVuSans-67" d="M 2906 1791 
Q 2906 2416 2648 2759 
Q 2391 3103 1925 3103 
Q 1463 3103 1205 2759 
Q 947 2416 947 1791 
Q 947 1169 1205 825 
Q 1463 481 1925 481 
Q 2391 481 2648 825 
Q 2906 1169 2906 1791 
z
M 3481 434 
Q 3481 -459 3084 -895 
Q 2688 -1331 1869 -1331 
Q 1566 -1331 1297 -1286 
Q 1028 -1241 775 -1147 
L 775 -588 
Q 1028 -725 1275 -790 
Q 1522 -856 1778 -856 
Q 2344 -856 2625 -561 
Q 2906 -266 2906 331 
L 2906 616 
Q 2728 306 2450 153 
Q 2172 0 1784 0 
Q 1141 0 747 490 
Q 353 981 353 1791 
Q 353 2603 747 3093 
Q 1141 3584 1784 3584 
Q 2172 3584 2450 3431 
Q 2728 3278 2906 2969 
L 2906 3500 
L 3481 3500 
L 3481 434 
z
" transform="scale(0.015625)"/>
       <path id="DejaVuSans-6f" d="M 1959 3097 
Q 1497 3097 1228 2736 
Q 959 2375 959 1747 
Q 959 1119 1226 758 
Q 1494 397 1959 397 
Q 2419 397 2687 759 
Q 2956 1122 2956 1747 
Q 2956 2369 2687 2733 
Q 2419 3097 1959 3097 
z
M 1959 3584 
Q 2709 3584 3137 3096 
Q 3566 2609 3566 1747 
Q 3566 888 3137 398 
Q 2709 -91 1959 -91 
Q 1206 -91 779 398 
Q 353 888 353 1747 
Q 353 2609 779 3096 
Q 1206 3584 1959 3584 
z
" transform="scale(0.015625)"/>
       <path id="DejaVuSans-66" d="M 2375 4863 
L 2375 4384 
L 1825 4384 
Q 1516 4384 1395 4259 
Q 1275 4134 1275 3809 
L 1275 3500 
L 2222 3500 
L 2222 3053 
L 1275 3053 
L 1275 0 
L 697 0 
L 697 3053 
L 147 3053 
L 147 3500 
L 697 3500 
L 697 3744 
Q 697 4328 969 4595 
Q 1241 4863 1831 4863 
L 2375 4863 
z
" transform="scale(0.015625)"/>
       <path id="DejaVuSans-75" d="M 544 1381 
L 544 3500 
L 1119 3500 
L 1119 1403 
Q 1119 906 1312 657 
Q 1506 409 1894 409 
Q 2359 409 2629 706 
Q 2900 1003 2900 1516 
L 2900 3500 
L 3475 3500 
L 3475 0 
L 2900 0 
L 2900 538 
Q 2691 219 2414 64 
Q 2138 -91 1772 -91 
Q 1169 -91 856 284 
Q 544 659 544 1381 
z
M 1991 3584 
L 1991 3584 
z
" transform="scale(0.015625)"/>
       <path id="DejaVuSans-6c" d="M 603 4863 
L 1178 4863 
L 1178 0 
L 603 0 
L 603 4863 
z
" transform="scale(0.015625)"/>
       <path id="DejaVuSans-76" d="M 191 3500 
L 800 3500 
L 1894 563 
L 2988 3500 
L 3597 3500 
L 2284 0 
L 1503 0 
L 191 3500 
z
" transform="scale(0.015625)"/>
       <path id="DejaVuSans-70" d="M 1159 525 
L 1159 -1331 
L 581 -1331 
L 581 3500 
L 1159 3500 
L 1159 2969 
Q 1341 3281 1617 3432 
Q 1894 3584 2278 3584 
Q 2916 3584 3314 3078 
Q 3713 2572 3713 1747 
Q 3713 922 3314 415 
Q 2916 -91 2278 -91 
Q 1894 -91 1617 61 
Q 1341 213 1159 525 
z
M 3116 1747 
Q 3116 2381 2855 2742 
Q 2594 3103 2138 3103 
Q 1681 3103 1420 2742 
Q 1159 2381 1159 1747 
Q 1159 1113 1420 752 
Q 1681 391 2138 391 
Q 2594 391 2855 752 
Q 3116 1113 3116 1747 
z
" transform="scale(0.015625)"/>
       <path id="DejaVuSans-62" d="M 3116 1747 
Q 3116 2381 2855 2742 
Q 2594 3103 2138 3103 
Q 1681 3103 1420 2742 
Q 1159 2381 1159 1747 
Q 1159 1113 1420 752 
Q 1681 391 2138 391 
Q 2594 391 2855 752 
Q 3116 1113 3116 1747 
z
M 1159 2969 
Q 1341 3281 1617 3432 
Q 1894 3584 2278 3584 
Q 2916 3584 3314 3078 
Q 3713 2572 3713 1747 
Q 3713 922 3314 415 
Q 2916 -91 2278 -91 
Q 1894 -91 1617 61 
Q 1341 213 1159 525 
L 1159 0 
L 581 0 
L 581 4863 
L 1159 4863 
L 1159 2969 
z
" transform="scale(0.015625)"/>
       <path id="DejaVuSans-68" d="M 3513 2113 
L 3513 0 
L 2938 0 
L 2938 2094 
Q 2938 2591 2744 2837 
Q 2550 3084 2163 3084 
Q 1697 3084 1428 2787 
Q 1159 2491 1159 1978 
L 1159 0 
L 581 0 
L 581 4863 
L 1159 4863 
L 1159 2956 
Q 1366 3272 1645 3428 
Q 1925 3584 2291 3584 
Q 2894 3584 3203 3211 
Q 3513 2838 3513 2113 
z
" transform="scale(0.015625)"/>
      </defs>
      <use xlink:href="#DejaVuSans-50"/>
      <use xlink:href="#DejaVuSans-65" x="56.677734"/>
      <use xlink:href="#DejaVuSans-72" x="118.201172"/>
      <use xlink:href="#DejaVuSans-63" x="157.064453"/>
      <use xlink:href="#DejaVuSans-65" x="212.044922"/>
      <use xlink:href="#DejaVuSans-6e" x="273.568359"/>
      <use xlink:href="#DejaVuSans-74" x="336.947266"/>
      <use xlink:href="#DejaVuSans-61" x="376.15625"/>
      <use xlink:href="#DejaVuSans-67" x="437.435547"/>
      <use xlink:href="#DejaVuSans-65" x="500.912109"/>
      <use xlink:href="#DejaVuSans-20" x="562.435547"/>
      <use xlink:href="#DejaVuSans-6f" x="594.222656"/>
      <use xlink:href="#DejaVuSans-66" x="655.404297"/>
      <use xlink:href="#DejaVuSans-20" x="690.609375"/>
      <use xlink:href="#DejaVuSans-63" x="722.396484"/>
      <use xlink:href="#DejaVuSans-75" x="777.376953"/>
      <use xlink:href="#DejaVuSans-6d" x="840.755859"/>
      <use xlink:href="#DejaVuSans-75" x="938.167969"/>
      <use xlink:href="#DejaVuSans-6c" x="1001.546875"/>
      <use xlink:href="#DejaVuSans-61" x="1029.330078"/>
      <use xlink:href="#DejaVuSans-74" x="1090.609375"/>
      <use xlink:href="#DejaVuSans-69" x="1129.818359"/>
      <use xlink:href="#DejaVuSans-76" x="1157.601562"/>
      <use xlink:href="#DejaVuSans-65" x="1216.78125"/>
      <use xlink:href="#DejaVuSans-20" x="1278.304688"/>
      <use xlink:href="#DejaVuSans-63" x="1310.091797"/>
      <use xlink:href="#DejaVuSans-6f" x="1365.072266"/>
      <use xlink:href="#DejaVuSans-6d" x="1426.253906"/>
      <use xlink:href="#DejaVuSans-70" x="1523.666016"/>
      <use xlink:href="#DejaVuSans-69" x="1587.142578"/>
      <use xlink:href="#DejaVuSans-6c" x="1614.925781"/>
      <use xlink:href="#DejaVuSans-61" x="1642.708984"/>
      <use xlink:href="#DejaVuSans-62" x="1703.988281"/>
      <use xlink:href="#DejaVuSans-6c" x="1767.464844"/>
      <use xlink:href="#DejaVuSans-65" x="1795.248047"/>
      <use xlink:href="#DejaVuSans-20" x="1856.771484"/>
      <use xlink:href="#DejaVuSans-70" x="1888.558594"/>
      <use xlink:href="#DejaVuSans-61" x="1952.035156"/>
      <use xlink:href="#DejaVuSans-74" x="2013.314453"/>
      <use xlink:href="#DejaVuSans-63" x="2052.523438"/>
      <use xlink:href="#DejaVuSans-68" x="2107.503906"/>
      <use xlink:href="#DejaVuSans-65" x="2170.882812"/>
      <use xlink:href="#DejaVuSans-73" x="2232.40625"/>
     </g>
    </g>
   </g>
   <g id="line2d_19">
    <path d="M 63.084545 303.64 
L 66.806676 257.027257 
L 70.528806 241.66328 
L 74.250937 257.027257 
L 77.973067 266.401887 
L 81.695197 257.027257 
L 85.417328 250.517098 
L 89.139458 257.027257 
L 92.861589 262.235385 
L 96.583719 266.401887 
L 100.305849 269.78717 
L 104.02798 272.65164 
L 107.75011 274.995298 
L 111.472241 270.307983 
L 115.194371 272.65164 
L 118.916501 274.474485 
L 122.638632 276.29733 
L 126.360762 277.859768 
L 130.082893 279.1618 
L 133.805023 280.463832 
L 137.527153 281.505457 
L 141.249284 278.380581 
L 144.971414 279.422206 
L 148.693545 276.557736 
L 152.415675 277.599362 
L 156.137805 278.640987 
L 159.859936 276.036923 
L 163.582066 277.078549 
L 167.304197 277.859768 
L 171.026327 278.901393 
L 174.748457 279.682613 
L 178.470588 280.463832 
L 182.192718 280.984645 
L 185.914848 281.765864 
L 189.636979 282.286676 
L 193.359109 280.463832 
L 197.08124 280.984645 
L 200.80337 281.505457 
L 204.5255 282.286676 
L 208.247631 282.807489 
L 211.969761 283.328302 
L 215.691892 283.588708 
L 219.414022 284.109521 
L 223.136152 282.547083 
L 226.858283 283.067896 
L 230.580413 283.328302 
L 234.302544 283.849115 
L 238.024674 284.369928 
L 241.746804 284.630334 
L 245.468935 285.151147 
L 249.191065 283.588708 
L 252.913196 283.849115 
L 256.635326 284.369928 
L 260.357456 284.630334 
L 264.079587 285.151147 
L 267.801717 285.411553 
L 271.523848 285.671959 
L 275.245978 285.932366 
L 278.968108 286.192772 
L 282.690239 286.713585 
L 286.412369 286.973991 
L 290.1345 287.234398 
L 293.85663 287.494804 
L 297.57876 287.755211 
L 301.300891 288.015617 
L 305.023021 288.015617 
L 308.745152 288.276023 
L 312.467282 287.234398 
L 316.189412 287.494804 
L 319.911543 286.453179 
L 323.633673 286.713585 
L 327.355803 286.973991 
L 331.077934 285.932366 
L 334.800064 285.932366 
L 338.522195 286.192772 
L 342.244325 286.453179 
L 345.966455 286.713585 
L 349.688586 286.973991 
L 353.410716 287.234398 
L 357.132847 287.494804 
L 360.854977 286.453179 
L 364.577107 286.713585 
L 368.299238 285.671959 
L 372.021368 285.932366 
L 375.743499 286.192772 
L 379.465629 285.151147 
L 383.187759 284.369928 
L 386.90989 283.588708 
L 390.63202 282.807489 
L 394.354151 282.02627 
L 398.076281 280.203425 
L 401.798411 278.380581 
L 405.520542 276.557736 
L 409.242672 274.995298 
L 412.964803 274.214079 
L 416.686933 273.693266 
L 420.409063 272.912047 
L 424.131194 271.349608 
L 427.853324 271.610015 
L 431.575455 268.224732 
" clip-path="url(#pfcd3758c58)" style="fill: none; stroke: #1f77b4; stroke-width: 1.5; stroke-linecap: square"/>
    <defs>
     <path id="m79fd536758" d="M 0 3 
C 0.795609 3 1.55874 2.683901 2.12132 2.12132 
C 2.683901 1.55874 3 0.795609 3 0 
C 3 -0.795609 2.683901 -1.55874 2.12132 -2.12132 
C 1.55874 -2.683901 0.795609 -3 0 -3 
C -0.795609 -3 -1.55874 -2.683901 -2.12132 -2.12132 
C -2.683901 -1.55874 -3 -0.795609 -3 0 
C -3 0.795609 -2.683901 1.55874 -2.12132 2.12132 
C -1.55874 2.683901 -0.795609 3 0 3 
z
" style="stroke: #1f77b4"/>
    </defs>
    <g clip-path="url(#pfcd3758c58)">
     <use xlink:href="#m79fd536758" x="63.084545" y="303.64" style="fill: #1f77b4; stroke: #1f77b4"/>
     <use xlink:href="#m79fd536758" x="66.806676" y="257.027257" style="fill: #1f77b4; stroke: #1f77b4"/>
     <use xlink:href="#m79fd536758" x="70.528806" y="241.66328" style="fill: #1f77b4; stroke: #1f77b4"/>
     <use xlink:href="#m79fd536758" x="74.250937" y="257.027257" style="fill: #1f77b4; stroke: #1f77b4"/>
     <use xlink:href="#m79fd536758" x="77.973067" y="266.401887" style="fill: #1f77b4; stroke: #1f77b4"/>
     <use xlink:href="#m79fd536758" x="81.695197" y="257.027257" style="fill: #1f77b4; stroke: #1f77b4"/>
     <use xlink:href="#m79fd536758" x="85.417328" y="250.517098" style="fill: #1f77b4; stroke: #1f77b4"/>
     <use xlink:href="#m79fd536758" x="89.139458" y="257.027257" style="fill: #1f77b4; stroke: #1f77b4"/>
     <use xlink:href="#m79fd536758" x="92.861589" y="262.235385" style="fill: #1f77b4; stroke: #1f77b4"/>
     <use xlink:href="#m79fd536758" x="96.583719" y="266.401887" style="fill: #1f77b4; stroke: #1f77b4"/>
     <use xlink:href="#m79fd536758" x="100.305849" y="269.78717" style="fill: #1f77b4; stroke: #1f77b4"/>
     <use xlink:href="#m79fd536758" x="104.02798" y="272.65164" style="fill: #1f77b4; stroke: #1f77b4"/>
     <use xlink:href="#m79fd536758" x="107.75011" y="274.995298" style="fill: #1f77b4; stroke: #1f77b4"/>
     <use xlink:href="#m79fd536758" x="111.472241" y="270.307983" style="fill: #1f77b4; stroke: #1f77b4"/>
     <use xlink:href="#m79fd536758" x="115.194371" y="272.65164" style="fill: #1f77b4; stroke: #1f77b4"/>
     <use xlink:href="#m79fd536758" x="118.916501" y="274.474485" style="fill: #1f77b4; stroke: #1f77b4"/>
     <use xlink:href="#m79fd536758" x="122.638632" y="276.29733" style="fill: #1f77b4; stroke: #1f77b4"/>
     <use xlink:href="#m79fd536758" x="126.360762" y="277.859768" style="fill: #1f77b4; stroke: #1f77b4"/>
     <use xlink:href="#m79fd536758" x="130.082893" y="279.1618" style="fill: #1f77b4; stroke: #1f77b4"/>
     <use xlink:href="#m79fd536758" x="133.805023" y="280.463832" style="fill: #1f77b4; stroke: #1f77b4"/>
     <use xlink:href="#m79fd536758" x="137.527153" y="281.505457" style="fill: #1f77b4; stroke: #1f77b4"/>
     <use xlink:href="#m79fd536758" x="141.249284" y="278.380581" style="fill: #1f77b4; stroke: #1f77b4"/>
     <use xlink:href="#m79fd536758" x="144.971414" y="279.422206" style="fill: #1f77b4; stroke: #1f77b4"/>
     <use xlink:href="#m79fd536758" x="148.693545" y="276.557736" style="fill: #1f77b4; stroke: #1f77b4"/>
     <use xlink:href="#m79fd536758" x="152.415675" y="277.599362" style="fill: #1f77b4; stroke: #1f77b4"/>
     <use xlink:href="#m79fd536758" x="156.137805" y="278.640987" style="fill: #1f77b4; stroke: #1f77b4"/>
     <use xlink:href="#m79fd536758" x="159.859936" y="276.036923" style="fill: #1f77b4; stroke: #1f77b4"/>
     <use xlink:href="#m79fd536758" x="163.582066" y="277.078549" style="fill: #1f77b4; stroke: #1f77b4"/>
     <use xlink:href="#m79fd536758" x="167.304197" y="277.859768" style="fill: #1f77b4; stroke: #1f77b4"/>
     <use xlink:href="#m79fd536758" x="171.026327" y="278.901393" style="fill: #1f77b4; stroke: #1f77b4"/>
     <use xlink:href="#m79fd536758" x="174.748457" y="279.682613" style="fill: #1f77b4; stroke: #1f77b4"/>
     <use xlink:href="#m79fd536758" x="178.470588" y="280.463832" style="fill: #1f77b4; stroke: #1f77b4"/>
     <use xlink:href="#m79fd536758" x="182.192718" y="280.984645" style="fill: #1f77b4; stroke: #1f77b4"/>
     <use xlink:href="#m79fd536758" x="185.914848" y="281.765864" style="fill: #1f77b4; stroke: #1f77b4"/>
     <use xlink:href="#m79fd536758" x="189.636979" y="282.286676" style="fill: #1f77b4; stroke: #1f77b4"/>
     <use xlink:href="#m79fd536758" x="193.359109" y="280.463832" style="fill: #1f77b4; stroke: #1f77b4"/>
     <use xlink:href="#m79fd536758" x="197.08124" y="280.984645" style="fill: #1f77b4; stroke: #1f77b4"/>
     <use xlink:href="#m79fd536758" x="200.80337" y="281.505457" style="fill: #1f77b4; stroke: #1f77b4"/>
     <use xlink:href="#m79fd536758" x="204.5255" y="282.286676" style="fill: #1f77b4; stroke: #1f77b4"/>
     <use xlink:href="#m79fd536758" x="208.247631" y="282.807489" style="fill: #1f77b4; stroke: #1f77b4"/>
     <use xlink:href="#m79fd536758" x="211.969761" y="283.328302" style="fill: #1f77b4; stroke: #1f77b4"/>
     <use xlink:href="#m79fd536758" x="215.691892" y="283.588708" style="fill: #1f77b4; stroke: #1f77b4"/>
     <use xlink:href="#m79fd536758" x="219.414022" y="284.109521" style="fill: #1f77b4; stroke: #1f77b4"/>
     <use xlink:href="#m79fd536758" x="223.136152" y="282.547083" style="fill: #1f77b4; stroke: #1f77b4"/>
     <use xlink:href="#m79fd536758" x="226.858283" y="283.067896" style="fill: #1f77b4; stroke: #1f77b4"/>
     <use xlink:href="#m79fd536758" x="230.580413" y="283.328302" style="fill: #1f77b4; stroke: #1f77b4"/>
     <use xlink:href="#m79fd536758" x="234.302544" y="283.849115" style="fill: #1f77b4; stroke: #1f77b4"/>
     <use xlink:href="#m79fd536758" x="238.024674" y="284.369928" style="fill: #1f77b4; stroke: #1f77b4"/>
     <use xlink:href="#m79fd536758" x="241.746804" y="284.630334" style="fill: #1f77b4; stroke: #1f77b4"/>
     <use xlink:href="#m79fd536758" x="245.468935" y="285.151147" style="fill: #1f77b4; stroke: #1f77b4"/>
     <use xlink:href="#m79fd536758" x="249.191065" y="283.588708" style="fill: #1f77b4; stroke: #1f77b4"/>
     <use xlink:href="#m79fd536758" x="252.913196" y="283.849115" style="fill: #1f77b4; stroke: #1f77b4"/>
     <use xlink:href="#m79fd536758" x="256.635326" y="284.369928" style="fill: #1f77b4; stroke: #1f77b4"/>
     <use xlink:href="#m79fd536758" x="260.357456" y="284.630334" style="fill: #1f77b4; stroke: #1f77b4"/>
     <use xlink:href="#m79fd536758" x="264.079587" y="285.151147" style="fill: #1f77b4; stroke: #1f77b4"/>
     <use xlink:href="#m79fd536758" x="267.801717" y="285.411553" style="fill: #1f77b4; stroke: #1f77b4"/>
     <use xlink:href="#m79fd536758" x="271.523848" y="285.671959" style="fill: #1f77b4; stroke: #1f77b4"/>
     <use xlink:href="#m79fd536758" x="275.245978" y="285.932366" style="fill: #1f77b4; stroke: #1f77b4"/>
     <use xlink:href="#m79fd536758" x="278.968108" y="286.192772" style="fill: #1f77b4; stroke: #1f77b4"/>
     <use xlink:href="#m79fd536758" x="282.690239" y="286.713585" style="fill: #1f77b4; stroke: #1f77b4"/>
     <use xlink:href="#m79fd536758" x="286.412369" y="286.973991" style="fill: #1f77b4; stroke: #1f77b4"/>
     <use xlink:href="#m79fd536758" x="290.1345" y="287.234398" style="fill: #1f77b4; stroke: #1f77b4"/>
     <use xlink:href="#m79fd536758" x="293.85663" y="287.494804" style="fill: #1f77b4; stroke: #1f77b4"/>
     <use xlink:href="#m79fd536758" x="297.57876" y="287.755211" style="fill: #1f77b4; stroke: #1f77b4"/>
     <use xlink:href="#m79fd536758" x="301.300891" y="288.015617" style="fill: #1f77b4; stroke: #1f77b4"/>
     <use xlink:href="#m79fd536758" x="305.023021" y="288.015617" style="fill: #1f77b4; stroke: #1f77b4"/>
     <use xlink:href="#m79fd536758" x="308.745152" y="288.276023" style="fill: #1f77b4; stroke: #1f77b4"/>
     <use xlink:href="#m79fd536758" x="312.467282" y="287.234398" style="fill: #1f77b4; stroke: #1f77b4"/>
     <use xlink:href="#m79fd536758" x="316.189412" y="287.494804" style="fill: #1f77b4; stroke: #1f77b4"/>
     <use xlink:href="#m79fd536758" x="319.911543" y="286.453179" style="fill: #1f77b4; stroke: #1f77b4"/>
     <use xlink:href="#m79fd536758" x="323.633673" y="286.713585" style="fill: #1f77b4; stroke: #1f77b4"/>
     <use xlink:href="#m79fd536758" x="327.355803" y="286.973991" style="fill: #1f77b4; stroke: #1f77b4"/>
     <use xlink:href="#m79fd536758" x="331.077934" y="285.932366" style="fill: #1f77b4; stroke: #1f77b4"/>
     <use xlink:href="#m79fd536758" x="334.800064" y="285.932366" style="fill: #1f77b4; stroke: #1f77b4"/>
     <use xlink:href="#m79fd536758" x="338.522195" y="286.192772" style="fill: #1f77b4; stroke: #1f77b4"/>
     <use xlink:href="#m79fd536758" x="342.244325" y="286.453179" style="fill: #1f77b4; stroke: #1f77b4"/>
     <use xlink:href="#m79fd536758" x="345.966455" y="286.713585" style="fill: #1f77b4; stroke: #1f77b4"/>
     <use xlink:href="#m79fd536758" x="349.688586" y="286.973991" style="fill: #1f77b4; stroke: #1f77b4"/>
     <use xlink:href="#m79fd536758" x="353.410716" y="287.234398" style="fill: #1f77b4; stroke: #1f77b4"/>
     <use xlink:href="#m79fd536758" x="357.132847" y="287.494804" style="fill: #1f77b4; stroke: #1f77b4"/>
     <use xlink:href="#m79fd536758" x="360.854977" y="286.453179" style="fill: #1f77b4; stroke: #1f77b4"/>
     <use xlink:href="#m79fd536758" x="364.577107" y="286.713585" style="fill: #1f77b4; stroke: #1f77b4"/>
     <use xlink:href="#m79fd536758" x="368.299238" y="285.671959" style="fill: #1f77b4; stroke: #1f77b4"/>
     <use xlink:href="#m79fd536758" x="372.021368" y="285.932366" style="fill: #1f77b4; stroke: #1f77b4"/>
     <use xlink:href="#m79fd536758" x="375.743499" y="286.192772" style="fill: #1f77b4; stroke: #1f77b4"/>
     <use xlink:href="#m79fd536758" x="379.465629" y="285.151147" style="fill: #1f77b4; stroke: #1f77b4"/>
     <use xlink:href="#m79fd536758" x="383.187759" y="284.369928" style="fill: #1f77b4; stroke: #1f77b4"/>
     <use xlink:href="#m79fd536758" x="386.90989" y="283.588708" style="fill: #1f77b4; stroke: #1f77b4"/>
     <use xlink:href="#m79fd536758" x="390.63202" y="282.807489" style="fill: #1f77b4; stroke: #1f77b4"/>
     <use xlink:href="#m79fd536758" x="394.354151" y="282.02627" style="fill: #1f77b4; stroke: #1f77b4"/>
     <use xlink:href="#m79fd536758" x="398.076281" y="280.203425" style="fill: #1f77b4; stroke: #1f77b4"/>
     <use xlink:href="#m79fd536758" x="401.798411" y="278.380581" style="fill: #1f77b4; stroke: #1f77b4"/>
     <use xlink:href="#m79fd536758" x="405.520542" y="276.557736" style="fill: #1f77b4; stroke: #1f77b4"/>
     <use xlink:href="#m79fd536758" x="409.242672" y="274.995298" style="fill: #1f77b4; stroke: #1f77b4"/>
     <use xlink:href="#m79fd536758" x="412.964803" y="274.214079" style="fill: #1f77b4; stroke: #1f77b4"/>
     <use xlink:href="#m79fd536758" x="416.686933" y="273.693266" style="fill: #1f77b4; stroke: #1f77b4"/>
     <use xlink:href="#m79fd536758" x="420.409063" y="272.912047" style="fill: #1f77b4; stroke: #1f77b4"/>
     <use xlink:href="#m79fd536758" x="424.131194" y="271.349608" style="fill: #1f77b4; stroke: #1f77b4"/>
     <use xlink:href="#m79fd536758" x="427.853324" y="271.610015" style="fill: #1f77b4; stroke: #1f77b4"/>
     <use xlink:href="#m79fd536758" x="431.575455" y="268.224732" style="fill: #1f77b4; stroke: #1f77b4"/>
    </g>
   </g>
   <g id="line2d_20">
    <path d="M 63.084545 210.674921 
L 66.806676 210.674921 
L 70.528806 241.66328 
L 74.250937 257.027257 
L 77.973067 247.913034 
L 81.695197 257.027257 
L 85.417328 250.517098 
L 89.139458 245.569376 
L 92.861589 252.079536 
L 96.583719 257.027257 
L 100.305849 261.454166 
L 104.02798 264.839449 
L 107.75011 267.964325 
L 111.472241 270.307983 
L 115.194371 266.401887 
L 118.916501 268.745544 
L 122.638632 270.828796 
L 126.360762 272.65164 
L 130.082893 274.214079 
L 133.805023 275.776517 
L 137.527153 277.078549 
L 141.249284 278.380581 
L 144.971414 275.255704 
L 148.693545 272.65164 
L 152.415675 273.953672 
L 156.137805 274.995298 
L 159.859936 276.036923 
L 163.582066 277.078549 
L 167.304197 274.734891 
L 171.026327 275.776517 
L 174.748457 276.557736 
L 178.470588 274.474485 
L 182.192718 275.51611 
L 185.914848 276.29733 
L 189.636979 277.078549 
L 193.359109 277.859768 
L 197.08124 278.380581 
L 200.80337 279.1618 
L 204.5255 279.682613 
L 208.247631 280.463832 
L 211.969761 280.984645 
L 215.691892 279.1618 
L 219.414022 279.943019 
L 223.136152 280.463832 
L 226.858283 280.984645 
L 230.580413 279.422206 
L 234.302544 279.943019 
L 238.024674 278.380581 
L 241.746804 278.901393 
L 245.468935 277.599362 
L 249.191065 278.120174 
L 252.913196 278.640987 
L 256.635326 277.338955 
L 260.357456 276.036923 
L 264.079587 276.557736 
L 267.801717 277.078549 
L 271.523848 277.599362 
L 275.245978 277.859768 
L 278.968108 278.380581 
L 282.690239 278.901393 
L 286.412369 277.599362 
L 290.1345 278.120174 
L 293.85663 278.640987 
L 297.57876 278.901393 
L 301.300891 279.422206 
L 305.023021 278.380581 
L 308.745152 277.338955 
L 312.467282 277.599362 
L 316.189412 278.120174 
L 319.911543 277.078549 
L 323.633673 276.036923 
L 327.355803 275.255704 
L 331.077934 275.51611 
L 334.800064 276.036923 
L 338.522195 276.29733 
L 342.244325 276.818142 
L 345.966455 277.078549 
L 349.688586 277.338955 
L 353.410716 277.859768 
L 357.132847 276.818142 
L 360.854977 277.338955 
L 364.577107 276.29733 
L 368.299238 276.818142 
L 372.021368 277.078549 
L 375.743499 276.29733 
L 379.465629 276.557736 
L 383.187759 276.818142 
L 386.90989 277.338955 
L 390.63202 277.599362 
L 394.354151 276.818142 
L 398.076281 276.036923 
L 401.798411 275.255704 
L 405.520542 274.734891 
L 409.242672 274.995298 
L 412.964803 275.255704 
L 416.686933 275.51611 
L 420.409063 275.776517 
L 424.131194 274.214079 
L 427.853324 274.474485 
L 431.575455 272.912047 
" clip-path="url(#pfcd3758c58)" style="fill: none; stroke: #ff7f0e; stroke-width: 1.5; stroke-linecap: square"/>
    <defs>
     <path id="mcf4ea655da" d="M 0 3 
C 0.795609 3 1.55874 2.683901 2.12132 2.12132 
C 2.683901 1.55874 3 0.795609 3 0 
C 3 -0.795609 2.683901 -1.55874 2.12132 -2.12132 
C 1.55874 -2.683901 0.795609 -3 0 -3 
C -0.795609 -3 -1.55874 -2.683901 -2.12132 -2.12132 
C -2.683901 -1.55874 -3 -0.795609 -3 0 
C -3 0.795609 -2.683901 1.55874 -2.12132 2.12132 
C -1.55874 2.683901 -0.795609 3 0 3 
z
" style="stroke: #ff7f0e"/>
    </defs>
    <g clip-path="url(#pfcd3758c58)">
     <use xlink:href="#mcf4ea655da" x="63.084545" y="210.674921" style="fill: #ff7f0e; stroke: #ff7f0e"/>
     <use xlink:href="#mcf4ea655da" x="66.806676" y="210.674921" style="fill: #ff7f0e; stroke: #ff7f0e"/>
     <use xlink:href="#mcf4ea655da" x="70.528806" y="241.66328" style="fill: #ff7f0e; stroke: #ff7f0e"/>
     <use xlink:href="#mcf4ea655da" x="74.250937" y="257.027257" style="fill: #ff7f0e; stroke: #ff7f0e"/>
     <use xlink:href="#mcf4ea655da" x="77.973067" y="247.913034" style="fill: #ff7f0e; stroke: #ff7f0e"/>
     <use xlink:href="#mcf4ea655da" x="81.695197" y="257.027257" style="fill: #ff7f0e; stroke: #ff7f0e"/>
     <use xlink:href="#mcf4ea655da" x="85.417328" y="250.517098" style="fill: #ff7f0e; stroke: #ff7f0e"/>
     <use xlink:href="#mcf4ea655da" x="89.139458" y="245.569376" style="fill: #ff7f0e; stroke: #ff7f0e"/>
     <use xlink:href="#mcf4ea655da" x="92.861589" y="252.079536" style="fill: #ff7f0e; stroke: #ff7f0e"/>
     <use xlink:href="#mcf4ea655da" x="96.583719" y="257.027257" style="fill: #ff7f0e; stroke: #ff7f0e"/>
     <use xlink:href="#mcf4ea655da" x="100.305849" y="261.454166" style="fill: #ff7f0e; stroke: #ff7f0e"/>
     <use xlink:href="#mcf4ea655da" x="104.02798" y="264.839449" style="fill: #ff7f0e; stroke: #ff7f0e"/>
     <use xlink:href="#mcf4ea655da" x="107.75011" y="267.964325" style="fill: #ff7f0e; stroke: #ff7f0e"/>
     <use xlink:href="#mcf4ea655da" x="111.472241" y="270.307983" style="fill: #ff7f0e; stroke: #ff7f0e"/>
     <use xlink:href="#mcf4ea655da" x="115.194371" y="266.401887" style="fill: #ff7f0e; stroke: #ff7f0e"/>
     <use xlink:href="#mcf4ea655da" x="118.916501" y="268.745544" style="fill: #ff7f0e; stroke: #ff7f0e"/>
     <use xlink:href="#mcf4ea655da" x="122.638632" y="270.828796" style="fill: #ff7f0e; stroke: #ff7f0e"/>
     <use xlink:href="#mcf4ea655da" x="126.360762" y="272.65164" style="fill: #ff7f0e; stroke: #ff7f0e"/>
     <use xlink:href="#mcf4ea655da" x="130.082893" y="274.214079" style="fill: #ff7f0e; stroke: #ff7f0e"/>
     <use xlink:href="#mcf4ea655da" x="133.805023" y="275.776517" style="fill: #ff7f0e; stroke: #ff7f0e"/>
     <use xlink:href="#mcf4ea655da" x="137.527153" y="277.078549" style="fill: #ff7f0e; stroke: #ff7f0e"/>
     <use xlink:href="#mcf4ea655da" x="141.249284" y="278.380581" style="fill: #ff7f0e; stroke: #ff7f0e"/>
     <use xlink:href="#mcf4ea655da" x="144.971414" y="275.255704" style="fill: #ff7f0e; stroke: #ff7f0e"/>
     <use xlink:href="#mcf4ea655da" x="148.693545" y="272.65164" style="fill: #ff7f0e; stroke: #ff7f0e"/>
     <use xlink:href="#mcf4ea655da" x="152.415675" y="273.953672" style="fill: #ff7f0e; stroke: #ff7f0e"/>
     <use xlink:href="#mcf4ea655da" x="156.137805" y="274.995298" style="fill: #ff7f0e; stroke: #ff7f0e"/>
     <use xlink:href="#mcf4ea655da" x="159.859936" y="276.036923" style="fill: #ff7f0e; stroke: #ff7f0e"/>
     <use xlink:href="#mcf4ea655da" x="163.582066" y="277.078549" style="fill: #ff7f0e; stroke: #ff7f0e"/>
     <use xlink:href="#mcf4ea655da" x="167.304197" y="274.734891" style="fill: #ff7f0e; stroke: #ff7f0e"/>
     <use xlink:href="#mcf4ea655da" x="171.026327" y="275.776517" style="fill: #ff7f0e; stroke: #ff7f0e"/>
     <use xlink:href="#mcf4ea655da" x="174.748457" y="276.557736" style="fill: #ff7f0e; stroke: #ff7f0e"/>
     <use xlink:href="#mcf4ea655da" x="178.470588" y="274.474485" style="fill: #ff7f0e; stroke: #ff7f0e"/>
     <use xlink:href="#mcf4ea655da" x="182.192718" y="275.51611" style="fill: #ff7f0e; stroke: #ff7f0e"/>
     <use xlink:href="#mcf4ea655da" x="185.914848" y="276.29733" style="fill: #ff7f0e; stroke: #ff7f0e"/>
     <use xlink:href="#mcf4ea655da" x="189.636979" y="277.078549" style="fill: #ff7f0e; stroke: #ff7f0e"/>
     <use xlink:href="#mcf4ea655da" x="193.359109" y="277.859768" style="fill: #ff7f0e; stroke: #ff7f0e"/>
     <use xlink:href="#mcf4ea655da" x="197.08124" y="278.380581" style="fill: #ff7f0e; stroke: #ff7f0e"/>
     <use xlink:href="#mcf4ea655da" x="200.80337" y="279.1618" style="fill: #ff7f0e; stroke: #ff7f0e"/>
     <use xlink:href="#mcf4ea655da" x="204.5255" y="279.682613" style="fill: #ff7f0e; stroke: #ff7f0e"/>
     <use xlink:href="#mcf4ea655da" x="208.247631" y="280.463832" style="fill: #ff7f0e; stroke: #ff7f0e"/>
     <use xlink:href="#mcf4ea655da" x="211.969761" y="280.984645" style="fill: #ff7f0e; stroke: #ff7f0e"/>
     <use xlink:href="#mcf4ea655da" x="215.691892" y="279.1618" style="fill: #ff7f0e; stroke: #ff7f0e"/>
     <use xlink:href="#mcf4ea655da" x="219.414022" y="279.943019" style="fill: #ff7f0e; stroke: #ff7f0e"/>
     <use xlink:href="#mcf4ea655da" x="223.136152" y="280.463832" style="fill: #ff7f0e; stroke: #ff7f0e"/>
     <use xlink:href="#mcf4ea655da" x="226.858283" y="280.984645" style="fill: #ff7f0e; stroke: #ff7f0e"/>
     <use xlink:href="#mcf4ea655da" x="230.580413" y="279.422206" style="fill: #ff7f0e; stroke: #ff7f0e"/>
     <use xlink:href="#mcf4ea655da" x="234.302544" y="279.943019" style="fill: #ff7f0e; stroke: #ff7f0e"/>
     <use xlink:href="#mcf4ea655da" x="238.024674" y="278.380581" style="fill: #ff7f0e; stroke: #ff7f0e"/>
     <use xlink:href="#mcf4ea655da" x="241.746804" y="278.901393" style="fill: #ff7f0e; stroke: #ff7f0e"/>
     <use xlink:href="#mcf4ea655da" x="245.468935" y="277.599362" style="fill: #ff7f0e; stroke: #ff7f0e"/>
     <use xlink:href="#mcf4ea655da" x="249.191065" y="278.120174" style="fill: #ff7f0e; stroke: #ff7f0e"/>
     <use xlink:href="#mcf4ea655da" x="252.913196" y="278.640987" style="fill: #ff7f0e; stroke: #ff7f0e"/>
     <use xlink:href="#mcf4ea655da" x="256.635326" y="277.338955" style="fill: #ff7f0e; stroke: #ff7f0e"/>
     <use xlink:href="#mcf4ea655da" x="260.357456" y="276.036923" style="fill: #ff7f0e; stroke: #ff7f0e"/>
     <use xlink:href="#mcf4ea655da" x="264.079587" y="276.557736" style="fill: #ff7f0e; stroke: #ff7f0e"/>
     <use xlink:href="#mcf4ea655da" x="267.801717" y="277.078549" style="fill: #ff7f0e; stroke: #ff7f0e"/>
     <use xlink:href="#mcf4ea655da" x="271.523848" y="277.599362" style="fill: #ff7f0e; stroke: #ff7f0e"/>
     <use xlink:href="#mcf4ea655da" x="275.245978" y="277.859768" style="fill: #ff7f0e; stroke: #ff7f0e"/>
     <use xlink:href="#mcf4ea655da" x="278.968108" y="278.380581" style="fill: #ff7f0e; stroke: #ff7f0e"/>
     <use xlink:href="#mcf4ea655da" x="282.690239" y="278.901393" style="fill: #ff7f0e; stroke: #ff7f0e"/>
     <use xlink:href="#mcf4ea655da" x="286.412369" y="277.599362" style="fill: #ff7f0e; stroke: #ff7f0e"/>
     <use xlink:href="#mcf4ea655da" x="290.1345" y="278.120174" style="fill: #ff7f0e; stroke: #ff7f0e"/>
     <use xlink:href="#mcf4ea655da" x="293.85663" y="278.640987" style="fill: #ff7f0e; stroke: #ff7f0e"/>
     <use xlink:href="#mcf4ea655da" x="297.57876" y="278.901393" style="fill: #ff7f0e; stroke: #ff7f0e"/>
     <use xlink:href="#mcf4ea655da" x="301.300891" y="279.422206" style="fill: #ff7f0e; stroke: #ff7f0e"/>
     <use xlink:href="#mcf4ea655da" x="305.023021" y="278.380581" style="fill: #ff7f0e; stroke: #ff7f0e"/>
     <use xlink:href="#mcf4ea655da" x="308.745152" y="277.338955" style="fill: #ff7f0e; stroke: #ff7f0e"/>
     <use xlink:href="#mcf4ea655da" x="312.467282" y="277.599362" style="fill: #ff7f0e; stroke: #ff7f0e"/>
     <use xlink:href="#mcf4ea655da" x="316.189412" y="278.120174" style="fill: #ff7f0e; stroke: #ff7f0e"/>
     <use xlink:href="#mcf4ea655da" x="319.911543" y="277.078549" style="fill: #ff7f0e; stroke: #ff7f0e"/>
     <use xlink:href="#mcf4ea655da" x="323.633673" y="276.036923" style="fill: #ff7f0e; stroke: #ff7f0e"/>
     <use xlink:href="#mcf4ea655da" x="327.355803" y="275.255704" style="fill: #ff7f0e; stroke: #ff7f0e"/>
     <use xlink:href="#mcf4ea655da" x="331.077934" y="275.51611" style="fill: #ff7f0e; stroke: #ff7f0e"/>
     <use xlink:href="#mcf4ea655da" x="334.800064" y="276.036923" style="fill: #ff7f0e; stroke: #ff7f0e"/>
     <use xlink:href="#mcf4ea655da" x="338.522195" y="276.29733" style="fill: #ff7f0e; stroke: #ff7f0e"/>
     <use xlink:href="#mcf4ea655da" x="342.244325" y="276.818142" style="fill: #ff7f0e; stroke: #ff7f0e"/>
     <use xlink:href="#mcf4ea655da" x="345.966455" y="277.078549" style="fill: #ff7f0e; stroke: #ff7f0e"/>
     <use xlink:href="#mcf4ea655da" x="349.688586" y="277.338955" style="fill: #ff7f0e; stroke: #ff7f0e"/>
     <use xlink:href="#mcf4ea655da" x="353.410716" y="277.859768" style="fill: #ff7f0e; stroke: #ff7f0e"/>
     <use xlink:href="#mcf4ea655da" x="357.132847" y="276.818142" style="fill: #ff7f0e; stroke: #ff7f0e"/>
     <use xlink:href="#mcf4ea655da" x="360.854977" y="277.338955" style="fill: #ff7f0e; stroke: #ff7f0e"/>
     <use xlink:href="#mcf4ea655da" x="364.577107" y="276.29733" style="fill: #ff7f0e; stroke: #ff7f0e"/>
     <use xlink:href="#mcf4ea655da" x="368.299238" y="276.818142" style="fill: #ff7f0e; stroke: #ff7f0e"/>
     <use xlink:href="#mcf4ea655da" x="372.021368" y="277.078549" style="fill: #ff7f0e; stroke: #ff7f0e"/>
     <use xlink:href="#mcf4ea655da" x="375.743499" y="276.29733" style="fill: #ff7f0e; stroke: #ff7f0e"/>
     <use xlink:href="#mcf4ea655da" x="379.465629" y="276.557736" style="fill: #ff7f0e; stroke: #ff7f0e"/>
     <use xlink:href="#mcf4ea655da" x="383.187759" y="276.818142" style="fill: #ff7f0e; stroke: #ff7f0e"/>
     <use xlink:href="#mcf4ea655da" x="386.90989" y="277.338955" style="fill: #ff7f0e; stroke: #ff7f0e"/>
     <use xlink:href="#mcf4ea655da" x="390.63202" y="277.599362" style="fill: #ff7f0e; stroke: #ff7f0e"/>
     <use xlink:href="#mcf4ea655da" x="394.354151" y="276.818142" style="fill: #ff7f0e; stroke: #ff7f0e"/>
     <use xlink:href="#mcf4ea655da" x="398.076281" y="276.036923" style="fill: #ff7f0e; stroke: #ff7f0e"/>
     <use xlink:href="#mcf4ea655da" x="401.798411" y="275.255704" style="fill: #ff7f0e; stroke: #ff7f0e"/>
     <use xlink:href="#mcf4ea655da" x="405.520542" y="274.734891" style="fill: #ff7f0e; stroke: #ff7f0e"/>
     <use xlink:href="#mcf4ea655da" x="409.242672" y="274.995298" style="fill: #ff7f0e; stroke: #ff7f0e"/>
     <use xlink:href="#mcf4ea655da" x="412.964803" y="275.255704" style="fill: #ff7f0e; stroke: #ff7f0e"/>
     <use xlink:href="#mcf4ea655da" x="416.686933" y="275.51611" style="fill: #ff7f0e; stroke: #ff7f0e"/>
     <use xlink:href="#mcf4ea655da" x="420.409063" y="275.776517" style="fill: #ff7f0e; stroke: #ff7f0e"/>
     <use xlink:href="#mcf4ea655da" x="424.131194" y="274.214079" style="fill: #ff7f0e; stroke: #ff7f0e"/>
     <use xlink:href="#mcf4ea655da" x="427.853324" y="274.474485" style="fill: #ff7f0e; stroke: #ff7f0e"/>
     <use xlink:href="#mcf4ea655da" x="431.575455" y="272.912047" style="fill: #ff7f0e; stroke: #ff7f0e"/>
    </g>
   </g>
   <g id="line2d_21">
    <path d="M 63.084545 117.709841 
L 66.806676 24.744762 
L 70.528806 24.744762 
L 74.250937 94.273267 
L 77.973067 98.960582 
L 81.695197 117.709841 
L 85.417328 117.709841 
L 89.139458 129.167722 
L 92.861589 138.281946 
L 96.583719 145.573324 
L 100.305849 142.969261 
L 104.02798 148.698201 
L 107.75011 160.676895 
L 111.472241 164.062178 
L 115.194371 160.937301 
L 118.916501 164.062178 
L 122.638632 166.926648 
L 126.360762 169.270305 
L 130.082893 171.353557 
L 133.805023 168.749493 
L 137.527153 175.259652 
L 141.249284 172.655588 
L 144.971414 178.384529 
L 148.693545 183.592657 
L 152.415675 180.988593 
L 156.137805 182.030218 
L 159.859936 183.071844 
L 163.582066 187.498752 
L 167.304197 191.404848 
L 171.026327 195.050538 
L 174.748457 195.57135 
L 178.470588 196.092163 
L 182.192718 196.612976 
L 185.914848 191.404848 
L 189.636979 194.790131 
L 193.359109 195.050538 
L 197.08124 195.57135 
L 200.80337 195.831757 
L 204.5255 196.352569 
L 208.247631 196.612976 
L 211.969761 199.21704 
L 215.691892 201.821104 
L 219.414022 199.737852 
L 223.136152 202.08151 
L 226.858283 204.425167 
L 230.580413 206.508418 
L 234.302544 204.685574 
L 238.024674 202.862729 
L 241.746804 203.123135 
L 245.468935 203.123135 
L 249.191065 197.915008 
L 252.913196 199.998259 
L 256.635326 201.821104 
L 260.357456 203.643948 
L 264.079587 203.904355 
L 267.801717 202.341916 
L 271.523848 204.164761 
L 275.245978 202.602323 
L 278.968108 202.862729 
L 282.690239 204.425167 
L 286.412369 204.425167 
L 290.1345 206.248012 
L 293.85663 207.81045 
L 297.57876 207.81045 
L 301.300891 209.112482 
L 305.023021 210.674921 
L 308.745152 211.976953 
L 312.467282 213.278984 
L 316.189412 211.976953 
L 319.911543 213.278984 
L 323.633673 213.278984 
L 327.355803 214.581016 
L 331.077934 215.622642 
L 334.800064 214.32061 
L 338.522195 213.018578 
L 342.244325 211.976953 
L 345.966455 210.674921 
L 349.688586 210.674921 
L 353.410716 209.372889 
L 357.132847 208.331263 
L 360.854977 208.331263 
L 364.577107 207.289638 
L 368.299238 207.289638 
L 372.021368 206.248012 
L 375.743499 206.248012 
L 379.465629 204.164761 
L 383.187759 203.123135 
L 386.90989 203.123135 
L 390.63202 203.383542 
L 394.354151 201.300291 
L 398.076281 199.477446 
L 401.798411 198.435821 
L 405.520542 196.612976 
L 409.242672 195.831757 
L 412.964803 195.831757 
L 416.686933 196.092163 
L 420.409063 195.310944 
L 424.131194 193.488099 
L 427.853324 193.748506 
L 431.575455 192.967286 
" clip-path="url(#pfcd3758c58)" style="fill: none; stroke: #2ca02c; stroke-width: 1.5; stroke-linecap: square"/>
    <defs>
     <path id="md760c51209" d="M 0 3 
C 0.795609 3 1.55874 2.683901 2.12132 2.12132 
C 2.683901 1.55874 3 0.795609 3 0 
C 3 -0.795609 2.683901 -1.55874 2.12132 -2.12132 
C 1.55874 -2.683901 0.795609 -3 0 -3 
C -0.795609 -3 -1.55874 -2.683901 -2.12132 -2.12132 
C -2.683901 -1.55874 -3 -0.795609 -3 0 
C -3 0.795609 -2.683901 1.55874 -2.12132 2.12132 
C -1.55874 2.683901 -0.795609 3 0 3 
z
" style="stroke: #2ca02c"/>
    </defs>
    <g clip-path="url(#pfcd3758c58)">
     <use xlink:href="#md760c51209" x="63.084545" y="117.709841" style="fill: #2ca02c; stroke: #2ca02c"/>
     <use xlink:href="#md760c51209" x="66.806676" y="24.744762" style="fill: #2ca02c; stroke: #2ca02c"/>
     <use xlink:href="#md760c51209" x="70.528806" y="24.744762" style="fill: #2ca02c; stroke: #2ca02c"/>
     <use xlink:href="#md760c51209" x="74.250937" y="94.273267" style="fill: #2ca02c; stroke: #2ca02c"/>
     <use xlink:href="#md760c51209" x="77.973067" y="98.960582" style="fill: #2ca02c; stroke: #2ca02c"/>
     <use xlink:href="#md760c51209" x="81.695197" y="117.709841" style="fill: #2ca02c; stroke: #2ca02c"/>
     <use xlink:href="#md760c51209" x="85.417328" y="117.709841" style="fill: #2ca02c; stroke: #2ca02c"/>
     <use xlink:href="#md760c51209" x="89.139458" y="129.167722" style="fill: #2ca02c; stroke: #2ca02c"/>
     <use xlink:href="#md760c51209" x="92.861589" y="138.281946" style="fill: #2ca02c; stroke: #2ca02c"/>
     <use xlink:href="#md760c51209" x="96.583719" y="145.573324" style="fill: #2ca02c; stroke: #2ca02c"/>
     <use xlink:href="#md760c51209" x="100.305849" y="142.969261" style="fill: #2ca02c; stroke: #2ca02c"/>
     <use xlink:href="#md760c51209" x="104.02798" y="148.698201" style="fill: #2ca02c; stroke: #2ca02c"/>
     <use xlink:href="#md760c51209" x="107.75011" y="160.676895" style="fill: #2ca02c; stroke: #2ca02c"/>
     <use xlink:href="#md760c51209" x="111.472241" y="164.062178" style="fill: #2ca02c; stroke: #2ca02c"/>
     <use xlink:href="#md760c51209" x="115.194371" y="160.937301" style="fill: #2ca02c; stroke: #2ca02c"/>
     <use xlink:href="#md760c51209" x="118.916501" y="164.062178" style="fill: #2ca02c; stroke: #2ca02c"/>
     <use xlink:href="#md760c51209" x="122.638632" y="166.926648" style="fill: #2ca02c; stroke: #2ca02c"/>
     <use xlink:href="#md760c51209" x="126.360762" y="169.270305" style="fill: #2ca02c; stroke: #2ca02c"/>
     <use xlink:href="#md760c51209" x="130.082893" y="171.353557" style="fill: #2ca02c; stroke: #2ca02c"/>
     <use xlink:href="#md760c51209" x="133.805023" y="168.749493" style="fill: #2ca02c; stroke: #2ca02c"/>
     <use xlink:href="#md760c51209" x="137.527153" y="175.259652" style="fill: #2ca02c; stroke: #2ca02c"/>
     <use xlink:href="#md760c51209" x="141.249284" y="172.655588" style="fill: #2ca02c; stroke: #2ca02c"/>
     <use xlink:href="#md760c51209" x="144.971414" y="178.384529" style="fill: #2ca02c; stroke: #2ca02c"/>
     <use xlink:href="#md760c51209" x="148.693545" y="183.592657" style="fill: #2ca02c; stroke: #2ca02c"/>
     <use xlink:href="#md760c51209" x="152.415675" y="180.988593" style="fill: #2ca02c; stroke: #2ca02c"/>
     <use xlink:href="#md760c51209" x="156.137805" y="182.030218" style="fill: #2ca02c; stroke: #2ca02c"/>
     <use xlink:href="#md760c51209" x="159.859936" y="183.071844" style="fill: #2ca02c; stroke: #2ca02c"/>
     <use xlink:href="#md760c51209" x="163.582066" y="187.498752" style="fill: #2ca02c; stroke: #2ca02c"/>
     <use xlink:href="#md760c51209" x="167.304197" y="191.404848" style="fill: #2ca02c; stroke: #2ca02c"/>
     <use xlink:href="#md760c51209" x="171.026327" y="195.050538" style="fill: #2ca02c; stroke: #2ca02c"/>
     <use xlink:href="#md760c51209" x="174.748457" y="195.57135" style="fill: #2ca02c; stroke: #2ca02c"/>
     <use xlink:href="#md760c51209" x="178.470588" y="196.092163" style="fill: #2ca02c; stroke: #2ca02c"/>
     <use xlink:href="#md760c51209" x="182.192718" y="196.612976" style="fill: #2ca02c; stroke: #2ca02c"/>
     <use xlink:href="#md760c51209" x="185.914848" y="191.404848" style="fill: #2ca02c; stroke: #2ca02c"/>
     <use xlink:href="#md760c51209" x="189.636979" y="194.790131" style="fill: #2ca02c; stroke: #2ca02c"/>
     <use xlink:href="#md760c51209" x="193.359109" y="195.050538" style="fill: #2ca02c; stroke: #2ca02c"/>
     <use xlink:href="#md760c51209" x="197.08124" y="195.57135" style="fill: #2ca02c; stroke: #2ca02c"/>
     <use xlink:href="#md760c51209" x="200.80337" y="195.831757" style="fill: #2ca02c; stroke: #2ca02c"/>
     <use xlink:href="#md760c51209" x="204.5255" y="196.352569" style="fill: #2ca02c; stroke: #2ca02c"/>
     <use xlink:href="#md760c51209" x="208.247631" y="196.612976" style="fill: #2ca02c; stroke: #2ca02c"/>
     <use xlink:href="#md760c51209" x="211.969761" y="199.21704" style="fill: #2ca02c; stroke: #2ca02c"/>
     <use xlink:href="#md760c51209" x="215.691892" y="201.821104" style="fill: #2ca02c; stroke: #2ca02c"/>
     <use xlink:href="#md760c51209" x="219.414022" y="199.737852" style="fill: #2ca02c; stroke: #2ca02c"/>
     <use xlink:href="#md760c51209" x="223.136152" y="202.08151" style="fill: #2ca02c; stroke: #2ca02c"/>
     <use xlink:href="#md760c51209" x="226.858283" y="204.425167" style="fill: #2ca02c; stroke: #2ca02c"/>
     <use xlink:href="#md760c51209" x="230.580413" y="206.508418" style="fill: #2ca02c; stroke: #2ca02c"/>
     <use xlink:href="#md760c51209" x="234.302544" y="204.685574" style="fill: #2ca02c; stroke: #2ca02c"/>
     <use xlink:href="#md760c51209" x="238.024674" y="202.862729" style="fill: #2ca02c; stroke: #2ca02c"/>
     <use xlink:href="#md760c51209" x="241.746804" y="203.123135" style="fill: #2ca02c; stroke: #2ca02c"/>
     <use xlink:href="#md760c51209" x="245.468935" y="203.123135" style="fill: #2ca02c; stroke: #2ca02c"/>
     <use xlink:href="#md760c51209" x="249.191065" y="197.915008" style="fill: #2ca02c; stroke: #2ca02c"/>
     <use xlink:href="#md760c51209" x="252.913196" y="199.998259" style="fill: #2ca02c; stroke: #2ca02c"/>
     <use xlink:href="#md760c51209" x="256.635326" y="201.821104" style="fill: #2ca02c; stroke: #2ca02c"/>
     <use xlink:href="#md760c51209" x="260.357456" y="203.643948" style="fill: #2ca02c; stroke: #2ca02c"/>
     <use xlink:href="#md760c51209" x="264.079587" y="203.904355" style="fill: #2ca02c; stroke: #2ca02c"/>
     <use xlink:href="#md760c51209" x="267.801717" y="202.341916" style="fill: #2ca02c; stroke: #2ca02c"/>
     <use xlink:href="#md760c51209" x="271.523848" y="204.164761" style="fill: #2ca02c; stroke: #2ca02c"/>
     <use xlink:href="#md760c51209" x="275.245978" y="202.602323" style="fill: #2ca02c; stroke: #2ca02c"/>
     <use xlink:href="#md760c51209" x="278.968108" y="202.862729" style="fill: #2ca02c; stroke: #2ca02c"/>
     <use xlink:href="#md760c51209" x="282.690239" y="204.425167" style="fill: #2ca02c; stroke: #2ca02c"/>
     <use xlink:href="#md760c51209" x="286.412369" y="204.425167" style="fill: #2ca02c; stroke: #2ca02c"/>
     <use xlink:href="#md760c51209" x="290.1345" y="206.248012" style="fill: #2ca02c; stroke: #2ca02c"/>
     <use xlink:href="#md760c51209" x="293.85663" y="207.81045" style="fill: #2ca02c; stroke: #2ca02c"/>
     <use xlink:href="#md760c51209" x="297.57876" y="207.81045" style="fill: #2ca02c; stroke: #2ca02c"/>
     <use xlink:href="#md760c51209" x="301.300891" y="209.112482" style="fill: #2ca02c; stroke: #2ca02c"/>
     <use xlink:href="#md760c51209" x="305.023021" y="210.674921" style="fill: #2ca02c; stroke: #2ca02c"/>
     <use xlink:href="#md760c51209" x="308.745152" y="211.976953" style="fill: #2ca02c; stroke: #2ca02c"/>
     <use xlink:href="#md760c51209" x="312.467282" y="213.278984" style="fill: #2ca02c; stroke: #2ca02c"/>
     <use xlink:href="#md760c51209" x="316.189412" y="211.976953" style="fill: #2ca02c; stroke: #2ca02c"/>
     <use xlink:href="#md760c51209" x="319.911543" y="213.278984" style="fill: #2ca02c; stroke: #2ca02c"/>
     <use xlink:href="#md760c51209" x="323.633673" y="213.278984" style="fill: #2ca02c; stroke: #2ca02c"/>
     <use xlink:href="#md760c51209" x="327.355803" y="214.581016" style="fill: #2ca02c; stroke: #2ca02c"/>
     <use xlink:href="#md760c51209" x="331.077934" y="215.622642" style="fill: #2ca02c; stroke: #2ca02c"/>
     <use xlink:href="#md760c51209" x="334.800064" y="214.32061" style="fill: #2ca02c; stroke: #2ca02c"/>
     <use xlink:href="#md760c51209" x="338.522195" y="213.018578" style="fill: #2ca02c; stroke: #2ca02c"/>
     <use xlink:href="#md760c51209" x="342.244325" y="211.976953" style="fill: #2ca02c; stroke: #2ca02c"/>
     <use xlink:href="#md760c51209" x="345.966455" y="210.674921" style="fill: #2ca02c; stroke: #2ca02c"/>
     <use xlink:href="#md760c51209" x="349.688586" y="210.674921" style="fill: #2ca02c; stroke: #2ca02c"/>
     <use xlink:href="#md760c51209" x="353.410716" y="209.372889" style="fill: #2ca02c; stroke: #2ca02c"/>
     <use xlink:href="#md760c51209" x="357.132847" y="208.331263" style="fill: #2ca02c; stroke: #2ca02c"/>
     <use xlink:href="#md760c51209" x="360.854977" y="208.331263" style="fill: #2ca02c; stroke: #2ca02c"/>
     <use xlink:href="#md760c51209" x="364.577107" y="207.289638" style="fill: #2ca02c; stroke: #2ca02c"/>
     <use xlink:href="#md760c51209" x="368.299238" y="207.289638" style="fill: #2ca02c; stroke: #2ca02c"/>
     <use xlink:href="#md760c51209" x="372.021368" y="206.248012" style="fill: #2ca02c; stroke: #2ca02c"/>
     <use xlink:href="#md760c51209" x="375.743499" y="206.248012" style="fill: #2ca02c; stroke: #2ca02c"/>
     <use xlink:href="#md760c51209" x="379.465629" y="204.164761" style="fill: #2ca02c; stroke: #2ca02c"/>
     <use xlink:href="#md760c51209" x="383.187759" y="203.123135" style="fill: #2ca02c; stroke: #2ca02c"/>
     <use xlink:href="#md760c51209" x="386.90989" y="203.123135" style="fill: #2ca02c; stroke: #2ca02c"/>
     <use xlink:href="#md760c51209" x="390.63202" y="203.383542" style="fill: #2ca02c; stroke: #2ca02c"/>
     <use xlink:href="#md760c51209" x="394.354151" y="201.300291" style="fill: #2ca02c; stroke: #2ca02c"/>
     <use xlink:href="#md760c51209" x="398.076281" y="199.477446" style="fill: #2ca02c; stroke: #2ca02c"/>
     <use xlink:href="#md760c51209" x="401.798411" y="198.435821" style="fill: #2ca02c; stroke: #2ca02c"/>
     <use xlink:href="#md760c51209" x="405.520542" y="196.612976" style="fill: #2ca02c; stroke: #2ca02c"/>
     <use xlink:href="#md760c51209" x="409.242672" y="195.831757" style="fill: #2ca02c; stroke: #2ca02c"/>
     <use xlink:href="#md760c51209" x="412.964803" y="195.831757" style="fill: #2ca02c; stroke: #2ca02c"/>
     <use xlink:href="#md760c51209" x="416.686933" y="196.092163" style="fill: #2ca02c; stroke: #2ca02c"/>
     <use xlink:href="#md760c51209" x="420.409063" y="195.310944" style="fill: #2ca02c; stroke: #2ca02c"/>
     <use xlink:href="#md760c51209" x="424.131194" y="193.488099" style="fill: #2ca02c; stroke: #2ca02c"/>
     <use xlink:href="#md760c51209" x="427.853324" y="193.748506" style="fill: #2ca02c; stroke: #2ca02c"/>
     <use xlink:href="#md760c51209" x="431.575455" y="192.967286" style="fill: #2ca02c; stroke: #2ca02c"/>
    </g>
   </g>
   <g id="line2d_22">
    <path d="M 63.084545 24.744762 
L 66.806676 71.097098 
L 70.528806 86.721481 
L 74.250937 94.273267 
L 77.973067 117.709841 
L 81.695197 133.073818 
L 85.417328 144.271293 
L 89.139458 164.062178 
L 92.861589 158.85405 
L 96.583719 145.573324 
L 100.305849 159.895676 
L 104.02798 164.062178 
L 107.75011 160.676895 
L 111.472241 164.062178 
L 115.194371 167.187054 
L 118.916501 164.062178 
L 122.638632 172.395182 
L 126.360762 174.478433 
L 130.082893 176.301278 
L 133.805023 182.811437 
L 137.527153 184.113469 
L 141.249284 185.155095 
L 144.971414 186.457127 
L 148.693545 191.144442 
L 152.415675 191.925661 
L 156.137805 189.061191 
L 159.859936 183.071844 
L 163.582066 187.498752 
L 167.304197 191.404848 
L 171.026327 189.061191 
L 174.748457 192.70688 
L 178.470588 190.363223 
L 182.192718 185.155095 
L 185.914848 185.936314 
L 189.636979 189.321597 
L 193.359109 189.84241 
L 197.08124 188.019565 
L 200.80337 188.540378 
L 204.5255 184.373876 
L 208.247631 187.498752 
L 211.969761 188.019565 
L 215.691892 184.113469 
L 219.414022 186.717533 
L 223.136152 183.071844 
L 226.858283 181.769812 
L 230.580413 182.290625 
L 234.302544 184.894689 
L 238.024674 187.498752 
L 241.746804 187.759159 
L 245.468935 184.634282 
L 249.191065 185.155095 
L 252.913196 185.675908 
L 256.635326 184.373876 
L 260.357456 186.457127 
L 264.079587 188.540378 
L 267.801717 187.498752 
L 271.523848 187.759159 
L 275.245978 188.279972 
L 278.968108 190.102816 
L 282.690239 189.061191 
L 286.412369 187.759159 
L 290.1345 186.717533 
L 293.85663 186.97794 
L 297.57876 185.936314 
L 301.300891 184.894689 
L 305.023021 183.853063 
L 308.745152 185.675908 
L 312.467282 185.936314 
L 316.189412 187.759159 
L 319.911543 185.415501 
L 323.633673 185.675908 
L 327.355803 186.19672 
L 331.077934 186.457127 
L 334.800064 185.415501 
L 338.522195 185.936314 
L 342.244325 186.19672 
L 345.966455 186.457127 
L 349.688586 188.019565 
L 353.410716 188.279972 
L 357.132847 186.19672 
L 360.854977 186.457127 
L 364.577107 184.634282 
L 368.299238 183.853063 
L 372.021368 184.113469 
L 375.743499 184.373876 
L 379.465629 185.675908 
L 383.187759 184.894689 
L 386.90989 186.457127 
L 390.63202 186.717533 
L 394.354151 188.019565 
L 398.076281 189.061191 
L 401.798411 190.363223 
L 405.520542 190.623629 
L 409.242672 190.884035 
L 412.964803 191.925661 
L 416.686933 192.186067 
L 420.409063 193.488099 
L 424.131194 193.488099 
L 427.853324 192.70688 
L 431.575455 191.925661 
" clip-path="url(#pfcd3758c58)" style="fill: none; stroke: #d62728; stroke-width: 1.5; stroke-linecap: square"/>
    <defs>
     <path id="m00076c3806" d="M 0 3 
C 0.795609 3 1.55874 2.683901 2.12132 2.12132 
C 2.683901 1.55874 3 0.795609 3 0 
C 3 -0.795609 2.683901 -1.55874 2.12132 -2.12132 
C 1.55874 -2.683901 0.795609 -3 0 -3 
C -0.795609 -3 -1.55874 -2.683901 -2.12132 -2.12132 
C -2.683901 -1.55874 -3 -0.795609 -3 0 
C -3 0.795609 -2.683901 1.55874 -2.12132 2.12132 
C -1.55874 2.683901 -0.795609 3 0 3 
z
" style="stroke: #d62728"/>
    </defs>
    <g clip-path="url(#pfcd3758c58)">
     <use xlink:href="#m00076c3806" x="63.084545" y="24.744762" style="fill: #d62728; stroke: #d62728"/>
     <use xlink:href="#m00076c3806" x="66.806676" y="71.097098" style="fill: #d62728; stroke: #d62728"/>
     <use xlink:href="#m00076c3806" x="70.528806" y="86.721481" style="fill: #d62728; stroke: #d62728"/>
     <use xlink:href="#m00076c3806" x="74.250937" y="94.273267" style="fill: #d62728; stroke: #d62728"/>
     <use xlink:href="#m00076c3806" x="77.973067" y="117.709841" style="fill: #d62728; stroke: #d62728"/>
     <use xlink:href="#m00076c3806" x="81.695197" y="133.073818" style="fill: #d62728; stroke: #d62728"/>
     <use xlink:href="#m00076c3806" x="85.417328" y="144.271293" style="fill: #d62728; stroke: #d62728"/>
     <use xlink:href="#m00076c3806" x="89.139458" y="164.062178" style="fill: #d62728; stroke: #d62728"/>
     <use xlink:href="#m00076c3806" x="92.861589" y="158.85405" style="fill: #d62728; stroke: #d62728"/>
     <use xlink:href="#m00076c3806" x="96.583719" y="145.573324" style="fill: #d62728; stroke: #d62728"/>
     <use xlink:href="#m00076c3806" x="100.305849" y="159.895676" style="fill: #d62728; stroke: #d62728"/>
     <use xlink:href="#m00076c3806" x="104.02798" y="164.062178" style="fill: #d62728; stroke: #d62728"/>
     <use xlink:href="#m00076c3806" x="107.75011" y="160.676895" style="fill: #d62728; stroke: #d62728"/>
     <use xlink:href="#m00076c3806" x="111.472241" y="164.062178" style="fill: #d62728; stroke: #d62728"/>
     <use xlink:href="#m00076c3806" x="115.194371" y="167.187054" style="fill: #d62728; stroke: #d62728"/>
     <use xlink:href="#m00076c3806" x="118.916501" y="164.062178" style="fill: #d62728; stroke: #d62728"/>
     <use xlink:href="#m00076c3806" x="122.638632" y="172.395182" style="fill: #d62728; stroke: #d62728"/>
     <use xlink:href="#m00076c3806" x="126.360762" y="174.478433" style="fill: #d62728; stroke: #d62728"/>
     <use xlink:href="#m00076c3806" x="130.082893" y="176.301278" style="fill: #d62728; stroke: #d62728"/>
     <use xlink:href="#m00076c3806" x="133.805023" y="182.811437" style="fill: #d62728; stroke: #d62728"/>
     <use xlink:href="#m00076c3806" x="137.527153" y="184.113469" style="fill: #d62728; stroke: #d62728"/>
     <use xlink:href="#m00076c3806" x="141.249284" y="185.155095" style="fill: #d62728; stroke: #d62728"/>
     <use xlink:href="#m00076c3806" x="144.971414" y="186.457127" style="fill: #d62728; stroke: #d62728"/>
     <use xlink:href="#m00076c3806" x="148.693545" y="191.144442" style="fill: #d62728; stroke: #d62728"/>
     <use xlink:href="#m00076c3806" x="152.415675" y="191.925661" style="fill: #d62728; stroke: #d62728"/>
     <use xlink:href="#m00076c3806" x="156.137805" y="189.061191" style="fill: #d62728; stroke: #d62728"/>
     <use xlink:href="#m00076c3806" x="159.859936" y="183.071844" style="fill: #d62728; stroke: #d62728"/>
     <use xlink:href="#m00076c3806" x="163.582066" y="187.498752" style="fill: #d62728; stroke: #d62728"/>
     <use xlink:href="#m00076c3806" x="167.304197" y="191.404848" style="fill: #d62728; stroke: #d62728"/>
     <use xlink:href="#m00076c3806" x="171.026327" y="189.061191" style="fill: #d62728; stroke: #d62728"/>
     <use xlink:href="#m00076c3806" x="174.748457" y="192.70688" style="fill: #d62728; stroke: #d62728"/>
     <use xlink:href="#m00076c3806" x="178.470588" y="190.363223" style="fill: #d62728; stroke: #d62728"/>
     <use xlink:href="#m00076c3806" x="182.192718" y="185.155095" style="fill: #d62728; stroke: #d62728"/>
     <use xlink:href="#m00076c3806" x="185.914848" y="185.936314" style="fill: #d62728; stroke: #d62728"/>
     <use xlink:href="#m00076c3806" x="189.636979" y="189.321597" style="fill: #d62728; stroke: #d62728"/>
     <use xlink:href="#m00076c3806" x="193.359109" y="189.84241" style="fill: #d62728; stroke: #d62728"/>
     <use xlink:href="#m00076c3806" x="197.08124" y="188.019565" style="fill: #d62728; stroke: #d62728"/>
     <use xlink:href="#m00076c3806" x="200.80337" y="188.540378" style="fill: #d62728; stroke: #d62728"/>
     <use xlink:href="#m00076c3806" x="204.5255" y="184.373876" style="fill: #d62728; stroke: #d62728"/>
     <use xlink:href="#m00076c3806" x="208.247631" y="187.498752" style="fill: #d62728; stroke: #d62728"/>
     <use xlink:href="#m00076c3806" x="211.969761" y="188.019565" style="fill: #d62728; stroke: #d62728"/>
     <use xlink:href="#m00076c3806" x="215.691892" y="184.113469" style="fill: #d62728; stroke: #d62728"/>
     <use xlink:href="#m00076c3806" x="219.414022" y="186.717533" style="fill: #d62728; stroke: #d62728"/>
     <use xlink:href="#m00076c3806" x="223.136152" y="183.071844" style="fill: #d62728; stroke: #d62728"/>
     <use xlink:href="#m00076c3806" x="226.858283" y="181.769812" style="fill: #d62728; stroke: #d62728"/>
     <use xlink:href="#m00076c3806" x="230.580413" y="182.290625" style="fill: #d62728; stroke: #d62728"/>
     <use xlink:href="#m00076c3806" x="234.302544" y="184.894689" style="fill: #d62728; stroke: #d62728"/>
     <use xlink:href="#m00076c3806" x="238.024674" y="187.498752" style="fill: #d62728; stroke: #d62728"/>
     <use xlink:href="#m00076c3806" x="241.746804" y="187.759159" style="fill: #d62728; stroke: #d62728"/>
     <use xlink:href="#m00076c3806" x="245.468935" y="184.634282" style="fill: #d62728; stroke: #d62728"/>
     <use xlink:href="#m00076c3806" x="249.191065" y="185.155095" style="fill: #d62728; stroke: #d62728"/>
     <use xlink:href="#m00076c3806" x="252.913196" y="185.675908" style="fill: #d62728; stroke: #d62728"/>
     <use xlink:href="#m00076c3806" x="256.635326" y="184.373876" style="fill: #d62728; stroke: #d62728"/>
     <use xlink:href="#m00076c3806" x="260.357456" y="186.457127" style="fill: #d62728; stroke: #d62728"/>
     <use xlink:href="#m00076c3806" x="264.079587" y="188.540378" style="fill: #d62728; stroke: #d62728"/>
     <use xlink:href="#m00076c3806" x="267.801717" y="187.498752" style="fill: #d62728; stroke: #d62728"/>
     <use xlink:href="#m00076c3806" x="271.523848" y="187.759159" style="fill: #d62728; stroke: #d62728"/>
     <use xlink:href="#m00076c3806" x="275.245978" y="188.279972" style="fill: #d62728; stroke: #d62728"/>
     <use xlink:href="#m00076c3806" x="278.968108" y="190.102816" style="fill: #d62728; stroke: #d62728"/>
     <use xlink:href="#m00076c3806" x="282.690239" y="189.061191" style="fill: #d62728; stroke: #d62728"/>
     <use xlink:href="#m00076c3806" x="286.412369" y="187.759159" style="fill: #d62728; stroke: #d62728"/>
     <use xlink:href="#m00076c3806" x="290.1345" y="186.717533" style="fill: #d62728; stroke: #d62728"/>
     <use xlink:href="#m00076c3806" x="293.85663" y="186.97794" style="fill: #d62728; stroke: #d62728"/>
     <use xlink:href="#m00076c3806" x="297.57876" y="185.936314" style="fill: #d62728; stroke: #d62728"/>
     <use xlink:href="#m00076c3806" x="301.300891" y="184.894689" style="fill: #d62728; stroke: #d62728"/>
     <use xlink:href="#m00076c3806" x="305.023021" y="183.853063" style="fill: #d62728; stroke: #d62728"/>
     <use xlink:href="#m00076c3806" x="308.745152" y="185.675908" style="fill: #d62728; stroke: #d62728"/>
     <use xlink:href="#m00076c3806" x="312.467282" y="185.936314" style="fill: #d62728; stroke: #d62728"/>
     <use xlink:href="#m00076c3806" x="316.189412" y="187.759159" style="fill: #d62728; stroke: #d62728"/>
     <use xlink:href="#m00076c3806" x="319.911543" y="185.415501" style="fill: #d62728; stroke: #d62728"/>
     <use xlink:href="#m00076c3806" x="323.633673" y="185.675908" style="fill: #d62728; stroke: #d62728"/>
     <use xlink:href="#m00076c3806" x="327.355803" y="186.19672" style="fill: #d62728; stroke: #d62728"/>
     <use xlink:href="#m00076c3806" x="331.077934" y="186.457127" style="fill: #d62728; stroke: #d62728"/>
     <use xlink:href="#m00076c3806" x="334.800064" y="185.415501" style="fill: #d62728; stroke: #d62728"/>
     <use xlink:href="#m00076c3806" x="338.522195" y="185.936314" style="fill: #d62728; stroke: #d62728"/>
     <use xlink:href="#m00076c3806" x="342.244325" y="186.19672" style="fill: #d62728; stroke: #d62728"/>
     <use xlink:href="#m00076c3806" x="345.966455" y="186.457127" style="fill: #d62728; stroke: #d62728"/>
     <use xlink:href="#m00076c3806" x="349.688586" y="188.019565" style="fill: #d62728; stroke: #d62728"/>
     <use xlink:href="#m00076c3806" x="353.410716" y="188.279972" style="fill: #d62728; stroke: #d62728"/>
     <use xlink:href="#m00076c3806" x="357.132847" y="186.19672" style="fill: #d62728; stroke: #d62728"/>
     <use xlink:href="#m00076c3806" x="360.854977" y="186.457127" style="fill: #d62728; stroke: #d62728"/>
     <use xlink:href="#m00076c3806" x="364.577107" y="184.634282" style="fill: #d62728; stroke: #d62728"/>
     <use xlink:href="#m00076c3806" x="368.299238" y="183.853063" style="fill: #d62728; stroke: #d62728"/>
     <use xlink:href="#m00076c3806" x="372.021368" y="184.113469" style="fill: #d62728; stroke: #d62728"/>
     <use xlink:href="#m00076c3806" x="375.743499" y="184.373876" style="fill: #d62728; stroke: #d62728"/>
     <use xlink:href="#m00076c3806" x="379.465629" y="185.675908" style="fill: #d62728; stroke: #d62728"/>
     <use xlink:href="#m00076c3806" x="383.187759" y="184.894689" style="fill: #d62728; stroke: #d62728"/>
     <use xlink:href="#m00076c3806" x="386.90989" y="186.457127" style="fill: #d62728; stroke: #d62728"/>
     <use xlink:href="#m00076c3806" x="390.63202" y="186.717533" style="fill: #d62728; stroke: #d62728"/>
     <use xlink:href="#m00076c3806" x="394.354151" y="188.019565" style="fill: #d62728; stroke: #d62728"/>
     <use xlink:href="#m00076c3806" x="398.076281" y="189.061191" style="fill: #d62728; stroke: #d62728"/>
     <use xlink:href="#m00076c3806" x="401.798411" y="190.363223" style="fill: #d62728; stroke: #d62728"/>
     <use xlink:href="#m00076c3806" x="405.520542" y="190.623629" style="fill: #d62728; stroke: #d62728"/>
     <use xlink:href="#m00076c3806" x="409.242672" y="190.884035" style="fill: #d62728; stroke: #d62728"/>
     <use xlink:href="#m00076c3806" x="412.964803" y="191.925661" style="fill: #d62728; stroke: #d62728"/>
     <use xlink:href="#m00076c3806" x="416.686933" y="192.186067" style="fill: #d62728; stroke: #d62728"/>
     <use xlink:href="#m00076c3806" x="420.409063" y="193.488099" style="fill: #d62728; stroke: #d62728"/>
     <use xlink:href="#m00076c3806" x="424.131194" y="193.488099" style="fill: #d62728; stroke: #d62728"/>
     <use xlink:href="#m00076c3806" x="427.853324" y="192.70688" style="fill: #d62728; stroke: #d62728"/>
     <use xlink:href="#m00076c3806" x="431.575455" y="191.925661" style="fill: #d62728; stroke: #d62728"/>
    </g>
   </g>
   <g id="patch_3">
    <path d="M 44.66 303.64 
L 44.66 10.8 
" style="fill: none; stroke: #000000; stroke-width: 0.8; stroke-linejoin: miter; stroke-linecap: square"/>
   </g>
   <g id="patch_4">
    <path d="M 450 303.64 
L 450 10.8 
" style="fill: none; stroke: #000000; stroke-width: 0.8; stroke-linejoin: miter; stroke-linecap: square"/>
   </g>
   <g id="patch_5">
    <path d="M 44.66 303.64 
L 450 303.64 
" style="fill: none; stroke: #000000; stroke-width: 0.8; stroke-linejoin: miter; stroke-linecap: square"/>
   </g>
   <g id="patch_6">
    <path d="M 44.66 10.8 
L 450 10.8 
" style="fill: none; stroke: #000000; stroke-width: 0.8; stroke-linejoin: miter; stroke-linecap: square"/>
   </g>
   <g id="legend_1">
    <g id="patch_7">
     <path d="M 151.534375 77.5125 
L 443 77.5125 
Q 445 77.5125 445 75.5125 
L 445 17.8 
Q 445 15.8 443 15.8 
L 151.534375 15.8 
Q 149.534375 15.8 149.534375 17.8 
L 149.534375 75.5125 
Q 149.534375 77.5125 151.534375 77.5125 
z
" style="fill: #ffffff; opacity: 0.8; stroke: #cccccc; stroke-linejoin: miter"/>
    </g>
    <g id="line2d_23">
     <path d="M 153.534375 23.898438 
L 163.534375 23.898438 
L 173.534375 23.898438 
" style="fill: none; stroke: #1f77b4; stroke-width: 1.5; stroke-linecap: square"/>
     <g>
      <use xlink:href="#m79fd536758" x="163.534375" y="23.898438" style="fill: #1f77b4; stroke: #1f77b4"/>
     </g>
    </g>
    <g id="text_21">
     <!-- Defects4J x SelfAPR: Initialization -->
     <g transform="translate(181.534375 27.398438)scale(0.1 -0.1)">
      <defs>
       <path id="DejaVuSans-44" d="M 1259 4147 
L 1259 519 
L 2022 519 
Q 2988 519 3436 956 
Q 3884 1394 3884 2338 
Q 3884 3275 3436 3711 
Q 2988 4147 2022 4147 
L 1259 4147 
z
M 628 4666 
L 1925 4666 
Q 3281 4666 3915 4102 
Q 4550 3538 4550 2338 
Q 4550 1131 3912 565 
Q 3275 0 1925 0 
L 628 0 
L 628 4666 
z
" transform="scale(0.015625)"/>
       <path id="DejaVuSans-4a" d="M 628 4666 
L 1259 4666 
L 1259 325 
Q 1259 -519 939 -900 
Q 619 -1281 -91 -1281 
L -331 -1281 
L -331 -750 
L -134 -750 
Q 284 -750 456 -515 
Q 628 -281 628 325 
L 628 4666 
z
" transform="scale(0.015625)"/>
       <path id="DejaVuSans-78" d="M 3513 3500 
L 2247 1797 
L 3578 0 
L 2900 0 
L 1881 1375 
L 863 0 
L 184 0 
L 1544 1831 
L 300 3500 
L 978 3500 
L 1906 2253 
L 2834 3500 
L 3513 3500 
z
" transform="scale(0.015625)"/>
       <path id="DejaVuSans-53" d="M 3425 4513 
L 3425 3897 
Q 3066 4069 2747 4153 
Q 2428 4238 2131 4238 
Q 1616 4238 1336 4038 
Q 1056 3838 1056 3469 
Q 1056 3159 1242 3001 
Q 1428 2844 1947 2747 
L 2328 2669 
Q 3034 2534 3370 2195 
Q 3706 1856 3706 1288 
Q 3706 609 3251 259 
Q 2797 -91 1919 -91 
Q 1588 -91 1214 -16 
Q 841 59 441 206 
L 441 856 
Q 825 641 1194 531 
Q 1563 422 1919 422 
Q 2459 422 2753 634 
Q 3047 847 3047 1241 
Q 3047 1584 2836 1778 
Q 2625 1972 2144 2069 
L 1759 2144 
Q 1053 2284 737 2584 
Q 422 2884 422 3419 
Q 422 4038 858 4394 
Q 1294 4750 2059 4750 
Q 2388 4750 2728 4690 
Q 3069 4631 3425 4513 
z
" transform="scale(0.015625)"/>
       <path id="DejaVuSans-41" d="M 2188 4044 
L 1331 1722 
L 3047 1722 
L 2188 4044 
z
M 1831 4666 
L 2547 4666 
L 4325 0 
L 3669 0 
L 3244 1197 
L 1141 1197 
L 716 0 
L 50 0 
L 1831 4666 
z
" transform="scale(0.015625)"/>
       <path id="DejaVuSans-52" d="M 2841 2188 
Q 3044 2119 3236 1894 
Q 3428 1669 3622 1275 
L 4263 0 
L 3584 0 
L 2988 1197 
Q 2756 1666 2539 1819 
Q 2322 1972 1947 1972 
L 1259 1972 
L 1259 0 
L 628 0 
L 628 4666 
L 2053 4666 
Q 2853 4666 3247 4331 
Q 3641 3997 3641 3322 
Q 3641 2881 3436 2590 
Q 3231 2300 2841 2188 
z
M 1259 4147 
L 1259 2491 
L 2053 2491 
Q 2509 2491 2742 2702 
Q 2975 2913 2975 3322 
Q 2975 3731 2742 3939 
Q 2509 4147 2053 4147 
L 1259 4147 
z
" transform="scale(0.015625)"/>
       <path id="DejaVuSans-3a" d="M 750 794 
L 1409 794 
L 1409 0 
L 750 0 
L 750 794 
z
M 750 3309 
L 1409 3309 
L 1409 2516 
L 750 2516 
L 750 3309 
z
" transform="scale(0.015625)"/>
       <path id="DejaVuSans-49" d="M 628 4666 
L 1259 4666 
L 1259 0 
L 628 0 
L 628 4666 
z
" transform="scale(0.015625)"/>
      </defs>
      <use xlink:href="#DejaVuSans-44"/>
      <use xlink:href="#DejaVuSans-65" x="77.001953"/>
      <use xlink:href="#DejaVuSans-66" x="138.525391"/>
      <use xlink:href="#DejaVuSans-65" x="173.730469"/>
      <use xlink:href="#DejaVuSans-63" x="235.253906"/>
      <use xlink:href="#DejaVuSans-74" x="290.234375"/>
      <use xlink:href="#DejaVuSans-73" x="329.443359"/>
      <use xlink:href="#DejaVuSans-34" x="381.542969"/>
      <use xlink:href="#DejaVuSans-4a" x="445.166016"/>
      <use xlink:href="#DejaVuSans-20" x="474.658203"/>
      <use xlink:href="#DejaVuSans-78" x="506.445312"/>
      <use xlink:href="#DejaVuSans-20" x="565.625"/>
      <use xlink:href="#DejaVuSans-53" x="597.412109"/>
      <use xlink:href="#DejaVuSans-65" x="660.888672"/>
      <use xlink:href="#DejaVuSans-6c" x="722.412109"/>
      <use xlink:href="#DejaVuSans-66" x="750.195312"/>
      <use xlink:href="#DejaVuSans-41" x="785.400391"/>
      <use xlink:href="#DejaVuSans-50" x="853.808594"/>
      <use xlink:href="#DejaVuSans-52" x="914.111328"/>
      <use xlink:href="#DejaVuSans-3a" x="980.46875"/>
      <use xlink:href="#DejaVuSans-20" x="1014.160156"/>
      <use xlink:href="#DejaVuSans-49" x="1045.947266"/>
      <use xlink:href="#DejaVuSans-6e" x="1075.439453"/>
      <use xlink:href="#DejaVuSans-69" x="1138.818359"/>
      <use xlink:href="#DejaVuSans-74" x="1166.601562"/>
      <use xlink:href="#DejaVuSans-69" x="1205.810547"/>
      <use xlink:href="#DejaVuSans-61" x="1233.59375"/>
      <use xlink:href="#DejaVuSans-6c" x="1294.873047"/>
      <use xlink:href="#DejaVuSans-69" x="1322.65625"/>
      <use xlink:href="#DejaVuSans-7a" x="1350.439453"/>
      <use xlink:href="#DejaVuSans-61" x="1402.929688"/>
      <use xlink:href="#DejaVuSans-74" x="1464.208984"/>
      <use xlink:href="#DejaVuSans-69" x="1503.417969"/>
      <use xlink:href="#DejaVuSans-6f" x="1531.201172"/>
      <use xlink:href="#DejaVuSans-6e" x="1592.382812"/>
     </g>
    </g>
    <g id="line2d_24">
     <path d="M 153.534375 38.576563 
L 163.534375 38.576563 
L 173.534375 38.576563 
" style="fill: none; stroke: #ff7f0e; stroke-width: 1.5; stroke-linecap: square"/>
     <g>
      <use xlink:href="#mcf4ea655da" x="163.534375" y="38.576563" style="fill: #ff7f0e; stroke: #ff7f0e"/>
     </g>
    </g>
    <g id="text_22">
     <!-- Defects4J x SelfAPR: Initialization + BIFI4J(keepall) -->
     <g transform="translate(181.534375 42.076563)scale(0.1 -0.1)">
      <defs>
       <path id="DejaVuSans-2b" d="M 2944 4013 
L 2944 2272 
L 4684 2272 
L 4684 1741 
L 2944 1741 
L 2944 0 
L 2419 0 
L 2419 1741 
L 678 1741 
L 678 2272 
L 2419 2272 
L 2419 4013 
L 2944 4013 
z
" transform="scale(0.015625)"/>
       <path id="DejaVuSans-46" d="M 628 4666 
L 3309 4666 
L 3309 4134 
L 1259 4134 
L 1259 2759 
L 3109 2759 
L 3109 2228 
L 1259 2228 
L 1259 0 
L 628 0 
L 628 4666 
z
" transform="scale(0.015625)"/>
       <path id="DejaVuSans-28" d="M 1984 4856 
Q 1566 4138 1362 3434 
Q 1159 2731 1159 2009 
Q 1159 1288 1364 580 
Q 1569 -128 1984 -844 
L 1484 -844 
Q 1016 -109 783 600 
Q 550 1309 550 2009 
Q 550 2706 781 3412 
Q 1013 4119 1484 4856 
L 1984 4856 
z
" transform="scale(0.015625)"/>
       <path id="DejaVuSans-6b" d="M 581 4863 
L 1159 4863 
L 1159 1991 
L 2875 3500 
L 3609 3500 
L 1753 1863 
L 3688 0 
L 2938 0 
L 1159 1709 
L 1159 0 
L 581 0 
L 581 4863 
z
" transform="scale(0.015625)"/>
       <path id="DejaVuSans-29" d="M 513 4856 
L 1013 4856 
Q 1481 4119 1714 3412 
Q 1947 2706 1947 2009 
Q 1947 1309 1714 600 
Q 1481 -109 1013 -844 
L 513 -844 
Q 928 -128 1133 580 
Q 1338 1288 1338 2009 
Q 1338 2731 1133 3434 
Q 928 4138 513 4856 
z
" transform="scale(0.015625)"/>
      </defs>
      <use xlink:href="#DejaVuSans-44"/>
      <use xlink:href="#DejaVuSans-65" x="77.001953"/>
      <use xlink:href="#DejaVuSans-66" x="138.525391"/>
      <use xlink:href="#DejaVuSans-65" x="173.730469"/>
      <use xlink:href="#DejaVuSans-63" x="235.253906"/>
      <use xlink:href="#DejaVuSans-74" x="290.234375"/>
      <use xlink:href="#DejaVuSans-73" x="329.443359"/>
      <use xlink:href="#DejaVuSans-34" x="381.542969"/>
      <use xlink:href="#DejaVuSans-4a" x="445.166016"/>
      <use xlink:href="#DejaVuSans-20" x="474.658203"/>
      <use xlink:href="#DejaVuSans-78" x="506.445312"/>
      <use xlink:href="#DejaVuSans-20" x="565.625"/>
      <use xlink:href="#DejaVuSans-53" x="597.412109"/>
      <use xlink:href="#DejaVuSans-65" x="660.888672"/>
      <use xlink:href="#DejaVuSans-6c" x="722.412109"/>
      <use xlink:href="#DejaVuSans-66" x="750.195312"/>
      <use xlink:href="#DejaVuSans-41" x="785.400391"/>
      <use xlink:href="#DejaVuSans-50" x="853.808594"/>
      <use xlink:href="#DejaVuSans-52" x="914.111328"/>
      <use xlink:href="#DejaVuSans-3a" x="980.46875"/>
      <use xlink:href="#DejaVuSans-20" x="1014.160156"/>
      <use xlink:href="#DejaVuSans-49" x="1045.947266"/>
      <use xlink:href="#DejaVuSans-6e" x="1075.439453"/>
      <use xlink:href="#DejaVuSans-69" x="1138.818359"/>
      <use xlink:href="#DejaVuSans-74" x="1166.601562"/>
      <use xlink:href="#DejaVuSans-69" x="1205.810547"/>
      <use xlink:href="#DejaVuSans-61" x="1233.59375"/>
      <use xlink:href="#DejaVuSans-6c" x="1294.873047"/>
      <use xlink:href="#DejaVuSans-69" x="1322.65625"/>
      <use xlink:href="#DejaVuSans-7a" x="1350.439453"/>
      <use xlink:href="#DejaVuSans-61" x="1402.929688"/>
      <use xlink:href="#DejaVuSans-74" x="1464.208984"/>
      <use xlink:href="#DejaVuSans-69" x="1503.417969"/>
      <use xlink:href="#DejaVuSans-6f" x="1531.201172"/>
      <use xlink:href="#DejaVuSans-6e" x="1592.382812"/>
      <use xlink:href="#DejaVuSans-20" x="1655.761719"/>
      <use xlink:href="#DejaVuSans-2b" x="1687.548828"/>
      <use xlink:href="#DejaVuSans-20" x="1771.337891"/>
      <use xlink:href="#DejaVuSans-42" x="1803.125"/>
      <use xlink:href="#DejaVuSans-49" x="1871.728516"/>
      <use xlink:href="#DejaVuSans-46" x="1901.220703"/>
      <use xlink:href="#DejaVuSans-49" x="1958.740234"/>
      <use xlink:href="#DejaVuSans-34" x="1988.232422"/>
      <use xlink:href="#DejaVuSans-4a" x="2051.855469"/>
      <use xlink:href="#DejaVuSans-28" x="2081.347656"/>
      <use xlink:href="#DejaVuSans-6b" x="2120.361328"/>
      <use xlink:href="#DejaVuSans-65" x="2174.646484"/>
      <use xlink:href="#DejaVuSans-65" x="2236.169922"/>
      <use xlink:href="#DejaVuSans-70" x="2297.693359"/>
      <use xlink:href="#DejaVuSans-61" x="2361.169922"/>
      <use xlink:href="#DejaVuSans-6c" x="2422.449219"/>
      <use xlink:href="#DejaVuSans-6c" x="2450.232422"/>
      <use xlink:href="#DejaVuSans-29" x="2478.015625"/>
     </g>
    </g>
    <g id="line2d_25">
     <path d="M 153.534375 53.254688 
L 163.534375 53.254688 
L 173.534375 53.254688 
" style="fill: none; stroke: #2ca02c; stroke-width: 1.5; stroke-linecap: square"/>
     <g>
      <use xlink:href="#md760c51209" x="163.534375" y="53.254688" style="fill: #2ca02c; stroke: #2ca02c"/>
     </g>
    </g>
    <g id="text_23">
     <!-- Defects4J x SelfAPR: Initialization + BIFI4J(compiler) -->
     <g transform="translate(181.534375 56.754688)scale(0.1 -0.1)">
      <use xlink:href="#DejaVuSans-44"/>
      <use xlink:href="#DejaVuSans-65" x="77.001953"/>
      <use xlink:href="#DejaVuSans-66" x="138.525391"/>
      <use xlink:href="#DejaVuSans-65" x="173.730469"/>
      <use xlink:href="#DejaVuSans-63" x="235.253906"/>
      <use xlink:href="#DejaVuSans-74" x="290.234375"/>
      <use xlink:href="#DejaVuSans-73" x="329.443359"/>
      <use xlink:href="#DejaVuSans-34" x="381.542969"/>
      <use xlink:href="#DejaVuSans-4a" x="445.166016"/>
      <use xlink:href="#DejaVuSans-20" x="474.658203"/>
      <use xlink:href="#DejaVuSans-78" x="506.445312"/>
      <use xlink:href="#DejaVuSans-20" x="565.625"/>
      <use xlink:href="#DejaVuSans-53" x="597.412109"/>
      <use xlink:href="#DejaVuSans-65" x="660.888672"/>
      <use xlink:href="#DejaVuSans-6c" x="722.412109"/>
      <use xlink:href="#DejaVuSans-66" x="750.195312"/>
      <use xlink:href="#DejaVuSans-41" x="785.400391"/>
      <use xlink:href="#DejaVuSans-50" x="853.808594"/>
      <use xlink:href="#DejaVuSans-52" x="914.111328"/>
      <use xlink:href="#DejaVuSans-3a" x="980.46875"/>
      <use xlink:href="#DejaVuSans-20" x="1014.160156"/>
      <use xlink:href="#DejaVuSans-49" x="1045.947266"/>
      <use xlink:href="#DejaVuSans-6e" x="1075.439453"/>
      <use xlink:href="#DejaVuSans-69" x="1138.818359"/>
      <use xlink:href="#DejaVuSans-74" x="1166.601562"/>
      <use xlink:href="#DejaVuSans-69" x="1205.810547"/>
      <use xlink:href="#DejaVuSans-61" x="1233.59375"/>
      <use xlink:href="#DejaVuSans-6c" x="1294.873047"/>
      <use xlink:href="#DejaVuSans-69" x="1322.65625"/>
      <use xlink:href="#DejaVuSans-7a" x="1350.439453"/>
      <use xlink:href="#DejaVuSans-61" x="1402.929688"/>
      <use xlink:href="#DejaVuSans-74" x="1464.208984"/>
      <use xlink:href="#DejaVuSans-69" x="1503.417969"/>
      <use xlink:href="#DejaVuSans-6f" x="1531.201172"/>
      <use xlink:href="#DejaVuSans-6e" x="1592.382812"/>
      <use xlink:href="#DejaVuSans-20" x="1655.761719"/>
      <use xlink:href="#DejaVuSans-2b" x="1687.548828"/>
      <use xlink:href="#DejaVuSans-20" x="1771.337891"/>
      <use xlink:href="#DejaVuSans-42" x="1803.125"/>
      <use xlink:href="#DejaVuSans-49" x="1871.728516"/>
      <use xlink:href="#DejaVuSans-46" x="1901.220703"/>
      <use xlink:href="#DejaVuSans-49" x="1958.740234"/>
      <use xlink:href="#DejaVuSans-34" x="1988.232422"/>
      <use xlink:href="#DejaVuSans-4a" x="2051.855469"/>
      <use xlink:href="#DejaVuSans-28" x="2081.347656"/>
      <use xlink:href="#DejaVuSans-63" x="2120.361328"/>
      <use xlink:href="#DejaVuSans-6f" x="2175.341797"/>
      <use xlink:href="#DejaVuSans-6d" x="2236.523438"/>
      <use xlink:href="#DejaVuSans-70" x="2333.935547"/>
      <use xlink:href="#DejaVuSans-69" x="2397.412109"/>
      <use xlink:href="#DejaVuSans-6c" x="2425.195312"/>
      <use xlink:href="#DejaVuSans-65" x="2452.978516"/>
      <use xlink:href="#DejaVuSans-72" x="2514.501953"/>
      <use xlink:href="#DejaVuSans-29" x="2555.615234"/>
     </g>
    </g>
    <g id="line2d_26">
     <path d="M 153.534375 67.932813 
L 163.534375 67.932813 
L 173.534375 67.932813 
" style="fill: none; stroke: #d62728; stroke-width: 1.5; stroke-linecap: square"/>
     <g>
      <use xlink:href="#m00076c3806" x="163.534375" y="67.932813" style="fill: #d62728; stroke: #d62728"/>
     </g>
    </g>
    <g id="text_24">
     <!-- Defects4J x SelfAPR: Initialization + BIFI4J(tests) -->
     <g transform="translate(181.534375 71.432813)scale(0.1 -0.1)">
      <use xlink:href="#DejaVuSans-44"/>
      <use xlink:href="#DejaVuSans-65" x="77.001953"/>
      <use xlink:href="#DejaVuSans-66" x="138.525391"/>
      <use xlink:href="#DejaVuSans-65" x="173.730469"/>
      <use xlink:href="#DejaVuSans-63" x="235.253906"/>
      <use xlink:href="#DejaVuSans-74" x="290.234375"/>
      <use xlink:href="#DejaVuSans-73" x="329.443359"/>
      <use xlink:href="#DejaVuSans-34" x="381.542969"/>
      <use xlink:href="#DejaVuSans-4a" x="445.166016"/>
      <use xlink:href="#DejaVuSans-20" x="474.658203"/>
      <use xlink:href="#DejaVuSans-78" x="506.445312"/>
      <use xlink:href="#DejaVuSans-20" x="565.625"/>
      <use xlink:href="#DejaVuSans-53" x="597.412109"/>
      <use xlink:href="#DejaVuSans-65" x="660.888672"/>
      <use xlink:href="#DejaVuSans-6c" x="722.412109"/>
      <use xlink:href="#DejaVuSans-66" x="750.195312"/>
      <use xlink:href="#DejaVuSans-41" x="785.400391"/>
      <use xlink:href="#DejaVuSans-50" x="853.808594"/>
      <use xlink:href="#DejaVuSans-52" x="914.111328"/>
      <use xlink:href="#DejaVuSans-3a" x="980.46875"/>
      <use xlink:href="#DejaVuSans-20" x="1014.160156"/>
      <use xlink:href="#DejaVuSans-49" x="1045.947266"/>
      <use xlink:href="#DejaVuSans-6e" x="1075.439453"/>
      <use xlink:href="#DejaVuSans-69" x="1138.818359"/>
      <use xlink:href="#DejaVuSans-74" x="1166.601562"/>
      <use xlink:href="#DejaVuSans-69" x="1205.810547"/>
      <use xlink:href="#DejaVuSans-61" x="1233.59375"/>
      <use xlink:href="#DejaVuSans-6c" x="1294.873047"/>
      <use xlink:href="#DejaVuSans-69" x="1322.65625"/>
      <use xlink:href="#DejaVuSans-7a" x="1350.439453"/>
      <use xlink:href="#DejaVuSans-61" x="1402.929688"/>
      <use xlink:href="#DejaVuSans-74" x="1464.208984"/>
      <use xlink:href="#DejaVuSans-69" x="1503.417969"/>
      <use xlink:href="#DejaVuSans-6f" x="1531.201172"/>
      <use xlink:href="#DejaVuSans-6e" x="1592.382812"/>
      <use xlink:href="#DejaVuSans-20" x="1655.761719"/>
      <use xlink:href="#DejaVuSans-2b" x="1687.548828"/>
      <use xlink:href="#DejaVuSans-20" x="1771.337891"/>
      <use xlink:href="#DejaVuSans-42" x="1803.125"/>
      <use xlink:href="#DejaVuSans-49" x="1871.728516"/>
      <use xlink:href="#DejaVuSans-46" x="1901.220703"/>
      <use xlink:href="#DejaVuSans-49" x="1958.740234"/>
      <use xlink:href="#DejaVuSans-34" x="1988.232422"/>
      <use xlink:href="#DejaVuSans-4a" x="2051.855469"/>
      <use xlink:href="#DejaVuSans-28" x="2081.347656"/>
      <use xlink:href="#DejaVuSans-74" x="2120.361328"/>
      <use xlink:href="#DejaVuSans-65" x="2159.570312"/>
      <use xlink:href="#DejaVuSans-73" x="2221.09375"/>
      <use xlink:href="#DejaVuSans-74" x="2273.193359"/>
      <use xlink:href="#DejaVuSans-73" x="2312.402344"/>
      <use xlink:href="#DejaVuSans-29" x="2364.501953"/>
     </g>
    </g>
   </g>
  </g>
 </g>
 <defs>
  <clipPath id="pfcd3758c58">
   <rect x="44.66" y="10.8" width="405.34" height="292.84"/>
  </clipPath>
 </defs>
</svg>
