<?xml version="1.0" encoding="utf-8" standalone="no"?>
<!DOCTYPE svg PUBLIC "-//W3C//DTD SVG 1.1//EN"
  "http://www.w3.org/Graphics/SVG/1.1/DTD/svg11.dtd">
<svg xmlns:xlink="http://www.w3.org/1999/xlink" width="576pt" height="576pt" viewBox="0 0 576 576" xmlns="http://www.w3.org/2000/svg" version="1.1">
 <metadata>
  <rdf:RDF xmlns:dc="http://purl.org/dc/elements/1.1/" xmlns:cc="http://creativecommons.org/ns#" xmlns:rdf="http://www.w3.org/1999/02/22-rdf-syntax-ns#">
   <cc:Work>
    <dc:type rdf:resource="http://purl.org/dc/dcmitype/StillImage"/>
    <dc:date>2022-10-25T15:33:34.363160</dc:date>
    <dc:format>image/svg+xml</dc:format>
    <dc:creator>
     <cc:Agent>
      <dc:title>Matplotlib v3.5.2, https://matplotlib.org/</dc:title>
     </cc:Agent>
    </dc:creator>
   </cc:Work>
  </rdf:RDF>
 </metadata>
 <defs>
  <style type="text/css">*{stroke-linejoin: round; stroke-linecap: butt}</style>
 </defs>
 <g id="figure_1">
  <g id="patch_1">
   <path d="M 0 576 
L 576 576 
L 576 0 
L 0 0 
z
" style="fill: #ffffff"/>
  </g>
  <g id="axes_1">
   <g id="patch_2">
    <path d="M 285.292115 251.53056 
C 248.431243 220.600616 205.394762 200.086431 165.660957 194.506016 
C 125.927151 188.925601 92.740111 198.734571 73.408896 221.772616 
C 54.077681 244.810661 50.1806 279.196825 62.575939 317.357956 
C 74.971278 355.519087 102.647013 394.339496 139.507885 425.26944 
C 176.368757 456.199384 219.405238 476.713569 259.139043 482.293984 
C 298.872849 487.874399 332.059889 478.065429 351.391104 455.027384 
C 370.722319 431.989339 374.6194 397.603175 362.224061 359.442044 
C 349.828722 321.280913 322.152987 282.460504 285.292115 251.53056 
z
" clip-path="url(#p500d1674e4)" style="fill: #440154; fill-opacity: 0.4; stroke: #440154; stroke-opacity: 0.7; stroke-linejoin: miter"/>
   </g>
   <g id="patch_3">
    <path d="M 335.692115 201.13056 
C 298.831243 170.200616 255.794762 149.686431 216.060957 144.106016 
C 176.327151 138.525601 143.140111 148.334571 123.808896 171.372616 
C 104.477681 194.410661 100.5806 228.796825 112.975939 266.957956 
C 125.371278 305.119087 153.047013 343.939496 189.907885 374.86944 
C 226.768757 405.799384 269.805238 426.313569 309.539043 431.893984 
C 349.272849 437.474399 382.459889 427.665429 401.791104 404.627384 
C 421.122319 381.589339 425.0194 347.203175 412.624061 309.042044 
C 400.228722 270.880913 372.552987 232.060504 335.692115 201.13056 
z
" clip-path="url(#p500d1674e4)" style="fill: #31688e; fill-opacity: 0.4; stroke: #31688e; stroke-opacity: 0.7; stroke-linejoin: miter"/>
   </g>
   <g id="patch_4">
    <path d="M 383.068115 374.86944 
C 419.928987 343.939496 447.604722 305.119087 460.000061 266.957956 
C 472.3954 228.796825 468.498319 194.410661 449.167104 171.372616 
C 429.835889 148.334571 396.648849 138.525601 356.915043 144.106016 
C 317.181238 149.686431 274.144757 170.200616 237.283885 201.13056 
C 200.423013 232.060504 172.747278 270.880913 160.351939 309.042044 
C 147.9566 347.203175 151.853681 381.589339 171.184896 404.627384 
C 190.516111 427.665429 223.703151 437.474399 263.436957 431.893984 
C 303.170762 426.313569 346.207243 405.799384 383.068115 374.86944 
z
" clip-path="url(#p500d1674e4)" style="fill: #35b779; fill-opacity: 0.4; stroke: #35b779; stroke-opacity: 0.7; stroke-linejoin: miter"/>
   </g>
   <g id="patch_5">
    <path d="M 433.468115 425.26944 
C 470.328987 394.339496 498.004722 355.519087 510.400061 317.357956 
C 522.7954 279.196825 518.898319 244.810661 499.567104 221.772616 
C 480.235889 198.734571 447.048849 188.925601 407.315043 194.506016 
C 367.581238 200.086431 324.544757 220.600616 287.683885 251.53056 
C 250.823013 282.460504 223.147278 321.280913 210.751939 359.442044 
C 198.3566 397.603175 202.253681 431.989339 221.584896 455.027384 
C 240.916111 478.065429 274.103151 487.874399 313.836957 482.293984 
C 353.570762 476.713569 396.607243 456.199384 433.468115 425.26944 
z
" clip-path="url(#p500d1674e4)" style="fill: #fde725; fill-opacity: 0.4; stroke: #fde725; stroke-opacity: 0.7; stroke-linejoin: miter"/>
   </g>
   <g id="matplotlib.axis_1"/>
   <g id="matplotlib.axis_2"/>
   <g id="text_1">
    <!-- 4 -->
    <g transform="translate(460.264375 331.907188)scale(0.13 -0.13)">
     <defs>
      <path id="DejaVuSans-34" d="M 2419 4116 
L 825 1625 
L 2419 1625 
L 2419 4116 
z
M 2253 4666 
L 3047 4666 
L 3047 1625 
L 3713 1625 
L 3713 1100 
L 3047 1100 
L 3047 0 
L 2419 0 
L 2419 1100 
L 313 1100 
L 313 1709 
L 2253 4666 
z
" transform="scale(0.015625)"/>
     </defs>
     <use xlink:href="#DejaVuSans-34"/>
    </g>
   </g>
   <g id="text_2">
    <!-- 6 -->
    <g transform="translate(374.584375 180.707188)scale(0.13 -0.13)">
     <defs>
      <path id="DejaVuSans-36" d="M 2113 2584 
Q 1688 2584 1439 2293 
Q 1191 2003 1191 1497 
Q 1191 994 1439 701 
Q 1688 409 2113 409 
Q 2538 409 2786 701 
Q 3034 994 3034 1497 
Q 3034 2003 2786 2293 
Q 2538 2584 2113 2584 
z
M 3366 4563 
L 3366 3988 
Q 3128 4100 2886 4159 
Q 2644 4219 2406 4219 
Q 1781 4219 1451 3797 
Q 1122 3375 1075 2522 
Q 1259 2794 1537 2939 
Q 1816 3084 2150 3084 
Q 2853 3084 3261 2657 
Q 3669 2231 3669 1497 
Q 3669 778 3244 343 
Q 2819 -91 2113 -91 
Q 1303 -91 875 529 
Q 447 1150 447 2328 
Q 447 3434 972 4092 
Q 1497 4750 2381 4750 
Q 2619 4750 2861 4703 
Q 3103 4656 3366 4563 
z
" transform="scale(0.015625)"/>
     </defs>
     <use xlink:href="#DejaVuSans-36"/>
    </g>
   </g>
   <g id="text_3">
    <!-- 1 -->
    <g transform="translate(419.944375 246.227188)scale(0.13 -0.13)">
     <defs>
      <path id="DejaVuSans-31" d="M 794 531 
L 1825 531 
L 1825 4091 
L 703 3866 
L 703 4441 
L 1819 4666 
L 2450 4666 
L 2450 531 
L 3481 531 
L 3481 0 
L 794 0 
L 794 531 
z
" transform="scale(0.015625)"/>
     </defs>
     <use xlink:href="#DejaVuSans-31"/>
    </g>
   </g>
   <g id="text_4">
    <!-- 4 -->
    <g transform="translate(193.144375 180.707188)scale(0.13 -0.13)">
     <use xlink:href="#DejaVuSans-34"/>
    </g>
   </g>
   <g id="text_5">
    <!-- 1 -->
    <g transform="translate(389.704375 392.387187)scale(0.13 -0.13)">
     <use xlink:href="#DejaVuSans-31"/>
    </g>
   </g>
   <g id="text_6">
    <!-- 4 -->
    <g transform="translate(283.864375 210.947188)scale(0.13 -0.13)">
     <use xlink:href="#DejaVuSans-34"/>
    </g>
   </g>
   <g id="text_7">
    <!-- 2 -->
    <g transform="translate(359.464375 291.587188)scale(0.13 -0.13)">
     <defs>
      <path id="DejaVuSans-32" d="M 1228 531 
L 3431 531 
L 3431 0 
L 469 0 
L 469 531 
Q 828 903 1448 1529 
Q 2069 2156 2228 2338 
Q 2531 2678 2651 2914 
Q 2772 3150 2772 3378 
Q 2772 3750 2511 3984 
Q 2250 4219 1831 4219 
Q 1534 4219 1204 4116 
Q 875 4013 500 3803 
L 500 4441 
Q 881 4594 1212 4672 
Q 1544 4750 1819 4750 
Q 2544 4750 2975 4387 
Q 3406 4025 3406 3419 
Q 3406 3131 3298 2873 
Q 3191 2616 2906 2266 
Q 2828 2175 2409 1742 
Q 1991 1309 1228 531 
z
" transform="scale(0.015625)"/>
     </defs>
     <use xlink:href="#DejaVuSans-32"/>
    </g>
   </g>
   <g id="text_8">
    <!-- 0 -->
    <g transform="translate(102.424375 331.907188)scale(0.13 -0.13)">
     <defs>
      <path id="DejaVuSans-30" d="M 2034 4250 
Q 1547 4250 1301 3770 
Q 1056 3291 1056 2328 
Q 1056 1369 1301 889 
Q 1547 409 2034 409 
Q 2525 409 2770 889 
Q 3016 1369 3016 2328 
Q 3016 3291 2770 3770 
Q 2525 4250 2034 4250 
z
M 2034 4750 
Q 2819 4750 3233 4129 
Q 3647 3509 3647 2328 
Q 3647 1150 3233 529 
Q 2819 -91 2034 -91 
Q 1250 -91 836 529 
Q 422 1150 422 2328 
Q 422 3509 836 4129 
Q 1250 4750 2034 4750 
z
" transform="scale(0.015625)"/>
     </defs>
     <use xlink:href="#DejaVuSans-30"/>
    </g>
   </g>
   <g id="text_9">
    <!-- 1 -->
    <g transform="translate(283.864375 457.907187)scale(0.13 -0.13)">
     <use xlink:href="#DejaVuSans-31"/>
    </g>
   </g>
   <g id="text_10">
    <!-- 1 -->
    <g transform="translate(178.024375 392.387187)scale(0.13 -0.13)">
     <use xlink:href="#DejaVuSans-31"/>
    </g>
   </g>
   <g id="text_11">
    <!-- 2 -->
    <g transform="translate(228.424375 422.627187)scale(0.13 -0.13)">
     <use xlink:href="#DejaVuSans-32"/>
    </g>
   </g>
   <g id="text_12">
    <!-- 0 -->
    <g transform="translate(147.784375 246.227188)scale(0.13 -0.13)">
     <use xlink:href="#DejaVuSans-30"/>
    </g>
   </g>
   <g id="text_13">
    <!-- 0 -->
    <g transform="translate(339.304375 422.627187)scale(0.13 -0.13)">
     <use xlink:href="#DejaVuSans-30"/>
    </g>
   </g>
   <g id="text_14">
    <!-- 1 -->
    <g transform="translate(208.264375 291.587188)scale(0.13 -0.13)">
     <use xlink:href="#DejaVuSans-31"/>
    </g>
   </g>
   <g id="text_15">
    <!-- 11 -->
    <g transform="translate(279.72875 352.067188)scale(0.13 -0.13)">
     <use xlink:href="#DejaVuSans-31"/>
     <use xlink:href="#DejaVuSans-31" x="63.623047"/>
    </g>
   </g>
   <g id="legend_1">
    <g id="patch_6">
     <path d="M 110.900391 97.52625 
L 465.099609 97.52625 
Q 467.699609 97.52625 467.699609 94.92625 
L 467.699609 19.9 
Q 467.699609 17.3 465.099609 17.3 
L 110.900391 17.3 
Q 108.300391 17.3 108.300391 19.9 
L 108.300391 94.92625 
Q 108.300391 97.52625 110.900391 97.52625 
z
" style="fill: #ffffff; opacity: 0.8; stroke: #cccccc; stroke-linejoin: miter"/>
    </g>
    <g id="patch_7">
     <path d="M 113.500391 32.377969 
L 139.500391 32.377969 
L 139.500391 23.277969 
L 113.500391 23.277969 
z
" style="fill: #440154; fill-opacity: 0.4; stroke: #440154; stroke-opacity: 0.7; stroke-linejoin: miter"/>
    </g>
    <g id="text_16">
     <!-- Bears x SelfAPR: Initialization -->
     <g transform="translate(149.900391 32.377969)scale(0.13 -0.13)">
      <defs>
       <path id="DejaVuSans-42" d="M 1259 2228 
L 1259 519 
L 2272 519 
Q 2781 519 3026 730 
Q 3272 941 3272 1375 
Q 3272 1813 3026 2020 
Q 2781 2228 2272 2228 
L 1259 2228 
z
M 1259 4147 
L 1259 2741 
L 2194 2741 
Q 2656 2741 2882 2914 
Q 3109 3088 3109 3444 
Q 3109 3797 2882 3972 
Q 2656 4147 2194 4147 
L 1259 4147 
z
M 628 4666 
L 2241 4666 
Q 2963 4666 3353 4366 
Q 3744 4066 3744 3513 
Q 3744 3084 3544 2831 
Q 3344 2578 2956 2516 
Q 3422 2416 3680 2098 
Q 3938 1781 3938 1306 
Q 3938 681 3513 340 
Q 3088 0 2303 0 
L 628 0 
L 628 4666 
z
" transform="scale(0.015625)"/>
       <path id="DejaVuSans-65" d="M 3597 1894 
L 3597 1613 
L 953 1613 
Q 991 1019 1311 708 
Q 1631 397 2203 397 
Q 2534 397 2845 478 
Q 3156 559 3463 722 
L 3463 178 
Q 3153 47 2828 -22 
Q 2503 -91 2169 -91 
Q 1331 -91 842 396 
Q 353 884 353 1716 
Q 353 2575 817 3079 
Q 1281 3584 2069 3584 
Q 2775 3584 3186 3129 
Q 3597 2675 3597 1894 
z
M 3022 2063 
Q 3016 2534 2758 2815 
Q 2500 3097 2075 3097 
Q 1594 3097 1305 2825 
Q 1016 2553 972 2059 
L 3022 2063 
z
" transform="scale(0.015625)"/>
       <path id="DejaVuSans-61" d="M 2194 1759 
Q 1497 1759 1228 1600 
Q 959 1441 959 1056 
Q 959 750 1161 570 
Q 1363 391 1709 391 
Q 2188 391 2477 730 
Q 2766 1069 2766 1631 
L 2766 1759 
L 2194 1759 
z
M 3341 1997 
L 3341 0 
L 2766 0 
L 2766 531 
Q 2569 213 2275 61 
Q 1981 -91 1556 -91 
Q 1019 -91 701 211 
Q 384 513 384 1019 
Q 384 1609 779 1909 
Q 1175 2209 1959 2209 
L 2766 2209 
L 2766 2266 
Q 2766 2663 2505 2880 
Q 2244 3097 1772 3097 
Q 1472 3097 1187 3025 
Q 903 2953 641 2809 
L 641 3341 
Q 956 3463 1253 3523 
Q 1550 3584 1831 3584 
Q 2591 3584 2966 3190 
Q 3341 2797 3341 1997 
z
" transform="scale(0.015625)"/>
       <path id="DejaVuSans-72" d="M 2631 2963 
Q 2534 3019 2420 3045 
Q 2306 3072 2169 3072 
Q 1681 3072 1420 2755 
Q 1159 2438 1159 1844 
L 1159 0 
L 581 0 
L 581 3500 
L 1159 3500 
L 1159 2956 
Q 1341 3275 1631 3429 
Q 1922 3584 2338 3584 
Q 2397 3584 2469 3576 
Q 2541 3569 2628 3553 
L 2631 2963 
z
" transform="scale(0.015625)"/>
       <path id="DejaVuSans-73" d="M 2834 3397 
L 2834 2853 
Q 2591 2978 2328 3040 
Q 2066 3103 1784 3103 
Q 1356 3103 1142 2972 
Q 928 2841 928 2578 
Q 928 2378 1081 2264 
Q 1234 2150 1697 2047 
L 1894 2003 
Q 2506 1872 2764 1633 
Q 3022 1394 3022 966 
Q 3022 478 2636 193 
Q 2250 -91 1575 -91 
Q 1294 -91 989 -36 
Q 684 19 347 128 
L 347 722 
Q 666 556 975 473 
Q 1284 391 1588 391 
Q 1994 391 2212 530 
Q 2431 669 2431 922 
Q 2431 1156 2273 1281 
Q 2116 1406 1581 1522 
L 1381 1569 
Q 847 1681 609 1914 
Q 372 2147 372 2553 
Q 372 3047 722 3315 
Q 1072 3584 1716 3584 
Q 2034 3584 2315 3537 
Q 2597 3491 2834 3397 
z
" transform="scale(0.015625)"/>
       <path id="DejaVuSans-20" transform="scale(0.015625)"/>
       <path id="DejaVuSans-78" d="M 3513 3500 
L 2247 1797 
L 3578 0 
L 2900 0 
L 1881 1375 
L 863 0 
L 184 0 
L 1544 1831 
L 300 3500 
L 978 3500 
L 1906 2253 
L 2834 3500 
L 3513 3500 
z
" transform="scale(0.015625)"/>
       <path id="DejaVuSans-53" d="M 3425 4513 
L 3425 3897 
Q 3066 4069 2747 4153 
Q 2428 4238 2131 4238 
Q 1616 4238 1336 4038 
Q 1056 3838 1056 3469 
Q 1056 3159 1242 3001 
Q 1428 2844 1947 2747 
L 2328 2669 
Q 3034 2534 3370 2195 
Q 3706 1856 3706 1288 
Q 3706 609 3251 259 
Q 2797 -91 1919 -91 
Q 1588 -91 1214 -16 
Q 841 59 441 206 
L 441 856 
Q 825 641 1194 531 
Q 1563 422 1919 422 
Q 2459 422 2753 634 
Q 3047 847 3047 1241 
Q 3047 1584 2836 1778 
Q 2625 1972 2144 2069 
L 1759 2144 
Q 1053 2284 737 2584 
Q 422 2884 422 3419 
Q 422 4038 858 4394 
Q 1294 4750 2059 4750 
Q 2388 4750 2728 4690 
Q 3069 4631 3425 4513 
z
" transform="scale(0.015625)"/>
       <path id="DejaVuSans-6c" d="M 603 4863 
L 1178 4863 
L 1178 0 
L 603 0 
L 603 4863 
z
" transform="scale(0.015625)"/>
       <path id="DejaVuSans-66" d="M 2375 4863 
L 2375 4384 
L 1825 4384 
Q 1516 4384 1395 4259 
Q 1275 4134 1275 3809 
L 1275 3500 
L 2222 3500 
L 2222 3053 
L 1275 3053 
L 1275 0 
L 697 0 
L 697 3053 
L 147 3053 
L 147 3500 
L 697 3500 
L 697 3744 
Q 697 4328 969 4595 
Q 1241 4863 1831 4863 
L 2375 4863 
z
" transform="scale(0.015625)"/>
       <path id="DejaVuSans-41" d="M 2188 4044 
L 1331 1722 
L 3047 1722 
L 2188 4044 
z
M 1831 4666 
L 2547 4666 
L 4325 0 
L 3669 0 
L 3244 1197 
L 1141 1197 
L 716 0 
L 50 0 
L 1831 4666 
z
" transform="scale(0.015625)"/>
       <path id="DejaVuSans-50" d="M 1259 4147 
L 1259 2394 
L 2053 2394 
Q 2494 2394 2734 2622 
Q 2975 2850 2975 3272 
Q 2975 3691 2734 3919 
Q 2494 4147 2053 4147 
L 1259 4147 
z
M 628 4666 
L 2053 4666 
Q 2838 4666 3239 4311 
Q 3641 3956 3641 3272 
Q 3641 2581 3239 2228 
Q 2838 1875 2053 1875 
L 1259 1875 
L 1259 0 
L 628 0 
L 628 4666 
z
" transform="scale(0.015625)"/>
       <path id="DejaVuSans-52" d="M 2841 2188 
Q 3044 2119 3236 1894 
Q 3428 1669 3622 1275 
L 4263 0 
L 3584 0 
L 2988 1197 
Q 2756 1666 2539 1819 
Q 2322 1972 1947 1972 
L 1259 1972 
L 1259 0 
L 628 0 
L 628 4666 
L 2053 4666 
Q 2853 4666 3247 4331 
Q 3641 3997 3641 3322 
Q 3641 2881 3436 2590 
Q 3231 2300 2841 2188 
z
M 1259 4147 
L 1259 2491 
L 2053 2491 
Q 2509 2491 2742 2702 
Q 2975 2913 2975 3322 
Q 2975 3731 2742 3939 
Q 2509 4147 2053 4147 
L 1259 4147 
z
" transform="scale(0.015625)"/>
       <path id="DejaVuSans-3a" d="M 750 794 
L 1409 794 
L 1409 0 
L 750 0 
L 750 794 
z
M 750 3309 
L 1409 3309 
L 1409 2516 
L 750 2516 
L 750 3309 
z
" transform="scale(0.015625)"/>
       <path id="DejaVuSans-49" d="M 628 4666 
L 1259 4666 
L 1259 0 
L 628 0 
L 628 4666 
z
" transform="scale(0.015625)"/>
       <path id="DejaVuSans-6e" d="M 3513 2113 
L 3513 0 
L 2938 0 
L 2938 2094 
Q 2938 2591 2744 2837 
Q 2550 3084 2163 3084 
Q 1697 3084 1428 2787 
Q 1159 2491 1159 1978 
L 1159 0 
L 581 0 
L 581 3500 
L 1159 3500 
L 1159 2956 
Q 1366 3272 1645 3428 
Q 1925 3584 2291 3584 
Q 2894 3584 3203 3211 
Q 3513 2838 3513 2113 
z
" transform="scale(0.015625)"/>
       <path id="DejaVuSans-69" d="M 603 3500 
L 1178 3500 
L 1178 0 
L 603 0 
L 603 3500 
z
M 603 4863 
L 1178 4863 
L 1178 4134 
L 603 4134 
L 603 4863 
z
" transform="scale(0.015625)"/>
       <path id="DejaVuSans-74" d="M 1172 4494 
L 1172 3500 
L 2356 3500 
L 2356 3053 
L 1172 3053 
L 1172 1153 
Q 1172 725 1289 603 
Q 1406 481 1766 481 
L 2356 481 
L 2356 0 
L 1766 0 
Q 1100 0 847 248 
Q 594 497 594 1153 
L 594 3053 
L 172 3053 
L 172 3500 
L 594 3500 
L 594 4494 
L 1172 4494 
z
" transform="scale(0.015625)"/>
       <path id="DejaVuSans-7a" d="M 353 3500 
L 3084 3500 
L 3084 2975 
L 922 459 
L 3084 459 
L 3084 0 
L 275 0 
L 275 525 
L 2438 3041 
L 353 3041 
L 353 3500 
z
" transform="scale(0.015625)"/>
       <path id="DejaVuSans-6f" d="M 1959 3097 
Q 1497 3097 1228 2736 
Q 959 2375 959 1747 
Q 959 1119 1226 758 
Q 1494 397 1959 397 
Q 2419 397 2687 759 
Q 2956 1122 2956 1747 
Q 2956 2369 2687 2733 
Q 2419 3097 1959 3097 
z
M 1959 3584 
Q 2709 3584 3137 3096 
Q 3566 2609 3566 1747 
Q 3566 888 3137 398 
Q 2709 -91 1959 -91 
Q 1206 -91 779 398 
Q 353 888 353 1747 
Q 353 2609 779 3096 
Q 1206 3584 1959 3584 
z
" transform="scale(0.015625)"/>
      </defs>
      <use xlink:href="#DejaVuSans-42"/>
      <use xlink:href="#DejaVuSans-65" x="68.603516"/>
      <use xlink:href="#DejaVuSans-61" x="130.126953"/>
      <use xlink:href="#DejaVuSans-72" x="191.40625"/>
      <use xlink:href="#DejaVuSans-73" x="232.519531"/>
      <use xlink:href="#DejaVuSans-20" x="284.619141"/>
      <use xlink:href="#DejaVuSans-78" x="316.40625"/>
      <use xlink:href="#DejaVuSans-20" x="375.585938"/>
      <use xlink:href="#DejaVuSans-53" x="407.373047"/>
      <use xlink:href="#DejaVuSans-65" x="470.849609"/>
      <use xlink:href="#DejaVuSans-6c" x="532.373047"/>
      <use xlink:href="#DejaVuSans-66" x="560.15625"/>
      <use xlink:href="#DejaVuSans-41" x="595.361328"/>
      <use xlink:href="#DejaVuSans-50" x="663.769531"/>
      <use xlink:href="#DejaVuSans-52" x="724.072266"/>
      <use xlink:href="#DejaVuSans-3a" x="790.429688"/>
      <use xlink:href="#DejaVuSans-20" x="824.121094"/>
      <use xlink:href="#DejaVuSans-49" x="855.908203"/>
      <use xlink:href="#DejaVuSans-6e" x="885.400391"/>
      <use xlink:href="#DejaVuSans-69" x="948.779297"/>
      <use xlink:href="#DejaVuSans-74" x="976.5625"/>
      <use xlink:href="#DejaVuSans-69" x="1015.771484"/>
      <use xlink:href="#DejaVuSans-61" x="1043.554688"/>
      <use xlink:href="#DejaVuSans-6c" x="1104.833984"/>
      <use xlink:href="#DejaVuSans-69" x="1132.617188"/>
      <use xlink:href="#DejaVuSans-7a" x="1160.400391"/>
      <use xlink:href="#DejaVuSans-61" x="1212.890625"/>
      <use xlink:href="#DejaVuSans-74" x="1274.169922"/>
      <use xlink:href="#DejaVuSans-69" x="1313.378906"/>
      <use xlink:href="#DejaVuSans-6f" x="1341.162109"/>
      <use xlink:href="#DejaVuSans-6e" x="1402.34375"/>
     </g>
    </g>
    <g id="patch_8">
     <path d="M 113.500391 51.459531 
L 139.500391 51.459531 
L 139.500391 42.359531 
L 113.500391 42.359531 
z
" style="fill: #31688e; fill-opacity: 0.4; stroke: #31688e; stroke-opacity: 0.7; stroke-linejoin: miter"/>
    </g>
    <g id="text_17">
     <!-- Bears x SelfAPR: Initialization + BIFI4J(keepall) -->
     <g transform="translate(149.900391 51.459531)scale(0.13 -0.13)">
      <defs>
       <path id="DejaVuSans-2b" d="M 2944 4013 
L 2944 2272 
L 4684 2272 
L 4684 1741 
L 2944 1741 
L 2944 0 
L 2419 0 
L 2419 1741 
L 678 1741 
L 678 2272 
L 2419 2272 
L 2419 4013 
L 2944 4013 
z
" transform="scale(0.015625)"/>
       <path id="DejaVuSans-46" d="M 628 4666 
L 3309 4666 
L 3309 4134 
L 1259 4134 
L 1259 2759 
L 3109 2759 
L 3109 2228 
L 1259 2228 
L 1259 0 
L 628 0 
L 628 4666 
z
" transform="scale(0.015625)"/>
       <path id="DejaVuSans-4a" d="M 628 4666 
L 1259 4666 
L 1259 325 
Q 1259 -519 939 -900 
Q 619 -1281 -91 -1281 
L -331 -1281 
L -331 -750 
L -134 -750 
Q 284 -750 456 -515 
Q 628 -281 628 325 
L 628 4666 
z
" transform="scale(0.015625)"/>
       <path id="DejaVuSans-28" d="M 1984 4856 
Q 1566 4138 1362 3434 
Q 1159 2731 1159 2009 
Q 1159 1288 1364 580 
Q 1569 -128 1984 -844 
L 1484 -844 
Q 1016 -109 783 600 
Q 550 1309 550 2009 
Q 550 2706 781 3412 
Q 1013 4119 1484 4856 
L 1984 4856 
z
" transform="scale(0.015625)"/>
       <path id="DejaVuSans-6b" d="M 581 4863 
L 1159 4863 
L 1159 1991 
L 2875 3500 
L 3609 3500 
L 1753 1863 
L 3688 0 
L 2938 0 
L 1159 1709 
L 1159 0 
L 581 0 
L 581 4863 
z
" transform="scale(0.015625)"/>
       <path id="DejaVuSans-70" d="M 1159 525 
L 1159 -1331 
L 581 -1331 
L 581 3500 
L 1159 3500 
L 1159 2969 
Q 1341 3281 1617 3432 
Q 1894 3584 2278 3584 
Q 2916 3584 3314 3078 
Q 3713 2572 3713 1747 
Q 3713 922 3314 415 
Q 2916 -91 2278 -91 
Q 1894 -91 1617 61 
Q 1341 213 1159 525 
z
M 3116 1747 
Q 3116 2381 2855 2742 
Q 2594 3103 2138 3103 
Q 1681 3103 1420 2742 
Q 1159 2381 1159 1747 
Q 1159 1113 1420 752 
Q 1681 391 2138 391 
Q 2594 391 2855 752 
Q 3116 1113 3116 1747 
z
" transform="scale(0.015625)"/>
       <path id="DejaVuSans-29" d="M 513 4856 
L 1013 4856 
Q 1481 4119 1714 3412 
Q 1947 2706 1947 2009 
Q 1947 1309 1714 600 
Q 1481 -109 1013 -844 
L 513 -844 
Q 928 -128 1133 580 
Q 1338 1288 1338 2009 
Q 1338 2731 1133 3434 
Q 928 4138 513 4856 
z
" transform="scale(0.015625)"/>
      </defs>
      <use xlink:href="#DejaVuSans-42"/>
      <use xlink:href="#DejaVuSans-65" x="68.603516"/>
      <use xlink:href="#DejaVuSans-61" x="130.126953"/>
      <use xlink:href="#DejaVuSans-72" x="191.40625"/>
      <use xlink:href="#DejaVuSans-73" x="232.519531"/>
      <use xlink:href="#DejaVuSans-20" x="284.619141"/>
      <use xlink:href="#DejaVuSans-78" x="316.40625"/>
      <use xlink:href="#DejaVuSans-20" x="375.585938"/>
      <use xlink:href="#DejaVuSans-53" x="407.373047"/>
      <use xlink:href="#DejaVuSans-65" x="470.849609"/>
      <use xlink:href="#DejaVuSans-6c" x="532.373047"/>
      <use xlink:href="#DejaVuSans-66" x="560.15625"/>
      <use xlink:href="#DejaVuSans-41" x="595.361328"/>
      <use xlink:href="#DejaVuSans-50" x="663.769531"/>
      <use xlink:href="#DejaVuSans-52" x="724.072266"/>
      <use xlink:href="#DejaVuSans-3a" x="790.429688"/>
      <use xlink:href="#DejaVuSans-20" x="824.121094"/>
      <use xlink:href="#DejaVuSans-49" x="855.908203"/>
      <use xlink:href="#DejaVuSans-6e" x="885.400391"/>
      <use xlink:href="#DejaVuSans-69" x="948.779297"/>
      <use xlink:href="#DejaVuSans-74" x="976.5625"/>
      <use xlink:href="#DejaVuSans-69" x="1015.771484"/>
      <use xlink:href="#DejaVuSans-61" x="1043.554688"/>
      <use xlink:href="#DejaVuSans-6c" x="1104.833984"/>
      <use xlink:href="#DejaVuSans-69" x="1132.617188"/>
      <use xlink:href="#DejaVuSans-7a" x="1160.400391"/>
      <use xlink:href="#DejaVuSans-61" x="1212.890625"/>
      <use xlink:href="#DejaVuSans-74" x="1274.169922"/>
      <use xlink:href="#DejaVuSans-69" x="1313.378906"/>
      <use xlink:href="#DejaVuSans-6f" x="1341.162109"/>
      <use xlink:href="#DejaVuSans-6e" x="1402.34375"/>
      <use xlink:href="#DejaVuSans-20" x="1465.722656"/>
      <use xlink:href="#DejaVuSans-2b" x="1497.509766"/>
      <use xlink:href="#DejaVuSans-20" x="1581.298828"/>
      <use xlink:href="#DejaVuSans-42" x="1613.085938"/>
      <use xlink:href="#DejaVuSans-49" x="1681.689453"/>
      <use xlink:href="#DejaVuSans-46" x="1711.181641"/>
      <use xlink:href="#DejaVuSans-49" x="1768.701172"/>
      <use xlink:href="#DejaVuSans-34" x="1798.193359"/>
      <use xlink:href="#DejaVuSans-4a" x="1861.816406"/>
      <use xlink:href="#DejaVuSans-28" x="1891.308594"/>
      <use xlink:href="#DejaVuSans-6b" x="1930.322266"/>
      <use xlink:href="#DejaVuSans-65" x="1984.607422"/>
      <use xlink:href="#DejaVuSans-65" x="2046.130859"/>
      <use xlink:href="#DejaVuSans-70" x="2107.654297"/>
      <use xlink:href="#DejaVuSans-61" x="2171.130859"/>
      <use xlink:href="#DejaVuSans-6c" x="2232.410156"/>
      <use xlink:href="#DejaVuSans-6c" x="2260.193359"/>
      <use xlink:href="#DejaVuSans-29" x="2287.976562"/>
     </g>
    </g>
    <g id="patch_9">
     <path d="M 113.500391 70.541094 
L 139.500391 70.541094 
L 139.500391 61.441094 
L 113.500391 61.441094 
z
" style="fill: #35b779; fill-opacity: 0.4; stroke: #35b779; stroke-opacity: 0.7; stroke-linejoin: miter"/>
    </g>
    <g id="text_18">
     <!-- Bears x SelfAPR: Initialization + BIFI4J(compiler) -->
     <g transform="translate(149.900391 70.541094)scale(0.13 -0.13)">
      <defs>
       <path id="DejaVuSans-63" d="M 3122 3366 
L 3122 2828 
Q 2878 2963 2633 3030 
Q 2388 3097 2138 3097 
Q 1578 3097 1268 2742 
Q 959 2388 959 1747 
Q 959 1106 1268 751 
Q 1578 397 2138 397 
Q 2388 397 2633 464 
Q 2878 531 3122 666 
L 3122 134 
Q 2881 22 2623 -34 
Q 2366 -91 2075 -91 
Q 1284 -91 818 406 
Q 353 903 353 1747 
Q 353 2603 823 3093 
Q 1294 3584 2113 3584 
Q 2378 3584 2631 3529 
Q 2884 3475 3122 3366 
z
" transform="scale(0.015625)"/>
       <path id="DejaVuSans-6d" d="M 3328 2828 
Q 3544 3216 3844 3400 
Q 4144 3584 4550 3584 
Q 5097 3584 5394 3201 
Q 5691 2819 5691 2113 
L 5691 0 
L 5113 0 
L 5113 2094 
Q 5113 2597 4934 2840 
Q 4756 3084 4391 3084 
Q 3944 3084 3684 2787 
Q 3425 2491 3425 1978 
L 3425 0 
L 2847 0 
L 2847 2094 
Q 2847 2600 2669 2842 
Q 2491 3084 2119 3084 
Q 1678 3084 1418 2786 
Q 1159 2488 1159 1978 
L 1159 0 
L 581 0 
L 581 3500 
L 1159 3500 
L 1159 2956 
Q 1356 3278 1631 3431 
Q 1906 3584 2284 3584 
Q 2666 3584 2933 3390 
Q 3200 3197 3328 2828 
z
" transform="scale(0.015625)"/>
      </defs>
      <use xlink:href="#DejaVuSans-42"/>
      <use xlink:href="#DejaVuSans-65" x="68.603516"/>
      <use xlink:href="#DejaVuSans-61" x="130.126953"/>
      <use xlink:href="#DejaVuSans-72" x="191.40625"/>
      <use xlink:href="#DejaVuSans-73" x="232.519531"/>
      <use xlink:href="#DejaVuSans-20" x="284.619141"/>
      <use xlink:href="#DejaVuSans-78" x="316.40625"/>
      <use xlink:href="#DejaVuSans-20" x="375.585938"/>
      <use xlink:href="#DejaVuSans-53" x="407.373047"/>
      <use xlink:href="#DejaVuSans-65" x="470.849609"/>
      <use xlink:href="#DejaVuSans-6c" x="532.373047"/>
      <use xlink:href="#DejaVuSans-66" x="560.15625"/>
      <use xlink:href="#DejaVuSans-41" x="595.361328"/>
      <use xlink:href="#DejaVuSans-50" x="663.769531"/>
      <use xlink:href="#DejaVuSans-52" x="724.072266"/>
      <use xlink:href="#DejaVuSans-3a" x="790.429688"/>
      <use xlink:href="#DejaVuSans-20" x="824.121094"/>
      <use xlink:href="#DejaVuSans-49" x="855.908203"/>
      <use xlink:href="#DejaVuSans-6e" x="885.400391"/>
      <use xlink:href="#DejaVuSans-69" x="948.779297"/>
      <use xlink:href="#DejaVuSans-74" x="976.5625"/>
      <use xlink:href="#DejaVuSans-69" x="1015.771484"/>
      <use xlink:href="#DejaVuSans-61" x="1043.554688"/>
      <use xlink:href="#DejaVuSans-6c" x="1104.833984"/>
      <use xlink:href="#DejaVuSans-69" x="1132.617188"/>
      <use xlink:href="#DejaVuSans-7a" x="1160.400391"/>
      <use xlink:href="#DejaVuSans-61" x="1212.890625"/>
      <use xlink:href="#DejaVuSans-74" x="1274.169922"/>
      <use xlink:href="#DejaVuSans-69" x="1313.378906"/>
      <use xlink:href="#DejaVuSans-6f" x="1341.162109"/>
      <use xlink:href="#DejaVuSans-6e" x="1402.34375"/>
      <use xlink:href="#DejaVuSans-20" x="1465.722656"/>
      <use xlink:href="#DejaVuSans-2b" x="1497.509766"/>
      <use xlink:href="#DejaVuSans-20" x="1581.298828"/>
      <use xlink:href="#DejaVuSans-42" x="1613.085938"/>
      <use xlink:href="#DejaVuSans-49" x="1681.689453"/>
      <use xlink:href="#DejaVuSans-46" x="1711.181641"/>
      <use xlink:href="#DejaVuSans-49" x="1768.701172"/>
      <use xlink:href="#DejaVuSans-34" x="1798.193359"/>
      <use xlink:href="#DejaVuSans-4a" x="1861.816406"/>
      <use xlink:href="#DejaVuSans-28" x="1891.308594"/>
      <use xlink:href="#DejaVuSans-63" x="1930.322266"/>
      <use xlink:href="#DejaVuSans-6f" x="1985.302734"/>
      <use xlink:href="#DejaVuSans-6d" x="2046.484375"/>
      <use xlink:href="#DejaVuSans-70" x="2143.896484"/>
      <use xlink:href="#DejaVuSans-69" x="2207.373047"/>
      <use xlink:href="#DejaVuSans-6c" x="2235.15625"/>
      <use xlink:href="#DejaVuSans-65" x="2262.939453"/>
      <use xlink:href="#DejaVuSans-72" x="2324.462891"/>
      <use xlink:href="#DejaVuSans-29" x="2365.576172"/>
     </g>
    </g>
    <g id="patch_10">
     <path d="M 113.500391 89.622656 
L 139.500391 89.622656 
L 139.500391 80.522656 
L 113.500391 80.522656 
z
" style="fill: #fde725; fill-opacity: 0.4; stroke: #fde725; stroke-opacity: 0.7; stroke-linejoin: miter"/>
    </g>
    <g id="text_19">
     <!-- Bears x SelfAPR: Initialization + BIFI4J(tests) -->
     <g transform="translate(149.900391 89.622656)scale(0.13 -0.13)">
      <use xlink:href="#DejaVuSans-42"/>
      <use xlink:href="#DejaVuSans-65" x="68.603516"/>
      <use xlink:href="#DejaVuSans-61" x="130.126953"/>
      <use xlink:href="#DejaVuSans-72" x="191.40625"/>
      <use xlink:href="#DejaVuSans-73" x="232.519531"/>
      <use xlink:href="#DejaVuSans-20" x="284.619141"/>
      <use xlink:href="#DejaVuSans-78" x="316.40625"/>
      <use xlink:href="#DejaVuSans-20" x="375.585938"/>
      <use xlink:href="#DejaVuSans-53" x="407.373047"/>
      <use xlink:href="#DejaVuSans-65" x="470.849609"/>
      <use xlink:href="#DejaVuSans-6c" x="532.373047"/>
      <use xlink:href="#DejaVuSans-66" x="560.15625"/>
      <use xlink:href="#DejaVuSans-41" x="595.361328"/>
      <use xlink:href="#DejaVuSans-50" x="663.769531"/>
      <use xlink:href="#DejaVuSans-52" x="724.072266"/>
      <use xlink:href="#DejaVuSans-3a" x="790.429688"/>
      <use xlink:href="#DejaVuSans-20" x="824.121094"/>
      <use xlink:href="#DejaVuSans-49" x="855.908203"/>
      <use xlink:href="#DejaVuSans-6e" x="885.400391"/>
      <use xlink:href="#DejaVuSans-69" x="948.779297"/>
      <use xlink:href="#DejaVuSans-74" x="976.5625"/>
      <use xlink:href="#DejaVuSans-69" x="1015.771484"/>
      <use xlink:href="#DejaVuSans-61" x="1043.554688"/>
      <use xlink:href="#DejaVuSans-6c" x="1104.833984"/>
      <use xlink:href="#DejaVuSans-69" x="1132.617188"/>
      <use xlink:href="#DejaVuSans-7a" x="1160.400391"/>
      <use xlink:href="#DejaVuSans-61" x="1212.890625"/>
      <use xlink:href="#DejaVuSans-74" x="1274.169922"/>
      <use xlink:href="#DejaVuSans-69" x="1313.378906"/>
      <use xlink:href="#DejaVuSans-6f" x="1341.162109"/>
      <use xlink:href="#DejaVuSans-6e" x="1402.34375"/>
      <use xlink:href="#DejaVuSans-20" x="1465.722656"/>
      <use xlink:href="#DejaVuSans-2b" x="1497.509766"/>
      <use xlink:href="#DejaVuSans-20" x="1581.298828"/>
      <use xlink:href="#DejaVuSans-42" x="1613.085938"/>
      <use xlink:href="#DejaVuSans-49" x="1681.689453"/>
      <use xlink:href="#DejaVuSans-46" x="1711.181641"/>
      <use xlink:href="#DejaVuSans-49" x="1768.701172"/>
      <use xlink:href="#DejaVuSans-34" x="1798.193359"/>
      <use xlink:href="#DejaVuSans-4a" x="1861.816406"/>
      <use xlink:href="#DejaVuSans-28" x="1891.308594"/>
      <use xlink:href="#DejaVuSans-74" x="1930.322266"/>
      <use xlink:href="#DejaVuSans-65" x="1969.53125"/>
      <use xlink:href="#DejaVuSans-73" x="2031.054688"/>
      <use xlink:href="#DejaVuSans-74" x="2083.154297"/>
      <use xlink:href="#DejaVuSans-73" x="2122.363281"/>
      <use xlink:href="#DejaVuSans-29" x="2174.462891"/>
     </g>
    </g>
   </g>
  </g>
 </g>
 <defs>
  <clipPath id="p500d1674e4">
   <rect x="10.8" y="10.8" width="554.4" height="554.4"/>
  </clipPath>
 </defs>
</svg>
