<?xml version="1.0" encoding="utf-8" standalone="no"?>
<!DOCTYPE svg PUBLIC "-//W3C//DTD SVG 1.1//EN"
  "http://www.w3.org/Graphics/SVG/1.1/DTD/svg11.dtd">
<svg xmlns:xlink="http://www.w3.org/1999/xlink" width="576pt" height="576pt" viewBox="0 0 576 576" xmlns="http://www.w3.org/2000/svg" version="1.1">
 <metadata>
  <rdf:RDF xmlns:dc="http://purl.org/dc/elements/1.1/" xmlns:cc="http://creativecommons.org/ns#" xmlns:rdf="http://www.w3.org/1999/02/22-rdf-syntax-ns#">
   <cc:Work>
    <dc:type rdf:resource="http://purl.org/dc/dcmitype/StillImage"/>
    <dc:date>2022-10-27T17:24:55.939026</dc:date>
    <dc:format>image/svg+xml</dc:format>
    <dc:creator>
     <cc:Agent>
      <dc:title>Matplotlib v3.5.2, https://matplotlib.org/</dc:title>
     </cc:Agent>
    </dc:creator>
   </cc:Work>
  </rdf:RDF>
 </metadata>
 <defs>
  <style type="text/css">*{stroke-linejoin: round; stroke-linecap: butt}</style>
 </defs>
 <g id="figure_1">
  <g id="patch_1">
   <path d="M 0 576 
L 576 576 
L 576 0 
L 0 0 
z
" style="fill: #ffffff"/>
  </g>
  <g id="axes_1">
   <g id="patch_2">
    <path d="M 285.292115 251.53056 
C 248.431243 220.600616 205.394762 200.086431 165.660957 194.506016 
C 125.927151 188.925601 92.740111 198.734571 73.408896 221.772616 
C 54.077681 244.810661 50.1806 279.196825 62.575939 317.357956 
C 74.971278 355.519087 102.647013 394.339496 139.507885 425.26944 
C 176.368757 456.199384 219.405238 476.713569 259.139043 482.293984 
C 298.872849 487.874399 332.059889 478.065429 351.391104 455.027384 
C 370.722319 431.989339 374.6194 397.603175 362.224061 359.442044 
C 349.828722 321.280913 322.152987 282.460504 285.292115 251.53056 
z
" clip-path="url(#p45be33c75b)" style="fill: #440154; fill-opacity: 0.4; stroke: #440154; stroke-opacity: 0.7; stroke-linejoin: miter"/>
   </g>
   <g id="patch_3">
    <path d="M 335.692115 201.13056 
C 298.831243 170.200616 255.794762 149.686431 216.060957 144.106016 
C 176.327151 138.525601 143.140111 148.334571 123.808896 171.372616 
C 104.477681 194.410661 100.5806 228.796825 112.975939 266.957956 
C 125.371278 305.119087 153.047013 343.939496 189.907885 374.86944 
C 226.768757 405.799384 269.805238 426.313569 309.539043 431.893984 
C 349.272849 437.474399 382.459889 427.665429 401.791104 404.627384 
C 421.122319 381.589339 425.0194 347.203175 412.624061 309.042044 
C 400.228722 270.880913 372.552987 232.060504 335.692115 201.13056 
z
" clip-path="url(#p45be33c75b)" style="fill: #31688e; fill-opacity: 0.4; stroke: #31688e; stroke-opacity: 0.7; stroke-linejoin: miter"/>
   </g>
   <g id="patch_4">
    <path d="M 383.068115 374.86944 
C 419.928987 343.939496 447.604722 305.119087 460.000061 266.957956 
C 472.3954 228.796825 468.498319 194.410661 449.167104 171.372616 
C 429.835889 148.334571 396.648849 138.525601 356.915043 144.106016 
C 317.181238 149.686431 274.144757 170.200616 237.283885 201.13056 
C 200.423013 232.060504 172.747278 270.880913 160.351939 309.042044 
C 147.9566 347.203175 151.853681 381.589339 171.184896 404.627384 
C 190.516111 427.665429 223.703151 437.474399 263.436957 431.893984 
C 303.170762 426.313569 346.207243 405.799384 383.068115 374.86944 
z
" clip-path="url(#p45be33c75b)" style="fill: #35b779; fill-opacity: 0.4; stroke: #35b779; stroke-opacity: 0.7; stroke-linejoin: miter"/>
   </g>
   <g id="patch_5">
    <path d="M 433.468115 425.26944 
C 470.328987 394.339496 498.004722 355.519087 510.400061 317.357956 
C 522.7954 279.196825 518.898319 244.810661 499.567104 221.772616 
C 480.235889 198.734571 447.048849 188.925601 407.315043 194.506016 
C 367.581238 200.086431 324.544757 220.600616 287.683885 251.53056 
C 250.823013 282.460504 223.147278 321.280913 210.751939 359.442044 
C 198.3566 397.603175 202.253681 431.989339 221.584896 455.027384 
C 240.916111 478.065429 274.103151 487.874399 313.836957 482.293984 
C 353.570762 476.713569 396.607243 456.199384 433.468115 425.26944 
z
" clip-path="url(#p45be33c75b)" style="fill: #fde725; fill-opacity: 0.4; stroke: #fde725; stroke-opacity: 0.7; stroke-linejoin: miter"/>
   </g>
   <g id="matplotlib.axis_1"/>
   <g id="matplotlib.axis_2"/>
   <g id="text_1">
    <!-- 4 -->
    <g transform="translate(460.264375 331.907188)scale(0.13 -0.13)">
     <defs>
      <path id="DejaVuSans-34" d="M 2419 4116 
L 825 1625 
L 2419 1625 
L 2419 4116 
z
M 2253 4666 
L 3047 4666 
L 3047 1625 
L 3713 1625 
L 3713 1100 
L 3047 1100 
L 3047 0 
L 2419 0 
L 2419 1100 
L 313 1100 
L 313 1709 
L 2253 4666 
z
" transform="scale(0.015625)"/>
     </defs>
     <use xlink:href="#DejaVuSans-34"/>
    </g>
   </g>
   <g id="text_2">
    <!-- 6 -->
    <g transform="translate(374.584375 180.707188)scale(0.13 -0.13)">
     <defs>
      <path id="DejaVuSans-36" d="M 2113 2584 
Q 1688 2584 1439 2293 
Q 1191 2003 1191 1497 
Q 1191 994 1439 701 
Q 1688 409 2113 409 
Q 2538 409 2786 701 
Q 3034 994 3034 1497 
Q 3034 2003 2786 2293 
Q 2538 2584 2113 2584 
z
M 3366 4563 
L 3366 3988 
Q 3128 4100 2886 4159 
Q 2644 4219 2406 4219 
Q 1781 4219 1451 3797 
Q 1122 3375 1075 2522 
Q 1259 2794 1537 2939 
Q 1816 3084 2150 3084 
Q 2853 3084 3261 2657 
Q 3669 2231 3669 1497 
Q 3669 778 3244 343 
Q 2819 -91 2113 -91 
Q 1303 -91 875 529 
Q 447 1150 447 2328 
Q 447 3434 972 4092 
Q 1497 4750 2381 4750 
Q 2619 4750 2861 4703 
Q 3103 4656 3366 4563 
z
" transform="scale(0.015625)"/>
     </defs>
     <use xlink:href="#DejaVuSans-36"/>
    </g>
   </g>
   <g id="text_3">
    <!-- 1 -->
    <g transform="translate(419.944375 246.227188)scale(0.13 -0.13)">
     <defs>
      <path id="DejaVuSans-31" d="M 794 531 
L 1825 531 
L 1825 4091 
L 703 3866 
L 703 4441 
L 1819 4666 
L 2450 4666 
L 2450 531 
L 3481 531 
L 3481 0 
L 794 0 
L 794 531 
z
" transform="scale(0.015625)"/>
     </defs>
     <use xlink:href="#DejaVuSans-31"/>
    </g>
   </g>
   <g id="text_4">
    <!-- 4 -->
    <g transform="translate(193.144375 180.707188)scale(0.13 -0.13)">
     <use xlink:href="#DejaVuSans-34"/>
    </g>
   </g>
   <g id="text_5">
    <!-- 1 -->
    <g transform="translate(389.704375 392.387187)scale(0.13 -0.13)">
     <use xlink:href="#DejaVuSans-31"/>
    </g>
   </g>
   <g id="text_6">
    <!-- 4 -->
    <g transform="translate(283.864375 210.947188)scale(0.13 -0.13)">
     <use xlink:href="#DejaVuSans-34"/>
    </g>
   </g>
   <g id="text_7">
    <!-- 2 -->
    <g transform="translate(359.464375 291.587188)scale(0.13 -0.13)">
     <defs>
      <path id="DejaVuSans-32" d="M 1228 531 
L 3431 531 
L 3431 0 
L 469 0 
L 469 531 
Q 828 903 1448 1529 
Q 2069 2156 2228 2338 
Q 2531 2678 2651 2914 
Q 2772 3150 2772 3378 
Q 2772 3750 2511 3984 
Q 2250 4219 1831 4219 
Q 1534 4219 1204 4116 
Q 875 4013 500 3803 
L 500 4441 
Q 881 4594 1212 4672 
Q 1544 4750 1819 4750 
Q 2544 4750 2975 4387 
Q 3406 4025 3406 3419 
Q 3406 3131 3298 2873 
Q 3191 2616 2906 2266 
Q 2828 2175 2409 1742 
Q 1991 1309 1228 531 
z
" transform="scale(0.015625)"/>
     </defs>
     <use xlink:href="#DejaVuSans-32"/>
    </g>
   </g>
   <g id="text_8">
    <!-- 0 -->
    <g transform="translate(102.424375 331.907188)scale(0.13 -0.13)">
     <defs>
      <path id="DejaVuSans-30" d="M 2034 4250 
Q 1547 4250 1301 3770 
Q 1056 3291 1056 2328 
Q 1056 1369 1301 889 
Q 1547 409 2034 409 
Q 2525 409 2770 889 
Q 3016 1369 3016 2328 
Q 3016 3291 2770 3770 
Q 2525 4250 2034 4250 
z
M 2034 4750 
Q 2819 4750 3233 4129 
Q 3647 3509 3647 2328 
Q 3647 1150 3233 529 
Q 2819 -91 2034 -91 
Q 1250 -91 836 529 
Q 422 1150 422 2328 
Q 422 3509 836 4129 
Q 1250 4750 2034 4750 
z
" transform="scale(0.015625)"/>
     </defs>
     <use xlink:href="#DejaVuSans-30"/>
    </g>
   </g>
   <g id="text_9">
    <!-- 1 -->
    <g transform="translate(283.864375 457.907187)scale(0.13 -0.13)">
     <use xlink:href="#DejaVuSans-31"/>
    </g>
   </g>
   <g id="text_10">
    <!-- 1 -->
    <g transform="translate(178.024375 392.387187)scale(0.13 -0.13)">
     <use xlink:href="#DejaVuSans-31"/>
    </g>
   </g>
   <g id="text_11">
    <!-- 2 -->
    <g transform="translate(228.424375 422.627187)scale(0.13 -0.13)">
     <use xlink:href="#DejaVuSans-32"/>
    </g>
   </g>
   <g id="text_12">
    <!-- 0 -->
    <g transform="translate(147.784375 246.227188)scale(0.13 -0.13)">
     <use xlink:href="#DejaVuSans-30"/>
    </g>
   </g>
   <g id="text_13">
    <!-- 0 -->
    <g transform="translate(339.304375 422.627187)scale(0.13 -0.13)">
     <use xlink:href="#DejaVuSans-30"/>
    </g>
   </g>
   <g id="text_14">
    <!-- 1 -->
    <g transform="translate(208.264375 291.587188)scale(0.13 -0.13)">
     <use xlink:href="#DejaVuSans-31"/>
    </g>
   </g>
   <g id="text_15">
    <!-- 11 -->
    <g transform="translate(279.72875 352.067188)scale(0.13 -0.13)">
     <use xlink:href="#DejaVuSans-31"/>
     <use xlink:href="#DejaVuSans-31" x="63.623047"/>
    </g>
   </g>
   <g id="legend_1">
    <g id="patch_6">
     <path d="M 253.320469 97.52625 
L 322.679531 97.52625 
Q 325.279531 97.52625 325.279531 94.92625 
L 325.279531 19.9 
Q 325.279531 17.3 322.679531 17.3 
L 253.320469 17.3 
Q 250.720469 17.3 250.720469 19.9 
L 250.720469 94.92625 
Q 250.720469 97.52625 253.320469 97.52625 
z
" style="fill: #ffffff; opacity: 0.8; stroke: #cccccc; stroke-linejoin: miter"/>
    </g>
    <g id="patch_7">
     <path d="M 255.920469 32.377969 
L 281.920469 32.377969 
L 281.920469 23.277969 
L 255.920469 23.277969 
z
" style="fill: #440154; fill-opacity: 0.4; stroke: #440154; stroke-opacity: 0.7; stroke-linejoin: miter"/>
    </g>
    <g id="text_16">
     <!-- M4 -->
     <g transform="translate(292.320469 32.377969)scale(0.13 -0.13)">
      <defs>
       <path id="DejaVuSans-4d" d="M 628 4666 
L 1569 4666 
L 2759 1491 
L 3956 4666 
L 4897 4666 
L 4897 0 
L 4281 0 
L 4281 4097 
L 3078 897 
L 2444 897 
L 1241 4097 
L 1241 0 
L 628 0 
L 628 4666 
z
" transform="scale(0.015625)"/>
      </defs>
      <use xlink:href="#DejaVuSans-4d"/>
      <use xlink:href="#DejaVuSans-34" x="86.279297"/>
     </g>
    </g>
    <g id="patch_8">
     <path d="M 255.920469 51.459531 
L 281.920469 51.459531 
L 281.920469 42.359531 
L 255.920469 42.359531 
z
" style="fill: #31688e; fill-opacity: 0.4; stroke: #31688e; stroke-opacity: 0.7; stroke-linejoin: miter"/>
    </g>
    <g id="text_17">
     <!-- M8 -->
     <g transform="translate(292.320469 51.459531)scale(0.13 -0.13)">
      <defs>
       <path id="DejaVuSans-38" d="M 2034 2216 
Q 1584 2216 1326 1975 
Q 1069 1734 1069 1313 
Q 1069 891 1326 650 
Q 1584 409 2034 409 
Q 2484 409 2743 651 
Q 3003 894 3003 1313 
Q 3003 1734 2745 1975 
Q 2488 2216 2034 2216 
z
M 1403 2484 
Q 997 2584 770 2862 
Q 544 3141 544 3541 
Q 544 4100 942 4425 
Q 1341 4750 2034 4750 
Q 2731 4750 3128 4425 
Q 3525 4100 3525 3541 
Q 3525 3141 3298 2862 
Q 3072 2584 2669 2484 
Q 3125 2378 3379 2068 
Q 3634 1759 3634 1313 
Q 3634 634 3220 271 
Q 2806 -91 2034 -91 
Q 1263 -91 848 271 
Q 434 634 434 1313 
Q 434 1759 690 2068 
Q 947 2378 1403 2484 
z
M 1172 3481 
Q 1172 3119 1398 2916 
Q 1625 2713 2034 2713 
Q 2441 2713 2670 2916 
Q 2900 3119 2900 3481 
Q 2900 3844 2670 4047 
Q 2441 4250 2034 4250 
Q 1625 4250 1398 4047 
Q 1172 3844 1172 3481 
z
" transform="scale(0.015625)"/>
      </defs>
      <use xlink:href="#DejaVuSans-4d"/>
      <use xlink:href="#DejaVuSans-38" x="86.279297"/>
     </g>
    </g>
    <g id="patch_9">
     <path d="M 255.920469 70.541094 
L 281.920469 70.541094 
L 281.920469 61.441094 
L 255.920469 61.441094 
z
" style="fill: #35b779; fill-opacity: 0.4; stroke: #35b779; stroke-opacity: 0.7; stroke-linejoin: miter"/>
    </g>
    <g id="text_18">
     <!-- M9 -->
     <g transform="translate(292.320469 70.541094)scale(0.13 -0.13)">
      <defs>
       <path id="DejaVuSans-39" d="M 703 97 
L 703 672 
Q 941 559 1184 500 
Q 1428 441 1663 441 
Q 2288 441 2617 861 
Q 2947 1281 2994 2138 
Q 2813 1869 2534 1725 
Q 2256 1581 1919 1581 
Q 1219 1581 811 2004 
Q 403 2428 403 3163 
Q 403 3881 828 4315 
Q 1253 4750 1959 4750 
Q 2769 4750 3195 4129 
Q 3622 3509 3622 2328 
Q 3622 1225 3098 567 
Q 2575 -91 1691 -91 
Q 1453 -91 1209 -44 
Q 966 3 703 97 
z
M 1959 2075 
Q 2384 2075 2632 2365 
Q 2881 2656 2881 3163 
Q 2881 3666 2632 3958 
Q 2384 4250 1959 4250 
Q 1534 4250 1286 3958 
Q 1038 3666 1038 3163 
Q 1038 2656 1286 2365 
Q 1534 2075 1959 2075 
z
" transform="scale(0.015625)"/>
      </defs>
      <use xlink:href="#DejaVuSans-4d"/>
      <use xlink:href="#DejaVuSans-39" x="86.279297"/>
     </g>
    </g>
    <g id="patch_10">
     <path d="M 255.920469 89.622656 
L 281.920469 89.622656 
L 281.920469 80.522656 
L 255.920469 80.522656 
z
" style="fill: #fde725; fill-opacity: 0.4; stroke: #fde725; stroke-opacity: 0.7; stroke-linejoin: miter"/>
    </g>
    <g id="text_19">
     <!-- M10 -->
     <g transform="translate(292.320469 89.622656)scale(0.13 -0.13)">
      <use xlink:href="#DejaVuSans-4d"/>
      <use xlink:href="#DejaVuSans-31" x="86.279297"/>
      <use xlink:href="#DejaVuSans-30" x="149.902344"/>
     </g>
    </g>
   </g>
  </g>
 </g>
 <defs>
  <clipPath id="p45be33c75b">
   <rect x="10.8" y="10.8" width="554.4" height="554.4"/>
  </clipPath>
 </defs>
</svg>
