<?xml version="1.0" encoding="utf-8" standalone="no"?>
<!DOCTYPE svg PUBLIC "-//W3C//DTD SVG 1.1//EN"
  "http://www.w3.org/Graphics/SVG/1.1/DTD/svg11.dtd">
<svg xmlns:xlink="http://www.w3.org/1999/xlink" width="460.8pt" height="345.6pt" viewBox="0 0 460.8 345.6" xmlns="http://www.w3.org/2000/svg" version="1.1">
 <metadata>
  <rdf:RDF xmlns:dc="http://purl.org/dc/elements/1.1/" xmlns:cc="http://creativecommons.org/ns#" xmlns:rdf="http://www.w3.org/1999/02/22-rdf-syntax-ns#">
   <cc:Work>
    <dc:type rdf:resource="http://purl.org/dc/dcmitype/StillImage"/>
    <dc:date>2022-10-18T01:31:44.964885</dc:date>
    <dc:format>image/svg+xml</dc:format>
    <dc:creator>
     <cc:Agent>
      <dc:title>Matplotlib v3.5.2, https://matplotlib.org/</dc:title>
     </cc:Agent>
    </dc:creator>
   </cc:Work>
  </rdf:RDF>
 </metadata>
 <defs>
  <style type="text/css">*{stroke-linejoin: round; stroke-linecap: butt}</style>
 </defs>
 <g id="figure_1">
  <g id="patch_1">
   <path d="M 0 345.6 
L 460.8 345.6 
L 460.8 0 
L 0 0 
z
" style="fill: #ffffff"/>
  </g>
  <g id="axes_1">
   <g id="patch_2">
    <path d="M 47.72 303.64 
L 450 303.64 
L 450 10.8 
L 47.72 10.8 
z
" style="fill: #ffffff"/>
   </g>
   <g id="matplotlib.axis_1">
    <g id="xtick_1">
     <g id="line2d_1">
      <defs>
       <path id="ma3f8d9a1f8" d="M 0 0 
L 0 3.5 
" style="stroke: #000000; stroke-width: 0.8"/>
      </defs>
      <g>
       <use xlink:href="#ma3f8d9a1f8" x="62.311423" y="303.64" style="stroke: #000000; stroke-width: 0.8"/>
      </g>
     </g>
     <g id="text_1">
      <!-- 0 -->
      <g transform="translate(59.130173 318.238437)scale(0.1 -0.1)">
       <defs>
        <path id="DejaVuSans-30" d="M 2034 4250 
Q 1547 4250 1301 3770 
Q 1056 3291 1056 2328 
Q 1056 1369 1301 889 
Q 1547 409 2034 409 
Q 2525 409 2770 889 
Q 3016 1369 3016 2328 
Q 3016 3291 2770 3770 
Q 2525 4250 2034 4250 
z
M 2034 4750 
Q 2819 4750 3233 4129 
Q 3647 3509 3647 2328 
Q 3647 1150 3233 529 
Q 2819 -91 2034 -91 
Q 1250 -91 836 529 
Q 422 1150 422 2328 
Q 422 3509 836 4129 
Q 1250 4750 2034 4750 
z
" transform="scale(0.015625)"/>
       </defs>
       <use xlink:href="#DejaVuSans-30"/>
      </g>
     </g>
    </g>
    <g id="xtick_2">
     <g id="line2d_2">
      <g>
       <use xlink:href="#ma3f8d9a1f8" x="136.192048" y="303.64" style="stroke: #000000; stroke-width: 0.8"/>
      </g>
     </g>
     <g id="text_2">
      <!-- 20 -->
      <g transform="translate(129.829548 318.238437)scale(0.1 -0.1)">
       <defs>
        <path id="DejaVuSans-32" d="M 1228 531 
L 3431 531 
L 3431 0 
L 469 0 
L 469 531 
Q 828 903 1448 1529 
Q 2069 2156 2228 2338 
Q 2531 2678 2651 2914 
Q 2772 3150 2772 3378 
Q 2772 3750 2511 3984 
Q 2250 4219 1831 4219 
Q 1534 4219 1204 4116 
Q 875 4013 500 3803 
L 500 4441 
Q 881 4594 1212 4672 
Q 1544 4750 1819 4750 
Q 2544 4750 2975 4387 
Q 3406 4025 3406 3419 
Q 3406 3131 3298 2873 
Q 3191 2616 2906 2266 
Q 2828 2175 2409 1742 
Q 1991 1309 1228 531 
z
" transform="scale(0.015625)"/>
       </defs>
       <use xlink:href="#DejaVuSans-32"/>
       <use xlink:href="#DejaVuSans-30" x="63.623047"/>
      </g>
     </g>
    </g>
    <g id="xtick_3">
     <g id="line2d_3">
      <g>
       <use xlink:href="#ma3f8d9a1f8" x="210.072672" y="303.64" style="stroke: #000000; stroke-width: 0.8"/>
      </g>
     </g>
     <g id="text_3">
      <!-- 40 -->
      <g transform="translate(203.710172 318.238437)scale(0.1 -0.1)">
       <defs>
        <path id="DejaVuSans-34" d="M 2419 4116 
L 825 1625 
L 2419 1625 
L 2419 4116 
z
M 2253 4666 
L 3047 4666 
L 3047 1625 
L 3713 1625 
L 3713 1100 
L 3047 1100 
L 3047 0 
L 2419 0 
L 2419 1100 
L 313 1100 
L 313 1709 
L 2253 4666 
z
" transform="scale(0.015625)"/>
       </defs>
       <use xlink:href="#DejaVuSans-34"/>
       <use xlink:href="#DejaVuSans-30" x="63.623047"/>
      </g>
     </g>
    </g>
    <g id="xtick_4">
     <g id="line2d_4">
      <g>
       <use xlink:href="#ma3f8d9a1f8" x="283.953297" y="303.64" style="stroke: #000000; stroke-width: 0.8"/>
      </g>
     </g>
     <g id="text_4">
      <!-- 60 -->
      <g transform="translate(277.590797 318.238437)scale(0.1 -0.1)">
       <defs>
        <path id="DejaVuSans-36" d="M 2113 2584 
Q 1688 2584 1439 2293 
Q 1191 2003 1191 1497 
Q 1191 994 1439 701 
Q 1688 409 2113 409 
Q 2538 409 2786 701 
Q 3034 994 3034 1497 
Q 3034 2003 2786 2293 
Q 2538 2584 2113 2584 
z
M 3366 4563 
L 3366 3988 
Q 3128 4100 2886 4159 
Q 2644 4219 2406 4219 
Q 1781 4219 1451 3797 
Q 1122 3375 1075 2522 
Q 1259 2794 1537 2939 
Q 1816 3084 2150 3084 
Q 2853 3084 3261 2657 
Q 3669 2231 3669 1497 
Q 3669 778 3244 343 
Q 2819 -91 2113 -91 
Q 1303 -91 875 529 
Q 447 1150 447 2328 
Q 447 3434 972 4092 
Q 1497 4750 2381 4750 
Q 2619 4750 2861 4703 
Q 3103 4656 3366 4563 
z
" transform="scale(0.015625)"/>
       </defs>
       <use xlink:href="#DejaVuSans-36"/>
       <use xlink:href="#DejaVuSans-30" x="63.623047"/>
      </g>
     </g>
    </g>
    <g id="xtick_5">
     <g id="line2d_5">
      <g>
       <use xlink:href="#ma3f8d9a1f8" x="357.833921" y="303.64" style="stroke: #000000; stroke-width: 0.8"/>
      </g>
     </g>
     <g id="text_5">
      <!-- 80 -->
      <g transform="translate(351.471421 318.238437)scale(0.1 -0.1)">
       <defs>
        <path id="DejaVuSans-38" d="M 2034 2216 
Q 1584 2216 1326 1975 
Q 1069 1734 1069 1313 
Q 1069 891 1326 650 
Q 1584 409 2034 409 
Q 2484 409 2743 651 
Q 3003 894 3003 1313 
Q 3003 1734 2745 1975 
Q 2488 2216 2034 2216 
z
M 1403 2484 
Q 997 2584 770 2862 
Q 544 3141 544 3541 
Q 544 4100 942 4425 
Q 1341 4750 2034 4750 
Q 2731 4750 3128 4425 
Q 3525 4100 3525 3541 
Q 3525 3141 3298 2862 
Q 3072 2584 2669 2484 
Q 3125 2378 3379 2068 
Q 3634 1759 3634 1313 
Q 3634 634 3220 271 
Q 2806 -91 2034 -91 
Q 1263 -91 848 271 
Q 434 634 434 1313 
Q 434 1759 690 2068 
Q 947 2378 1403 2484 
z
M 1172 3481 
Q 1172 3119 1398 2916 
Q 1625 2713 2034 2713 
Q 2441 2713 2670 2916 
Q 2900 3119 2900 3481 
Q 2900 3844 2670 4047 
Q 2441 4250 2034 4250 
Q 1625 4250 1398 4047 
Q 1172 3844 1172 3481 
z
" transform="scale(0.015625)"/>
       </defs>
       <use xlink:href="#DejaVuSans-38"/>
       <use xlink:href="#DejaVuSans-30" x="63.623047"/>
      </g>
     </g>
    </g>
    <g id="xtick_6">
     <g id="line2d_6">
      <g>
       <use xlink:href="#ma3f8d9a1f8" x="431.714545" y="303.64" style="stroke: #000000; stroke-width: 0.8"/>
      </g>
     </g>
     <g id="text_6">
      <!-- 100 -->
      <g transform="translate(422.170795 318.238437)scale(0.1 -0.1)">
       <defs>
        <path id="DejaVuSans-31" d="M 794 531 
L 1825 531 
L 1825 4091 
L 703 3866 
L 703 4441 
L 1819 4666 
L 2450 4666 
L 2450 531 
L 3481 531 
L 3481 0 
L 794 0 
L 794 531 
z
" transform="scale(0.015625)"/>
       </defs>
       <use xlink:href="#DejaVuSans-31"/>
       <use xlink:href="#DejaVuSans-30" x="63.623047"/>
       <use xlink:href="#DejaVuSans-30" x="127.246094"/>
      </g>
     </g>
    </g>
    <g id="text_7">
     <!-- Beam size -->
     <g transform="translate(223.135 331.916562)scale(0.1 -0.1)">
      <defs>
       <path id="DejaVuSans-42" d="M 1259 2228 
L 1259 519 
L 2272 519 
Q 2781 519 3026 730 
Q 3272 941 3272 1375 
Q 3272 1813 3026 2020 
Q 2781 2228 2272 2228 
L 1259 2228 
z
M 1259 4147 
L 1259 2741 
L 2194 2741 
Q 2656 2741 2882 2914 
Q 3109 3088 3109 3444 
Q 3109 3797 2882 3972 
Q 2656 4147 2194 4147 
L 1259 4147 
z
M 628 4666 
L 2241 4666 
Q 2963 4666 3353 4366 
Q 3744 4066 3744 3513 
Q 3744 3084 3544 2831 
Q 3344 2578 2956 2516 
Q 3422 2416 3680 2098 
Q 3938 1781 3938 1306 
Q 3938 681 3513 340 
Q 3088 0 2303 0 
L 628 0 
L 628 4666 
z
" transform="scale(0.015625)"/>
       <path id="DejaVuSans-65" d="M 3597 1894 
L 3597 1613 
L 953 1613 
Q 991 1019 1311 708 
Q 1631 397 2203 397 
Q 2534 397 2845 478 
Q 3156 559 3463 722 
L 3463 178 
Q 3153 47 2828 -22 
Q 2503 -91 2169 -91 
Q 1331 -91 842 396 
Q 353 884 353 1716 
Q 353 2575 817 3079 
Q 1281 3584 2069 3584 
Q 2775 3584 3186 3129 
Q 3597 2675 3597 1894 
z
M 3022 2063 
Q 3016 2534 2758 2815 
Q 2500 3097 2075 3097 
Q 1594 3097 1305 2825 
Q 1016 2553 972 2059 
L 3022 2063 
z
" transform="scale(0.015625)"/>
       <path id="DejaVuSans-61" d="M 2194 1759 
Q 1497 1759 1228 1600 
Q 959 1441 959 1056 
Q 959 750 1161 570 
Q 1363 391 1709 391 
Q 2188 391 2477 730 
Q 2766 1069 2766 1631 
L 2766 1759 
L 2194 1759 
z
M 3341 1997 
L 3341 0 
L 2766 0 
L 2766 531 
Q 2569 213 2275 61 
Q 1981 -91 1556 -91 
Q 1019 -91 701 211 
Q 384 513 384 1019 
Q 384 1609 779 1909 
Q 1175 2209 1959 2209 
L 2766 2209 
L 2766 2266 
Q 2766 2663 2505 2880 
Q 2244 3097 1772 3097 
Q 1472 3097 1187 3025 
Q 903 2953 641 2809 
L 641 3341 
Q 956 3463 1253 3523 
Q 1550 3584 1831 3584 
Q 2591 3584 2966 3190 
Q 3341 2797 3341 1997 
z
" transform="scale(0.015625)"/>
       <path id="DejaVuSans-6d" d="M 3328 2828 
Q 3544 3216 3844 3400 
Q 4144 3584 4550 3584 
Q 5097 3584 5394 3201 
Q 5691 2819 5691 2113 
L 5691 0 
L 5113 0 
L 5113 2094 
Q 5113 2597 4934 2840 
Q 4756 3084 4391 3084 
Q 3944 3084 3684 2787 
Q 3425 2491 3425 1978 
L 3425 0 
L 2847 0 
L 2847 2094 
Q 2847 2600 2669 2842 
Q 2491 3084 2119 3084 
Q 1678 3084 1418 2786 
Q 1159 2488 1159 1978 
L 1159 0 
L 581 0 
L 581 3500 
L 1159 3500 
L 1159 2956 
Q 1356 3278 1631 3431 
Q 1906 3584 2284 3584 
Q 2666 3584 2933 3390 
Q 3200 3197 3328 2828 
z
" transform="scale(0.015625)"/>
       <path id="DejaVuSans-20" transform="scale(0.015625)"/>
       <path id="DejaVuSans-73" d="M 2834 3397 
L 2834 2853 
Q 2591 2978 2328 3040 
Q 2066 3103 1784 3103 
Q 1356 3103 1142 2972 
Q 928 2841 928 2578 
Q 928 2378 1081 2264 
Q 1234 2150 1697 2047 
L 1894 2003 
Q 2506 1872 2764 1633 
Q 3022 1394 3022 966 
Q 3022 478 2636 193 
Q 2250 -91 1575 -91 
Q 1294 -91 989 -36 
Q 684 19 347 128 
L 347 722 
Q 666 556 975 473 
Q 1284 391 1588 391 
Q 1994 391 2212 530 
Q 2431 669 2431 922 
Q 2431 1156 2273 1281 
Q 2116 1406 1581 1522 
L 1381 1569 
Q 847 1681 609 1914 
Q 372 2147 372 2553 
Q 372 3047 722 3315 
Q 1072 3584 1716 3584 
Q 2034 3584 2315 3537 
Q 2597 3491 2834 3397 
z
" transform="scale(0.015625)"/>
       <path id="DejaVuSans-69" d="M 603 3500 
L 1178 3500 
L 1178 0 
L 603 0 
L 603 3500 
z
M 603 4863 
L 1178 4863 
L 1178 4134 
L 603 4134 
L 603 4863 
z
" transform="scale(0.015625)"/>
       <path id="DejaVuSans-7a" d="M 353 3500 
L 3084 3500 
L 3084 2975 
L 922 459 
L 3084 459 
L 3084 0 
L 275 0 
L 275 525 
L 2438 3041 
L 353 3041 
L 353 3500 
z
" transform="scale(0.015625)"/>
      </defs>
      <use xlink:href="#DejaVuSans-42"/>
      <use xlink:href="#DejaVuSans-65" x="68.603516"/>
      <use xlink:href="#DejaVuSans-61" x="130.126953"/>
      <use xlink:href="#DejaVuSans-6d" x="191.40625"/>
      <use xlink:href="#DejaVuSans-20" x="288.818359"/>
      <use xlink:href="#DejaVuSans-73" x="320.605469"/>
      <use xlink:href="#DejaVuSans-69" x="372.705078"/>
      <use xlink:href="#DejaVuSans-7a" x="400.488281"/>
      <use xlink:href="#DejaVuSans-65" x="452.978516"/>
     </g>
    </g>
   </g>
   <g id="matplotlib.axis_2">
    <g id="ytick_1">
     <g id="line2d_7">
      <defs>
       <path id="m1c5b947c31" d="M 0 0 
L -3.5 0 
" style="stroke: #000000; stroke-width: 0.8"/>
      </defs>
      <g>
       <use xlink:href="#m1c5b947c31" x="47.72" y="290.329091" style="stroke: #000000; stroke-width: 0.8"/>
      </g>
     </g>
     <g id="text_8">
      <!-- 0.0 -->
      <g transform="translate(24.816875 294.12831)scale(0.1 -0.1)">
       <defs>
        <path id="DejaVuSans-2e" d="M 684 794 
L 1344 794 
L 1344 0 
L 684 0 
L 684 794 
z
" transform="scale(0.015625)"/>
       </defs>
       <use xlink:href="#DejaVuSans-30"/>
       <use xlink:href="#DejaVuSans-2e" x="63.623047"/>
       <use xlink:href="#DejaVuSans-30" x="95.410156"/>
      </g>
     </g>
    </g>
    <g id="ytick_2">
     <g id="line2d_8">
      <g>
       <use xlink:href="#m1c5b947c31" x="47.72" y="237.085455" style="stroke: #000000; stroke-width: 0.8"/>
      </g>
     </g>
     <g id="text_9">
      <!-- 0.2 -->
      <g transform="translate(24.816875 240.884673)scale(0.1 -0.1)">
       <use xlink:href="#DejaVuSans-30"/>
       <use xlink:href="#DejaVuSans-2e" x="63.623047"/>
       <use xlink:href="#DejaVuSans-32" x="95.410156"/>
      </g>
     </g>
    </g>
    <g id="ytick_3">
     <g id="line2d_9">
      <g>
       <use xlink:href="#m1c5b947c31" x="47.72" y="183.841818" style="stroke: #000000; stroke-width: 0.8"/>
      </g>
     </g>
     <g id="text_10">
      <!-- 0.4 -->
      <g transform="translate(24.816875 187.641037)scale(0.1 -0.1)">
       <use xlink:href="#DejaVuSans-30"/>
       <use xlink:href="#DejaVuSans-2e" x="63.623047"/>
       <use xlink:href="#DejaVuSans-34" x="95.410156"/>
      </g>
     </g>
    </g>
    <g id="ytick_4">
     <g id="line2d_10">
      <g>
       <use xlink:href="#m1c5b947c31" x="47.72" y="130.598182" style="stroke: #000000; stroke-width: 0.8"/>
      </g>
     </g>
     <g id="text_11">
      <!-- 0.6 -->
      <g transform="translate(24.816875 134.397401)scale(0.1 -0.1)">
       <use xlink:href="#DejaVuSans-30"/>
       <use xlink:href="#DejaVuSans-2e" x="63.623047"/>
       <use xlink:href="#DejaVuSans-36" x="95.410156"/>
      </g>
     </g>
    </g>
    <g id="ytick_5">
     <g id="line2d_11">
      <g>
       <use xlink:href="#m1c5b947c31" x="47.72" y="77.354545" style="stroke: #000000; stroke-width: 0.8"/>
      </g>
     </g>
     <g id="text_12">
      <!-- 0.8 -->
      <g transform="translate(24.816875 81.153764)scale(0.1 -0.1)">
       <use xlink:href="#DejaVuSans-30"/>
       <use xlink:href="#DejaVuSans-2e" x="63.623047"/>
       <use xlink:href="#DejaVuSans-38" x="95.410156"/>
      </g>
     </g>
    </g>
    <g id="ytick_6">
     <g id="line2d_12">
      <g>
       <use xlink:href="#m1c5b947c31" x="47.72" y="24.110909" style="stroke: #000000; stroke-width: 0.8"/>
      </g>
     </g>
     <g id="text_13">
      <!-- 1.0 -->
      <g transform="translate(24.816875 27.910128)scale(0.1 -0.1)">
       <use xlink:href="#DejaVuSans-31"/>
       <use xlink:href="#DejaVuSans-2e" x="63.623047"/>
       <use xlink:href="#DejaVuSans-30" x="95.410156"/>
      </g>
     </g>
    </g>
    <g id="text_14">
     <!-- Number of repaired bugs -->
     <g transform="translate(18.737188 219.855156)rotate(-90)scale(0.1 -0.1)">
      <defs>
       <path id="DejaVuSans-4e" d="M 628 4666 
L 1478 4666 
L 3547 763 
L 3547 4666 
L 4159 4666 
L 4159 0 
L 3309 0 
L 1241 3903 
L 1241 0 
L 628 0 
L 628 4666 
z
" transform="scale(0.015625)"/>
       <path id="DejaVuSans-75" d="M 544 1381 
L 544 3500 
L 1119 3500 
L 1119 1403 
Q 1119 906 1312 657 
Q 1506 409 1894 409 
Q 2359 409 2629 706 
Q 2900 1003 2900 1516 
L 2900 3500 
L 3475 3500 
L 3475 0 
L 2900 0 
L 2900 538 
Q 2691 219 2414 64 
Q 2138 -91 1772 -91 
Q 1169 -91 856 284 
Q 544 659 544 1381 
z
M 1991 3584 
L 1991 3584 
z
" transform="scale(0.015625)"/>
       <path id="DejaVuSans-62" d="M 3116 1747 
Q 3116 2381 2855 2742 
Q 2594 3103 2138 3103 
Q 1681 3103 1420 2742 
Q 1159 2381 1159 1747 
Q 1159 1113 1420 752 
Q 1681 391 2138 391 
Q 2594 391 2855 752 
Q 3116 1113 3116 1747 
z
M 1159 2969 
Q 1341 3281 1617 3432 
Q 1894 3584 2278 3584 
Q 2916 3584 3314 3078 
Q 3713 2572 3713 1747 
Q 3713 922 3314 415 
Q 2916 -91 2278 -91 
Q 1894 -91 1617 61 
Q 1341 213 1159 525 
L 1159 0 
L 581 0 
L 581 4863 
L 1159 4863 
L 1159 2969 
z
" transform="scale(0.015625)"/>
       <path id="DejaVuSans-72" d="M 2631 2963 
Q 2534 3019 2420 3045 
Q 2306 3072 2169 3072 
Q 1681 3072 1420 2755 
Q 1159 2438 1159 1844 
L 1159 0 
L 581 0 
L 581 3500 
L 1159 3500 
L 1159 2956 
Q 1341 3275 1631 3429 
Q 1922 3584 2338 3584 
Q 2397 3584 2469 3576 
Q 2541 3569 2628 3553 
L 2631 2963 
z
" transform="scale(0.015625)"/>
       <path id="DejaVuSans-6f" d="M 1959 3097 
Q 1497 3097 1228 2736 
Q 959 2375 959 1747 
Q 959 1119 1226 758 
Q 1494 397 1959 397 
Q 2419 397 2687 759 
Q 2956 1122 2956 1747 
Q 2956 2369 2687 2733 
Q 2419 3097 1959 3097 
z
M 1959 3584 
Q 2709 3584 3137 3096 
Q 3566 2609 3566 1747 
Q 3566 888 3137 398 
Q 2709 -91 1959 -91 
Q 1206 -91 779 398 
Q 353 888 353 1747 
Q 353 2609 779 3096 
Q 1206 3584 1959 3584 
z
" transform="scale(0.015625)"/>
       <path id="DejaVuSans-66" d="M 2375 4863 
L 2375 4384 
L 1825 4384 
Q 1516 4384 1395 4259 
Q 1275 4134 1275 3809 
L 1275 3500 
L 2222 3500 
L 2222 3053 
L 1275 3053 
L 1275 0 
L 697 0 
L 697 3053 
L 147 3053 
L 147 3500 
L 697 3500 
L 697 3744 
Q 697 4328 969 4595 
Q 1241 4863 1831 4863 
L 2375 4863 
z
" transform="scale(0.015625)"/>
       <path id="DejaVuSans-70" d="M 1159 525 
L 1159 -1331 
L 581 -1331 
L 581 3500 
L 1159 3500 
L 1159 2969 
Q 1341 3281 1617 3432 
Q 1894 3584 2278 3584 
Q 2916 3584 3314 3078 
Q 3713 2572 3713 1747 
Q 3713 922 3314 415 
Q 2916 -91 2278 -91 
Q 1894 -91 1617 61 
Q 1341 213 1159 525 
z
M 3116 1747 
Q 3116 2381 2855 2742 
Q 2594 3103 2138 3103 
Q 1681 3103 1420 2742 
Q 1159 2381 1159 1747 
Q 1159 1113 1420 752 
Q 1681 391 2138 391 
Q 2594 391 2855 752 
Q 3116 1113 3116 1747 
z
" transform="scale(0.015625)"/>
       <path id="DejaVuSans-64" d="M 2906 2969 
L 2906 4863 
L 3481 4863 
L 3481 0 
L 2906 0 
L 2906 525 
Q 2725 213 2448 61 
Q 2172 -91 1784 -91 
Q 1150 -91 751 415 
Q 353 922 353 1747 
Q 353 2572 751 3078 
Q 1150 3584 1784 3584 
Q 2172 3584 2448 3432 
Q 2725 3281 2906 2969 
z
M 947 1747 
Q 947 1113 1208 752 
Q 1469 391 1925 391 
Q 2381 391 2643 752 
Q 2906 1113 2906 1747 
Q 2906 2381 2643 2742 
Q 2381 3103 1925 3103 
Q 1469 3103 1208 2742 
Q 947 2381 947 1747 
z
" transform="scale(0.015625)"/>
       <path id="DejaVuSans-67" d="M 2906 1791 
Q 2906 2416 2648 2759 
Q 2391 3103 1925 3103 
Q 1463 3103 1205 2759 
Q 947 2416 947 1791 
Q 947 1169 1205 825 
Q 1463 481 1925 481 
Q 2391 481 2648 825 
Q 2906 1169 2906 1791 
z
M 3481 434 
Q 3481 -459 3084 -895 
Q 2688 -1331 1869 -1331 
Q 1566 -1331 1297 -1286 
Q 1028 -1241 775 -1147 
L 775 -588 
Q 1028 -725 1275 -790 
Q 1522 -856 1778 -856 
Q 2344 -856 2625 -561 
Q 2906 -266 2906 331 
L 2906 616 
Q 2728 306 2450 153 
Q 2172 0 1784 0 
Q 1141 0 747 490 
Q 353 981 353 1791 
Q 353 2603 747 3093 
Q 1141 3584 1784 3584 
Q 2172 3584 2450 3431 
Q 2728 3278 2906 2969 
L 2906 3500 
L 3481 3500 
L 3481 434 
z
" transform="scale(0.015625)"/>
      </defs>
      <use xlink:href="#DejaVuSans-4e"/>
      <use xlink:href="#DejaVuSans-75" x="74.804688"/>
      <use xlink:href="#DejaVuSans-6d" x="138.183594"/>
      <use xlink:href="#DejaVuSans-62" x="235.595703"/>
      <use xlink:href="#DejaVuSans-65" x="299.072266"/>
      <use xlink:href="#DejaVuSans-72" x="360.595703"/>
      <use xlink:href="#DejaVuSans-20" x="401.708984"/>
      <use xlink:href="#DejaVuSans-6f" x="433.496094"/>
      <use xlink:href="#DejaVuSans-66" x="494.677734"/>
      <use xlink:href="#DejaVuSans-20" x="529.882812"/>
      <use xlink:href="#DejaVuSans-72" x="561.669922"/>
      <use xlink:href="#DejaVuSans-65" x="600.533203"/>
      <use xlink:href="#DejaVuSans-70" x="662.056641"/>
      <use xlink:href="#DejaVuSans-61" x="725.533203"/>
      <use xlink:href="#DejaVuSans-69" x="786.8125"/>
      <use xlink:href="#DejaVuSans-72" x="814.595703"/>
      <use xlink:href="#DejaVuSans-65" x="853.458984"/>
      <use xlink:href="#DejaVuSans-64" x="914.982422"/>
      <use xlink:href="#DejaVuSans-20" x="978.458984"/>
      <use xlink:href="#DejaVuSans-62" x="1010.246094"/>
      <use xlink:href="#DejaVuSans-75" x="1073.722656"/>
      <use xlink:href="#DejaVuSans-67" x="1137.101562"/>
      <use xlink:href="#DejaVuSans-73" x="1200.578125"/>
     </g>
    </g>
   </g>
   <g id="line2d_13">
    <path d="M 66.005455 290.329091 
L 69.699486 290.329091 
L 73.393517 290.329091 
L 77.087548 290.329091 
L 80.781579 290.329091 
L 84.475611 290.329091 
L 88.169642 290.329091 
L 91.863673 290.329091 
L 95.557704 290.329091 
L 99.251736 290.329091 
L 102.945767 290.329091 
L 106.639798 290.329091 
L 110.333829 290.329091 
L 114.02786 290.329091 
L 117.721892 290.329091 
L 121.415923 290.329091 
L 125.109954 290.329091 
L 128.803985 290.329091 
L 132.498017 290.329091 
L 136.192048 290.329091 
L 139.886079 290.329091 
L 143.58011 290.329091 
L 147.274141 290.329091 
L 150.968173 290.329091 
L 154.662204 290.329091 
L 158.356235 290.329091 
L 162.050266 290.329091 
L 165.744298 290.329091 
L 169.438329 290.329091 
L 173.13236 290.329091 
L 176.826391 290.329091 
L 180.520422 290.329091 
L 184.214454 290.329091 
L 187.908485 290.329091 
L 191.602516 290.329091 
L 195.296547 290.329091 
L 198.990579 290.329091 
L 202.68461 290.329091 
L 206.378641 290.329091 
L 210.072672 290.329091 
L 213.766703 290.329091 
L 217.460735 290.329091 
L 221.154766 290.329091 
L 224.848797 290.329091 
L 228.542828 290.329091 
L 232.23686 290.329091 
L 235.930891 290.329091 
L 239.624922 290.329091 
L 243.318953 290.329091 
L 247.012984 290.329091 
L 250.707016 290.329091 
L 254.401047 290.329091 
L 258.095078 290.329091 
L 261.789109 290.329091 
L 265.48314 290.329091 
L 269.177172 290.329091 
L 272.871203 290.329091 
L 276.565234 290.329091 
L 280.259265 290.329091 
L 283.953297 290.329091 
L 287.647328 290.329091 
L 291.341359 290.329091 
L 295.03539 290.329091 
L 298.729421 290.329091 
L 302.423453 290.329091 
L 306.117484 290.329091 
L 309.811515 290.329091 
L 313.505546 290.329091 
L 317.199578 290.329091 
L 320.893609 290.329091 
L 324.58764 290.329091 
L 328.281671 290.329091 
L 331.975702 290.329091 
L 335.669734 290.329091 
L 339.363765 290.329091 
L 343.057796 290.329091 
L 346.751827 290.329091 
L 350.445859 290.329091 
L 354.13989 290.329091 
L 357.833921 290.329091 
L 361.527952 290.329091 
L 365.221983 290.329091 
L 368.916015 290.329091 
L 372.610046 290.329091 
L 376.304077 290.329091 
L 379.998108 290.329091 
L 383.69214 290.329091 
L 387.386171 290.329091 
L 391.080202 290.329091 
L 394.774233 290.329091 
L 398.468264 290.329091 
L 402.162296 290.329091 
L 405.856327 290.329091 
L 409.550358 290.329091 
L 413.244389 290.329091 
L 416.938421 290.329091 
L 420.632452 290.329091 
L 424.326483 290.329091 
L 428.020514 290.329091 
L 431.714545 290.329091 
" clip-path="url(#pd7d90f8a4c)" style="fill: none; stroke: #1f77b4; stroke-width: 1.5; stroke-linecap: square"/>
   </g>
   <g id="line2d_14">
    <path d="M 66.005455 290.329091 
L 69.699486 290.329091 
L 73.393517 290.329091 
L 77.087548 290.329091 
L 80.781579 290.329091 
L 84.475611 290.329091 
L 88.169642 290.329091 
L 91.863673 290.329091 
L 95.557704 290.329091 
L 99.251736 290.329091 
L 102.945767 290.329091 
L 106.639798 290.329091 
L 110.333829 290.329091 
L 114.02786 290.329091 
L 117.721892 290.329091 
L 121.415923 290.329091 
L 125.109954 290.329091 
L 128.803985 290.329091 
L 132.498017 290.329091 
L 136.192048 290.329091 
L 139.886079 290.329091 
L 143.58011 290.329091 
L 147.274141 290.329091 
L 150.968173 290.329091 
L 154.662204 290.329091 
L 158.356235 290.329091 
L 162.050266 290.329091 
L 165.744298 290.329091 
L 169.438329 290.329091 
L 173.13236 290.329091 
L 176.826391 290.329091 
L 180.520422 290.329091 
L 184.214454 290.329091 
L 187.908485 290.329091 
L 191.602516 290.329091 
L 195.296547 290.329091 
L 198.990579 290.329091 
L 202.68461 290.329091 
L 206.378641 290.329091 
L 210.072672 290.329091 
L 213.766703 290.329091 
L 217.460735 290.329091 
L 221.154766 290.329091 
L 224.848797 290.329091 
L 228.542828 290.329091 
L 232.23686 290.329091 
L 235.930891 290.329091 
L 239.624922 290.329091 
L 243.318953 290.329091 
L 247.012984 290.329091 
L 250.707016 290.329091 
L 254.401047 290.329091 
L 258.095078 290.329091 
L 261.789109 290.329091 
L 265.48314 290.329091 
L 269.177172 290.329091 
L 272.871203 290.329091 
L 276.565234 290.329091 
L 280.259265 290.329091 
L 283.953297 290.329091 
L 287.647328 290.329091 
L 291.341359 290.329091 
L 295.03539 290.329091 
L 298.729421 290.329091 
L 302.423453 290.329091 
L 306.117484 290.329091 
L 309.811515 290.329091 
L 313.505546 290.329091 
L 317.199578 290.329091 
L 320.893609 290.329091 
L 324.58764 290.329091 
L 328.281671 290.329091 
L 331.975702 290.329091 
L 335.669734 290.329091 
L 339.363765 290.329091 
L 343.057796 290.329091 
L 346.751827 290.329091 
L 350.445859 290.329091 
L 354.13989 290.329091 
L 357.833921 290.329091 
L 361.527952 290.329091 
L 365.221983 290.329091 
L 368.916015 290.329091 
L 372.610046 290.329091 
L 376.304077 290.329091 
L 379.998108 290.329091 
L 383.69214 290.329091 
L 387.386171 290.329091 
L 391.080202 290.329091 
L 394.774233 290.329091 
L 398.468264 290.329091 
L 402.162296 290.329091 
L 405.856327 290.329091 
L 409.550358 290.329091 
L 413.244389 290.329091 
L 416.938421 290.329091 
L 420.632452 290.329091 
L 424.326483 290.329091 
L 428.020514 290.329091 
L 431.714545 290.329091 
" clip-path="url(#pd7d90f8a4c)" style="fill: none; stroke: #ff7f0e; stroke-width: 1.5; stroke-linecap: square"/>
   </g>
   <g id="line2d_15">
    <path d="M 66.005455 290.329091 
L 69.699486 290.329091 
L 73.393517 290.329091 
L 77.087548 290.329091 
L 80.781579 290.329091 
L 84.475611 290.329091 
L 88.169642 290.329091 
L 91.863673 290.329091 
L 95.557704 290.329091 
L 99.251736 290.329091 
L 102.945767 290.329091 
L 106.639798 290.329091 
L 110.333829 290.329091 
L 114.02786 290.329091 
L 117.721892 290.329091 
L 121.415923 290.329091 
L 125.109954 290.329091 
L 128.803985 290.329091 
L 132.498017 290.329091 
L 136.192048 290.329091 
L 139.886079 290.329091 
L 143.58011 290.329091 
L 147.274141 290.329091 
L 150.968173 290.329091 
L 154.662204 290.329091 
L 158.356235 290.329091 
L 162.050266 290.329091 
L 165.744298 290.329091 
L 169.438329 290.329091 
L 173.13236 290.329091 
L 176.826391 290.329091 
L 180.520422 290.329091 
L 184.214454 290.329091 
L 187.908485 290.329091 
L 191.602516 290.329091 
L 195.296547 290.329091 
L 198.990579 290.329091 
L 202.68461 290.329091 
L 206.378641 290.329091 
L 210.072672 290.329091 
L 213.766703 290.329091 
L 217.460735 290.329091 
L 221.154766 290.329091 
L 224.848797 290.329091 
L 228.542828 290.329091 
L 232.23686 290.329091 
L 235.930891 290.329091 
L 239.624922 290.329091 
L 243.318953 290.329091 
L 247.012984 290.329091 
L 250.707016 290.329091 
L 254.401047 290.329091 
L 258.095078 290.329091 
L 261.789109 290.329091 
L 265.48314 290.329091 
L 269.177172 290.329091 
L 272.871203 290.329091 
L 276.565234 290.329091 
L 280.259265 290.329091 
L 283.953297 290.329091 
L 287.647328 290.329091 
L 291.341359 290.329091 
L 295.03539 290.329091 
L 298.729421 290.329091 
L 302.423453 290.329091 
L 306.117484 290.329091 
L 309.811515 290.329091 
L 313.505546 290.329091 
L 317.199578 290.329091 
L 320.893609 290.329091 
L 324.58764 290.329091 
L 328.281671 290.329091 
L 331.975702 290.329091 
L 335.669734 290.329091 
L 339.363765 290.329091 
L 343.057796 290.329091 
L 346.751827 290.329091 
L 350.445859 290.329091 
L 354.13989 290.329091 
L 357.833921 290.329091 
L 361.527952 290.329091 
L 365.221983 290.329091 
L 368.916015 290.329091 
L 372.610046 290.329091 
L 376.304077 290.329091 
L 379.998108 290.329091 
L 383.69214 290.329091 
L 387.386171 290.329091 
L 391.080202 290.329091 
L 394.774233 290.329091 
L 398.468264 290.329091 
L 402.162296 290.329091 
L 405.856327 290.329091 
L 409.550358 290.329091 
L 413.244389 290.329091 
L 416.938421 290.329091 
L 420.632452 290.329091 
L 424.326483 290.329091 
L 428.020514 290.329091 
L 431.714545 290.329091 
" clip-path="url(#pd7d90f8a4c)" style="fill: none; stroke: #2ca02c; stroke-width: 1.5; stroke-linecap: square"/>
   </g>
   <g id="line2d_16">
    <path d="M 66.005455 290.329091 
L 69.699486 290.329091 
L 73.393517 290.329091 
L 77.087548 290.329091 
L 80.781579 290.329091 
L 84.475611 290.329091 
L 88.169642 290.329091 
L 91.863673 290.329091 
L 95.557704 290.329091 
L 99.251736 290.329091 
L 102.945767 290.329091 
L 106.639798 290.329091 
L 110.333829 290.329091 
L 114.02786 290.329091 
L 117.721892 290.329091 
L 121.415923 290.329091 
L 125.109954 290.329091 
L 128.803985 290.329091 
L 132.498017 290.329091 
L 136.192048 290.329091 
L 139.886079 290.329091 
L 143.58011 290.329091 
L 147.274141 290.329091 
L 150.968173 290.329091 
L 154.662204 290.329091 
L 158.356235 290.329091 
L 162.050266 290.329091 
L 165.744298 290.329091 
L 169.438329 290.329091 
L 173.13236 290.329091 
L 176.826391 290.329091 
L 180.520422 290.329091 
L 184.214454 290.329091 
L 187.908485 290.329091 
L 191.602516 290.329091 
L 195.296547 290.329091 
L 198.990579 290.329091 
L 202.68461 290.329091 
L 206.378641 290.329091 
L 210.072672 290.329091 
L 213.766703 290.329091 
L 217.460735 290.329091 
L 221.154766 290.329091 
L 224.848797 24.110909 
L 228.542828 24.110909 
L 232.23686 24.110909 
L 235.930891 24.110909 
L 239.624922 24.110909 
L 243.318953 24.110909 
L 247.012984 24.110909 
L 250.707016 24.110909 
L 254.401047 24.110909 
L 258.095078 24.110909 
L 261.789109 24.110909 
L 265.48314 24.110909 
L 269.177172 24.110909 
L 272.871203 24.110909 
L 276.565234 24.110909 
L 280.259265 24.110909 
L 283.953297 24.110909 
L 287.647328 24.110909 
L 291.341359 24.110909 
L 295.03539 24.110909 
L 298.729421 24.110909 
L 302.423453 24.110909 
L 306.117484 24.110909 
L 309.811515 24.110909 
L 313.505546 24.110909 
L 317.199578 24.110909 
L 320.893609 24.110909 
L 324.58764 24.110909 
L 328.281671 24.110909 
L 331.975702 24.110909 
L 335.669734 24.110909 
L 339.363765 24.110909 
L 343.057796 24.110909 
L 346.751827 24.110909 
L 350.445859 24.110909 
L 354.13989 24.110909 
L 357.833921 24.110909 
L 361.527952 24.110909 
L 365.221983 24.110909 
L 368.916015 24.110909 
L 372.610046 24.110909 
L 376.304077 24.110909 
L 379.998108 24.110909 
L 383.69214 24.110909 
L 387.386171 24.110909 
L 391.080202 24.110909 
L 394.774233 24.110909 
L 398.468264 24.110909 
L 402.162296 24.110909 
L 405.856327 24.110909 
L 409.550358 24.110909 
L 413.244389 24.110909 
L 416.938421 24.110909 
L 420.632452 24.110909 
L 424.326483 24.110909 
L 428.020514 24.110909 
L 431.714545 24.110909 
" clip-path="url(#pd7d90f8a4c)" style="fill: none; stroke: #d62728; stroke-width: 1.5; stroke-linecap: square"/>
   </g>
   <g id="patch_3">
    <path d="M 47.72 303.64 
L 47.72 10.8 
" style="fill: none; stroke: #000000; stroke-width: 0.8; stroke-linejoin: miter; stroke-linecap: square"/>
   </g>
   <g id="patch_4">
    <path d="M 450 303.64 
L 450 10.8 
" style="fill: none; stroke: #000000; stroke-width: 0.8; stroke-linejoin: miter; stroke-linecap: square"/>
   </g>
   <g id="patch_5">
    <path d="M 47.72 303.64 
L 450 303.64 
" style="fill: none; stroke: #000000; stroke-width: 0.8; stroke-linejoin: miter; stroke-linecap: square"/>
   </g>
   <g id="patch_6">
    <path d="M 47.72 10.8 
L 450 10.8 
" style="fill: none; stroke: #000000; stroke-width: 0.8; stroke-linejoin: miter; stroke-linecap: square"/>
   </g>
   <g id="legend_1">
    <g id="patch_7">
     <path d="M 54.72 77.5125 
L 252.295 77.5125 
Q 254.295 77.5125 254.295 75.5125 
L 254.295 17.8 
Q 254.295 15.8 252.295 15.8 
L 54.72 15.8 
Q 52.72 15.8 52.72 17.8 
L 52.72 75.5125 
Q 52.72 77.5125 54.72 77.5125 
z
" style="fill: #ffffff; opacity: 0.8; stroke: #cccccc; stroke-linejoin: miter"/>
    </g>
    <g id="line2d_17">
     <path d="M 56.72 23.898438 
L 66.72 23.898438 
L 76.72 23.898438 
" style="fill: none; stroke: #1f77b4; stroke-width: 1.5; stroke-linecap: square"/>
    </g>
    <g id="text_15">
     <!-- Defects4J x Buglab: Initialization -->
     <g transform="translate(84.72 27.398438)scale(0.1 -0.1)">
      <defs>
       <path id="DejaVuSans-44" d="M 1259 4147 
L 1259 519 
L 2022 519 
Q 2988 519 3436 956 
Q 3884 1394 3884 2338 
Q 3884 3275 3436 3711 
Q 2988 4147 2022 4147 
L 1259 4147 
z
M 628 4666 
L 1925 4666 
Q 3281 4666 3915 4102 
Q 4550 3538 4550 2338 
Q 4550 1131 3912 565 
Q 3275 0 1925 0 
L 628 0 
L 628 4666 
z
" transform="scale(0.015625)"/>
       <path id="DejaVuSans-63" d="M 3122 3366 
L 3122 2828 
Q 2878 2963 2633 3030 
Q 2388 3097 2138 3097 
Q 1578 3097 1268 2742 
Q 959 2388 959 1747 
Q 959 1106 1268 751 
Q 1578 397 2138 397 
Q 2388 397 2633 464 
Q 2878 531 3122 666 
L 3122 134 
Q 2881 22 2623 -34 
Q 2366 -91 2075 -91 
Q 1284 -91 818 406 
Q 353 903 353 1747 
Q 353 2603 823 3093 
Q 1294 3584 2113 3584 
Q 2378 3584 2631 3529 
Q 2884 3475 3122 3366 
z
" transform="scale(0.015625)"/>
       <path id="DejaVuSans-74" d="M 1172 4494 
L 1172 3500 
L 2356 3500 
L 2356 3053 
L 1172 3053 
L 1172 1153 
Q 1172 725 1289 603 
Q 1406 481 1766 481 
L 2356 481 
L 2356 0 
L 1766 0 
Q 1100 0 847 248 
Q 594 497 594 1153 
L 594 3053 
L 172 3053 
L 172 3500 
L 594 3500 
L 594 4494 
L 1172 4494 
z
" transform="scale(0.015625)"/>
       <path id="DejaVuSans-4a" d="M 628 4666 
L 1259 4666 
L 1259 325 
Q 1259 -519 939 -900 
Q 619 -1281 -91 -1281 
L -331 -1281 
L -331 -750 
L -134 -750 
Q 284 -750 456 -515 
Q 628 -281 628 325 
L 628 4666 
z
" transform="scale(0.015625)"/>
       <path id="DejaVuSans-78" d="M 3513 3500 
L 2247 1797 
L 3578 0 
L 2900 0 
L 1881 1375 
L 863 0 
L 184 0 
L 1544 1831 
L 300 3500 
L 978 3500 
L 1906 2253 
L 2834 3500 
L 3513 3500 
z
" transform="scale(0.015625)"/>
       <path id="DejaVuSans-6c" d="M 603 4863 
L 1178 4863 
L 1178 0 
L 603 0 
L 603 4863 
z
" transform="scale(0.015625)"/>
       <path id="DejaVuSans-3a" d="M 750 794 
L 1409 794 
L 1409 0 
L 750 0 
L 750 794 
z
M 750 3309 
L 1409 3309 
L 1409 2516 
L 750 2516 
L 750 3309 
z
" transform="scale(0.015625)"/>
       <path id="DejaVuSans-49" d="M 628 4666 
L 1259 4666 
L 1259 0 
L 628 0 
L 628 4666 
z
" transform="scale(0.015625)"/>
       <path id="DejaVuSans-6e" d="M 3513 2113 
L 3513 0 
L 2938 0 
L 2938 2094 
Q 2938 2591 2744 2837 
Q 2550 3084 2163 3084 
Q 1697 3084 1428 2787 
Q 1159 2491 1159 1978 
L 1159 0 
L 581 0 
L 581 3500 
L 1159 3500 
L 1159 2956 
Q 1366 3272 1645 3428 
Q 1925 3584 2291 3584 
Q 2894 3584 3203 3211 
Q 3513 2838 3513 2113 
z
" transform="scale(0.015625)"/>
      </defs>
      <use xlink:href="#DejaVuSans-44"/>
      <use xlink:href="#DejaVuSans-65" x="77.001953"/>
      <use xlink:href="#DejaVuSans-66" x="138.525391"/>
      <use xlink:href="#DejaVuSans-65" x="173.730469"/>
      <use xlink:href="#DejaVuSans-63" x="235.253906"/>
      <use xlink:href="#DejaVuSans-74" x="290.234375"/>
      <use xlink:href="#DejaVuSans-73" x="329.443359"/>
      <use xlink:href="#DejaVuSans-34" x="381.542969"/>
      <use xlink:href="#DejaVuSans-4a" x="445.166016"/>
      <use xlink:href="#DejaVuSans-20" x="474.658203"/>
      <use xlink:href="#DejaVuSans-78" x="506.445312"/>
      <use xlink:href="#DejaVuSans-20" x="565.625"/>
      <use xlink:href="#DejaVuSans-42" x="597.412109"/>
      <use xlink:href="#DejaVuSans-75" x="666.015625"/>
      <use xlink:href="#DejaVuSans-67" x="729.394531"/>
      <use xlink:href="#DejaVuSans-6c" x="792.871094"/>
      <use xlink:href="#DejaVuSans-61" x="820.654297"/>
      <use xlink:href="#DejaVuSans-62" x="881.933594"/>
      <use xlink:href="#DejaVuSans-3a" x="945.410156"/>
      <use xlink:href="#DejaVuSans-20" x="979.101562"/>
      <use xlink:href="#DejaVuSans-49" x="1010.888672"/>
      <use xlink:href="#DejaVuSans-6e" x="1040.380859"/>
      <use xlink:href="#DejaVuSans-69" x="1103.759766"/>
      <use xlink:href="#DejaVuSans-74" x="1131.542969"/>
      <use xlink:href="#DejaVuSans-69" x="1170.751953"/>
      <use xlink:href="#DejaVuSans-61" x="1198.535156"/>
      <use xlink:href="#DejaVuSans-6c" x="1259.814453"/>
      <use xlink:href="#DejaVuSans-69" x="1287.597656"/>
      <use xlink:href="#DejaVuSans-7a" x="1315.380859"/>
      <use xlink:href="#DejaVuSans-61" x="1367.871094"/>
      <use xlink:href="#DejaVuSans-74" x="1429.150391"/>
      <use xlink:href="#DejaVuSans-69" x="1468.359375"/>
      <use xlink:href="#DejaVuSans-6f" x="1496.142578"/>
      <use xlink:href="#DejaVuSans-6e" x="1557.324219"/>
     </g>
    </g>
    <g id="line2d_18">
     <path d="M 56.72 38.576563 
L 66.72 38.576563 
L 76.72 38.576563 
" style="fill: none; stroke: #ff7f0e; stroke-width: 1.5; stroke-linecap: square"/>
    </g>
    <g id="text_16">
     <!-- Defects4J x SelfAPR: Initialization -->
     <g transform="translate(84.72 42.076563)scale(0.1 -0.1)">
      <defs>
       <path id="DejaVuSans-53" d="M 3425 4513 
L 3425 3897 
Q 3066 4069 2747 4153 
Q 2428 4238 2131 4238 
Q 1616 4238 1336 4038 
Q 1056 3838 1056 3469 
Q 1056 3159 1242 3001 
Q 1428 2844 1947 2747 
L 2328 2669 
Q 3034 2534 3370 2195 
Q 3706 1856 3706 1288 
Q 3706 609 3251 259 
Q 2797 -91 1919 -91 
Q 1588 -91 1214 -16 
Q 841 59 441 206 
L 441 856 
Q 825 641 1194 531 
Q 1563 422 1919 422 
Q 2459 422 2753 634 
Q 3047 847 3047 1241 
Q 3047 1584 2836 1778 
Q 2625 1972 2144 2069 
L 1759 2144 
Q 1053 2284 737 2584 
Q 422 2884 422 3419 
Q 422 4038 858 4394 
Q 1294 4750 2059 4750 
Q 2388 4750 2728 4690 
Q 3069 4631 3425 4513 
z
" transform="scale(0.015625)"/>
       <path id="DejaVuSans-41" d="M 2188 4044 
L 1331 1722 
L 3047 1722 
L 2188 4044 
z
M 1831 4666 
L 2547 4666 
L 4325 0 
L 3669 0 
L 3244 1197 
L 1141 1197 
L 716 0 
L 50 0 
L 1831 4666 
z
" transform="scale(0.015625)"/>
       <path id="DejaVuSans-50" d="M 1259 4147 
L 1259 2394 
L 2053 2394 
Q 2494 2394 2734 2622 
Q 2975 2850 2975 3272 
Q 2975 3691 2734 3919 
Q 2494 4147 2053 4147 
L 1259 4147 
z
M 628 4666 
L 2053 4666 
Q 2838 4666 3239 4311 
Q 3641 3956 3641 3272 
Q 3641 2581 3239 2228 
Q 2838 1875 2053 1875 
L 1259 1875 
L 1259 0 
L 628 0 
L 628 4666 
z
" transform="scale(0.015625)"/>
       <path id="DejaVuSans-52" d="M 2841 2188 
Q 3044 2119 3236 1894 
Q 3428 1669 3622 1275 
L 4263 0 
L 3584 0 
L 2988 1197 
Q 2756 1666 2539 1819 
Q 2322 1972 1947 1972 
L 1259 1972 
L 1259 0 
L 628 0 
L 628 4666 
L 2053 4666 
Q 2853 4666 3247 4331 
Q 3641 3997 3641 3322 
Q 3641 2881 3436 2590 
Q 3231 2300 2841 2188 
z
M 1259 4147 
L 1259 2491 
L 2053 2491 
Q 2509 2491 2742 2702 
Q 2975 2913 2975 3322 
Q 2975 3731 2742 3939 
Q 2509 4147 2053 4147 
L 1259 4147 
z
" transform="scale(0.015625)"/>
      </defs>
      <use xlink:href="#DejaVuSans-44"/>
      <use xlink:href="#DejaVuSans-65" x="77.001953"/>
      <use xlink:href="#DejaVuSans-66" x="138.525391"/>
      <use xlink:href="#DejaVuSans-65" x="173.730469"/>
      <use xlink:href="#DejaVuSans-63" x="235.253906"/>
      <use xlink:href="#DejaVuSans-74" x="290.234375"/>
      <use xlink:href="#DejaVuSans-73" x="329.443359"/>
      <use xlink:href="#DejaVuSans-34" x="381.542969"/>
      <use xlink:href="#DejaVuSans-4a" x="445.166016"/>
      <use xlink:href="#DejaVuSans-20" x="474.658203"/>
      <use xlink:href="#DejaVuSans-78" x="506.445312"/>
      <use xlink:href="#DejaVuSans-20" x="565.625"/>
      <use xlink:href="#DejaVuSans-53" x="597.412109"/>
      <use xlink:href="#DejaVuSans-65" x="660.888672"/>
      <use xlink:href="#DejaVuSans-6c" x="722.412109"/>
      <use xlink:href="#DejaVuSans-66" x="750.195312"/>
      <use xlink:href="#DejaVuSans-41" x="785.400391"/>
      <use xlink:href="#DejaVuSans-50" x="853.808594"/>
      <use xlink:href="#DejaVuSans-52" x="914.111328"/>
      <use xlink:href="#DejaVuSans-3a" x="980.46875"/>
      <use xlink:href="#DejaVuSans-20" x="1014.160156"/>
      <use xlink:href="#DejaVuSans-49" x="1045.947266"/>
      <use xlink:href="#DejaVuSans-6e" x="1075.439453"/>
      <use xlink:href="#DejaVuSans-69" x="1138.818359"/>
      <use xlink:href="#DejaVuSans-74" x="1166.601562"/>
      <use xlink:href="#DejaVuSans-69" x="1205.810547"/>
      <use xlink:href="#DejaVuSans-61" x="1233.59375"/>
      <use xlink:href="#DejaVuSans-6c" x="1294.873047"/>
      <use xlink:href="#DejaVuSans-69" x="1322.65625"/>
      <use xlink:href="#DejaVuSans-7a" x="1350.439453"/>
      <use xlink:href="#DejaVuSans-61" x="1402.929688"/>
      <use xlink:href="#DejaVuSans-74" x="1464.208984"/>
      <use xlink:href="#DejaVuSans-69" x="1503.417969"/>
      <use xlink:href="#DejaVuSans-6f" x="1531.201172"/>
      <use xlink:href="#DejaVuSans-6e" x="1592.382812"/>
     </g>
    </g>
    <g id="line2d_19">
     <path d="M 56.72 53.254688 
L 66.72 53.254688 
L 76.72 53.254688 
" style="fill: none; stroke: #2ca02c; stroke-width: 1.5; stroke-linecap: square"/>
    </g>
    <g id="text_17">
     <!-- Bears x Buglab: Initialization -->
     <g transform="translate(84.72 56.754688)scale(0.1 -0.1)">
      <use xlink:href="#DejaVuSans-42"/>
      <use xlink:href="#DejaVuSans-65" x="68.603516"/>
      <use xlink:href="#DejaVuSans-61" x="130.126953"/>
      <use xlink:href="#DejaVuSans-72" x="191.40625"/>
      <use xlink:href="#DejaVuSans-73" x="232.519531"/>
      <use xlink:href="#DejaVuSans-20" x="284.619141"/>
      <use xlink:href="#DejaVuSans-78" x="316.40625"/>
      <use xlink:href="#DejaVuSans-20" x="375.585938"/>
      <use xlink:href="#DejaVuSans-42" x="407.373047"/>
      <use xlink:href="#DejaVuSans-75" x="475.976562"/>
      <use xlink:href="#DejaVuSans-67" x="539.355469"/>
      <use xlink:href="#DejaVuSans-6c" x="602.832031"/>
      <use xlink:href="#DejaVuSans-61" x="630.615234"/>
      <use xlink:href="#DejaVuSans-62" x="691.894531"/>
      <use xlink:href="#DejaVuSans-3a" x="755.371094"/>
      <use xlink:href="#DejaVuSans-20" x="789.0625"/>
      <use xlink:href="#DejaVuSans-49" x="820.849609"/>
      <use xlink:href="#DejaVuSans-6e" x="850.341797"/>
      <use xlink:href="#DejaVuSans-69" x="913.720703"/>
      <use xlink:href="#DejaVuSans-74" x="941.503906"/>
      <use xlink:href="#DejaVuSans-69" x="980.712891"/>
      <use xlink:href="#DejaVuSans-61" x="1008.496094"/>
      <use xlink:href="#DejaVuSans-6c" x="1069.775391"/>
      <use xlink:href="#DejaVuSans-69" x="1097.558594"/>
      <use xlink:href="#DejaVuSans-7a" x="1125.341797"/>
      <use xlink:href="#DejaVuSans-61" x="1177.832031"/>
      <use xlink:href="#DejaVuSans-74" x="1239.111328"/>
      <use xlink:href="#DejaVuSans-69" x="1278.320312"/>
      <use xlink:href="#DejaVuSans-6f" x="1306.103516"/>
      <use xlink:href="#DejaVuSans-6e" x="1367.285156"/>
     </g>
    </g>
    <g id="line2d_20">
     <path d="M 56.72 67.932813 
L 66.72 67.932813 
L 76.72 67.932813 
" style="fill: none; stroke: #d62728; stroke-width: 1.5; stroke-linecap: square"/>
    </g>
    <g id="text_18">
     <!-- Bears x SelfAPR: Initialization -->
     <g transform="translate(84.72 71.432813)scale(0.1 -0.1)">
      <use xlink:href="#DejaVuSans-42"/>
      <use xlink:href="#DejaVuSans-65" x="68.603516"/>
      <use xlink:href="#DejaVuSans-61" x="130.126953"/>
      <use xlink:href="#DejaVuSans-72" x="191.40625"/>
      <use xlink:href="#DejaVuSans-73" x="232.519531"/>
      <use xlink:href="#DejaVuSans-20" x="284.619141"/>
      <use xlink:href="#DejaVuSans-78" x="316.40625"/>
      <use xlink:href="#DejaVuSans-20" x="375.585938"/>
      <use xlink:href="#DejaVuSans-53" x="407.373047"/>
      <use xlink:href="#DejaVuSans-65" x="470.849609"/>
      <use xlink:href="#DejaVuSans-6c" x="532.373047"/>
      <use xlink:href="#DejaVuSans-66" x="560.15625"/>
      <use xlink:href="#DejaVuSans-41" x="595.361328"/>
      <use xlink:href="#DejaVuSans-50" x="663.769531"/>
      <use xlink:href="#DejaVuSans-52" x="724.072266"/>
      <use xlink:href="#DejaVuSans-3a" x="790.429688"/>
      <use xlink:href="#DejaVuSans-20" x="824.121094"/>
      <use xlink:href="#DejaVuSans-49" x="855.908203"/>
      <use xlink:href="#DejaVuSans-6e" x="885.400391"/>
      <use xlink:href="#DejaVuSans-69" x="948.779297"/>
      <use xlink:href="#DejaVuSans-74" x="976.5625"/>
      <use xlink:href="#DejaVuSans-69" x="1015.771484"/>
      <use xlink:href="#DejaVuSans-61" x="1043.554688"/>
      <use xlink:href="#DejaVuSans-6c" x="1104.833984"/>
      <use xlink:href="#DejaVuSans-69" x="1132.617188"/>
      <use xlink:href="#DejaVuSans-7a" x="1160.400391"/>
      <use xlink:href="#DejaVuSans-61" x="1212.890625"/>
      <use xlink:href="#DejaVuSans-74" x="1274.169922"/>
      <use xlink:href="#DejaVuSans-69" x="1313.378906"/>
      <use xlink:href="#DejaVuSans-6f" x="1341.162109"/>
      <use xlink:href="#DejaVuSans-6e" x="1402.34375"/>
     </g>
    </g>
   </g>
  </g>
 </g>
 <defs>
  <clipPath id="pd7d90f8a4c">
   <rect x="47.72" y="10.8" width="402.28" height="292.84"/>
  </clipPath>
 </defs>
</svg>
