<?xml version="1.0" encoding="utf-8" standalone="no"?>
<!DOCTYPE svg PUBLIC "-//W3C//DTD SVG 1.1//EN"
  "http://www.w3.org/Graphics/SVG/1.1/DTD/svg11.dtd">
<svg xmlns:xlink="http://www.w3.org/1999/xlink" width="460.8pt" height="345.6pt" viewBox="0 0 460.8 345.6" xmlns="http://www.w3.org/2000/svg" version="1.1">
 <metadata>
  <rdf:RDF xmlns:dc="http://purl.org/dc/elements/1.1/" xmlns:cc="http://creativecommons.org/ns#" xmlns:rdf="http://www.w3.org/1999/02/22-rdf-syntax-ns#">
   <cc:Work>
    <dc:type rdf:resource="http://purl.org/dc/dcmitype/StillImage"/>
    <dc:date>2022-10-25T18:56:42.175471</dc:date>
    <dc:format>image/svg+xml</dc:format>
    <dc:creator>
     <cc:Agent>
      <dc:title>Matplotlib v3.5.2, https://matplotlib.org/</dc:title>
     </cc:Agent>
    </dc:creator>
   </cc:Work>
  </rdf:RDF>
 </metadata>
 <defs>
  <style type="text/css">*{stroke-linejoin: round; stroke-linecap: butt}</style>
 </defs>
 <g id="figure_1">
  <g id="patch_1">
   <path d="M 0 345.6 
L 460.8 345.6 
L 460.8 0 
L 0 0 
z
" style="fill: #ffffff"/>
  </g>
  <g id="axes_1">
   <g id="patch_2">
    <path d="M 44.66 303.64 
L 450 303.64 
L 450 10.8 
L 44.66 10.8 
z
" style="fill: #ffffff"/>
   </g>
   <g id="matplotlib.axis_1">
    <g id="xtick_1">
     <g id="line2d_1">
      <defs>
       <path id="mcdfb04c72e" d="M 0 0 
L 0 3.5 
" style="stroke: #000000; stroke-width: 0.8"/>
      </defs>
      <g>
       <use xlink:href="#mcdfb04c72e" x="59.362415" y="303.64" style="stroke: #000000; stroke-width: 0.8"/>
      </g>
     </g>
     <g id="text_1">
      <!-- 0 -->
      <g transform="translate(56.181165 318.238437)scale(0.1 -0.1)">
       <defs>
        <path id="DejaVuSans-30" d="M 2034 4250 
Q 1547 4250 1301 3770 
Q 1056 3291 1056 2328 
Q 1056 1369 1301 889 
Q 1547 409 2034 409 
Q 2525 409 2770 889 
Q 3016 1369 3016 2328 
Q 3016 3291 2770 3770 
Q 2525 4250 2034 4250 
z
M 2034 4750 
Q 2819 4750 3233 4129 
Q 3647 3509 3647 2328 
Q 3647 1150 3233 529 
Q 2819 -91 2034 -91 
Q 1250 -91 836 529 
Q 422 1150 422 2328 
Q 422 3509 836 4129 
Q 1250 4750 2034 4750 
z
" transform="scale(0.015625)"/>
       </defs>
       <use xlink:href="#DejaVuSans-30"/>
      </g>
     </g>
    </g>
    <g id="xtick_2">
     <g id="line2d_2">
      <g>
       <use xlink:href="#mcdfb04c72e" x="133.805023" y="303.64" style="stroke: #000000; stroke-width: 0.8"/>
      </g>
     </g>
     <g id="text_2">
      <!-- 20 -->
      <g transform="translate(127.442523 318.238437)scale(0.1 -0.1)">
       <defs>
        <path id="DejaVuSans-32" d="M 1228 531 
L 3431 531 
L 3431 0 
L 469 0 
L 469 531 
Q 828 903 1448 1529 
Q 2069 2156 2228 2338 
Q 2531 2678 2651 2914 
Q 2772 3150 2772 3378 
Q 2772 3750 2511 3984 
Q 2250 4219 1831 4219 
Q 1534 4219 1204 4116 
Q 875 4013 500 3803 
L 500 4441 
Q 881 4594 1212 4672 
Q 1544 4750 1819 4750 
Q 2544 4750 2975 4387 
Q 3406 4025 3406 3419 
Q 3406 3131 3298 2873 
Q 3191 2616 2906 2266 
Q 2828 2175 2409 1742 
Q 1991 1309 1228 531 
z
" transform="scale(0.015625)"/>
       </defs>
       <use xlink:href="#DejaVuSans-32"/>
       <use xlink:href="#DejaVuSans-30" x="63.623047"/>
      </g>
     </g>
    </g>
    <g id="xtick_3">
     <g id="line2d_3">
      <g>
       <use xlink:href="#mcdfb04c72e" x="208.247631" y="303.64" style="stroke: #000000; stroke-width: 0.8"/>
      </g>
     </g>
     <g id="text_3">
      <!-- 40 -->
      <g transform="translate(201.885131 318.238437)scale(0.1 -0.1)">
       <defs>
        <path id="DejaVuSans-34" d="M 2419 4116 
L 825 1625 
L 2419 1625 
L 2419 4116 
z
M 2253 4666 
L 3047 4666 
L 3047 1625 
L 3713 1625 
L 3713 1100 
L 3047 1100 
L 3047 0 
L 2419 0 
L 2419 1100 
L 313 1100 
L 313 1709 
L 2253 4666 
z
" transform="scale(0.015625)"/>
       </defs>
       <use xlink:href="#DejaVuSans-34"/>
       <use xlink:href="#DejaVuSans-30" x="63.623047"/>
      </g>
     </g>
    </g>
    <g id="xtick_4">
     <g id="line2d_4">
      <g>
       <use xlink:href="#mcdfb04c72e" x="282.690239" y="303.64" style="stroke: #000000; stroke-width: 0.8"/>
      </g>
     </g>
     <g id="text_4">
      <!-- 60 -->
      <g transform="translate(276.327739 318.238437)scale(0.1 -0.1)">
       <defs>
        <path id="DejaVuSans-36" d="M 2113 2584 
Q 1688 2584 1439 2293 
Q 1191 2003 1191 1497 
Q 1191 994 1439 701 
Q 1688 409 2113 409 
Q 2538 409 2786 701 
Q 3034 994 3034 1497 
Q 3034 2003 2786 2293 
Q 2538 2584 2113 2584 
z
M 3366 4563 
L 3366 3988 
Q 3128 4100 2886 4159 
Q 2644 4219 2406 4219 
Q 1781 4219 1451 3797 
Q 1122 3375 1075 2522 
Q 1259 2794 1537 2939 
Q 1816 3084 2150 3084 
Q 2853 3084 3261 2657 
Q 3669 2231 3669 1497 
Q 3669 778 3244 343 
Q 2819 -91 2113 -91 
Q 1303 -91 875 529 
Q 447 1150 447 2328 
Q 447 3434 972 4092 
Q 1497 4750 2381 4750 
Q 2619 4750 2861 4703 
Q 3103 4656 3366 4563 
z
" transform="scale(0.015625)"/>
       </defs>
       <use xlink:href="#DejaVuSans-36"/>
       <use xlink:href="#DejaVuSans-30" x="63.623047"/>
      </g>
     </g>
    </g>
    <g id="xtick_5">
     <g id="line2d_5">
      <g>
       <use xlink:href="#mcdfb04c72e" x="357.132847" y="303.64" style="stroke: #000000; stroke-width: 0.8"/>
      </g>
     </g>
     <g id="text_5">
      <!-- 80 -->
      <g transform="translate(350.770347 318.238437)scale(0.1 -0.1)">
       <defs>
        <path id="DejaVuSans-38" d="M 2034 2216 
Q 1584 2216 1326 1975 
Q 1069 1734 1069 1313 
Q 1069 891 1326 650 
Q 1584 409 2034 409 
Q 2484 409 2743 651 
Q 3003 894 3003 1313 
Q 3003 1734 2745 1975 
Q 2488 2216 2034 2216 
z
M 1403 2484 
Q 997 2584 770 2862 
Q 544 3141 544 3541 
Q 544 4100 942 4425 
Q 1341 4750 2034 4750 
Q 2731 4750 3128 4425 
Q 3525 4100 3525 3541 
Q 3525 3141 3298 2862 
Q 3072 2584 2669 2484 
Q 3125 2378 3379 2068 
Q 3634 1759 3634 1313 
Q 3634 634 3220 271 
Q 2806 -91 2034 -91 
Q 1263 -91 848 271 
Q 434 634 434 1313 
Q 434 1759 690 2068 
Q 947 2378 1403 2484 
z
M 1172 3481 
Q 1172 3119 1398 2916 
Q 1625 2713 2034 2713 
Q 2441 2713 2670 2916 
Q 2900 3119 2900 3481 
Q 2900 3844 2670 4047 
Q 2441 4250 2034 4250 
Q 1625 4250 1398 4047 
Q 1172 3844 1172 3481 
z
" transform="scale(0.015625)"/>
       </defs>
       <use xlink:href="#DejaVuSans-38"/>
       <use xlink:href="#DejaVuSans-30" x="63.623047"/>
      </g>
     </g>
    </g>
    <g id="xtick_6">
     <g id="line2d_6">
      <g>
       <use xlink:href="#mcdfb04c72e" x="431.575455" y="303.64" style="stroke: #000000; stroke-width: 0.8"/>
      </g>
     </g>
     <g id="text_6">
      <!-- 100 -->
      <g transform="translate(422.031705 318.238437)scale(0.1 -0.1)">
       <defs>
        <path id="DejaVuSans-31" d="M 794 531 
L 1825 531 
L 1825 4091 
L 703 3866 
L 703 4441 
L 1819 4666 
L 2450 4666 
L 2450 531 
L 3481 531 
L 3481 0 
L 794 0 
L 794 531 
z
" transform="scale(0.015625)"/>
       </defs>
       <use xlink:href="#DejaVuSans-31"/>
       <use xlink:href="#DejaVuSans-30" x="63.623047"/>
       <use xlink:href="#DejaVuSans-30" x="127.246094"/>
      </g>
     </g>
    </g>
    <g id="text_7">
     <!-- Beam size -->
     <g transform="translate(221.605 331.916562)scale(0.1 -0.1)">
      <defs>
       <path id="DejaVuSans-42" d="M 1259 2228 
L 1259 519 
L 2272 519 
Q 2781 519 3026 730 
Q 3272 941 3272 1375 
Q 3272 1813 3026 2020 
Q 2781 2228 2272 2228 
L 1259 2228 
z
M 1259 4147 
L 1259 2741 
L 2194 2741 
Q 2656 2741 2882 2914 
Q 3109 3088 3109 3444 
Q 3109 3797 2882 3972 
Q 2656 4147 2194 4147 
L 1259 4147 
z
M 628 4666 
L 2241 4666 
Q 2963 4666 3353 4366 
Q 3744 4066 3744 3513 
Q 3744 3084 3544 2831 
Q 3344 2578 2956 2516 
Q 3422 2416 3680 2098 
Q 3938 1781 3938 1306 
Q 3938 681 3513 340 
Q 3088 0 2303 0 
L 628 0 
L 628 4666 
z
" transform="scale(0.015625)"/>
       <path id="DejaVuSans-65" d="M 3597 1894 
L 3597 1613 
L 953 1613 
Q 991 1019 1311 708 
Q 1631 397 2203 397 
Q 2534 397 2845 478 
Q 3156 559 3463 722 
L 3463 178 
Q 3153 47 2828 -22 
Q 2503 -91 2169 -91 
Q 1331 -91 842 396 
Q 353 884 353 1716 
Q 353 2575 817 3079 
Q 1281 3584 2069 3584 
Q 2775 3584 3186 3129 
Q 3597 2675 3597 1894 
z
M 3022 2063 
Q 3016 2534 2758 2815 
Q 2500 3097 2075 3097 
Q 1594 3097 1305 2825 
Q 1016 2553 972 2059 
L 3022 2063 
z
" transform="scale(0.015625)"/>
       <path id="DejaVuSans-61" d="M 2194 1759 
Q 1497 1759 1228 1600 
Q 959 1441 959 1056 
Q 959 750 1161 570 
Q 1363 391 1709 391 
Q 2188 391 2477 730 
Q 2766 1069 2766 1631 
L 2766 1759 
L 2194 1759 
z
M 3341 1997 
L 3341 0 
L 2766 0 
L 2766 531 
Q 2569 213 2275 61 
Q 1981 -91 1556 -91 
Q 1019 -91 701 211 
Q 384 513 384 1019 
Q 384 1609 779 1909 
Q 1175 2209 1959 2209 
L 2766 2209 
L 2766 2266 
Q 2766 2663 2505 2880 
Q 2244 3097 1772 3097 
Q 1472 3097 1187 3025 
Q 903 2953 641 2809 
L 641 3341 
Q 956 3463 1253 3523 
Q 1550 3584 1831 3584 
Q 2591 3584 2966 3190 
Q 3341 2797 3341 1997 
z
" transform="scale(0.015625)"/>
       <path id="DejaVuSans-6d" d="M 3328 2828 
Q 3544 3216 3844 3400 
Q 4144 3584 4550 3584 
Q 5097 3584 5394 3201 
Q 5691 2819 5691 2113 
L 5691 0 
L 5113 0 
L 5113 2094 
Q 5113 2597 4934 2840 
Q 4756 3084 4391 3084 
Q 3944 3084 3684 2787 
Q 3425 2491 3425 1978 
L 3425 0 
L 2847 0 
L 2847 2094 
Q 2847 2600 2669 2842 
Q 2491 3084 2119 3084 
Q 1678 3084 1418 2786 
Q 1159 2488 1159 1978 
L 1159 0 
L 581 0 
L 581 3500 
L 1159 3500 
L 1159 2956 
Q 1356 3278 1631 3431 
Q 1906 3584 2284 3584 
Q 2666 3584 2933 3390 
Q 3200 3197 3328 2828 
z
" transform="scale(0.015625)"/>
       <path id="DejaVuSans-20" transform="scale(0.015625)"/>
       <path id="DejaVuSans-73" d="M 2834 3397 
L 2834 2853 
Q 2591 2978 2328 3040 
Q 2066 3103 1784 3103 
Q 1356 3103 1142 2972 
Q 928 2841 928 2578 
Q 928 2378 1081 2264 
Q 1234 2150 1697 2047 
L 1894 2003 
Q 2506 1872 2764 1633 
Q 3022 1394 3022 966 
Q 3022 478 2636 193 
Q 2250 -91 1575 -91 
Q 1294 -91 989 -36 
Q 684 19 347 128 
L 347 722 
Q 666 556 975 473 
Q 1284 391 1588 391 
Q 1994 391 2212 530 
Q 2431 669 2431 922 
Q 2431 1156 2273 1281 
Q 2116 1406 1581 1522 
L 1381 1569 
Q 847 1681 609 1914 
Q 372 2147 372 2553 
Q 372 3047 722 3315 
Q 1072 3584 1716 3584 
Q 2034 3584 2315 3537 
Q 2597 3491 2834 3397 
z
" transform="scale(0.015625)"/>
       <path id="DejaVuSans-69" d="M 603 3500 
L 1178 3500 
L 1178 0 
L 603 0 
L 603 3500 
z
M 603 4863 
L 1178 4863 
L 1178 4134 
L 603 4134 
L 603 4863 
z
" transform="scale(0.015625)"/>
       <path id="DejaVuSans-7a" d="M 353 3500 
L 3084 3500 
L 3084 2975 
L 922 459 
L 3084 459 
L 3084 0 
L 275 0 
L 275 525 
L 2438 3041 
L 353 3041 
L 353 3500 
z
" transform="scale(0.015625)"/>
      </defs>
      <use xlink:href="#DejaVuSans-42"/>
      <use xlink:href="#DejaVuSans-65" x="68.603516"/>
      <use xlink:href="#DejaVuSans-61" x="130.126953"/>
      <use xlink:href="#DejaVuSans-6d" x="191.40625"/>
      <use xlink:href="#DejaVuSans-20" x="288.818359"/>
      <use xlink:href="#DejaVuSans-73" x="320.605469"/>
      <use xlink:href="#DejaVuSans-69" x="372.705078"/>
      <use xlink:href="#DejaVuSans-7a" x="400.488281"/>
      <use xlink:href="#DejaVuSans-65" x="452.978516"/>
     </g>
    </g>
   </g>
   <g id="matplotlib.axis_2">
    <g id="ytick_1">
     <g id="line2d_7">
      <defs>
       <path id="m0300a6cfaa" d="M 0 0 
L -3.5 0 
" style="stroke: #000000; stroke-width: 0.8"/>
      </defs>
      <g>
       <use xlink:href="#m0300a6cfaa" x="44.66" y="303.64" style="stroke: #000000; stroke-width: 0.8"/>
      </g>
     </g>
     <g id="text_8">
      <!-- 0 -->
      <g transform="translate(31.2975 307.439219)scale(0.1 -0.1)">
       <use xlink:href="#DejaVuSans-30"/>
      </g>
     </g>
    </g>
    <g id="ytick_2">
     <g id="line2d_8">
      <g>
       <use xlink:href="#m0300a6cfaa" x="44.66" y="290.268311" style="stroke: #000000; stroke-width: 0.8"/>
      </g>
     </g>
     <g id="text_9">
      <!-- 1 -->
      <g transform="translate(31.2975 294.067529)scale(0.1 -0.1)">
       <use xlink:href="#DejaVuSans-31"/>
      </g>
     </g>
    </g>
    <g id="ytick_3">
     <g id="line2d_9">
      <g>
       <use xlink:href="#m0300a6cfaa" x="44.66" y="276.896621" style="stroke: #000000; stroke-width: 0.8"/>
      </g>
     </g>
     <g id="text_10">
      <!-- 2 -->
      <g transform="translate(31.2975 280.69584)scale(0.1 -0.1)">
       <use xlink:href="#DejaVuSans-32"/>
      </g>
     </g>
    </g>
    <g id="ytick_4">
     <g id="line2d_10">
      <g>
       <use xlink:href="#m0300a6cfaa" x="44.66" y="263.524932" style="stroke: #000000; stroke-width: 0.8"/>
      </g>
     </g>
     <g id="text_11">
      <!-- 3 -->
      <g transform="translate(31.2975 267.32415)scale(0.1 -0.1)">
       <defs>
        <path id="DejaVuSans-33" d="M 2597 2516 
Q 3050 2419 3304 2112 
Q 3559 1806 3559 1356 
Q 3559 666 3084 287 
Q 2609 -91 1734 -91 
Q 1441 -91 1130 -33 
Q 819 25 488 141 
L 488 750 
Q 750 597 1062 519 
Q 1375 441 1716 441 
Q 2309 441 2620 675 
Q 2931 909 2931 1356 
Q 2931 1769 2642 2001 
Q 2353 2234 1838 2234 
L 1294 2234 
L 1294 2753 
L 1863 2753 
Q 2328 2753 2575 2939 
Q 2822 3125 2822 3475 
Q 2822 3834 2567 4026 
Q 2313 4219 1838 4219 
Q 1578 4219 1281 4162 
Q 984 4106 628 3988 
L 628 4550 
Q 988 4650 1302 4700 
Q 1616 4750 1894 4750 
Q 2613 4750 3031 4423 
Q 3450 4097 3450 3541 
Q 3450 3153 3228 2886 
Q 3006 2619 2597 2516 
z
" transform="scale(0.015625)"/>
       </defs>
       <use xlink:href="#DejaVuSans-33"/>
      </g>
     </g>
    </g>
    <g id="ytick_5">
     <g id="line2d_11">
      <g>
       <use xlink:href="#m0300a6cfaa" x="44.66" y="250.153242" style="stroke: #000000; stroke-width: 0.8"/>
      </g>
     </g>
     <g id="text_12">
      <!-- 4 -->
      <g transform="translate(31.2975 253.952461)scale(0.1 -0.1)">
       <use xlink:href="#DejaVuSans-34"/>
      </g>
     </g>
    </g>
    <g id="ytick_6">
     <g id="line2d_12">
      <g>
       <use xlink:href="#m0300a6cfaa" x="44.66" y="236.781553" style="stroke: #000000; stroke-width: 0.8"/>
      </g>
     </g>
     <g id="text_13">
      <!-- 5 -->
      <g transform="translate(31.2975 240.580771)scale(0.1 -0.1)">
       <defs>
        <path id="DejaVuSans-35" d="M 691 4666 
L 3169 4666 
L 3169 4134 
L 1269 4134 
L 1269 2991 
Q 1406 3038 1543 3061 
Q 1681 3084 1819 3084 
Q 2600 3084 3056 2656 
Q 3513 2228 3513 1497 
Q 3513 744 3044 326 
Q 2575 -91 1722 -91 
Q 1428 -91 1123 -41 
Q 819 9 494 109 
L 494 744 
Q 775 591 1075 516 
Q 1375 441 1709 441 
Q 2250 441 2565 725 
Q 2881 1009 2881 1497 
Q 2881 1984 2565 2268 
Q 2250 2553 1709 2553 
Q 1456 2553 1204 2497 
Q 953 2441 691 2322 
L 691 4666 
z
" transform="scale(0.015625)"/>
       </defs>
       <use xlink:href="#DejaVuSans-35"/>
      </g>
     </g>
    </g>
    <g id="ytick_7">
     <g id="line2d_13">
      <g>
       <use xlink:href="#m0300a6cfaa" x="44.66" y="223.409863" style="stroke: #000000; stroke-width: 0.8"/>
      </g>
     </g>
     <g id="text_14">
      <!-- 6 -->
      <g transform="translate(31.2975 227.209082)scale(0.1 -0.1)">
       <use xlink:href="#DejaVuSans-36"/>
      </g>
     </g>
    </g>
    <g id="ytick_8">
     <g id="line2d_14">
      <g>
       <use xlink:href="#m0300a6cfaa" x="44.66" y="210.038174" style="stroke: #000000; stroke-width: 0.8"/>
      </g>
     </g>
     <g id="text_15">
      <!-- 7 -->
      <g transform="translate(31.2975 213.837392)scale(0.1 -0.1)">
       <defs>
        <path id="DejaVuSans-37" d="M 525 4666 
L 3525 4666 
L 3525 4397 
L 1831 0 
L 1172 0 
L 2766 4134 
L 525 4134 
L 525 4666 
z
" transform="scale(0.015625)"/>
       </defs>
       <use xlink:href="#DejaVuSans-37"/>
      </g>
     </g>
    </g>
    <g id="ytick_9">
     <g id="line2d_15">
      <g>
       <use xlink:href="#m0300a6cfaa" x="44.66" y="196.666484" style="stroke: #000000; stroke-width: 0.8"/>
      </g>
     </g>
     <g id="text_16">
      <!-- 8 -->
      <g transform="translate(31.2975 200.465703)scale(0.1 -0.1)">
       <use xlink:href="#DejaVuSans-38"/>
      </g>
     </g>
    </g>
    <g id="ytick_10">
     <g id="line2d_16">
      <g>
       <use xlink:href="#m0300a6cfaa" x="44.66" y="183.294795" style="stroke: #000000; stroke-width: 0.8"/>
      </g>
     </g>
     <g id="text_17">
      <!-- 9 -->
      <g transform="translate(31.2975 187.094013)scale(0.1 -0.1)">
       <defs>
        <path id="DejaVuSans-39" d="M 703 97 
L 703 672 
Q 941 559 1184 500 
Q 1428 441 1663 441 
Q 2288 441 2617 861 
Q 2947 1281 2994 2138 
Q 2813 1869 2534 1725 
Q 2256 1581 1919 1581 
Q 1219 1581 811 2004 
Q 403 2428 403 3163 
Q 403 3881 828 4315 
Q 1253 4750 1959 4750 
Q 2769 4750 3195 4129 
Q 3622 3509 3622 2328 
Q 3622 1225 3098 567 
Q 2575 -91 1691 -91 
Q 1453 -91 1209 -44 
Q 966 3 703 97 
z
M 1959 2075 
Q 2384 2075 2632 2365 
Q 2881 2656 2881 3163 
Q 2881 3666 2632 3958 
Q 2384 4250 1959 4250 
Q 1534 4250 1286 3958 
Q 1038 3666 1038 3163 
Q 1038 2656 1286 2365 
Q 1534 2075 1959 2075 
z
" transform="scale(0.015625)"/>
       </defs>
       <use xlink:href="#DejaVuSans-39"/>
      </g>
     </g>
    </g>
    <g id="ytick_11">
     <g id="line2d_17">
      <g>
       <use xlink:href="#m0300a6cfaa" x="44.66" y="169.923105" style="stroke: #000000; stroke-width: 0.8"/>
      </g>
     </g>
     <g id="text_18">
      <!-- 10 -->
      <g transform="translate(24.935 173.722324)scale(0.1 -0.1)">
       <use xlink:href="#DejaVuSans-31"/>
       <use xlink:href="#DejaVuSans-30" x="63.623047"/>
      </g>
     </g>
    </g>
    <g id="ytick_12">
     <g id="line2d_18">
      <g>
       <use xlink:href="#m0300a6cfaa" x="44.66" y="156.551416" style="stroke: #000000; stroke-width: 0.8"/>
      </g>
     </g>
     <g id="text_19">
      <!-- 11 -->
      <g transform="translate(24.935 160.350634)scale(0.1 -0.1)">
       <use xlink:href="#DejaVuSans-31"/>
       <use xlink:href="#DejaVuSans-31" x="63.623047"/>
      </g>
     </g>
    </g>
    <g id="ytick_13">
     <g id="line2d_19">
      <g>
       <use xlink:href="#m0300a6cfaa" x="44.66" y="143.179726" style="stroke: #000000; stroke-width: 0.8"/>
      </g>
     </g>
     <g id="text_20">
      <!-- 12 -->
      <g transform="translate(24.935 146.978945)scale(0.1 -0.1)">
       <use xlink:href="#DejaVuSans-31"/>
       <use xlink:href="#DejaVuSans-32" x="63.623047"/>
      </g>
     </g>
    </g>
    <g id="ytick_14">
     <g id="line2d_20">
      <g>
       <use xlink:href="#m0300a6cfaa" x="44.66" y="129.808037" style="stroke: #000000; stroke-width: 0.8"/>
      </g>
     </g>
     <g id="text_21">
      <!-- 13 -->
      <g transform="translate(24.935 133.607255)scale(0.1 -0.1)">
       <use xlink:href="#DejaVuSans-31"/>
       <use xlink:href="#DejaVuSans-33" x="63.623047"/>
      </g>
     </g>
    </g>
    <g id="ytick_15">
     <g id="line2d_21">
      <g>
       <use xlink:href="#m0300a6cfaa" x="44.66" y="116.436347" style="stroke: #000000; stroke-width: 0.8"/>
      </g>
     </g>
     <g id="text_22">
      <!-- 14 -->
      <g transform="translate(24.935 120.235566)scale(0.1 -0.1)">
       <use xlink:href="#DejaVuSans-31"/>
       <use xlink:href="#DejaVuSans-34" x="63.623047"/>
      </g>
     </g>
    </g>
    <g id="ytick_16">
     <g id="line2d_22">
      <g>
       <use xlink:href="#m0300a6cfaa" x="44.66" y="103.064658" style="stroke: #000000; stroke-width: 0.8"/>
      </g>
     </g>
     <g id="text_23">
      <!-- 15 -->
      <g transform="translate(24.935 106.863876)scale(0.1 -0.1)">
       <use xlink:href="#DejaVuSans-31"/>
       <use xlink:href="#DejaVuSans-35" x="63.623047"/>
      </g>
     </g>
    </g>
    <g id="ytick_17">
     <g id="line2d_23">
      <g>
       <use xlink:href="#m0300a6cfaa" x="44.66" y="89.692968" style="stroke: #000000; stroke-width: 0.8"/>
      </g>
     </g>
     <g id="text_24">
      <!-- 16 -->
      <g transform="translate(24.935 93.492187)scale(0.1 -0.1)">
       <use xlink:href="#DejaVuSans-31"/>
       <use xlink:href="#DejaVuSans-36" x="63.623047"/>
      </g>
     </g>
    </g>
    <g id="ytick_18">
     <g id="line2d_24">
      <g>
       <use xlink:href="#m0300a6cfaa" x="44.66" y="76.321279" style="stroke: #000000; stroke-width: 0.8"/>
      </g>
     </g>
     <g id="text_25">
      <!-- 17 -->
      <g transform="translate(24.935 80.120497)scale(0.1 -0.1)">
       <use xlink:href="#DejaVuSans-31"/>
       <use xlink:href="#DejaVuSans-37" x="63.623047"/>
      </g>
     </g>
    </g>
    <g id="ytick_19">
     <g id="line2d_25">
      <g>
       <use xlink:href="#m0300a6cfaa" x="44.66" y="62.949589" style="stroke: #000000; stroke-width: 0.8"/>
      </g>
     </g>
     <g id="text_26">
      <!-- 18 -->
      <g transform="translate(24.935 66.748808)scale(0.1 -0.1)">
       <use xlink:href="#DejaVuSans-31"/>
       <use xlink:href="#DejaVuSans-38" x="63.623047"/>
      </g>
     </g>
    </g>
    <g id="ytick_20">
     <g id="line2d_26">
      <g>
       <use xlink:href="#m0300a6cfaa" x="44.66" y="49.5779" style="stroke: #000000; stroke-width: 0.8"/>
      </g>
     </g>
     <g id="text_27">
      <!-- 19 -->
      <g transform="translate(24.935 53.377118)scale(0.1 -0.1)">
       <use xlink:href="#DejaVuSans-31"/>
       <use xlink:href="#DejaVuSans-39" x="63.623047"/>
      </g>
     </g>
    </g>
    <g id="ytick_21">
     <g id="line2d_27">
      <g>
       <use xlink:href="#m0300a6cfaa" x="44.66" y="36.20621" style="stroke: #000000; stroke-width: 0.8"/>
      </g>
     </g>
     <g id="text_28">
      <!-- 20 -->
      <g transform="translate(24.935 40.005429)scale(0.1 -0.1)">
       <use xlink:href="#DejaVuSans-32"/>
       <use xlink:href="#DejaVuSans-30" x="63.623047"/>
      </g>
     </g>
    </g>
    <g id="ytick_22">
     <g id="line2d_28">
      <g>
       <use xlink:href="#m0300a6cfaa" x="44.66" y="22.834521" style="stroke: #000000; stroke-width: 0.8"/>
      </g>
     </g>
     <g id="text_29">
      <!-- 21 -->
      <g transform="translate(24.935 26.633739)scale(0.1 -0.1)">
       <use xlink:href="#DejaVuSans-32"/>
       <use xlink:href="#DejaVuSans-31" x="63.623047"/>
      </g>
     </g>
    </g>
    <g id="text_30">
     <!-- Number of cumulative correctly repaired bugs -->
     <g transform="translate(18.855313 272.6825)rotate(-90)scale(0.1 -0.1)">
      <defs>
       <path id="DejaVuSans-4e" d="M 628 4666 
L 1478 4666 
L 3547 763 
L 3547 4666 
L 4159 4666 
L 4159 0 
L 3309 0 
L 1241 3903 
L 1241 0 
L 628 0 
L 628 4666 
z
" transform="scale(0.015625)"/>
       <path id="DejaVuSans-75" d="M 544 1381 
L 544 3500 
L 1119 3500 
L 1119 1403 
Q 1119 906 1312 657 
Q 1506 409 1894 409 
Q 2359 409 2629 706 
Q 2900 1003 2900 1516 
L 2900 3500 
L 3475 3500 
L 3475 0 
L 2900 0 
L 2900 538 
Q 2691 219 2414 64 
Q 2138 -91 1772 -91 
Q 1169 -91 856 284 
Q 544 659 544 1381 
z
M 1991 3584 
L 1991 3584 
z
" transform="scale(0.015625)"/>
       <path id="DejaVuSans-62" d="M 3116 1747 
Q 3116 2381 2855 2742 
Q 2594 3103 2138 3103 
Q 1681 3103 1420 2742 
Q 1159 2381 1159 1747 
Q 1159 1113 1420 752 
Q 1681 391 2138 391 
Q 2594 391 2855 752 
Q 3116 1113 3116 1747 
z
M 1159 2969 
Q 1341 3281 1617 3432 
Q 1894 3584 2278 3584 
Q 2916 3584 3314 3078 
Q 3713 2572 3713 1747 
Q 3713 922 3314 415 
Q 2916 -91 2278 -91 
Q 1894 -91 1617 61 
Q 1341 213 1159 525 
L 1159 0 
L 581 0 
L 581 4863 
L 1159 4863 
L 1159 2969 
z
" transform="scale(0.015625)"/>
       <path id="DejaVuSans-72" d="M 2631 2963 
Q 2534 3019 2420 3045 
Q 2306 3072 2169 3072 
Q 1681 3072 1420 2755 
Q 1159 2438 1159 1844 
L 1159 0 
L 581 0 
L 581 3500 
L 1159 3500 
L 1159 2956 
Q 1341 3275 1631 3429 
Q 1922 3584 2338 3584 
Q 2397 3584 2469 3576 
Q 2541 3569 2628 3553 
L 2631 2963 
z
" transform="scale(0.015625)"/>
       <path id="DejaVuSans-6f" d="M 1959 3097 
Q 1497 3097 1228 2736 
Q 959 2375 959 1747 
Q 959 1119 1226 758 
Q 1494 397 1959 397 
Q 2419 397 2687 759 
Q 2956 1122 2956 1747 
Q 2956 2369 2687 2733 
Q 2419 3097 1959 3097 
z
M 1959 3584 
Q 2709 3584 3137 3096 
Q 3566 2609 3566 1747 
Q 3566 888 3137 398 
Q 2709 -91 1959 -91 
Q 1206 -91 779 398 
Q 353 888 353 1747 
Q 353 2609 779 3096 
Q 1206 3584 1959 3584 
z
" transform="scale(0.015625)"/>
       <path id="DejaVuSans-66" d="M 2375 4863 
L 2375 4384 
L 1825 4384 
Q 1516 4384 1395 4259 
Q 1275 4134 1275 3809 
L 1275 3500 
L 2222 3500 
L 2222 3053 
L 1275 3053 
L 1275 0 
L 697 0 
L 697 3053 
L 147 3053 
L 147 3500 
L 697 3500 
L 697 3744 
Q 697 4328 969 4595 
Q 1241 4863 1831 4863 
L 2375 4863 
z
" transform="scale(0.015625)"/>
       <path id="DejaVuSans-63" d="M 3122 3366 
L 3122 2828 
Q 2878 2963 2633 3030 
Q 2388 3097 2138 3097 
Q 1578 3097 1268 2742 
Q 959 2388 959 1747 
Q 959 1106 1268 751 
Q 1578 397 2138 397 
Q 2388 397 2633 464 
Q 2878 531 3122 666 
L 3122 134 
Q 2881 22 2623 -34 
Q 2366 -91 2075 -91 
Q 1284 -91 818 406 
Q 353 903 353 1747 
Q 353 2603 823 3093 
Q 1294 3584 2113 3584 
Q 2378 3584 2631 3529 
Q 2884 3475 3122 3366 
z
" transform="scale(0.015625)"/>
       <path id="DejaVuSans-6c" d="M 603 4863 
L 1178 4863 
L 1178 0 
L 603 0 
L 603 4863 
z
" transform="scale(0.015625)"/>
       <path id="DejaVuSans-74" d="M 1172 4494 
L 1172 3500 
L 2356 3500 
L 2356 3053 
L 1172 3053 
L 1172 1153 
Q 1172 725 1289 603 
Q 1406 481 1766 481 
L 2356 481 
L 2356 0 
L 1766 0 
Q 1100 0 847 248 
Q 594 497 594 1153 
L 594 3053 
L 172 3053 
L 172 3500 
L 594 3500 
L 594 4494 
L 1172 4494 
z
" transform="scale(0.015625)"/>
       <path id="DejaVuSans-76" d="M 191 3500 
L 800 3500 
L 1894 563 
L 2988 3500 
L 3597 3500 
L 2284 0 
L 1503 0 
L 191 3500 
z
" transform="scale(0.015625)"/>
       <path id="DejaVuSans-79" d="M 2059 -325 
Q 1816 -950 1584 -1140 
Q 1353 -1331 966 -1331 
L 506 -1331 
L 506 -850 
L 844 -850 
Q 1081 -850 1212 -737 
Q 1344 -625 1503 -206 
L 1606 56 
L 191 3500 
L 800 3500 
L 1894 763 
L 2988 3500 
L 3597 3500 
L 2059 -325 
z
" transform="scale(0.015625)"/>
       <path id="DejaVuSans-70" d="M 1159 525 
L 1159 -1331 
L 581 -1331 
L 581 3500 
L 1159 3500 
L 1159 2969 
Q 1341 3281 1617 3432 
Q 1894 3584 2278 3584 
Q 2916 3584 3314 3078 
Q 3713 2572 3713 1747 
Q 3713 922 3314 415 
Q 2916 -91 2278 -91 
Q 1894 -91 1617 61 
Q 1341 213 1159 525 
z
M 3116 1747 
Q 3116 2381 2855 2742 
Q 2594 3103 2138 3103 
Q 1681 3103 1420 2742 
Q 1159 2381 1159 1747 
Q 1159 1113 1420 752 
Q 1681 391 2138 391 
Q 2594 391 2855 752 
Q 3116 1113 3116 1747 
z
" transform="scale(0.015625)"/>
       <path id="DejaVuSans-64" d="M 2906 2969 
L 2906 4863 
L 3481 4863 
L 3481 0 
L 2906 0 
L 2906 525 
Q 2725 213 2448 61 
Q 2172 -91 1784 -91 
Q 1150 -91 751 415 
Q 353 922 353 1747 
Q 353 2572 751 3078 
Q 1150 3584 1784 3584 
Q 2172 3584 2448 3432 
Q 2725 3281 2906 2969 
z
M 947 1747 
Q 947 1113 1208 752 
Q 1469 391 1925 391 
Q 2381 391 2643 752 
Q 2906 1113 2906 1747 
Q 2906 2381 2643 2742 
Q 2381 3103 1925 3103 
Q 1469 3103 1208 2742 
Q 947 2381 947 1747 
z
" transform="scale(0.015625)"/>
       <path id="DejaVuSans-67" d="M 2906 1791 
Q 2906 2416 2648 2759 
Q 2391 3103 1925 3103 
Q 1463 3103 1205 2759 
Q 947 2416 947 1791 
Q 947 1169 1205 825 
Q 1463 481 1925 481 
Q 2391 481 2648 825 
Q 2906 1169 2906 1791 
z
M 3481 434 
Q 3481 -459 3084 -895 
Q 2688 -1331 1869 -1331 
Q 1566 -1331 1297 -1286 
Q 1028 -1241 775 -1147 
L 775 -588 
Q 1028 -725 1275 -790 
Q 1522 -856 1778 -856 
Q 2344 -856 2625 -561 
Q 2906 -266 2906 331 
L 2906 616 
Q 2728 306 2450 153 
Q 2172 0 1784 0 
Q 1141 0 747 490 
Q 353 981 353 1791 
Q 353 2603 747 3093 
Q 1141 3584 1784 3584 
Q 2172 3584 2450 3431 
Q 2728 3278 2906 2969 
L 2906 3500 
L 3481 3500 
L 3481 434 
z
" transform="scale(0.015625)"/>
      </defs>
      <use xlink:href="#DejaVuSans-4e"/>
      <use xlink:href="#DejaVuSans-75" x="74.804688"/>
      <use xlink:href="#DejaVuSans-6d" x="138.183594"/>
      <use xlink:href="#DejaVuSans-62" x="235.595703"/>
      <use xlink:href="#DejaVuSans-65" x="299.072266"/>
      <use xlink:href="#DejaVuSans-72" x="360.595703"/>
      <use xlink:href="#DejaVuSans-20" x="401.708984"/>
      <use xlink:href="#DejaVuSans-6f" x="433.496094"/>
      <use xlink:href="#DejaVuSans-66" x="494.677734"/>
      <use xlink:href="#DejaVuSans-20" x="529.882812"/>
      <use xlink:href="#DejaVuSans-63" x="561.669922"/>
      <use xlink:href="#DejaVuSans-75" x="616.650391"/>
      <use xlink:href="#DejaVuSans-6d" x="680.029297"/>
      <use xlink:href="#DejaVuSans-75" x="777.441406"/>
      <use xlink:href="#DejaVuSans-6c" x="840.820312"/>
      <use xlink:href="#DejaVuSans-61" x="868.603516"/>
      <use xlink:href="#DejaVuSans-74" x="929.882812"/>
      <use xlink:href="#DejaVuSans-69" x="969.091797"/>
      <use xlink:href="#DejaVuSans-76" x="996.875"/>
      <use xlink:href="#DejaVuSans-65" x="1056.054688"/>
      <use xlink:href="#DejaVuSans-20" x="1117.578125"/>
      <use xlink:href="#DejaVuSans-63" x="1149.365234"/>
      <use xlink:href="#DejaVuSans-6f" x="1204.345703"/>
      <use xlink:href="#DejaVuSans-72" x="1265.527344"/>
      <use xlink:href="#DejaVuSans-72" x="1304.890625"/>
      <use xlink:href="#DejaVuSans-65" x="1343.753906"/>
      <use xlink:href="#DejaVuSans-63" x="1405.277344"/>
      <use xlink:href="#DejaVuSans-74" x="1460.257812"/>
      <use xlink:href="#DejaVuSans-6c" x="1499.466797"/>
      <use xlink:href="#DejaVuSans-79" x="1527.25"/>
      <use xlink:href="#DejaVuSans-20" x="1586.429688"/>
      <use xlink:href="#DejaVuSans-72" x="1618.216797"/>
      <use xlink:href="#DejaVuSans-65" x="1657.080078"/>
      <use xlink:href="#DejaVuSans-70" x="1718.603516"/>
      <use xlink:href="#DejaVuSans-61" x="1782.080078"/>
      <use xlink:href="#DejaVuSans-69" x="1843.359375"/>
      <use xlink:href="#DejaVuSans-72" x="1871.142578"/>
      <use xlink:href="#DejaVuSans-65" x="1910.005859"/>
      <use xlink:href="#DejaVuSans-64" x="1971.529297"/>
      <use xlink:href="#DejaVuSans-20" x="2035.005859"/>
      <use xlink:href="#DejaVuSans-62" x="2066.792969"/>
      <use xlink:href="#DejaVuSans-75" x="2130.269531"/>
      <use xlink:href="#DejaVuSans-67" x="2193.648438"/>
      <use xlink:href="#DejaVuSans-73" x="2257.125"/>
     </g>
    </g>
   </g>
   <g id="line2d_29">
    <path d="M 63.084545 263.524932 
L 66.806676 236.781553 
L 70.528806 236.781553 
L 74.250937 236.781553 
L 77.973067 236.781553 
L 81.695197 236.781553 
L 85.417328 223.409863 
L 89.139458 223.409863 
L 92.861589 223.409863 
L 96.583719 223.409863 
L 100.305849 223.409863 
L 104.02798 223.409863 
L 107.75011 223.409863 
L 111.472241 223.409863 
L 115.194371 223.409863 
L 118.916501 223.409863 
L 122.638632 223.409863 
L 126.360762 223.409863 
L 130.082893 223.409863 
L 133.805023 223.409863 
L 137.527153 223.409863 
L 141.249284 223.409863 
L 144.971414 223.409863 
L 148.693545 223.409863 
L 152.415675 223.409863 
L 156.137805 223.409863 
L 159.859936 223.409863 
L 163.582066 223.409863 
L 167.304197 223.409863 
L 171.026327 223.409863 
L 174.748457 223.409863 
L 178.470588 223.409863 
L 182.192718 223.409863 
L 185.914848 223.409863 
L 189.636979 223.409863 
L 193.359109 223.409863 
L 197.08124 210.038174 
L 200.80337 210.038174 
L 204.5255 210.038174 
L 208.247631 196.666484 
L 211.969761 196.666484 
L 215.691892 196.666484 
L 219.414022 196.666484 
L 223.136152 196.666484 
L 226.858283 196.666484 
L 230.580413 196.666484 
L 234.302544 196.666484 
L 238.024674 196.666484 
L 241.746804 196.666484 
L 245.468935 196.666484 
L 249.191065 196.666484 
L 252.913196 196.666484 
L 256.635326 196.666484 
L 260.357456 196.666484 
L 264.079587 196.666484 
L 267.801717 196.666484 
L 271.523848 196.666484 
L 275.245978 196.666484 
L 278.968108 196.666484 
L 282.690239 196.666484 
L 286.412369 196.666484 
L 290.1345 196.666484 
L 293.85663 196.666484 
L 297.57876 196.666484 
L 301.300891 183.294795 
L 305.023021 183.294795 
L 308.745152 183.294795 
L 312.467282 183.294795 
L 316.189412 183.294795 
L 319.911543 183.294795 
L 323.633673 183.294795 
L 327.355803 183.294795 
L 331.077934 183.294795 
L 334.800064 183.294795 
L 338.522195 183.294795 
L 342.244325 183.294795 
L 345.966455 183.294795 
L 349.688586 183.294795 
L 353.410716 183.294795 
L 357.132847 183.294795 
L 360.854977 169.923105 
L 364.577107 169.923105 
L 368.299238 169.923105 
L 372.021368 169.923105 
L 375.743499 169.923105 
L 379.465629 156.551416 
L 383.187759 156.551416 
L 386.90989 156.551416 
L 390.63202 156.551416 
L 394.354151 143.179726 
L 398.076281 143.179726 
L 401.798411 143.179726 
L 405.520542 143.179726 
L 409.242672 143.179726 
L 412.964803 143.179726 
L 416.686933 143.179726 
L 420.409063 143.179726 
L 424.131194 143.179726 
L 427.853324 143.179726 
L 431.575455 143.179726 
" clip-path="url(#p3d22d119d3)" style="fill: none; stroke: #1f77b4; stroke-width: 1.5; stroke-linecap: square"/>
    <defs>
     <path id="m18ca38e1da" d="M 0 3 
C 0.795609 3 1.55874 2.683901 2.12132 2.12132 
C 2.683901 1.55874 3 0.795609 3 0 
C 3 -0.795609 2.683901 -1.55874 2.12132 -2.12132 
C 1.55874 -2.683901 0.795609 -3 0 -3 
C -0.795609 -3 -1.55874 -2.683901 -2.12132 -2.12132 
C -2.683901 -1.55874 -3 -0.795609 -3 0 
C -3 0.795609 -2.683901 1.55874 -2.12132 2.12132 
C -1.55874 2.683901 -0.795609 3 0 3 
z
" style="stroke: #1f77b4"/>
    </defs>
    <g clip-path="url(#p3d22d119d3)">
     <use xlink:href="#m18ca38e1da" x="63.084545" y="263.524932" style="fill: #1f77b4; stroke: #1f77b4"/>
     <use xlink:href="#m18ca38e1da" x="66.806676" y="236.781553" style="fill: #1f77b4; stroke: #1f77b4"/>
     <use xlink:href="#m18ca38e1da" x="70.528806" y="236.781553" style="fill: #1f77b4; stroke: #1f77b4"/>
     <use xlink:href="#m18ca38e1da" x="74.250937" y="236.781553" style="fill: #1f77b4; stroke: #1f77b4"/>
     <use xlink:href="#m18ca38e1da" x="77.973067" y="236.781553" style="fill: #1f77b4; stroke: #1f77b4"/>
     <use xlink:href="#m18ca38e1da" x="81.695197" y="236.781553" style="fill: #1f77b4; stroke: #1f77b4"/>
     <use xlink:href="#m18ca38e1da" x="85.417328" y="223.409863" style="fill: #1f77b4; stroke: #1f77b4"/>
     <use xlink:href="#m18ca38e1da" x="89.139458" y="223.409863" style="fill: #1f77b4; stroke: #1f77b4"/>
     <use xlink:href="#m18ca38e1da" x="92.861589" y="223.409863" style="fill: #1f77b4; stroke: #1f77b4"/>
     <use xlink:href="#m18ca38e1da" x="96.583719" y="223.409863" style="fill: #1f77b4; stroke: #1f77b4"/>
     <use xlink:href="#m18ca38e1da" x="100.305849" y="223.409863" style="fill: #1f77b4; stroke: #1f77b4"/>
     <use xlink:href="#m18ca38e1da" x="104.02798" y="223.409863" style="fill: #1f77b4; stroke: #1f77b4"/>
     <use xlink:href="#m18ca38e1da" x="107.75011" y="223.409863" style="fill: #1f77b4; stroke: #1f77b4"/>
     <use xlink:href="#m18ca38e1da" x="111.472241" y="223.409863" style="fill: #1f77b4; stroke: #1f77b4"/>
     <use xlink:href="#m18ca38e1da" x="115.194371" y="223.409863" style="fill: #1f77b4; stroke: #1f77b4"/>
     <use xlink:href="#m18ca38e1da" x="118.916501" y="223.409863" style="fill: #1f77b4; stroke: #1f77b4"/>
     <use xlink:href="#m18ca38e1da" x="122.638632" y="223.409863" style="fill: #1f77b4; stroke: #1f77b4"/>
     <use xlink:href="#m18ca38e1da" x="126.360762" y="223.409863" style="fill: #1f77b4; stroke: #1f77b4"/>
     <use xlink:href="#m18ca38e1da" x="130.082893" y="223.409863" style="fill: #1f77b4; stroke: #1f77b4"/>
     <use xlink:href="#m18ca38e1da" x="133.805023" y="223.409863" style="fill: #1f77b4; stroke: #1f77b4"/>
     <use xlink:href="#m18ca38e1da" x="137.527153" y="223.409863" style="fill: #1f77b4; stroke: #1f77b4"/>
     <use xlink:href="#m18ca38e1da" x="141.249284" y="223.409863" style="fill: #1f77b4; stroke: #1f77b4"/>
     <use xlink:href="#m18ca38e1da" x="144.971414" y="223.409863" style="fill: #1f77b4; stroke: #1f77b4"/>
     <use xlink:href="#m18ca38e1da" x="148.693545" y="223.409863" style="fill: #1f77b4; stroke: #1f77b4"/>
     <use xlink:href="#m18ca38e1da" x="152.415675" y="223.409863" style="fill: #1f77b4; stroke: #1f77b4"/>
     <use xlink:href="#m18ca38e1da" x="156.137805" y="223.409863" style="fill: #1f77b4; stroke: #1f77b4"/>
     <use xlink:href="#m18ca38e1da" x="159.859936" y="223.409863" style="fill: #1f77b4; stroke: #1f77b4"/>
     <use xlink:href="#m18ca38e1da" x="163.582066" y="223.409863" style="fill: #1f77b4; stroke: #1f77b4"/>
     <use xlink:href="#m18ca38e1da" x="167.304197" y="223.409863" style="fill: #1f77b4; stroke: #1f77b4"/>
     <use xlink:href="#m18ca38e1da" x="171.026327" y="223.409863" style="fill: #1f77b4; stroke: #1f77b4"/>
     <use xlink:href="#m18ca38e1da" x="174.748457" y="223.409863" style="fill: #1f77b4; stroke: #1f77b4"/>
     <use xlink:href="#m18ca38e1da" x="178.470588" y="223.409863" style="fill: #1f77b4; stroke: #1f77b4"/>
     <use xlink:href="#m18ca38e1da" x="182.192718" y="223.409863" style="fill: #1f77b4; stroke: #1f77b4"/>
     <use xlink:href="#m18ca38e1da" x="185.914848" y="223.409863" style="fill: #1f77b4; stroke: #1f77b4"/>
     <use xlink:href="#m18ca38e1da" x="189.636979" y="223.409863" style="fill: #1f77b4; stroke: #1f77b4"/>
     <use xlink:href="#m18ca38e1da" x="193.359109" y="223.409863" style="fill: #1f77b4; stroke: #1f77b4"/>
     <use xlink:href="#m18ca38e1da" x="197.08124" y="210.038174" style="fill: #1f77b4; stroke: #1f77b4"/>
     <use xlink:href="#m18ca38e1da" x="200.80337" y="210.038174" style="fill: #1f77b4; stroke: #1f77b4"/>
     <use xlink:href="#m18ca38e1da" x="204.5255" y="210.038174" style="fill: #1f77b4; stroke: #1f77b4"/>
     <use xlink:href="#m18ca38e1da" x="208.247631" y="196.666484" style="fill: #1f77b4; stroke: #1f77b4"/>
     <use xlink:href="#m18ca38e1da" x="211.969761" y="196.666484" style="fill: #1f77b4; stroke: #1f77b4"/>
     <use xlink:href="#m18ca38e1da" x="215.691892" y="196.666484" style="fill: #1f77b4; stroke: #1f77b4"/>
     <use xlink:href="#m18ca38e1da" x="219.414022" y="196.666484" style="fill: #1f77b4; stroke: #1f77b4"/>
     <use xlink:href="#m18ca38e1da" x="223.136152" y="196.666484" style="fill: #1f77b4; stroke: #1f77b4"/>
     <use xlink:href="#m18ca38e1da" x="226.858283" y="196.666484" style="fill: #1f77b4; stroke: #1f77b4"/>
     <use xlink:href="#m18ca38e1da" x="230.580413" y="196.666484" style="fill: #1f77b4; stroke: #1f77b4"/>
     <use xlink:href="#m18ca38e1da" x="234.302544" y="196.666484" style="fill: #1f77b4; stroke: #1f77b4"/>
     <use xlink:href="#m18ca38e1da" x="238.024674" y="196.666484" style="fill: #1f77b4; stroke: #1f77b4"/>
     <use xlink:href="#m18ca38e1da" x="241.746804" y="196.666484" style="fill: #1f77b4; stroke: #1f77b4"/>
     <use xlink:href="#m18ca38e1da" x="245.468935" y="196.666484" style="fill: #1f77b4; stroke: #1f77b4"/>
     <use xlink:href="#m18ca38e1da" x="249.191065" y="196.666484" style="fill: #1f77b4; stroke: #1f77b4"/>
     <use xlink:href="#m18ca38e1da" x="252.913196" y="196.666484" style="fill: #1f77b4; stroke: #1f77b4"/>
     <use xlink:href="#m18ca38e1da" x="256.635326" y="196.666484" style="fill: #1f77b4; stroke: #1f77b4"/>
     <use xlink:href="#m18ca38e1da" x="260.357456" y="196.666484" style="fill: #1f77b4; stroke: #1f77b4"/>
     <use xlink:href="#m18ca38e1da" x="264.079587" y="196.666484" style="fill: #1f77b4; stroke: #1f77b4"/>
     <use xlink:href="#m18ca38e1da" x="267.801717" y="196.666484" style="fill: #1f77b4; stroke: #1f77b4"/>
     <use xlink:href="#m18ca38e1da" x="271.523848" y="196.666484" style="fill: #1f77b4; stroke: #1f77b4"/>
     <use xlink:href="#m18ca38e1da" x="275.245978" y="196.666484" style="fill: #1f77b4; stroke: #1f77b4"/>
     <use xlink:href="#m18ca38e1da" x="278.968108" y="196.666484" style="fill: #1f77b4; stroke: #1f77b4"/>
     <use xlink:href="#m18ca38e1da" x="282.690239" y="196.666484" style="fill: #1f77b4; stroke: #1f77b4"/>
     <use xlink:href="#m18ca38e1da" x="286.412369" y="196.666484" style="fill: #1f77b4; stroke: #1f77b4"/>
     <use xlink:href="#m18ca38e1da" x="290.1345" y="196.666484" style="fill: #1f77b4; stroke: #1f77b4"/>
     <use xlink:href="#m18ca38e1da" x="293.85663" y="196.666484" style="fill: #1f77b4; stroke: #1f77b4"/>
     <use xlink:href="#m18ca38e1da" x="297.57876" y="196.666484" style="fill: #1f77b4; stroke: #1f77b4"/>
     <use xlink:href="#m18ca38e1da" x="301.300891" y="183.294795" style="fill: #1f77b4; stroke: #1f77b4"/>
     <use xlink:href="#m18ca38e1da" x="305.023021" y="183.294795" style="fill: #1f77b4; stroke: #1f77b4"/>
     <use xlink:href="#m18ca38e1da" x="308.745152" y="183.294795" style="fill: #1f77b4; stroke: #1f77b4"/>
     <use xlink:href="#m18ca38e1da" x="312.467282" y="183.294795" style="fill: #1f77b4; stroke: #1f77b4"/>
     <use xlink:href="#m18ca38e1da" x="316.189412" y="183.294795" style="fill: #1f77b4; stroke: #1f77b4"/>
     <use xlink:href="#m18ca38e1da" x="319.911543" y="183.294795" style="fill: #1f77b4; stroke: #1f77b4"/>
     <use xlink:href="#m18ca38e1da" x="323.633673" y="183.294795" style="fill: #1f77b4; stroke: #1f77b4"/>
     <use xlink:href="#m18ca38e1da" x="327.355803" y="183.294795" style="fill: #1f77b4; stroke: #1f77b4"/>
     <use xlink:href="#m18ca38e1da" x="331.077934" y="183.294795" style="fill: #1f77b4; stroke: #1f77b4"/>
     <use xlink:href="#m18ca38e1da" x="334.800064" y="183.294795" style="fill: #1f77b4; stroke: #1f77b4"/>
     <use xlink:href="#m18ca38e1da" x="338.522195" y="183.294795" style="fill: #1f77b4; stroke: #1f77b4"/>
     <use xlink:href="#m18ca38e1da" x="342.244325" y="183.294795" style="fill: #1f77b4; stroke: #1f77b4"/>
     <use xlink:href="#m18ca38e1da" x="345.966455" y="183.294795" style="fill: #1f77b4; stroke: #1f77b4"/>
     <use xlink:href="#m18ca38e1da" x="349.688586" y="183.294795" style="fill: #1f77b4; stroke: #1f77b4"/>
     <use xlink:href="#m18ca38e1da" x="353.410716" y="183.294795" style="fill: #1f77b4; stroke: #1f77b4"/>
     <use xlink:href="#m18ca38e1da" x="357.132847" y="183.294795" style="fill: #1f77b4; stroke: #1f77b4"/>
     <use xlink:href="#m18ca38e1da" x="360.854977" y="169.923105" style="fill: #1f77b4; stroke: #1f77b4"/>
     <use xlink:href="#m18ca38e1da" x="364.577107" y="169.923105" style="fill: #1f77b4; stroke: #1f77b4"/>
     <use xlink:href="#m18ca38e1da" x="368.299238" y="169.923105" style="fill: #1f77b4; stroke: #1f77b4"/>
     <use xlink:href="#m18ca38e1da" x="372.021368" y="169.923105" style="fill: #1f77b4; stroke: #1f77b4"/>
     <use xlink:href="#m18ca38e1da" x="375.743499" y="169.923105" style="fill: #1f77b4; stroke: #1f77b4"/>
     <use xlink:href="#m18ca38e1da" x="379.465629" y="156.551416" style="fill: #1f77b4; stroke: #1f77b4"/>
     <use xlink:href="#m18ca38e1da" x="383.187759" y="156.551416" style="fill: #1f77b4; stroke: #1f77b4"/>
     <use xlink:href="#m18ca38e1da" x="386.90989" y="156.551416" style="fill: #1f77b4; stroke: #1f77b4"/>
     <use xlink:href="#m18ca38e1da" x="390.63202" y="156.551416" style="fill: #1f77b4; stroke: #1f77b4"/>
     <use xlink:href="#m18ca38e1da" x="394.354151" y="143.179726" style="fill: #1f77b4; stroke: #1f77b4"/>
     <use xlink:href="#m18ca38e1da" x="398.076281" y="143.179726" style="fill: #1f77b4; stroke: #1f77b4"/>
     <use xlink:href="#m18ca38e1da" x="401.798411" y="143.179726" style="fill: #1f77b4; stroke: #1f77b4"/>
     <use xlink:href="#m18ca38e1da" x="405.520542" y="143.179726" style="fill: #1f77b4; stroke: #1f77b4"/>
     <use xlink:href="#m18ca38e1da" x="409.242672" y="143.179726" style="fill: #1f77b4; stroke: #1f77b4"/>
     <use xlink:href="#m18ca38e1da" x="412.964803" y="143.179726" style="fill: #1f77b4; stroke: #1f77b4"/>
     <use xlink:href="#m18ca38e1da" x="416.686933" y="143.179726" style="fill: #1f77b4; stroke: #1f77b4"/>
     <use xlink:href="#m18ca38e1da" x="420.409063" y="143.179726" style="fill: #1f77b4; stroke: #1f77b4"/>
     <use xlink:href="#m18ca38e1da" x="424.131194" y="143.179726" style="fill: #1f77b4; stroke: #1f77b4"/>
     <use xlink:href="#m18ca38e1da" x="427.853324" y="143.179726" style="fill: #1f77b4; stroke: #1f77b4"/>
     <use xlink:href="#m18ca38e1da" x="431.575455" y="143.179726" style="fill: #1f77b4; stroke: #1f77b4"/>
    </g>
   </g>
   <g id="line2d_30">
    <path d="M 63.084545 223.409863 
L 66.806676 196.666484 
L 70.528806 196.666484 
L 74.250937 183.294795 
L 77.973067 183.294795 
L 81.695197 183.294795 
L 85.417328 183.294795 
L 89.139458 183.294795 
L 92.861589 183.294795 
L 96.583719 183.294795 
L 100.305849 183.294795 
L 104.02798 183.294795 
L 107.75011 183.294795 
L 111.472241 183.294795 
L 115.194371 183.294795 
L 118.916501 183.294795 
L 122.638632 183.294795 
L 126.360762 183.294795 
L 130.082893 183.294795 
L 133.805023 183.294795 
L 137.527153 183.294795 
L 141.249284 183.294795 
L 144.971414 183.294795 
L 148.693545 183.294795 
L 152.415675 183.294795 
L 156.137805 183.294795 
L 159.859936 183.294795 
L 163.582066 183.294795 
L 167.304197 183.294795 
L 171.026327 183.294795 
L 174.748457 183.294795 
L 178.470588 183.294795 
L 182.192718 183.294795 
L 185.914848 183.294795 
L 189.636979 183.294795 
L 193.359109 183.294795 
L 197.08124 183.294795 
L 200.80337 183.294795 
L 204.5255 183.294795 
L 208.247631 169.923105 
L 211.969761 169.923105 
L 215.691892 169.923105 
L 219.414022 169.923105 
L 223.136152 169.923105 
L 226.858283 169.923105 
L 230.580413 169.923105 
L 234.302544 169.923105 
L 238.024674 169.923105 
L 241.746804 169.923105 
L 245.468935 169.923105 
L 249.191065 169.923105 
L 252.913196 169.923105 
L 256.635326 169.923105 
L 260.357456 156.551416 
L 264.079587 156.551416 
L 267.801717 156.551416 
L 271.523848 156.551416 
L 275.245978 156.551416 
L 278.968108 156.551416 
L 282.690239 156.551416 
L 286.412369 143.179726 
L 290.1345 143.179726 
L 293.85663 143.179726 
L 297.57876 143.179726 
L 301.300891 143.179726 
L 305.023021 143.179726 
L 308.745152 143.179726 
L 312.467282 143.179726 
L 316.189412 143.179726 
L 319.911543 143.179726 
L 323.633673 143.179726 
L 327.355803 143.179726 
L 331.077934 143.179726 
L 334.800064 143.179726 
L 338.522195 143.179726 
L 342.244325 143.179726 
L 345.966455 129.808037 
L 349.688586 129.808037 
L 353.410716 116.436347 
L 357.132847 116.436347 
L 360.854977 116.436347 
L 364.577107 103.064658 
L 368.299238 103.064658 
L 372.021368 103.064658 
L 375.743499 103.064658 
L 379.465629 103.064658 
L 383.187759 103.064658 
L 386.90989 103.064658 
L 390.63202 103.064658 
L 394.354151 103.064658 
L 398.076281 103.064658 
L 401.798411 103.064658 
L 405.520542 103.064658 
L 409.242672 103.064658 
L 412.964803 103.064658 
L 416.686933 103.064658 
L 420.409063 103.064658 
L 424.131194 76.321279 
L 427.853324 76.321279 
L 431.575455 22.834521 
" clip-path="url(#p3d22d119d3)" style="fill: none; stroke: #ff7f0e; stroke-width: 1.5; stroke-linecap: square"/>
    <defs>
     <path id="m2ef480c94e" d="M 0 3 
C 0.795609 3 1.55874 2.683901 2.12132 2.12132 
C 2.683901 1.55874 3 0.795609 3 0 
C 3 -0.795609 2.683901 -1.55874 2.12132 -2.12132 
C 1.55874 -2.683901 0.795609 -3 0 -3 
C -0.795609 -3 -1.55874 -2.683901 -2.12132 -2.12132 
C -2.683901 -1.55874 -3 -0.795609 -3 0 
C -3 0.795609 -2.683901 1.55874 -2.12132 2.12132 
C -1.55874 2.683901 -0.795609 3 0 3 
z
" style="stroke: #ff7f0e"/>
    </defs>
    <g clip-path="url(#p3d22d119d3)">
     <use xlink:href="#m2ef480c94e" x="63.084545" y="223.409863" style="fill: #ff7f0e; stroke: #ff7f0e"/>
     <use xlink:href="#m2ef480c94e" x="66.806676" y="196.666484" style="fill: #ff7f0e; stroke: #ff7f0e"/>
     <use xlink:href="#m2ef480c94e" x="70.528806" y="196.666484" style="fill: #ff7f0e; stroke: #ff7f0e"/>
     <use xlink:href="#m2ef480c94e" x="74.250937" y="183.294795" style="fill: #ff7f0e; stroke: #ff7f0e"/>
     <use xlink:href="#m2ef480c94e" x="77.973067" y="183.294795" style="fill: #ff7f0e; stroke: #ff7f0e"/>
     <use xlink:href="#m2ef480c94e" x="81.695197" y="183.294795" style="fill: #ff7f0e; stroke: #ff7f0e"/>
     <use xlink:href="#m2ef480c94e" x="85.417328" y="183.294795" style="fill: #ff7f0e; stroke: #ff7f0e"/>
     <use xlink:href="#m2ef480c94e" x="89.139458" y="183.294795" style="fill: #ff7f0e; stroke: #ff7f0e"/>
     <use xlink:href="#m2ef480c94e" x="92.861589" y="183.294795" style="fill: #ff7f0e; stroke: #ff7f0e"/>
     <use xlink:href="#m2ef480c94e" x="96.583719" y="183.294795" style="fill: #ff7f0e; stroke: #ff7f0e"/>
     <use xlink:href="#m2ef480c94e" x="100.305849" y="183.294795" style="fill: #ff7f0e; stroke: #ff7f0e"/>
     <use xlink:href="#m2ef480c94e" x="104.02798" y="183.294795" style="fill: #ff7f0e; stroke: #ff7f0e"/>
     <use xlink:href="#m2ef480c94e" x="107.75011" y="183.294795" style="fill: #ff7f0e; stroke: #ff7f0e"/>
     <use xlink:href="#m2ef480c94e" x="111.472241" y="183.294795" style="fill: #ff7f0e; stroke: #ff7f0e"/>
     <use xlink:href="#m2ef480c94e" x="115.194371" y="183.294795" style="fill: #ff7f0e; stroke: #ff7f0e"/>
     <use xlink:href="#m2ef480c94e" x="118.916501" y="183.294795" style="fill: #ff7f0e; stroke: #ff7f0e"/>
     <use xlink:href="#m2ef480c94e" x="122.638632" y="183.294795" style="fill: #ff7f0e; stroke: #ff7f0e"/>
     <use xlink:href="#m2ef480c94e" x="126.360762" y="183.294795" style="fill: #ff7f0e; stroke: #ff7f0e"/>
     <use xlink:href="#m2ef480c94e" x="130.082893" y="183.294795" style="fill: #ff7f0e; stroke: #ff7f0e"/>
     <use xlink:href="#m2ef480c94e" x="133.805023" y="183.294795" style="fill: #ff7f0e; stroke: #ff7f0e"/>
     <use xlink:href="#m2ef480c94e" x="137.527153" y="183.294795" style="fill: #ff7f0e; stroke: #ff7f0e"/>
     <use xlink:href="#m2ef480c94e" x="141.249284" y="183.294795" style="fill: #ff7f0e; stroke: #ff7f0e"/>
     <use xlink:href="#m2ef480c94e" x="144.971414" y="183.294795" style="fill: #ff7f0e; stroke: #ff7f0e"/>
     <use xlink:href="#m2ef480c94e" x="148.693545" y="183.294795" style="fill: #ff7f0e; stroke: #ff7f0e"/>
     <use xlink:href="#m2ef480c94e" x="152.415675" y="183.294795" style="fill: #ff7f0e; stroke: #ff7f0e"/>
     <use xlink:href="#m2ef480c94e" x="156.137805" y="183.294795" style="fill: #ff7f0e; stroke: #ff7f0e"/>
     <use xlink:href="#m2ef480c94e" x="159.859936" y="183.294795" style="fill: #ff7f0e; stroke: #ff7f0e"/>
     <use xlink:href="#m2ef480c94e" x="163.582066" y="183.294795" style="fill: #ff7f0e; stroke: #ff7f0e"/>
     <use xlink:href="#m2ef480c94e" x="167.304197" y="183.294795" style="fill: #ff7f0e; stroke: #ff7f0e"/>
     <use xlink:href="#m2ef480c94e" x="171.026327" y="183.294795" style="fill: #ff7f0e; stroke: #ff7f0e"/>
     <use xlink:href="#m2ef480c94e" x="174.748457" y="183.294795" style="fill: #ff7f0e; stroke: #ff7f0e"/>
     <use xlink:href="#m2ef480c94e" x="178.470588" y="183.294795" style="fill: #ff7f0e; stroke: #ff7f0e"/>
     <use xlink:href="#m2ef480c94e" x="182.192718" y="183.294795" style="fill: #ff7f0e; stroke: #ff7f0e"/>
     <use xlink:href="#m2ef480c94e" x="185.914848" y="183.294795" style="fill: #ff7f0e; stroke: #ff7f0e"/>
     <use xlink:href="#m2ef480c94e" x="189.636979" y="183.294795" style="fill: #ff7f0e; stroke: #ff7f0e"/>
     <use xlink:href="#m2ef480c94e" x="193.359109" y="183.294795" style="fill: #ff7f0e; stroke: #ff7f0e"/>
     <use xlink:href="#m2ef480c94e" x="197.08124" y="183.294795" style="fill: #ff7f0e; stroke: #ff7f0e"/>
     <use xlink:href="#m2ef480c94e" x="200.80337" y="183.294795" style="fill: #ff7f0e; stroke: #ff7f0e"/>
     <use xlink:href="#m2ef480c94e" x="204.5255" y="183.294795" style="fill: #ff7f0e; stroke: #ff7f0e"/>
     <use xlink:href="#m2ef480c94e" x="208.247631" y="169.923105" style="fill: #ff7f0e; stroke: #ff7f0e"/>
     <use xlink:href="#m2ef480c94e" x="211.969761" y="169.923105" style="fill: #ff7f0e; stroke: #ff7f0e"/>
     <use xlink:href="#m2ef480c94e" x="215.691892" y="169.923105" style="fill: #ff7f0e; stroke: #ff7f0e"/>
     <use xlink:href="#m2ef480c94e" x="219.414022" y="169.923105" style="fill: #ff7f0e; stroke: #ff7f0e"/>
     <use xlink:href="#m2ef480c94e" x="223.136152" y="169.923105" style="fill: #ff7f0e; stroke: #ff7f0e"/>
     <use xlink:href="#m2ef480c94e" x="226.858283" y="169.923105" style="fill: #ff7f0e; stroke: #ff7f0e"/>
     <use xlink:href="#m2ef480c94e" x="230.580413" y="169.923105" style="fill: #ff7f0e; stroke: #ff7f0e"/>
     <use xlink:href="#m2ef480c94e" x="234.302544" y="169.923105" style="fill: #ff7f0e; stroke: #ff7f0e"/>
     <use xlink:href="#m2ef480c94e" x="238.024674" y="169.923105" style="fill: #ff7f0e; stroke: #ff7f0e"/>
     <use xlink:href="#m2ef480c94e" x="241.746804" y="169.923105" style="fill: #ff7f0e; stroke: #ff7f0e"/>
     <use xlink:href="#m2ef480c94e" x="245.468935" y="169.923105" style="fill: #ff7f0e; stroke: #ff7f0e"/>
     <use xlink:href="#m2ef480c94e" x="249.191065" y="169.923105" style="fill: #ff7f0e; stroke: #ff7f0e"/>
     <use xlink:href="#m2ef480c94e" x="252.913196" y="169.923105" style="fill: #ff7f0e; stroke: #ff7f0e"/>
     <use xlink:href="#m2ef480c94e" x="256.635326" y="169.923105" style="fill: #ff7f0e; stroke: #ff7f0e"/>
     <use xlink:href="#m2ef480c94e" x="260.357456" y="156.551416" style="fill: #ff7f0e; stroke: #ff7f0e"/>
     <use xlink:href="#m2ef480c94e" x="264.079587" y="156.551416" style="fill: #ff7f0e; stroke: #ff7f0e"/>
     <use xlink:href="#m2ef480c94e" x="267.801717" y="156.551416" style="fill: #ff7f0e; stroke: #ff7f0e"/>
     <use xlink:href="#m2ef480c94e" x="271.523848" y="156.551416" style="fill: #ff7f0e; stroke: #ff7f0e"/>
     <use xlink:href="#m2ef480c94e" x="275.245978" y="156.551416" style="fill: #ff7f0e; stroke: #ff7f0e"/>
     <use xlink:href="#m2ef480c94e" x="278.968108" y="156.551416" style="fill: #ff7f0e; stroke: #ff7f0e"/>
     <use xlink:href="#m2ef480c94e" x="282.690239" y="156.551416" style="fill: #ff7f0e; stroke: #ff7f0e"/>
     <use xlink:href="#m2ef480c94e" x="286.412369" y="143.179726" style="fill: #ff7f0e; stroke: #ff7f0e"/>
     <use xlink:href="#m2ef480c94e" x="290.1345" y="143.179726" style="fill: #ff7f0e; stroke: #ff7f0e"/>
     <use xlink:href="#m2ef480c94e" x="293.85663" y="143.179726" style="fill: #ff7f0e; stroke: #ff7f0e"/>
     <use xlink:href="#m2ef480c94e" x="297.57876" y="143.179726" style="fill: #ff7f0e; stroke: #ff7f0e"/>
     <use xlink:href="#m2ef480c94e" x="301.300891" y="143.179726" style="fill: #ff7f0e; stroke: #ff7f0e"/>
     <use xlink:href="#m2ef480c94e" x="305.023021" y="143.179726" style="fill: #ff7f0e; stroke: #ff7f0e"/>
     <use xlink:href="#m2ef480c94e" x="308.745152" y="143.179726" style="fill: #ff7f0e; stroke: #ff7f0e"/>
     <use xlink:href="#m2ef480c94e" x="312.467282" y="143.179726" style="fill: #ff7f0e; stroke: #ff7f0e"/>
     <use xlink:href="#m2ef480c94e" x="316.189412" y="143.179726" style="fill: #ff7f0e; stroke: #ff7f0e"/>
     <use xlink:href="#m2ef480c94e" x="319.911543" y="143.179726" style="fill: #ff7f0e; stroke: #ff7f0e"/>
     <use xlink:href="#m2ef480c94e" x="323.633673" y="143.179726" style="fill: #ff7f0e; stroke: #ff7f0e"/>
     <use xlink:href="#m2ef480c94e" x="327.355803" y="143.179726" style="fill: #ff7f0e; stroke: #ff7f0e"/>
     <use xlink:href="#m2ef480c94e" x="331.077934" y="143.179726" style="fill: #ff7f0e; stroke: #ff7f0e"/>
     <use xlink:href="#m2ef480c94e" x="334.800064" y="143.179726" style="fill: #ff7f0e; stroke: #ff7f0e"/>
     <use xlink:href="#m2ef480c94e" x="338.522195" y="143.179726" style="fill: #ff7f0e; stroke: #ff7f0e"/>
     <use xlink:href="#m2ef480c94e" x="342.244325" y="143.179726" style="fill: #ff7f0e; stroke: #ff7f0e"/>
     <use xlink:href="#m2ef480c94e" x="345.966455" y="129.808037" style="fill: #ff7f0e; stroke: #ff7f0e"/>
     <use xlink:href="#m2ef480c94e" x="349.688586" y="129.808037" style="fill: #ff7f0e; stroke: #ff7f0e"/>
     <use xlink:href="#m2ef480c94e" x="353.410716" y="116.436347" style="fill: #ff7f0e; stroke: #ff7f0e"/>
     <use xlink:href="#m2ef480c94e" x="357.132847" y="116.436347" style="fill: #ff7f0e; stroke: #ff7f0e"/>
     <use xlink:href="#m2ef480c94e" x="360.854977" y="116.436347" style="fill: #ff7f0e; stroke: #ff7f0e"/>
     <use xlink:href="#m2ef480c94e" x="364.577107" y="103.064658" style="fill: #ff7f0e; stroke: #ff7f0e"/>
     <use xlink:href="#m2ef480c94e" x="368.299238" y="103.064658" style="fill: #ff7f0e; stroke: #ff7f0e"/>
     <use xlink:href="#m2ef480c94e" x="372.021368" y="103.064658" style="fill: #ff7f0e; stroke: #ff7f0e"/>
     <use xlink:href="#m2ef480c94e" x="375.743499" y="103.064658" style="fill: #ff7f0e; stroke: #ff7f0e"/>
     <use xlink:href="#m2ef480c94e" x="379.465629" y="103.064658" style="fill: #ff7f0e; stroke: #ff7f0e"/>
     <use xlink:href="#m2ef480c94e" x="383.187759" y="103.064658" style="fill: #ff7f0e; stroke: #ff7f0e"/>
     <use xlink:href="#m2ef480c94e" x="386.90989" y="103.064658" style="fill: #ff7f0e; stroke: #ff7f0e"/>
     <use xlink:href="#m2ef480c94e" x="390.63202" y="103.064658" style="fill: #ff7f0e; stroke: #ff7f0e"/>
     <use xlink:href="#m2ef480c94e" x="394.354151" y="103.064658" style="fill: #ff7f0e; stroke: #ff7f0e"/>
     <use xlink:href="#m2ef480c94e" x="398.076281" y="103.064658" style="fill: #ff7f0e; stroke: #ff7f0e"/>
     <use xlink:href="#m2ef480c94e" x="401.798411" y="103.064658" style="fill: #ff7f0e; stroke: #ff7f0e"/>
     <use xlink:href="#m2ef480c94e" x="405.520542" y="103.064658" style="fill: #ff7f0e; stroke: #ff7f0e"/>
     <use xlink:href="#m2ef480c94e" x="409.242672" y="103.064658" style="fill: #ff7f0e; stroke: #ff7f0e"/>
     <use xlink:href="#m2ef480c94e" x="412.964803" y="103.064658" style="fill: #ff7f0e; stroke: #ff7f0e"/>
     <use xlink:href="#m2ef480c94e" x="416.686933" y="103.064658" style="fill: #ff7f0e; stroke: #ff7f0e"/>
     <use xlink:href="#m2ef480c94e" x="420.409063" y="103.064658" style="fill: #ff7f0e; stroke: #ff7f0e"/>
     <use xlink:href="#m2ef480c94e" x="424.131194" y="76.321279" style="fill: #ff7f0e; stroke: #ff7f0e"/>
     <use xlink:href="#m2ef480c94e" x="427.853324" y="76.321279" style="fill: #ff7f0e; stroke: #ff7f0e"/>
     <use xlink:href="#m2ef480c94e" x="431.575455" y="22.834521" style="fill: #ff7f0e; stroke: #ff7f0e"/>
    </g>
   </g>
   <g id="line2d_31">
    <path d="M 63.084545 223.409863 
L 66.806676 210.038174 
L 70.528806 210.038174 
L 74.250937 196.666484 
L 77.973067 183.294795 
L 81.695197 183.294795 
L 85.417328 183.294795 
L 89.139458 183.294795 
L 92.861589 169.923105 
L 96.583719 169.923105 
L 100.305849 169.923105 
L 104.02798 169.923105 
L 107.75011 169.923105 
L 111.472241 169.923105 
L 115.194371 169.923105 
L 118.916501 156.551416 
L 122.638632 156.551416 
L 126.360762 156.551416 
L 130.082893 156.551416 
L 133.805023 156.551416 
L 137.527153 156.551416 
L 141.249284 156.551416 
L 144.971414 143.179726 
L 148.693545 129.808037 
L 152.415675 129.808037 
L 156.137805 129.808037 
L 159.859936 129.808037 
L 163.582066 129.808037 
L 167.304197 129.808037 
L 171.026327 129.808037 
L 174.748457 129.808037 
L 178.470588 129.808037 
L 182.192718 129.808037 
L 185.914848 129.808037 
L 189.636979 129.808037 
L 193.359109 129.808037 
L 197.08124 129.808037 
L 200.80337 129.808037 
L 204.5255 129.808037 
L 208.247631 129.808037 
L 211.969761 129.808037 
L 215.691892 129.808037 
L 219.414022 129.808037 
L 223.136152 129.808037 
L 226.858283 129.808037 
L 230.580413 129.808037 
L 234.302544 129.808037 
L 238.024674 129.808037 
L 241.746804 129.808037 
L 245.468935 129.808037 
L 249.191065 129.808037 
L 252.913196 129.808037 
L 256.635326 129.808037 
L 260.357456 129.808037 
L 264.079587 129.808037 
L 267.801717 129.808037 
L 271.523848 129.808037 
L 275.245978 116.436347 
L 278.968108 116.436347 
L 282.690239 116.436347 
L 286.412369 116.436347 
L 290.1345 116.436347 
L 293.85663 116.436347 
L 297.57876 116.436347 
L 301.300891 116.436347 
L 305.023021 116.436347 
L 308.745152 103.064658 
L 312.467282 103.064658 
L 316.189412 103.064658 
L 319.911543 103.064658 
L 323.633673 103.064658 
L 327.355803 103.064658 
L 331.077934 103.064658 
L 334.800064 103.064658 
L 338.522195 103.064658 
L 342.244325 103.064658 
L 345.966455 103.064658 
L 349.688586 103.064658 
L 353.410716 103.064658 
L 357.132847 103.064658 
L 360.854977 103.064658 
L 364.577107 103.064658 
L 368.299238 103.064658 
L 372.021368 103.064658 
L 375.743499 103.064658 
L 379.465629 103.064658 
L 383.187759 103.064658 
L 386.90989 103.064658 
L 390.63202 103.064658 
L 394.354151 103.064658 
L 398.076281 103.064658 
L 401.798411 103.064658 
L 405.520542 103.064658 
L 409.242672 103.064658 
L 412.964803 103.064658 
L 416.686933 103.064658 
L 420.409063 103.064658 
L 424.131194 103.064658 
L 427.853324 103.064658 
L 431.575455 89.692968 
" clip-path="url(#p3d22d119d3)" style="fill: none; stroke: #2ca02c; stroke-width: 1.5; stroke-linecap: square"/>
    <defs>
     <path id="m86ac68565e" d="M 0 3 
C 0.795609 3 1.55874 2.683901 2.12132 2.12132 
C 2.683901 1.55874 3 0.795609 3 0 
C 3 -0.795609 2.683901 -1.55874 2.12132 -2.12132 
C 1.55874 -2.683901 0.795609 -3 0 -3 
C -0.795609 -3 -1.55874 -2.683901 -2.12132 -2.12132 
C -2.683901 -1.55874 -3 -0.795609 -3 0 
C -3 0.795609 -2.683901 1.55874 -2.12132 2.12132 
C -1.55874 2.683901 -0.795609 3 0 3 
z
" style="stroke: #2ca02c"/>
    </defs>
    <g clip-path="url(#p3d22d119d3)">
     <use xlink:href="#m86ac68565e" x="63.084545" y="223.409863" style="fill: #2ca02c; stroke: #2ca02c"/>
     <use xlink:href="#m86ac68565e" x="66.806676" y="210.038174" style="fill: #2ca02c; stroke: #2ca02c"/>
     <use xlink:href="#m86ac68565e" x="70.528806" y="210.038174" style="fill: #2ca02c; stroke: #2ca02c"/>
     <use xlink:href="#m86ac68565e" x="74.250937" y="196.666484" style="fill: #2ca02c; stroke: #2ca02c"/>
     <use xlink:href="#m86ac68565e" x="77.973067" y="183.294795" style="fill: #2ca02c; stroke: #2ca02c"/>
     <use xlink:href="#m86ac68565e" x="81.695197" y="183.294795" style="fill: #2ca02c; stroke: #2ca02c"/>
     <use xlink:href="#m86ac68565e" x="85.417328" y="183.294795" style="fill: #2ca02c; stroke: #2ca02c"/>
     <use xlink:href="#m86ac68565e" x="89.139458" y="183.294795" style="fill: #2ca02c; stroke: #2ca02c"/>
     <use xlink:href="#m86ac68565e" x="92.861589" y="169.923105" style="fill: #2ca02c; stroke: #2ca02c"/>
     <use xlink:href="#m86ac68565e" x="96.583719" y="169.923105" style="fill: #2ca02c; stroke: #2ca02c"/>
     <use xlink:href="#m86ac68565e" x="100.305849" y="169.923105" style="fill: #2ca02c; stroke: #2ca02c"/>
     <use xlink:href="#m86ac68565e" x="104.02798" y="169.923105" style="fill: #2ca02c; stroke: #2ca02c"/>
     <use xlink:href="#m86ac68565e" x="107.75011" y="169.923105" style="fill: #2ca02c; stroke: #2ca02c"/>
     <use xlink:href="#m86ac68565e" x="111.472241" y="169.923105" style="fill: #2ca02c; stroke: #2ca02c"/>
     <use xlink:href="#m86ac68565e" x="115.194371" y="169.923105" style="fill: #2ca02c; stroke: #2ca02c"/>
     <use xlink:href="#m86ac68565e" x="118.916501" y="156.551416" style="fill: #2ca02c; stroke: #2ca02c"/>
     <use xlink:href="#m86ac68565e" x="122.638632" y="156.551416" style="fill: #2ca02c; stroke: #2ca02c"/>
     <use xlink:href="#m86ac68565e" x="126.360762" y="156.551416" style="fill: #2ca02c; stroke: #2ca02c"/>
     <use xlink:href="#m86ac68565e" x="130.082893" y="156.551416" style="fill: #2ca02c; stroke: #2ca02c"/>
     <use xlink:href="#m86ac68565e" x="133.805023" y="156.551416" style="fill: #2ca02c; stroke: #2ca02c"/>
     <use xlink:href="#m86ac68565e" x="137.527153" y="156.551416" style="fill: #2ca02c; stroke: #2ca02c"/>
     <use xlink:href="#m86ac68565e" x="141.249284" y="156.551416" style="fill: #2ca02c; stroke: #2ca02c"/>
     <use xlink:href="#m86ac68565e" x="144.971414" y="143.179726" style="fill: #2ca02c; stroke: #2ca02c"/>
     <use xlink:href="#m86ac68565e" x="148.693545" y="129.808037" style="fill: #2ca02c; stroke: #2ca02c"/>
     <use xlink:href="#m86ac68565e" x="152.415675" y="129.808037" style="fill: #2ca02c; stroke: #2ca02c"/>
     <use xlink:href="#m86ac68565e" x="156.137805" y="129.808037" style="fill: #2ca02c; stroke: #2ca02c"/>
     <use xlink:href="#m86ac68565e" x="159.859936" y="129.808037" style="fill: #2ca02c; stroke: #2ca02c"/>
     <use xlink:href="#m86ac68565e" x="163.582066" y="129.808037" style="fill: #2ca02c; stroke: #2ca02c"/>
     <use xlink:href="#m86ac68565e" x="167.304197" y="129.808037" style="fill: #2ca02c; stroke: #2ca02c"/>
     <use xlink:href="#m86ac68565e" x="171.026327" y="129.808037" style="fill: #2ca02c; stroke: #2ca02c"/>
     <use xlink:href="#m86ac68565e" x="174.748457" y="129.808037" style="fill: #2ca02c; stroke: #2ca02c"/>
     <use xlink:href="#m86ac68565e" x="178.470588" y="129.808037" style="fill: #2ca02c; stroke: #2ca02c"/>
     <use xlink:href="#m86ac68565e" x="182.192718" y="129.808037" style="fill: #2ca02c; stroke: #2ca02c"/>
     <use xlink:href="#m86ac68565e" x="185.914848" y="129.808037" style="fill: #2ca02c; stroke: #2ca02c"/>
     <use xlink:href="#m86ac68565e" x="189.636979" y="129.808037" style="fill: #2ca02c; stroke: #2ca02c"/>
     <use xlink:href="#m86ac68565e" x="193.359109" y="129.808037" style="fill: #2ca02c; stroke: #2ca02c"/>
     <use xlink:href="#m86ac68565e" x="197.08124" y="129.808037" style="fill: #2ca02c; stroke: #2ca02c"/>
     <use xlink:href="#m86ac68565e" x="200.80337" y="129.808037" style="fill: #2ca02c; stroke: #2ca02c"/>
     <use xlink:href="#m86ac68565e" x="204.5255" y="129.808037" style="fill: #2ca02c; stroke: #2ca02c"/>
     <use xlink:href="#m86ac68565e" x="208.247631" y="129.808037" style="fill: #2ca02c; stroke: #2ca02c"/>
     <use xlink:href="#m86ac68565e" x="211.969761" y="129.808037" style="fill: #2ca02c; stroke: #2ca02c"/>
     <use xlink:href="#m86ac68565e" x="215.691892" y="129.808037" style="fill: #2ca02c; stroke: #2ca02c"/>
     <use xlink:href="#m86ac68565e" x="219.414022" y="129.808037" style="fill: #2ca02c; stroke: #2ca02c"/>
     <use xlink:href="#m86ac68565e" x="223.136152" y="129.808037" style="fill: #2ca02c; stroke: #2ca02c"/>
     <use xlink:href="#m86ac68565e" x="226.858283" y="129.808037" style="fill: #2ca02c; stroke: #2ca02c"/>
     <use xlink:href="#m86ac68565e" x="230.580413" y="129.808037" style="fill: #2ca02c; stroke: #2ca02c"/>
     <use xlink:href="#m86ac68565e" x="234.302544" y="129.808037" style="fill: #2ca02c; stroke: #2ca02c"/>
     <use xlink:href="#m86ac68565e" x="238.024674" y="129.808037" style="fill: #2ca02c; stroke: #2ca02c"/>
     <use xlink:href="#m86ac68565e" x="241.746804" y="129.808037" style="fill: #2ca02c; stroke: #2ca02c"/>
     <use xlink:href="#m86ac68565e" x="245.468935" y="129.808037" style="fill: #2ca02c; stroke: #2ca02c"/>
     <use xlink:href="#m86ac68565e" x="249.191065" y="129.808037" style="fill: #2ca02c; stroke: #2ca02c"/>
     <use xlink:href="#m86ac68565e" x="252.913196" y="129.808037" style="fill: #2ca02c; stroke: #2ca02c"/>
     <use xlink:href="#m86ac68565e" x="256.635326" y="129.808037" style="fill: #2ca02c; stroke: #2ca02c"/>
     <use xlink:href="#m86ac68565e" x="260.357456" y="129.808037" style="fill: #2ca02c; stroke: #2ca02c"/>
     <use xlink:href="#m86ac68565e" x="264.079587" y="129.808037" style="fill: #2ca02c; stroke: #2ca02c"/>
     <use xlink:href="#m86ac68565e" x="267.801717" y="129.808037" style="fill: #2ca02c; stroke: #2ca02c"/>
     <use xlink:href="#m86ac68565e" x="271.523848" y="129.808037" style="fill: #2ca02c; stroke: #2ca02c"/>
     <use xlink:href="#m86ac68565e" x="275.245978" y="116.436347" style="fill: #2ca02c; stroke: #2ca02c"/>
     <use xlink:href="#m86ac68565e" x="278.968108" y="116.436347" style="fill: #2ca02c; stroke: #2ca02c"/>
     <use xlink:href="#m86ac68565e" x="282.690239" y="116.436347" style="fill: #2ca02c; stroke: #2ca02c"/>
     <use xlink:href="#m86ac68565e" x="286.412369" y="116.436347" style="fill: #2ca02c; stroke: #2ca02c"/>
     <use xlink:href="#m86ac68565e" x="290.1345" y="116.436347" style="fill: #2ca02c; stroke: #2ca02c"/>
     <use xlink:href="#m86ac68565e" x="293.85663" y="116.436347" style="fill: #2ca02c; stroke: #2ca02c"/>
     <use xlink:href="#m86ac68565e" x="297.57876" y="116.436347" style="fill: #2ca02c; stroke: #2ca02c"/>
     <use xlink:href="#m86ac68565e" x="301.300891" y="116.436347" style="fill: #2ca02c; stroke: #2ca02c"/>
     <use xlink:href="#m86ac68565e" x="305.023021" y="116.436347" style="fill: #2ca02c; stroke: #2ca02c"/>
     <use xlink:href="#m86ac68565e" x="308.745152" y="103.064658" style="fill: #2ca02c; stroke: #2ca02c"/>
     <use xlink:href="#m86ac68565e" x="312.467282" y="103.064658" style="fill: #2ca02c; stroke: #2ca02c"/>
     <use xlink:href="#m86ac68565e" x="316.189412" y="103.064658" style="fill: #2ca02c; stroke: #2ca02c"/>
     <use xlink:href="#m86ac68565e" x="319.911543" y="103.064658" style="fill: #2ca02c; stroke: #2ca02c"/>
     <use xlink:href="#m86ac68565e" x="323.633673" y="103.064658" style="fill: #2ca02c; stroke: #2ca02c"/>
     <use xlink:href="#m86ac68565e" x="327.355803" y="103.064658" style="fill: #2ca02c; stroke: #2ca02c"/>
     <use xlink:href="#m86ac68565e" x="331.077934" y="103.064658" style="fill: #2ca02c; stroke: #2ca02c"/>
     <use xlink:href="#m86ac68565e" x="334.800064" y="103.064658" style="fill: #2ca02c; stroke: #2ca02c"/>
     <use xlink:href="#m86ac68565e" x="338.522195" y="103.064658" style="fill: #2ca02c; stroke: #2ca02c"/>
     <use xlink:href="#m86ac68565e" x="342.244325" y="103.064658" style="fill: #2ca02c; stroke: #2ca02c"/>
     <use xlink:href="#m86ac68565e" x="345.966455" y="103.064658" style="fill: #2ca02c; stroke: #2ca02c"/>
     <use xlink:href="#m86ac68565e" x="349.688586" y="103.064658" style="fill: #2ca02c; stroke: #2ca02c"/>
     <use xlink:href="#m86ac68565e" x="353.410716" y="103.064658" style="fill: #2ca02c; stroke: #2ca02c"/>
     <use xlink:href="#m86ac68565e" x="357.132847" y="103.064658" style="fill: #2ca02c; stroke: #2ca02c"/>
     <use xlink:href="#m86ac68565e" x="360.854977" y="103.064658" style="fill: #2ca02c; stroke: #2ca02c"/>
     <use xlink:href="#m86ac68565e" x="364.577107" y="103.064658" style="fill: #2ca02c; stroke: #2ca02c"/>
     <use xlink:href="#m86ac68565e" x="368.299238" y="103.064658" style="fill: #2ca02c; stroke: #2ca02c"/>
     <use xlink:href="#m86ac68565e" x="372.021368" y="103.064658" style="fill: #2ca02c; stroke: #2ca02c"/>
     <use xlink:href="#m86ac68565e" x="375.743499" y="103.064658" style="fill: #2ca02c; stroke: #2ca02c"/>
     <use xlink:href="#m86ac68565e" x="379.465629" y="103.064658" style="fill: #2ca02c; stroke: #2ca02c"/>
     <use xlink:href="#m86ac68565e" x="383.187759" y="103.064658" style="fill: #2ca02c; stroke: #2ca02c"/>
     <use xlink:href="#m86ac68565e" x="386.90989" y="103.064658" style="fill: #2ca02c; stroke: #2ca02c"/>
     <use xlink:href="#m86ac68565e" x="390.63202" y="103.064658" style="fill: #2ca02c; stroke: #2ca02c"/>
     <use xlink:href="#m86ac68565e" x="394.354151" y="103.064658" style="fill: #2ca02c; stroke: #2ca02c"/>
     <use xlink:href="#m86ac68565e" x="398.076281" y="103.064658" style="fill: #2ca02c; stroke: #2ca02c"/>
     <use xlink:href="#m86ac68565e" x="401.798411" y="103.064658" style="fill: #2ca02c; stroke: #2ca02c"/>
     <use xlink:href="#m86ac68565e" x="405.520542" y="103.064658" style="fill: #2ca02c; stroke: #2ca02c"/>
     <use xlink:href="#m86ac68565e" x="409.242672" y="103.064658" style="fill: #2ca02c; stroke: #2ca02c"/>
     <use xlink:href="#m86ac68565e" x="412.964803" y="103.064658" style="fill: #2ca02c; stroke: #2ca02c"/>
     <use xlink:href="#m86ac68565e" x="416.686933" y="103.064658" style="fill: #2ca02c; stroke: #2ca02c"/>
     <use xlink:href="#m86ac68565e" x="420.409063" y="103.064658" style="fill: #2ca02c; stroke: #2ca02c"/>
     <use xlink:href="#m86ac68565e" x="424.131194" y="103.064658" style="fill: #2ca02c; stroke: #2ca02c"/>
     <use xlink:href="#m86ac68565e" x="427.853324" y="103.064658" style="fill: #2ca02c; stroke: #2ca02c"/>
     <use xlink:href="#m86ac68565e" x="431.575455" y="89.692968" style="fill: #2ca02c; stroke: #2ca02c"/>
    </g>
   </g>
   <g id="line2d_32">
    <path d="M 63.084545 223.409863 
L 66.806676 210.038174 
L 70.528806 196.666484 
L 74.250937 196.666484 
L 77.973067 196.666484 
L 81.695197 196.666484 
L 85.417328 196.666484 
L 89.139458 196.666484 
L 92.861589 183.294795 
L 96.583719 183.294795 
L 100.305849 183.294795 
L 104.02798 183.294795 
L 107.75011 169.923105 
L 111.472241 156.551416 
L 115.194371 156.551416 
L 118.916501 156.551416 
L 122.638632 143.179726 
L 126.360762 143.179726 
L 130.082893 143.179726 
L 133.805023 143.179726 
L 137.527153 143.179726 
L 141.249284 143.179726 
L 144.971414 143.179726 
L 148.693545 143.179726 
L 152.415675 143.179726 
L 156.137805 143.179726 
L 159.859936 143.179726 
L 163.582066 143.179726 
L 167.304197 143.179726 
L 171.026327 143.179726 
L 174.748457 143.179726 
L 178.470588 143.179726 
L 182.192718 143.179726 
L 185.914848 143.179726 
L 189.636979 143.179726 
L 193.359109 143.179726 
L 197.08124 143.179726 
L 200.80337 143.179726 
L 204.5255 143.179726 
L 208.247631 143.179726 
L 211.969761 143.179726 
L 215.691892 143.179726 
L 219.414022 143.179726 
L 223.136152 143.179726 
L 226.858283 143.179726 
L 230.580413 143.179726 
L 234.302544 143.179726 
L 238.024674 143.179726 
L 241.746804 143.179726 
L 245.468935 143.179726 
L 249.191065 129.808037 
L 252.913196 129.808037 
L 256.635326 129.808037 
L 260.357456 129.808037 
L 264.079587 129.808037 
L 267.801717 129.808037 
L 271.523848 129.808037 
L 275.245978 129.808037 
L 278.968108 129.808037 
L 282.690239 129.808037 
L 286.412369 129.808037 
L 290.1345 129.808037 
L 293.85663 129.808037 
L 297.57876 129.808037 
L 301.300891 129.808037 
L 305.023021 129.808037 
L 308.745152 116.436347 
L 312.467282 116.436347 
L 316.189412 116.436347 
L 319.911543 116.436347 
L 323.633673 116.436347 
L 327.355803 116.436347 
L 331.077934 116.436347 
L 334.800064 116.436347 
L 338.522195 116.436347 
L 342.244325 116.436347 
L 345.966455 116.436347 
L 349.688586 116.436347 
L 353.410716 116.436347 
L 357.132847 116.436347 
L 360.854977 116.436347 
L 364.577107 116.436347 
L 368.299238 116.436347 
L 372.021368 116.436347 
L 375.743499 116.436347 
L 379.465629 116.436347 
L 383.187759 116.436347 
L 386.90989 116.436347 
L 390.63202 116.436347 
L 394.354151 103.064658 
L 398.076281 103.064658 
L 401.798411 89.692968 
L 405.520542 89.692968 
L 409.242672 89.692968 
L 412.964803 89.692968 
L 416.686933 89.692968 
L 420.409063 89.692968 
L 424.131194 89.692968 
L 427.853324 89.692968 
L 431.575455 89.692968 
" clip-path="url(#p3d22d119d3)" style="fill: none; stroke: #d62728; stroke-width: 1.5; stroke-linecap: square"/>
    <defs>
     <path id="m73c56b6598" d="M 0 3 
C 0.795609 3 1.55874 2.683901 2.12132 2.12132 
C 2.683901 1.55874 3 0.795609 3 0 
C 3 -0.795609 2.683901 -1.55874 2.12132 -2.12132 
C 1.55874 -2.683901 0.795609 -3 0 -3 
C -0.795609 -3 -1.55874 -2.683901 -2.12132 -2.12132 
C -2.683901 -1.55874 -3 -0.795609 -3 0 
C -3 0.795609 -2.683901 1.55874 -2.12132 2.12132 
C -1.55874 2.683901 -0.795609 3 0 3 
z
" style="stroke: #d62728"/>
    </defs>
    <g clip-path="url(#p3d22d119d3)">
     <use xlink:href="#m73c56b6598" x="63.084545" y="223.409863" style="fill: #d62728; stroke: #d62728"/>
     <use xlink:href="#m73c56b6598" x="66.806676" y="210.038174" style="fill: #d62728; stroke: #d62728"/>
     <use xlink:href="#m73c56b6598" x="70.528806" y="196.666484" style="fill: #d62728; stroke: #d62728"/>
     <use xlink:href="#m73c56b6598" x="74.250937" y="196.666484" style="fill: #d62728; stroke: #d62728"/>
     <use xlink:href="#m73c56b6598" x="77.973067" y="196.666484" style="fill: #d62728; stroke: #d62728"/>
     <use xlink:href="#m73c56b6598" x="81.695197" y="196.666484" style="fill: #d62728; stroke: #d62728"/>
     <use xlink:href="#m73c56b6598" x="85.417328" y="196.666484" style="fill: #d62728; stroke: #d62728"/>
     <use xlink:href="#m73c56b6598" x="89.139458" y="196.666484" style="fill: #d62728; stroke: #d62728"/>
     <use xlink:href="#m73c56b6598" x="92.861589" y="183.294795" style="fill: #d62728; stroke: #d62728"/>
     <use xlink:href="#m73c56b6598" x="96.583719" y="183.294795" style="fill: #d62728; stroke: #d62728"/>
     <use xlink:href="#m73c56b6598" x="100.305849" y="183.294795" style="fill: #d62728; stroke: #d62728"/>
     <use xlink:href="#m73c56b6598" x="104.02798" y="183.294795" style="fill: #d62728; stroke: #d62728"/>
     <use xlink:href="#m73c56b6598" x="107.75011" y="169.923105" style="fill: #d62728; stroke: #d62728"/>
     <use xlink:href="#m73c56b6598" x="111.472241" y="156.551416" style="fill: #d62728; stroke: #d62728"/>
     <use xlink:href="#m73c56b6598" x="115.194371" y="156.551416" style="fill: #d62728; stroke: #d62728"/>
     <use xlink:href="#m73c56b6598" x="118.916501" y="156.551416" style="fill: #d62728; stroke: #d62728"/>
     <use xlink:href="#m73c56b6598" x="122.638632" y="143.179726" style="fill: #d62728; stroke: #d62728"/>
     <use xlink:href="#m73c56b6598" x="126.360762" y="143.179726" style="fill: #d62728; stroke: #d62728"/>
     <use xlink:href="#m73c56b6598" x="130.082893" y="143.179726" style="fill: #d62728; stroke: #d62728"/>
     <use xlink:href="#m73c56b6598" x="133.805023" y="143.179726" style="fill: #d62728; stroke: #d62728"/>
     <use xlink:href="#m73c56b6598" x="137.527153" y="143.179726" style="fill: #d62728; stroke: #d62728"/>
     <use xlink:href="#m73c56b6598" x="141.249284" y="143.179726" style="fill: #d62728; stroke: #d62728"/>
     <use xlink:href="#m73c56b6598" x="144.971414" y="143.179726" style="fill: #d62728; stroke: #d62728"/>
     <use xlink:href="#m73c56b6598" x="148.693545" y="143.179726" style="fill: #d62728; stroke: #d62728"/>
     <use xlink:href="#m73c56b6598" x="152.415675" y="143.179726" style="fill: #d62728; stroke: #d62728"/>
     <use xlink:href="#m73c56b6598" x="156.137805" y="143.179726" style="fill: #d62728; stroke: #d62728"/>
     <use xlink:href="#m73c56b6598" x="159.859936" y="143.179726" style="fill: #d62728; stroke: #d62728"/>
     <use xlink:href="#m73c56b6598" x="163.582066" y="143.179726" style="fill: #d62728; stroke: #d62728"/>
     <use xlink:href="#m73c56b6598" x="167.304197" y="143.179726" style="fill: #d62728; stroke: #d62728"/>
     <use xlink:href="#m73c56b6598" x="171.026327" y="143.179726" style="fill: #d62728; stroke: #d62728"/>
     <use xlink:href="#m73c56b6598" x="174.748457" y="143.179726" style="fill: #d62728; stroke: #d62728"/>
     <use xlink:href="#m73c56b6598" x="178.470588" y="143.179726" style="fill: #d62728; stroke: #d62728"/>
     <use xlink:href="#m73c56b6598" x="182.192718" y="143.179726" style="fill: #d62728; stroke: #d62728"/>
     <use xlink:href="#m73c56b6598" x="185.914848" y="143.179726" style="fill: #d62728; stroke: #d62728"/>
     <use xlink:href="#m73c56b6598" x="189.636979" y="143.179726" style="fill: #d62728; stroke: #d62728"/>
     <use xlink:href="#m73c56b6598" x="193.359109" y="143.179726" style="fill: #d62728; stroke: #d62728"/>
     <use xlink:href="#m73c56b6598" x="197.08124" y="143.179726" style="fill: #d62728; stroke: #d62728"/>
     <use xlink:href="#m73c56b6598" x="200.80337" y="143.179726" style="fill: #d62728; stroke: #d62728"/>
     <use xlink:href="#m73c56b6598" x="204.5255" y="143.179726" style="fill: #d62728; stroke: #d62728"/>
     <use xlink:href="#m73c56b6598" x="208.247631" y="143.179726" style="fill: #d62728; stroke: #d62728"/>
     <use xlink:href="#m73c56b6598" x="211.969761" y="143.179726" style="fill: #d62728; stroke: #d62728"/>
     <use xlink:href="#m73c56b6598" x="215.691892" y="143.179726" style="fill: #d62728; stroke: #d62728"/>
     <use xlink:href="#m73c56b6598" x="219.414022" y="143.179726" style="fill: #d62728; stroke: #d62728"/>
     <use xlink:href="#m73c56b6598" x="223.136152" y="143.179726" style="fill: #d62728; stroke: #d62728"/>
     <use xlink:href="#m73c56b6598" x="226.858283" y="143.179726" style="fill: #d62728; stroke: #d62728"/>
     <use xlink:href="#m73c56b6598" x="230.580413" y="143.179726" style="fill: #d62728; stroke: #d62728"/>
     <use xlink:href="#m73c56b6598" x="234.302544" y="143.179726" style="fill: #d62728; stroke: #d62728"/>
     <use xlink:href="#m73c56b6598" x="238.024674" y="143.179726" style="fill: #d62728; stroke: #d62728"/>
     <use xlink:href="#m73c56b6598" x="241.746804" y="143.179726" style="fill: #d62728; stroke: #d62728"/>
     <use xlink:href="#m73c56b6598" x="245.468935" y="143.179726" style="fill: #d62728; stroke: #d62728"/>
     <use xlink:href="#m73c56b6598" x="249.191065" y="129.808037" style="fill: #d62728; stroke: #d62728"/>
     <use xlink:href="#m73c56b6598" x="252.913196" y="129.808037" style="fill: #d62728; stroke: #d62728"/>
     <use xlink:href="#m73c56b6598" x="256.635326" y="129.808037" style="fill: #d62728; stroke: #d62728"/>
     <use xlink:href="#m73c56b6598" x="260.357456" y="129.808037" style="fill: #d62728; stroke: #d62728"/>
     <use xlink:href="#m73c56b6598" x="264.079587" y="129.808037" style="fill: #d62728; stroke: #d62728"/>
     <use xlink:href="#m73c56b6598" x="267.801717" y="129.808037" style="fill: #d62728; stroke: #d62728"/>
     <use xlink:href="#m73c56b6598" x="271.523848" y="129.808037" style="fill: #d62728; stroke: #d62728"/>
     <use xlink:href="#m73c56b6598" x="275.245978" y="129.808037" style="fill: #d62728; stroke: #d62728"/>
     <use xlink:href="#m73c56b6598" x="278.968108" y="129.808037" style="fill: #d62728; stroke: #d62728"/>
     <use xlink:href="#m73c56b6598" x="282.690239" y="129.808037" style="fill: #d62728; stroke: #d62728"/>
     <use xlink:href="#m73c56b6598" x="286.412369" y="129.808037" style="fill: #d62728; stroke: #d62728"/>
     <use xlink:href="#m73c56b6598" x="290.1345" y="129.808037" style="fill: #d62728; stroke: #d62728"/>
     <use xlink:href="#m73c56b6598" x="293.85663" y="129.808037" style="fill: #d62728; stroke: #d62728"/>
     <use xlink:href="#m73c56b6598" x="297.57876" y="129.808037" style="fill: #d62728; stroke: #d62728"/>
     <use xlink:href="#m73c56b6598" x="301.300891" y="129.808037" style="fill: #d62728; stroke: #d62728"/>
     <use xlink:href="#m73c56b6598" x="305.023021" y="129.808037" style="fill: #d62728; stroke: #d62728"/>
     <use xlink:href="#m73c56b6598" x="308.745152" y="116.436347" style="fill: #d62728; stroke: #d62728"/>
     <use xlink:href="#m73c56b6598" x="312.467282" y="116.436347" style="fill: #d62728; stroke: #d62728"/>
     <use xlink:href="#m73c56b6598" x="316.189412" y="116.436347" style="fill: #d62728; stroke: #d62728"/>
     <use xlink:href="#m73c56b6598" x="319.911543" y="116.436347" style="fill: #d62728; stroke: #d62728"/>
     <use xlink:href="#m73c56b6598" x="323.633673" y="116.436347" style="fill: #d62728; stroke: #d62728"/>
     <use xlink:href="#m73c56b6598" x="327.355803" y="116.436347" style="fill: #d62728; stroke: #d62728"/>
     <use xlink:href="#m73c56b6598" x="331.077934" y="116.436347" style="fill: #d62728; stroke: #d62728"/>
     <use xlink:href="#m73c56b6598" x="334.800064" y="116.436347" style="fill: #d62728; stroke: #d62728"/>
     <use xlink:href="#m73c56b6598" x="338.522195" y="116.436347" style="fill: #d62728; stroke: #d62728"/>
     <use xlink:href="#m73c56b6598" x="342.244325" y="116.436347" style="fill: #d62728; stroke: #d62728"/>
     <use xlink:href="#m73c56b6598" x="345.966455" y="116.436347" style="fill: #d62728; stroke: #d62728"/>
     <use xlink:href="#m73c56b6598" x="349.688586" y="116.436347" style="fill: #d62728; stroke: #d62728"/>
     <use xlink:href="#m73c56b6598" x="353.410716" y="116.436347" style="fill: #d62728; stroke: #d62728"/>
     <use xlink:href="#m73c56b6598" x="357.132847" y="116.436347" style="fill: #d62728; stroke: #d62728"/>
     <use xlink:href="#m73c56b6598" x="360.854977" y="116.436347" style="fill: #d62728; stroke: #d62728"/>
     <use xlink:href="#m73c56b6598" x="364.577107" y="116.436347" style="fill: #d62728; stroke: #d62728"/>
     <use xlink:href="#m73c56b6598" x="368.299238" y="116.436347" style="fill: #d62728; stroke: #d62728"/>
     <use xlink:href="#m73c56b6598" x="372.021368" y="116.436347" style="fill: #d62728; stroke: #d62728"/>
     <use xlink:href="#m73c56b6598" x="375.743499" y="116.436347" style="fill: #d62728; stroke: #d62728"/>
     <use xlink:href="#m73c56b6598" x="379.465629" y="116.436347" style="fill: #d62728; stroke: #d62728"/>
     <use xlink:href="#m73c56b6598" x="383.187759" y="116.436347" style="fill: #d62728; stroke: #d62728"/>
     <use xlink:href="#m73c56b6598" x="386.90989" y="116.436347" style="fill: #d62728; stroke: #d62728"/>
     <use xlink:href="#m73c56b6598" x="390.63202" y="116.436347" style="fill: #d62728; stroke: #d62728"/>
     <use xlink:href="#m73c56b6598" x="394.354151" y="103.064658" style="fill: #d62728; stroke: #d62728"/>
     <use xlink:href="#m73c56b6598" x="398.076281" y="103.064658" style="fill: #d62728; stroke: #d62728"/>
     <use xlink:href="#m73c56b6598" x="401.798411" y="89.692968" style="fill: #d62728; stroke: #d62728"/>
     <use xlink:href="#m73c56b6598" x="405.520542" y="89.692968" style="fill: #d62728; stroke: #d62728"/>
     <use xlink:href="#m73c56b6598" x="409.242672" y="89.692968" style="fill: #d62728; stroke: #d62728"/>
     <use xlink:href="#m73c56b6598" x="412.964803" y="89.692968" style="fill: #d62728; stroke: #d62728"/>
     <use xlink:href="#m73c56b6598" x="416.686933" y="89.692968" style="fill: #d62728; stroke: #d62728"/>
     <use xlink:href="#m73c56b6598" x="420.409063" y="89.692968" style="fill: #d62728; stroke: #d62728"/>
     <use xlink:href="#m73c56b6598" x="424.131194" y="89.692968" style="fill: #d62728; stroke: #d62728"/>
     <use xlink:href="#m73c56b6598" x="427.853324" y="89.692968" style="fill: #d62728; stroke: #d62728"/>
     <use xlink:href="#m73c56b6598" x="431.575455" y="89.692968" style="fill: #d62728; stroke: #d62728"/>
    </g>
   </g>
   <g id="patch_3">
    <path d="M 44.66 303.64 
L 44.66 10.8 
" style="fill: none; stroke: #000000; stroke-width: 0.8; stroke-linejoin: miter; stroke-linecap: square"/>
   </g>
   <g id="patch_4">
    <path d="M 450 303.64 
L 450 10.8 
" style="fill: none; stroke: #000000; stroke-width: 0.8; stroke-linejoin: miter; stroke-linecap: square"/>
   </g>
   <g id="patch_5">
    <path d="M 44.66 303.64 
L 450 303.64 
" style="fill: none; stroke: #000000; stroke-width: 0.8; stroke-linejoin: miter; stroke-linecap: square"/>
   </g>
   <g id="patch_6">
    <path d="M 44.66 10.8 
L 450 10.8 
" style="fill: none; stroke: #000000; stroke-width: 0.8; stroke-linejoin: miter; stroke-linecap: square"/>
   </g>
   <g id="legend_1">
    <g id="patch_7">
     <path d="M 51.66 77.5125 
L 249.235 77.5125 
Q 251.235 77.5125 251.235 75.5125 
L 251.235 17.8 
Q 251.235 15.8 249.235 15.8 
L 51.66 15.8 
Q 49.66 15.8 49.66 17.8 
L 49.66 75.5125 
Q 49.66 77.5125 51.66 77.5125 
z
" style="fill: #ffffff; opacity: 0.8; stroke: #cccccc; stroke-linejoin: miter"/>
    </g>
    <g id="line2d_33">
     <path d="M 53.66 23.898438 
L 63.66 23.898438 
L 73.66 23.898438 
" style="fill: none; stroke: #1f77b4; stroke-width: 1.5; stroke-linecap: square"/>
     <g>
      <use xlink:href="#m18ca38e1da" x="63.66" y="23.898438" style="fill: #1f77b4; stroke: #1f77b4"/>
     </g>
    </g>
    <g id="text_31">
     <!-- Defects4J x Buglab: Initialization -->
     <g transform="translate(81.66 27.398438)scale(0.1 -0.1)">
      <defs>
       <path id="DejaVuSans-44" d="M 1259 4147 
L 1259 519 
L 2022 519 
Q 2988 519 3436 956 
Q 3884 1394 3884 2338 
Q 3884 3275 3436 3711 
Q 2988 4147 2022 4147 
L 1259 4147 
z
M 628 4666 
L 1925 4666 
Q 3281 4666 3915 4102 
Q 4550 3538 4550 2338 
Q 4550 1131 3912 565 
Q 3275 0 1925 0 
L 628 0 
L 628 4666 
z
" transform="scale(0.015625)"/>
       <path id="DejaVuSans-4a" d="M 628 4666 
L 1259 4666 
L 1259 325 
Q 1259 -519 939 -900 
Q 619 -1281 -91 -1281 
L -331 -1281 
L -331 -750 
L -134 -750 
Q 284 -750 456 -515 
Q 628 -281 628 325 
L 628 4666 
z
" transform="scale(0.015625)"/>
       <path id="DejaVuSans-78" d="M 3513 3500 
L 2247 1797 
L 3578 0 
L 2900 0 
L 1881 1375 
L 863 0 
L 184 0 
L 1544 1831 
L 300 3500 
L 978 3500 
L 1906 2253 
L 2834 3500 
L 3513 3500 
z
" transform="scale(0.015625)"/>
       <path id="DejaVuSans-3a" d="M 750 794 
L 1409 794 
L 1409 0 
L 750 0 
L 750 794 
z
M 750 3309 
L 1409 3309 
L 1409 2516 
L 750 2516 
L 750 3309 
z
" transform="scale(0.015625)"/>
       <path id="DejaVuSans-49" d="M 628 4666 
L 1259 4666 
L 1259 0 
L 628 0 
L 628 4666 
z
" transform="scale(0.015625)"/>
       <path id="DejaVuSans-6e" d="M 3513 2113 
L 3513 0 
L 2938 0 
L 2938 2094 
Q 2938 2591 2744 2837 
Q 2550 3084 2163 3084 
Q 1697 3084 1428 2787 
Q 1159 2491 1159 1978 
L 1159 0 
L 581 0 
L 581 3500 
L 1159 3500 
L 1159 2956 
Q 1366 3272 1645 3428 
Q 1925 3584 2291 3584 
Q 2894 3584 3203 3211 
Q 3513 2838 3513 2113 
z
" transform="scale(0.015625)"/>
      </defs>
      <use xlink:href="#DejaVuSans-44"/>
      <use xlink:href="#DejaVuSans-65" x="77.001953"/>
      <use xlink:href="#DejaVuSans-66" x="138.525391"/>
      <use xlink:href="#DejaVuSans-65" x="173.730469"/>
      <use xlink:href="#DejaVuSans-63" x="235.253906"/>
      <use xlink:href="#DejaVuSans-74" x="290.234375"/>
      <use xlink:href="#DejaVuSans-73" x="329.443359"/>
      <use xlink:href="#DejaVuSans-34" x="381.542969"/>
      <use xlink:href="#DejaVuSans-4a" x="445.166016"/>
      <use xlink:href="#DejaVuSans-20" x="474.658203"/>
      <use xlink:href="#DejaVuSans-78" x="506.445312"/>
      <use xlink:href="#DejaVuSans-20" x="565.625"/>
      <use xlink:href="#DejaVuSans-42" x="597.412109"/>
      <use xlink:href="#DejaVuSans-75" x="666.015625"/>
      <use xlink:href="#DejaVuSans-67" x="729.394531"/>
      <use xlink:href="#DejaVuSans-6c" x="792.871094"/>
      <use xlink:href="#DejaVuSans-61" x="820.654297"/>
      <use xlink:href="#DejaVuSans-62" x="881.933594"/>
      <use xlink:href="#DejaVuSans-3a" x="945.410156"/>
      <use xlink:href="#DejaVuSans-20" x="979.101562"/>
      <use xlink:href="#DejaVuSans-49" x="1010.888672"/>
      <use xlink:href="#DejaVuSans-6e" x="1040.380859"/>
      <use xlink:href="#DejaVuSans-69" x="1103.759766"/>
      <use xlink:href="#DejaVuSans-74" x="1131.542969"/>
      <use xlink:href="#DejaVuSans-69" x="1170.751953"/>
      <use xlink:href="#DejaVuSans-61" x="1198.535156"/>
      <use xlink:href="#DejaVuSans-6c" x="1259.814453"/>
      <use xlink:href="#DejaVuSans-69" x="1287.597656"/>
      <use xlink:href="#DejaVuSans-7a" x="1315.380859"/>
      <use xlink:href="#DejaVuSans-61" x="1367.871094"/>
      <use xlink:href="#DejaVuSans-74" x="1429.150391"/>
      <use xlink:href="#DejaVuSans-69" x="1468.359375"/>
      <use xlink:href="#DejaVuSans-6f" x="1496.142578"/>
      <use xlink:href="#DejaVuSans-6e" x="1557.324219"/>
     </g>
    </g>
    <g id="line2d_34">
     <path d="M 53.66 38.576563 
L 63.66 38.576563 
L 73.66 38.576563 
" style="fill: none; stroke: #ff7f0e; stroke-width: 1.5; stroke-linecap: square"/>
     <g>
      <use xlink:href="#m2ef480c94e" x="63.66" y="38.576563" style="fill: #ff7f0e; stroke: #ff7f0e"/>
     </g>
    </g>
    <g id="text_32">
     <!-- Defects4J x SelfAPR: Initialization -->
     <g transform="translate(81.66 42.076563)scale(0.1 -0.1)">
      <defs>
       <path id="DejaVuSans-53" d="M 3425 4513 
L 3425 3897 
Q 3066 4069 2747 4153 
Q 2428 4238 2131 4238 
Q 1616 4238 1336 4038 
Q 1056 3838 1056 3469 
Q 1056 3159 1242 3001 
Q 1428 2844 1947 2747 
L 2328 2669 
Q 3034 2534 3370 2195 
Q 3706 1856 3706 1288 
Q 3706 609 3251 259 
Q 2797 -91 1919 -91 
Q 1588 -91 1214 -16 
Q 841 59 441 206 
L 441 856 
Q 825 641 1194 531 
Q 1563 422 1919 422 
Q 2459 422 2753 634 
Q 3047 847 3047 1241 
Q 3047 1584 2836 1778 
Q 2625 1972 2144 2069 
L 1759 2144 
Q 1053 2284 737 2584 
Q 422 2884 422 3419 
Q 422 4038 858 4394 
Q 1294 4750 2059 4750 
Q 2388 4750 2728 4690 
Q 3069 4631 3425 4513 
z
" transform="scale(0.015625)"/>
       <path id="DejaVuSans-41" d="M 2188 4044 
L 1331 1722 
L 3047 1722 
L 2188 4044 
z
M 1831 4666 
L 2547 4666 
L 4325 0 
L 3669 0 
L 3244 1197 
L 1141 1197 
L 716 0 
L 50 0 
L 1831 4666 
z
" transform="scale(0.015625)"/>
       <path id="DejaVuSans-50" d="M 1259 4147 
L 1259 2394 
L 2053 2394 
Q 2494 2394 2734 2622 
Q 2975 2850 2975 3272 
Q 2975 3691 2734 3919 
Q 2494 4147 2053 4147 
L 1259 4147 
z
M 628 4666 
L 2053 4666 
Q 2838 4666 3239 4311 
Q 3641 3956 3641 3272 
Q 3641 2581 3239 2228 
Q 2838 1875 2053 1875 
L 1259 1875 
L 1259 0 
L 628 0 
L 628 4666 
z
" transform="scale(0.015625)"/>
       <path id="DejaVuSans-52" d="M 2841 2188 
Q 3044 2119 3236 1894 
Q 3428 1669 3622 1275 
L 4263 0 
L 3584 0 
L 2988 1197 
Q 2756 1666 2539 1819 
Q 2322 1972 1947 1972 
L 1259 1972 
L 1259 0 
L 628 0 
L 628 4666 
L 2053 4666 
Q 2853 4666 3247 4331 
Q 3641 3997 3641 3322 
Q 3641 2881 3436 2590 
Q 3231 2300 2841 2188 
z
M 1259 4147 
L 1259 2491 
L 2053 2491 
Q 2509 2491 2742 2702 
Q 2975 2913 2975 3322 
Q 2975 3731 2742 3939 
Q 2509 4147 2053 4147 
L 1259 4147 
z
" transform="scale(0.015625)"/>
      </defs>
      <use xlink:href="#DejaVuSans-44"/>
      <use xlink:href="#DejaVuSans-65" x="77.001953"/>
      <use xlink:href="#DejaVuSans-66" x="138.525391"/>
      <use xlink:href="#DejaVuSans-65" x="173.730469"/>
      <use xlink:href="#DejaVuSans-63" x="235.253906"/>
      <use xlink:href="#DejaVuSans-74" x="290.234375"/>
      <use xlink:href="#DejaVuSans-73" x="329.443359"/>
      <use xlink:href="#DejaVuSans-34" x="381.542969"/>
      <use xlink:href="#DejaVuSans-4a" x="445.166016"/>
      <use xlink:href="#DejaVuSans-20" x="474.658203"/>
      <use xlink:href="#DejaVuSans-78" x="506.445312"/>
      <use xlink:href="#DejaVuSans-20" x="565.625"/>
      <use xlink:href="#DejaVuSans-53" x="597.412109"/>
      <use xlink:href="#DejaVuSans-65" x="660.888672"/>
      <use xlink:href="#DejaVuSans-6c" x="722.412109"/>
      <use xlink:href="#DejaVuSans-66" x="750.195312"/>
      <use xlink:href="#DejaVuSans-41" x="785.400391"/>
      <use xlink:href="#DejaVuSans-50" x="853.808594"/>
      <use xlink:href="#DejaVuSans-52" x="914.111328"/>
      <use xlink:href="#DejaVuSans-3a" x="980.46875"/>
      <use xlink:href="#DejaVuSans-20" x="1014.160156"/>
      <use xlink:href="#DejaVuSans-49" x="1045.947266"/>
      <use xlink:href="#DejaVuSans-6e" x="1075.439453"/>
      <use xlink:href="#DejaVuSans-69" x="1138.818359"/>
      <use xlink:href="#DejaVuSans-74" x="1166.601562"/>
      <use xlink:href="#DejaVuSans-69" x="1205.810547"/>
      <use xlink:href="#DejaVuSans-61" x="1233.59375"/>
      <use xlink:href="#DejaVuSans-6c" x="1294.873047"/>
      <use xlink:href="#DejaVuSans-69" x="1322.65625"/>
      <use xlink:href="#DejaVuSans-7a" x="1350.439453"/>
      <use xlink:href="#DejaVuSans-61" x="1402.929688"/>
      <use xlink:href="#DejaVuSans-74" x="1464.208984"/>
      <use xlink:href="#DejaVuSans-69" x="1503.417969"/>
      <use xlink:href="#DejaVuSans-6f" x="1531.201172"/>
      <use xlink:href="#DejaVuSans-6e" x="1592.382812"/>
     </g>
    </g>
    <g id="line2d_35">
     <path d="M 53.66 53.254688 
L 63.66 53.254688 
L 73.66 53.254688 
" style="fill: none; stroke: #2ca02c; stroke-width: 1.5; stroke-linecap: square"/>
     <g>
      <use xlink:href="#m86ac68565e" x="63.66" y="53.254688" style="fill: #2ca02c; stroke: #2ca02c"/>
     </g>
    </g>
    <g id="text_33">
     <!-- Bears x Buglab: Initialization -->
     <g transform="translate(81.66 56.754688)scale(0.1 -0.1)">
      <use xlink:href="#DejaVuSans-42"/>
      <use xlink:href="#DejaVuSans-65" x="68.603516"/>
      <use xlink:href="#DejaVuSans-61" x="130.126953"/>
      <use xlink:href="#DejaVuSans-72" x="191.40625"/>
      <use xlink:href="#DejaVuSans-73" x="232.519531"/>
      <use xlink:href="#DejaVuSans-20" x="284.619141"/>
      <use xlink:href="#DejaVuSans-78" x="316.40625"/>
      <use xlink:href="#DejaVuSans-20" x="375.585938"/>
      <use xlink:href="#DejaVuSans-42" x="407.373047"/>
      <use xlink:href="#DejaVuSans-75" x="475.976562"/>
      <use xlink:href="#DejaVuSans-67" x="539.355469"/>
      <use xlink:href="#DejaVuSans-6c" x="602.832031"/>
      <use xlink:href="#DejaVuSans-61" x="630.615234"/>
      <use xlink:href="#DejaVuSans-62" x="691.894531"/>
      <use xlink:href="#DejaVuSans-3a" x="755.371094"/>
      <use xlink:href="#DejaVuSans-20" x="789.0625"/>
      <use xlink:href="#DejaVuSans-49" x="820.849609"/>
      <use xlink:href="#DejaVuSans-6e" x="850.341797"/>
      <use xlink:href="#DejaVuSans-69" x="913.720703"/>
      <use xlink:href="#DejaVuSans-74" x="941.503906"/>
      <use xlink:href="#DejaVuSans-69" x="980.712891"/>
      <use xlink:href="#DejaVuSans-61" x="1008.496094"/>
      <use xlink:href="#DejaVuSans-6c" x="1069.775391"/>
      <use xlink:href="#DejaVuSans-69" x="1097.558594"/>
      <use xlink:href="#DejaVuSans-7a" x="1125.341797"/>
      <use xlink:href="#DejaVuSans-61" x="1177.832031"/>
      <use xlink:href="#DejaVuSans-74" x="1239.111328"/>
      <use xlink:href="#DejaVuSans-69" x="1278.320312"/>
      <use xlink:href="#DejaVuSans-6f" x="1306.103516"/>
      <use xlink:href="#DejaVuSans-6e" x="1367.285156"/>
     </g>
    </g>
    <g id="line2d_36">
     <path d="M 53.66 67.932813 
L 63.66 67.932813 
L 73.66 67.932813 
" style="fill: none; stroke: #d62728; stroke-width: 1.5; stroke-linecap: square"/>
     <g>
      <use xlink:href="#m73c56b6598" x="63.66" y="67.932813" style="fill: #d62728; stroke: #d62728"/>
     </g>
    </g>
    <g id="text_34">
     <!-- Bears x SelfAPR: Initialization -->
     <g transform="translate(81.66 71.432813)scale(0.1 -0.1)">
      <use xlink:href="#DejaVuSans-42"/>
      <use xlink:href="#DejaVuSans-65" x="68.603516"/>
      <use xlink:href="#DejaVuSans-61" x="130.126953"/>
      <use xlink:href="#DejaVuSans-72" x="191.40625"/>
      <use xlink:href="#DejaVuSans-73" x="232.519531"/>
      <use xlink:href="#DejaVuSans-20" x="284.619141"/>
      <use xlink:href="#DejaVuSans-78" x="316.40625"/>
      <use xlink:href="#DejaVuSans-20" x="375.585938"/>
      <use xlink:href="#DejaVuSans-53" x="407.373047"/>
      <use xlink:href="#DejaVuSans-65" x="470.849609"/>
      <use xlink:href="#DejaVuSans-6c" x="532.373047"/>
      <use xlink:href="#DejaVuSans-66" x="560.15625"/>
      <use xlink:href="#DejaVuSans-41" x="595.361328"/>
      <use xlink:href="#DejaVuSans-50" x="663.769531"/>
      <use xlink:href="#DejaVuSans-52" x="724.072266"/>
      <use xlink:href="#DejaVuSans-3a" x="790.429688"/>
      <use xlink:href="#DejaVuSans-20" x="824.121094"/>
      <use xlink:href="#DejaVuSans-49" x="855.908203"/>
      <use xlink:href="#DejaVuSans-6e" x="885.400391"/>
      <use xlink:href="#DejaVuSans-69" x="948.779297"/>
      <use xlink:href="#DejaVuSans-74" x="976.5625"/>
      <use xlink:href="#DejaVuSans-69" x="1015.771484"/>
      <use xlink:href="#DejaVuSans-61" x="1043.554688"/>
      <use xlink:href="#DejaVuSans-6c" x="1104.833984"/>
      <use xlink:href="#DejaVuSans-69" x="1132.617188"/>
      <use xlink:href="#DejaVuSans-7a" x="1160.400391"/>
      <use xlink:href="#DejaVuSans-61" x="1212.890625"/>
      <use xlink:href="#DejaVuSans-74" x="1274.169922"/>
      <use xlink:href="#DejaVuSans-69" x="1313.378906"/>
      <use xlink:href="#DejaVuSans-6f" x="1341.162109"/>
      <use xlink:href="#DejaVuSans-6e" x="1402.34375"/>
     </g>
    </g>
   </g>
  </g>
 </g>
 <defs>
  <clipPath id="p3d22d119d3">
   <rect x="44.66" y="10.8" width="405.34" height="292.84"/>
  </clipPath>
 </defs>
</svg>
