<?xml version="1.0" encoding="utf-8" standalone="no"?>
<!DOCTYPE svg PUBLIC "-//W3C//DTD SVG 1.1//EN"
  "http://www.w3.org/Graphics/SVG/1.1/DTD/svg11.dtd">
<svg xmlns:xlink="http://www.w3.org/1999/xlink" width="460.8pt" height="345.6pt" viewBox="0 0 460.8 345.6" xmlns="http://www.w3.org/2000/svg" version="1.1">
 <metadata>
  <rdf:RDF xmlns:dc="http://purl.org/dc/elements/1.1/" xmlns:cc="http://creativecommons.org/ns#" xmlns:rdf="http://www.w3.org/1999/02/22-rdf-syntax-ns#">
   <cc:Work>
    <dc:type rdf:resource="http://purl.org/dc/dcmitype/StillImage"/>
    <dc:date>2023-03-28T14:53:52.410131</dc:date>
    <dc:format>image/svg+xml</dc:format>
    <dc:creator>
     <cc:Agent>
      <dc:title>Matplotlib v3.5.2, https://matplotlib.org/</dc:title>
     </cc:Agent>
    </dc:creator>
   </cc:Work>
  </rdf:RDF>
 </metadata>
 <defs>
  <style type="text/css">*{stroke-linejoin: round; stroke-linecap: butt}</style>
 </defs>
 <g id="figure_1">
  <g id="patch_1">
   <path d="M 0 345.6 
L 460.8 345.6 
L 460.8 0 
L 0 0 
z
" style="fill: #ffffff"/>
  </g>
  <g id="axes_1">
   <g id="patch_2">
    <path d="M 44.66 303.64 
L 450 303.64 
L 450 10.8 
L 44.66 10.8 
z
" style="fill: #ffffff"/>
   </g>
   <g id="matplotlib.axis_1">
    <g id="xtick_1">
     <g id="line2d_1">
      <defs>
       <path id="mb17989971e" d="M 0 0 
L 0 3.5 
" style="stroke: #000000; stroke-width: 0.8"/>
      </defs>
      <g>
       <use xlink:href="#mb17989971e" x="59.362415" y="303.64" style="stroke: #000000; stroke-width: 0.8"/>
      </g>
     </g>
     <g id="text_1">
      <!-- 0 -->
      <g transform="translate(56.181165 318.238437)scale(0.1 -0.1)">
       <defs>
        <path id="DejaVuSans-30" d="M 2034 4250 
Q 1547 4250 1301 3770 
Q 1056 3291 1056 2328 
Q 1056 1369 1301 889 
Q 1547 409 2034 409 
Q 2525 409 2770 889 
Q 3016 1369 3016 2328 
Q 3016 3291 2770 3770 
Q 2525 4250 2034 4250 
z
M 2034 4750 
Q 2819 4750 3233 4129 
Q 3647 3509 3647 2328 
Q 3647 1150 3233 529 
Q 2819 -91 2034 -91 
Q 1250 -91 836 529 
Q 422 1150 422 2328 
Q 422 3509 836 4129 
Q 1250 4750 2034 4750 
z
" transform="scale(0.015625)"/>
       </defs>
       <use xlink:href="#DejaVuSans-30"/>
      </g>
     </g>
    </g>
    <g id="xtick_2">
     <g id="line2d_2">
      <g>
       <use xlink:href="#mb17989971e" x="133.805023" y="303.64" style="stroke: #000000; stroke-width: 0.8"/>
      </g>
     </g>
     <g id="text_2">
      <!-- 20 -->
      <g transform="translate(127.442523 318.238437)scale(0.1 -0.1)">
       <defs>
        <path id="DejaVuSans-32" d="M 1228 531 
L 3431 531 
L 3431 0 
L 469 0 
L 469 531 
Q 828 903 1448 1529 
Q 2069 2156 2228 2338 
Q 2531 2678 2651 2914 
Q 2772 3150 2772 3378 
Q 2772 3750 2511 3984 
Q 2250 4219 1831 4219 
Q 1534 4219 1204 4116 
Q 875 4013 500 3803 
L 500 4441 
Q 881 4594 1212 4672 
Q 1544 4750 1819 4750 
Q 2544 4750 2975 4387 
Q 3406 4025 3406 3419 
Q 3406 3131 3298 2873 
Q 3191 2616 2906 2266 
Q 2828 2175 2409 1742 
Q 1991 1309 1228 531 
z
" transform="scale(0.015625)"/>
       </defs>
       <use xlink:href="#DejaVuSans-32"/>
       <use xlink:href="#DejaVuSans-30" x="63.623047"/>
      </g>
     </g>
    </g>
    <g id="xtick_3">
     <g id="line2d_3">
      <g>
       <use xlink:href="#mb17989971e" x="208.247631" y="303.64" style="stroke: #000000; stroke-width: 0.8"/>
      </g>
     </g>
     <g id="text_3">
      <!-- 40 -->
      <g transform="translate(201.885131 318.238437)scale(0.1 -0.1)">
       <defs>
        <path id="DejaVuSans-34" d="M 2419 4116 
L 825 1625 
L 2419 1625 
L 2419 4116 
z
M 2253 4666 
L 3047 4666 
L 3047 1625 
L 3713 1625 
L 3713 1100 
L 3047 1100 
L 3047 0 
L 2419 0 
L 2419 1100 
L 313 1100 
L 313 1709 
L 2253 4666 
z
" transform="scale(0.015625)"/>
       </defs>
       <use xlink:href="#DejaVuSans-34"/>
       <use xlink:href="#DejaVuSans-30" x="63.623047"/>
      </g>
     </g>
    </g>
    <g id="xtick_4">
     <g id="line2d_4">
      <g>
       <use xlink:href="#mb17989971e" x="282.690239" y="303.64" style="stroke: #000000; stroke-width: 0.8"/>
      </g>
     </g>
     <g id="text_4">
      <!-- 60 -->
      <g transform="translate(276.327739 318.238437)scale(0.1 -0.1)">
       <defs>
        <path id="DejaVuSans-36" d="M 2113 2584 
Q 1688 2584 1439 2293 
Q 1191 2003 1191 1497 
Q 1191 994 1439 701 
Q 1688 409 2113 409 
Q 2538 409 2786 701 
Q 3034 994 3034 1497 
Q 3034 2003 2786 2293 
Q 2538 2584 2113 2584 
z
M 3366 4563 
L 3366 3988 
Q 3128 4100 2886 4159 
Q 2644 4219 2406 4219 
Q 1781 4219 1451 3797 
Q 1122 3375 1075 2522 
Q 1259 2794 1537 2939 
Q 1816 3084 2150 3084 
Q 2853 3084 3261 2657 
Q 3669 2231 3669 1497 
Q 3669 778 3244 343 
Q 2819 -91 2113 -91 
Q 1303 -91 875 529 
Q 447 1150 447 2328 
Q 447 3434 972 4092 
Q 1497 4750 2381 4750 
Q 2619 4750 2861 4703 
Q 3103 4656 3366 4563 
z
" transform="scale(0.015625)"/>
       </defs>
       <use xlink:href="#DejaVuSans-36"/>
       <use xlink:href="#DejaVuSans-30" x="63.623047"/>
      </g>
     </g>
    </g>
    <g id="xtick_5">
     <g id="line2d_5">
      <g>
       <use xlink:href="#mb17989971e" x="357.132847" y="303.64" style="stroke: #000000; stroke-width: 0.8"/>
      </g>
     </g>
     <g id="text_5">
      <!-- 80 -->
      <g transform="translate(350.770347 318.238437)scale(0.1 -0.1)">
       <defs>
        <path id="DejaVuSans-38" d="M 2034 2216 
Q 1584 2216 1326 1975 
Q 1069 1734 1069 1313 
Q 1069 891 1326 650 
Q 1584 409 2034 409 
Q 2484 409 2743 651 
Q 3003 894 3003 1313 
Q 3003 1734 2745 1975 
Q 2488 2216 2034 2216 
z
M 1403 2484 
Q 997 2584 770 2862 
Q 544 3141 544 3541 
Q 544 4100 942 4425 
Q 1341 4750 2034 4750 
Q 2731 4750 3128 4425 
Q 3525 4100 3525 3541 
Q 3525 3141 3298 2862 
Q 3072 2584 2669 2484 
Q 3125 2378 3379 2068 
Q 3634 1759 3634 1313 
Q 3634 634 3220 271 
Q 2806 -91 2034 -91 
Q 1263 -91 848 271 
Q 434 634 434 1313 
Q 434 1759 690 2068 
Q 947 2378 1403 2484 
z
M 1172 3481 
Q 1172 3119 1398 2916 
Q 1625 2713 2034 2713 
Q 2441 2713 2670 2916 
Q 2900 3119 2900 3481 
Q 2900 3844 2670 4047 
Q 2441 4250 2034 4250 
Q 1625 4250 1398 4047 
Q 1172 3844 1172 3481 
z
" transform="scale(0.015625)"/>
       </defs>
       <use xlink:href="#DejaVuSans-38"/>
       <use xlink:href="#DejaVuSans-30" x="63.623047"/>
      </g>
     </g>
    </g>
    <g id="xtick_6">
     <g id="line2d_6">
      <g>
       <use xlink:href="#mb17989971e" x="431.575455" y="303.64" style="stroke: #000000; stroke-width: 0.8"/>
      </g>
     </g>
     <g id="text_6">
      <!-- 100 -->
      <g transform="translate(422.031705 318.238437)scale(0.1 -0.1)">
       <defs>
        <path id="DejaVuSans-31" d="M 794 531 
L 1825 531 
L 1825 4091 
L 703 3866 
L 703 4441 
L 1819 4666 
L 2450 4666 
L 2450 531 
L 3481 531 
L 3481 0 
L 794 0 
L 794 531 
z
" transform="scale(0.015625)"/>
       </defs>
       <use xlink:href="#DejaVuSans-31"/>
       <use xlink:href="#DejaVuSans-30" x="63.623047"/>
       <use xlink:href="#DejaVuSans-30" x="127.246094"/>
      </g>
     </g>
    </g>
    <g id="text_7">
     <!-- Beam position -->
     <g transform="translate(211.494844 331.916562)scale(0.1 -0.1)">
      <defs>
       <path id="DejaVuSans-42" d="M 1259 2228 
L 1259 519 
L 2272 519 
Q 2781 519 3026 730 
Q 3272 941 3272 1375 
Q 3272 1813 3026 2020 
Q 2781 2228 2272 2228 
L 1259 2228 
z
M 1259 4147 
L 1259 2741 
L 2194 2741 
Q 2656 2741 2882 2914 
Q 3109 3088 3109 3444 
Q 3109 3797 2882 3972 
Q 2656 4147 2194 4147 
L 1259 4147 
z
M 628 4666 
L 2241 4666 
Q 2963 4666 3353 4366 
Q 3744 4066 3744 3513 
Q 3744 3084 3544 2831 
Q 3344 2578 2956 2516 
Q 3422 2416 3680 2098 
Q 3938 1781 3938 1306 
Q 3938 681 3513 340 
Q 3088 0 2303 0 
L 628 0 
L 628 4666 
z
" transform="scale(0.015625)"/>
       <path id="DejaVuSans-65" d="M 3597 1894 
L 3597 1613 
L 953 1613 
Q 991 1019 1311 708 
Q 1631 397 2203 397 
Q 2534 397 2845 478 
Q 3156 559 3463 722 
L 3463 178 
Q 3153 47 2828 -22 
Q 2503 -91 2169 -91 
Q 1331 -91 842 396 
Q 353 884 353 1716 
Q 353 2575 817 3079 
Q 1281 3584 2069 3584 
Q 2775 3584 3186 3129 
Q 3597 2675 3597 1894 
z
M 3022 2063 
Q 3016 2534 2758 2815 
Q 2500 3097 2075 3097 
Q 1594 3097 1305 2825 
Q 1016 2553 972 2059 
L 3022 2063 
z
" transform="scale(0.015625)"/>
       <path id="DejaVuSans-61" d="M 2194 1759 
Q 1497 1759 1228 1600 
Q 959 1441 959 1056 
Q 959 750 1161 570 
Q 1363 391 1709 391 
Q 2188 391 2477 730 
Q 2766 1069 2766 1631 
L 2766 1759 
L 2194 1759 
z
M 3341 1997 
L 3341 0 
L 2766 0 
L 2766 531 
Q 2569 213 2275 61 
Q 1981 -91 1556 -91 
Q 1019 -91 701 211 
Q 384 513 384 1019 
Q 384 1609 779 1909 
Q 1175 2209 1959 2209 
L 2766 2209 
L 2766 2266 
Q 2766 2663 2505 2880 
Q 2244 3097 1772 3097 
Q 1472 3097 1187 3025 
Q 903 2953 641 2809 
L 641 3341 
Q 956 3463 1253 3523 
Q 1550 3584 1831 3584 
Q 2591 3584 2966 3190 
Q 3341 2797 3341 1997 
z
" transform="scale(0.015625)"/>
       <path id="DejaVuSans-6d" d="M 3328 2828 
Q 3544 3216 3844 3400 
Q 4144 3584 4550 3584 
Q 5097 3584 5394 3201 
Q 5691 2819 5691 2113 
L 5691 0 
L 5113 0 
L 5113 2094 
Q 5113 2597 4934 2840 
Q 4756 3084 4391 3084 
Q 3944 3084 3684 2787 
Q 3425 2491 3425 1978 
L 3425 0 
L 2847 0 
L 2847 2094 
Q 2847 2600 2669 2842 
Q 2491 3084 2119 3084 
Q 1678 3084 1418 2786 
Q 1159 2488 1159 1978 
L 1159 0 
L 581 0 
L 581 3500 
L 1159 3500 
L 1159 2956 
Q 1356 3278 1631 3431 
Q 1906 3584 2284 3584 
Q 2666 3584 2933 3390 
Q 3200 3197 3328 2828 
z
" transform="scale(0.015625)"/>
       <path id="DejaVuSans-20" transform="scale(0.015625)"/>
       <path id="DejaVuSans-70" d="M 1159 525 
L 1159 -1331 
L 581 -1331 
L 581 3500 
L 1159 3500 
L 1159 2969 
Q 1341 3281 1617 3432 
Q 1894 3584 2278 3584 
Q 2916 3584 3314 3078 
Q 3713 2572 3713 1747 
Q 3713 922 3314 415 
Q 2916 -91 2278 -91 
Q 1894 -91 1617 61 
Q 1341 213 1159 525 
z
M 3116 1747 
Q 3116 2381 2855 2742 
Q 2594 3103 2138 3103 
Q 1681 3103 1420 2742 
Q 1159 2381 1159 1747 
Q 1159 1113 1420 752 
Q 1681 391 2138 391 
Q 2594 391 2855 752 
Q 3116 1113 3116 1747 
z
" transform="scale(0.015625)"/>
       <path id="DejaVuSans-6f" d="M 1959 3097 
Q 1497 3097 1228 2736 
Q 959 2375 959 1747 
Q 959 1119 1226 758 
Q 1494 397 1959 397 
Q 2419 397 2687 759 
Q 2956 1122 2956 1747 
Q 2956 2369 2687 2733 
Q 2419 3097 1959 3097 
z
M 1959 3584 
Q 2709 3584 3137 3096 
Q 3566 2609 3566 1747 
Q 3566 888 3137 398 
Q 2709 -91 1959 -91 
Q 1206 -91 779 398 
Q 353 888 353 1747 
Q 353 2609 779 3096 
Q 1206 3584 1959 3584 
z
" transform="scale(0.015625)"/>
       <path id="DejaVuSans-73" d="M 2834 3397 
L 2834 2853 
Q 2591 2978 2328 3040 
Q 2066 3103 1784 3103 
Q 1356 3103 1142 2972 
Q 928 2841 928 2578 
Q 928 2378 1081 2264 
Q 1234 2150 1697 2047 
L 1894 2003 
Q 2506 1872 2764 1633 
Q 3022 1394 3022 966 
Q 3022 478 2636 193 
Q 2250 -91 1575 -91 
Q 1294 -91 989 -36 
Q 684 19 347 128 
L 347 722 
Q 666 556 975 473 
Q 1284 391 1588 391 
Q 1994 391 2212 530 
Q 2431 669 2431 922 
Q 2431 1156 2273 1281 
Q 2116 1406 1581 1522 
L 1381 1569 
Q 847 1681 609 1914 
Q 372 2147 372 2553 
Q 372 3047 722 3315 
Q 1072 3584 1716 3584 
Q 2034 3584 2315 3537 
Q 2597 3491 2834 3397 
z
" transform="scale(0.015625)"/>
       <path id="DejaVuSans-69" d="M 603 3500 
L 1178 3500 
L 1178 0 
L 603 0 
L 603 3500 
z
M 603 4863 
L 1178 4863 
L 1178 4134 
L 603 4134 
L 603 4863 
z
" transform="scale(0.015625)"/>
       <path id="DejaVuSans-74" d="M 1172 4494 
L 1172 3500 
L 2356 3500 
L 2356 3053 
L 1172 3053 
L 1172 1153 
Q 1172 725 1289 603 
Q 1406 481 1766 481 
L 2356 481 
L 2356 0 
L 1766 0 
Q 1100 0 847 248 
Q 594 497 594 1153 
L 594 3053 
L 172 3053 
L 172 3500 
L 594 3500 
L 594 4494 
L 1172 4494 
z
" transform="scale(0.015625)"/>
       <path id="DejaVuSans-6e" d="M 3513 2113 
L 3513 0 
L 2938 0 
L 2938 2094 
Q 2938 2591 2744 2837 
Q 2550 3084 2163 3084 
Q 1697 3084 1428 2787 
Q 1159 2491 1159 1978 
L 1159 0 
L 581 0 
L 581 3500 
L 1159 3500 
L 1159 2956 
Q 1366 3272 1645 3428 
Q 1925 3584 2291 3584 
Q 2894 3584 3203 3211 
Q 3513 2838 3513 2113 
z
" transform="scale(0.015625)"/>
      </defs>
      <use xlink:href="#DejaVuSans-42"/>
      <use xlink:href="#DejaVuSans-65" x="68.603516"/>
      <use xlink:href="#DejaVuSans-61" x="130.126953"/>
      <use xlink:href="#DejaVuSans-6d" x="191.40625"/>
      <use xlink:href="#DejaVuSans-20" x="288.818359"/>
      <use xlink:href="#DejaVuSans-70" x="320.605469"/>
      <use xlink:href="#DejaVuSans-6f" x="384.082031"/>
      <use xlink:href="#DejaVuSans-73" x="445.263672"/>
      <use xlink:href="#DejaVuSans-69" x="497.363281"/>
      <use xlink:href="#DejaVuSans-74" x="525.146484"/>
      <use xlink:href="#DejaVuSans-69" x="564.355469"/>
      <use xlink:href="#DejaVuSans-6f" x="592.138672"/>
      <use xlink:href="#DejaVuSans-6e" x="653.320312"/>
     </g>
    </g>
   </g>
   <g id="matplotlib.axis_2">
    <g id="ytick_1">
     <g id="line2d_7">
      <defs>
       <path id="m1c1b843bc9" d="M 0 0 
L -3.5 0 
" style="stroke: #000000; stroke-width: 0.8"/>
      </defs>
      <g>
       <use xlink:href="#m1c1b843bc9" x="44.66" y="303.64" style="stroke: #000000; stroke-width: 0.8"/>
      </g>
     </g>
     <g id="text_8">
      <!-- 0 -->
      <g transform="translate(31.2975 307.439219)scale(0.1 -0.1)">
       <use xlink:href="#DejaVuSans-30"/>
      </g>
     </g>
    </g>
    <g id="ytick_2">
     <g id="line2d_8">
      <g>
       <use xlink:href="#m1c1b843bc9" x="44.66" y="293.57677" style="stroke: #000000; stroke-width: 0.8"/>
      </g>
     </g>
     <g id="text_9">
      <!-- 1 -->
      <g transform="translate(31.2975 297.375989)scale(0.1 -0.1)">
       <use xlink:href="#DejaVuSans-31"/>
      </g>
     </g>
    </g>
    <g id="ytick_3">
     <g id="line2d_9">
      <g>
       <use xlink:href="#m1c1b843bc9" x="44.66" y="283.51354" style="stroke: #000000; stroke-width: 0.8"/>
      </g>
     </g>
     <g id="text_10">
      <!-- 2 -->
      <g transform="translate(31.2975 287.312758)scale(0.1 -0.1)">
       <use xlink:href="#DejaVuSans-32"/>
      </g>
     </g>
    </g>
    <g id="ytick_4">
     <g id="line2d_10">
      <g>
       <use xlink:href="#m1c1b843bc9" x="44.66" y="273.450309" style="stroke: #000000; stroke-width: 0.8"/>
      </g>
     </g>
     <g id="text_11">
      <!-- 3 -->
      <g transform="translate(31.2975 277.249528)scale(0.1 -0.1)">
       <defs>
        <path id="DejaVuSans-33" d="M 2597 2516 
Q 3050 2419 3304 2112 
Q 3559 1806 3559 1356 
Q 3559 666 3084 287 
Q 2609 -91 1734 -91 
Q 1441 -91 1130 -33 
Q 819 25 488 141 
L 488 750 
Q 750 597 1062 519 
Q 1375 441 1716 441 
Q 2309 441 2620 675 
Q 2931 909 2931 1356 
Q 2931 1769 2642 2001 
Q 2353 2234 1838 2234 
L 1294 2234 
L 1294 2753 
L 1863 2753 
Q 2328 2753 2575 2939 
Q 2822 3125 2822 3475 
Q 2822 3834 2567 4026 
Q 2313 4219 1838 4219 
Q 1578 4219 1281 4162 
Q 984 4106 628 3988 
L 628 4550 
Q 988 4650 1302 4700 
Q 1616 4750 1894 4750 
Q 2613 4750 3031 4423 
Q 3450 4097 3450 3541 
Q 3450 3153 3228 2886 
Q 3006 2619 2597 2516 
z
" transform="scale(0.015625)"/>
       </defs>
       <use xlink:href="#DejaVuSans-33"/>
      </g>
     </g>
    </g>
    <g id="ytick_5">
     <g id="line2d_11">
      <g>
       <use xlink:href="#m1c1b843bc9" x="44.66" y="263.387079" style="stroke: #000000; stroke-width: 0.8"/>
      </g>
     </g>
     <g id="text_12">
      <!-- 4 -->
      <g transform="translate(31.2975 267.186298)scale(0.1 -0.1)">
       <use xlink:href="#DejaVuSans-34"/>
      </g>
     </g>
    </g>
    <g id="ytick_6">
     <g id="line2d_12">
      <g>
       <use xlink:href="#m1c1b843bc9" x="44.66" y="253.323849" style="stroke: #000000; stroke-width: 0.8"/>
      </g>
     </g>
     <g id="text_13">
      <!-- 5 -->
      <g transform="translate(31.2975 257.123068)scale(0.1 -0.1)">
       <defs>
        <path id="DejaVuSans-35" d="M 691 4666 
L 3169 4666 
L 3169 4134 
L 1269 4134 
L 1269 2991 
Q 1406 3038 1543 3061 
Q 1681 3084 1819 3084 
Q 2600 3084 3056 2656 
Q 3513 2228 3513 1497 
Q 3513 744 3044 326 
Q 2575 -91 1722 -91 
Q 1428 -91 1123 -41 
Q 819 9 494 109 
L 494 744 
Q 775 591 1075 516 
Q 1375 441 1709 441 
Q 2250 441 2565 725 
Q 2881 1009 2881 1497 
Q 2881 1984 2565 2268 
Q 2250 2553 1709 2553 
Q 1456 2553 1204 2497 
Q 953 2441 691 2322 
L 691 4666 
z
" transform="scale(0.015625)"/>
       </defs>
       <use xlink:href="#DejaVuSans-35"/>
      </g>
     </g>
    </g>
    <g id="ytick_7">
     <g id="line2d_13">
      <g>
       <use xlink:href="#m1c1b843bc9" x="44.66" y="243.260619" style="stroke: #000000; stroke-width: 0.8"/>
      </g>
     </g>
     <g id="text_14">
      <!-- 6 -->
      <g transform="translate(31.2975 247.059837)scale(0.1 -0.1)">
       <use xlink:href="#DejaVuSans-36"/>
      </g>
     </g>
    </g>
    <g id="ytick_8">
     <g id="line2d_14">
      <g>
       <use xlink:href="#m1c1b843bc9" x="44.66" y="233.197388" style="stroke: #000000; stroke-width: 0.8"/>
      </g>
     </g>
     <g id="text_15">
      <!-- 7 -->
      <g transform="translate(31.2975 236.996607)scale(0.1 -0.1)">
       <defs>
        <path id="DejaVuSans-37" d="M 525 4666 
L 3525 4666 
L 3525 4397 
L 1831 0 
L 1172 0 
L 2766 4134 
L 525 4134 
L 525 4666 
z
" transform="scale(0.015625)"/>
       </defs>
       <use xlink:href="#DejaVuSans-37"/>
      </g>
     </g>
    </g>
    <g id="ytick_9">
     <g id="line2d_15">
      <g>
       <use xlink:href="#m1c1b843bc9" x="44.66" y="223.134158" style="stroke: #000000; stroke-width: 0.8"/>
      </g>
     </g>
     <g id="text_16">
      <!-- 8 -->
      <g transform="translate(31.2975 226.933377)scale(0.1 -0.1)">
       <use xlink:href="#DejaVuSans-38"/>
      </g>
     </g>
    </g>
    <g id="ytick_10">
     <g id="line2d_16">
      <g>
       <use xlink:href="#m1c1b843bc9" x="44.66" y="213.070928" style="stroke: #000000; stroke-width: 0.8"/>
      </g>
     </g>
     <g id="text_17">
      <!-- 9 -->
      <g transform="translate(31.2975 216.870147)scale(0.1 -0.1)">
       <defs>
        <path id="DejaVuSans-39" d="M 703 97 
L 703 672 
Q 941 559 1184 500 
Q 1428 441 1663 441 
Q 2288 441 2617 861 
Q 2947 1281 2994 2138 
Q 2813 1869 2534 1725 
Q 2256 1581 1919 1581 
Q 1219 1581 811 2004 
Q 403 2428 403 3163 
Q 403 3881 828 4315 
Q 1253 4750 1959 4750 
Q 2769 4750 3195 4129 
Q 3622 3509 3622 2328 
Q 3622 1225 3098 567 
Q 2575 -91 1691 -91 
Q 1453 -91 1209 -44 
Q 966 3 703 97 
z
M 1959 2075 
Q 2384 2075 2632 2365 
Q 2881 2656 2881 3163 
Q 2881 3666 2632 3958 
Q 2384 4250 1959 4250 
Q 1534 4250 1286 3958 
Q 1038 3666 1038 3163 
Q 1038 2656 1286 2365 
Q 1534 2075 1959 2075 
z
" transform="scale(0.015625)"/>
       </defs>
       <use xlink:href="#DejaVuSans-39"/>
      </g>
     </g>
    </g>
    <g id="ytick_11">
     <g id="line2d_17">
      <g>
       <use xlink:href="#m1c1b843bc9" x="44.66" y="203.007698" style="stroke: #000000; stroke-width: 0.8"/>
      </g>
     </g>
     <g id="text_18">
      <!-- 10 -->
      <g transform="translate(24.935 206.806916)scale(0.1 -0.1)">
       <use xlink:href="#DejaVuSans-31"/>
       <use xlink:href="#DejaVuSans-30" x="63.623047"/>
      </g>
     </g>
    </g>
    <g id="ytick_12">
     <g id="line2d_18">
      <g>
       <use xlink:href="#m1c1b843bc9" x="44.66" y="192.944467" style="stroke: #000000; stroke-width: 0.8"/>
      </g>
     </g>
     <g id="text_19">
      <!-- 11 -->
      <g transform="translate(24.935 196.743686)scale(0.1 -0.1)">
       <use xlink:href="#DejaVuSans-31"/>
       <use xlink:href="#DejaVuSans-31" x="63.623047"/>
      </g>
     </g>
    </g>
    <g id="ytick_13">
     <g id="line2d_19">
      <g>
       <use xlink:href="#m1c1b843bc9" x="44.66" y="182.881237" style="stroke: #000000; stroke-width: 0.8"/>
      </g>
     </g>
     <g id="text_20">
      <!-- 12 -->
      <g transform="translate(24.935 186.680456)scale(0.1 -0.1)">
       <use xlink:href="#DejaVuSans-31"/>
       <use xlink:href="#DejaVuSans-32" x="63.623047"/>
      </g>
     </g>
    </g>
    <g id="ytick_14">
     <g id="line2d_20">
      <g>
       <use xlink:href="#m1c1b843bc9" x="44.66" y="172.818007" style="stroke: #000000; stroke-width: 0.8"/>
      </g>
     </g>
     <g id="text_21">
      <!-- 13 -->
      <g transform="translate(24.935 176.617226)scale(0.1 -0.1)">
       <use xlink:href="#DejaVuSans-31"/>
       <use xlink:href="#DejaVuSans-33" x="63.623047"/>
      </g>
     </g>
    </g>
    <g id="ytick_15">
     <g id="line2d_21">
      <g>
       <use xlink:href="#m1c1b843bc9" x="44.66" y="162.754777" style="stroke: #000000; stroke-width: 0.8"/>
      </g>
     </g>
     <g id="text_22">
      <!-- 14 -->
      <g transform="translate(24.935 166.553995)scale(0.1 -0.1)">
       <use xlink:href="#DejaVuSans-31"/>
       <use xlink:href="#DejaVuSans-34" x="63.623047"/>
      </g>
     </g>
    </g>
    <g id="ytick_16">
     <g id="line2d_22">
      <g>
       <use xlink:href="#m1c1b843bc9" x="44.66" y="152.691546" style="stroke: #000000; stroke-width: 0.8"/>
      </g>
     </g>
     <g id="text_23">
      <!-- 15 -->
      <g transform="translate(24.935 156.490765)scale(0.1 -0.1)">
       <use xlink:href="#DejaVuSans-31"/>
       <use xlink:href="#DejaVuSans-35" x="63.623047"/>
      </g>
     </g>
    </g>
    <g id="ytick_17">
     <g id="line2d_23">
      <g>
       <use xlink:href="#m1c1b843bc9" x="44.66" y="142.628316" style="stroke: #000000; stroke-width: 0.8"/>
      </g>
     </g>
     <g id="text_24">
      <!-- 16 -->
      <g transform="translate(24.935 146.427535)scale(0.1 -0.1)">
       <use xlink:href="#DejaVuSans-31"/>
       <use xlink:href="#DejaVuSans-36" x="63.623047"/>
      </g>
     </g>
    </g>
    <g id="ytick_18">
     <g id="line2d_24">
      <g>
       <use xlink:href="#m1c1b843bc9" x="44.66" y="132.565086" style="stroke: #000000; stroke-width: 0.8"/>
      </g>
     </g>
     <g id="text_25">
      <!-- 17 -->
      <g transform="translate(24.935 136.364305)scale(0.1 -0.1)">
       <use xlink:href="#DejaVuSans-31"/>
       <use xlink:href="#DejaVuSans-37" x="63.623047"/>
      </g>
     </g>
    </g>
    <g id="ytick_19">
     <g id="line2d_25">
      <g>
       <use xlink:href="#m1c1b843bc9" x="44.66" y="122.501856" style="stroke: #000000; stroke-width: 0.8"/>
      </g>
     </g>
     <g id="text_26">
      <!-- 18 -->
      <g transform="translate(24.935 126.301074)scale(0.1 -0.1)">
       <use xlink:href="#DejaVuSans-31"/>
       <use xlink:href="#DejaVuSans-38" x="63.623047"/>
      </g>
     </g>
    </g>
    <g id="ytick_20">
     <g id="line2d_26">
      <g>
       <use xlink:href="#m1c1b843bc9" x="44.66" y="112.438625" style="stroke: #000000; stroke-width: 0.8"/>
      </g>
     </g>
     <g id="text_27">
      <!-- 19 -->
      <g transform="translate(24.935 116.237844)scale(0.1 -0.1)">
       <use xlink:href="#DejaVuSans-31"/>
       <use xlink:href="#DejaVuSans-39" x="63.623047"/>
      </g>
     </g>
    </g>
    <g id="ytick_21">
     <g id="line2d_27">
      <g>
       <use xlink:href="#m1c1b843bc9" x="44.66" y="102.375395" style="stroke: #000000; stroke-width: 0.8"/>
      </g>
     </g>
     <g id="text_28">
      <!-- 20 -->
      <g transform="translate(24.935 106.174614)scale(0.1 -0.1)">
       <use xlink:href="#DejaVuSans-32"/>
       <use xlink:href="#DejaVuSans-30" x="63.623047"/>
      </g>
     </g>
    </g>
    <g id="ytick_22">
     <g id="line2d_28">
      <g>
       <use xlink:href="#m1c1b843bc9" x="44.66" y="92.312165" style="stroke: #000000; stroke-width: 0.8"/>
      </g>
     </g>
     <g id="text_29">
      <!-- 21 -->
      <g transform="translate(24.935 96.111384)scale(0.1 -0.1)">
       <use xlink:href="#DejaVuSans-32"/>
       <use xlink:href="#DejaVuSans-31" x="63.623047"/>
      </g>
     </g>
    </g>
    <g id="ytick_23">
     <g id="line2d_29">
      <g>
       <use xlink:href="#m1c1b843bc9" x="44.66" y="82.248935" style="stroke: #000000; stroke-width: 0.8"/>
      </g>
     </g>
     <g id="text_30">
      <!-- 22 -->
      <g transform="translate(24.935 86.048153)scale(0.1 -0.1)">
       <use xlink:href="#DejaVuSans-32"/>
       <use xlink:href="#DejaVuSans-32" x="63.623047"/>
      </g>
     </g>
    </g>
    <g id="ytick_24">
     <g id="line2d_30">
      <g>
       <use xlink:href="#m1c1b843bc9" x="44.66" y="72.185704" style="stroke: #000000; stroke-width: 0.8"/>
      </g>
     </g>
     <g id="text_31">
      <!-- 23 -->
      <g transform="translate(24.935 75.984923)scale(0.1 -0.1)">
       <use xlink:href="#DejaVuSans-32"/>
       <use xlink:href="#DejaVuSans-33" x="63.623047"/>
      </g>
     </g>
    </g>
    <g id="ytick_25">
     <g id="line2d_31">
      <g>
       <use xlink:href="#m1c1b843bc9" x="44.66" y="62.122474" style="stroke: #000000; stroke-width: 0.8"/>
      </g>
     </g>
     <g id="text_32">
      <!-- 24 -->
      <g transform="translate(24.935 65.921693)scale(0.1 -0.1)">
       <use xlink:href="#DejaVuSans-32"/>
       <use xlink:href="#DejaVuSans-34" x="63.623047"/>
      </g>
     </g>
    </g>
    <g id="ytick_26">
     <g id="line2d_32">
      <g>
       <use xlink:href="#m1c1b843bc9" x="44.66" y="52.059244" style="stroke: #000000; stroke-width: 0.8"/>
      </g>
     </g>
     <g id="text_33">
      <!-- 25 -->
      <g transform="translate(24.935 55.858463)scale(0.1 -0.1)">
       <use xlink:href="#DejaVuSans-32"/>
       <use xlink:href="#DejaVuSans-35" x="63.623047"/>
      </g>
     </g>
    </g>
    <g id="ytick_27">
     <g id="line2d_33">
      <g>
       <use xlink:href="#m1c1b843bc9" x="44.66" y="41.996014" style="stroke: #000000; stroke-width: 0.8"/>
      </g>
     </g>
     <g id="text_34">
      <!-- 26 -->
      <g transform="translate(24.935 45.795232)scale(0.1 -0.1)">
       <use xlink:href="#DejaVuSans-32"/>
       <use xlink:href="#DejaVuSans-36" x="63.623047"/>
      </g>
     </g>
    </g>
    <g id="ytick_28">
     <g id="line2d_34">
      <g>
       <use xlink:href="#m1c1b843bc9" x="44.66" y="31.932784" style="stroke: #000000; stroke-width: 0.8"/>
      </g>
     </g>
     <g id="text_35">
      <!-- 27 -->
      <g transform="translate(24.935 35.732002)scale(0.1 -0.1)">
       <use xlink:href="#DejaVuSans-32"/>
       <use xlink:href="#DejaVuSans-37" x="63.623047"/>
      </g>
     </g>
    </g>
    <g id="ytick_29">
     <g id="line2d_35">
      <g>
       <use xlink:href="#m1c1b843bc9" x="44.66" y="21.869553" style="stroke: #000000; stroke-width: 0.8"/>
      </g>
     </g>
     <g id="text_36">
      <!-- 28 -->
      <g transform="translate(24.935 25.668772)scale(0.1 -0.1)">
       <use xlink:href="#DejaVuSans-32"/>
       <use xlink:href="#DejaVuSans-38" x="63.623047"/>
      </g>
     </g>
    </g>
    <g id="text_37">
     <!-- Number of cumulative correctly repaired bugs -->
     <g transform="translate(18.855313 272.6825)rotate(-90)scale(0.1 -0.1)">
      <defs>
       <path id="DejaVuSans-4e" d="M 628 4666 
L 1478 4666 
L 3547 763 
L 3547 4666 
L 4159 4666 
L 4159 0 
L 3309 0 
L 1241 3903 
L 1241 0 
L 628 0 
L 628 4666 
z
" transform="scale(0.015625)"/>
       <path id="DejaVuSans-75" d="M 544 1381 
L 544 3500 
L 1119 3500 
L 1119 1403 
Q 1119 906 1312 657 
Q 1506 409 1894 409 
Q 2359 409 2629 706 
Q 2900 1003 2900 1516 
L 2900 3500 
L 3475 3500 
L 3475 0 
L 2900 0 
L 2900 538 
Q 2691 219 2414 64 
Q 2138 -91 1772 -91 
Q 1169 -91 856 284 
Q 544 659 544 1381 
z
M 1991 3584 
L 1991 3584 
z
" transform="scale(0.015625)"/>
       <path id="DejaVuSans-62" d="M 3116 1747 
Q 3116 2381 2855 2742 
Q 2594 3103 2138 3103 
Q 1681 3103 1420 2742 
Q 1159 2381 1159 1747 
Q 1159 1113 1420 752 
Q 1681 391 2138 391 
Q 2594 391 2855 752 
Q 3116 1113 3116 1747 
z
M 1159 2969 
Q 1341 3281 1617 3432 
Q 1894 3584 2278 3584 
Q 2916 3584 3314 3078 
Q 3713 2572 3713 1747 
Q 3713 922 3314 415 
Q 2916 -91 2278 -91 
Q 1894 -91 1617 61 
Q 1341 213 1159 525 
L 1159 0 
L 581 0 
L 581 4863 
L 1159 4863 
L 1159 2969 
z
" transform="scale(0.015625)"/>
       <path id="DejaVuSans-72" d="M 2631 2963 
Q 2534 3019 2420 3045 
Q 2306 3072 2169 3072 
Q 1681 3072 1420 2755 
Q 1159 2438 1159 1844 
L 1159 0 
L 581 0 
L 581 3500 
L 1159 3500 
L 1159 2956 
Q 1341 3275 1631 3429 
Q 1922 3584 2338 3584 
Q 2397 3584 2469 3576 
Q 2541 3569 2628 3553 
L 2631 2963 
z
" transform="scale(0.015625)"/>
       <path id="DejaVuSans-66" d="M 2375 4863 
L 2375 4384 
L 1825 4384 
Q 1516 4384 1395 4259 
Q 1275 4134 1275 3809 
L 1275 3500 
L 2222 3500 
L 2222 3053 
L 1275 3053 
L 1275 0 
L 697 0 
L 697 3053 
L 147 3053 
L 147 3500 
L 697 3500 
L 697 3744 
Q 697 4328 969 4595 
Q 1241 4863 1831 4863 
L 2375 4863 
z
" transform="scale(0.015625)"/>
       <path id="DejaVuSans-63" d="M 3122 3366 
L 3122 2828 
Q 2878 2963 2633 3030 
Q 2388 3097 2138 3097 
Q 1578 3097 1268 2742 
Q 959 2388 959 1747 
Q 959 1106 1268 751 
Q 1578 397 2138 397 
Q 2388 397 2633 464 
Q 2878 531 3122 666 
L 3122 134 
Q 2881 22 2623 -34 
Q 2366 -91 2075 -91 
Q 1284 -91 818 406 
Q 353 903 353 1747 
Q 353 2603 823 3093 
Q 1294 3584 2113 3584 
Q 2378 3584 2631 3529 
Q 2884 3475 3122 3366 
z
" transform="scale(0.015625)"/>
       <path id="DejaVuSans-6c" d="M 603 4863 
L 1178 4863 
L 1178 0 
L 603 0 
L 603 4863 
z
" transform="scale(0.015625)"/>
       <path id="DejaVuSans-76" d="M 191 3500 
L 800 3500 
L 1894 563 
L 2988 3500 
L 3597 3500 
L 2284 0 
L 1503 0 
L 191 3500 
z
" transform="scale(0.015625)"/>
       <path id="DejaVuSans-79" d="M 2059 -325 
Q 1816 -950 1584 -1140 
Q 1353 -1331 966 -1331 
L 506 -1331 
L 506 -850 
L 844 -850 
Q 1081 -850 1212 -737 
Q 1344 -625 1503 -206 
L 1606 56 
L 191 3500 
L 800 3500 
L 1894 763 
L 2988 3500 
L 3597 3500 
L 2059 -325 
z
" transform="scale(0.015625)"/>
       <path id="DejaVuSans-64" d="M 2906 2969 
L 2906 4863 
L 3481 4863 
L 3481 0 
L 2906 0 
L 2906 525 
Q 2725 213 2448 61 
Q 2172 -91 1784 -91 
Q 1150 -91 751 415 
Q 353 922 353 1747 
Q 353 2572 751 3078 
Q 1150 3584 1784 3584 
Q 2172 3584 2448 3432 
Q 2725 3281 2906 2969 
z
M 947 1747 
Q 947 1113 1208 752 
Q 1469 391 1925 391 
Q 2381 391 2643 752 
Q 2906 1113 2906 1747 
Q 2906 2381 2643 2742 
Q 2381 3103 1925 3103 
Q 1469 3103 1208 2742 
Q 947 2381 947 1747 
z
" transform="scale(0.015625)"/>
       <path id="DejaVuSans-67" d="M 2906 1791 
Q 2906 2416 2648 2759 
Q 2391 3103 1925 3103 
Q 1463 3103 1205 2759 
Q 947 2416 947 1791 
Q 947 1169 1205 825 
Q 1463 481 1925 481 
Q 2391 481 2648 825 
Q 2906 1169 2906 1791 
z
M 3481 434 
Q 3481 -459 3084 -895 
Q 2688 -1331 1869 -1331 
Q 1566 -1331 1297 -1286 
Q 1028 -1241 775 -1147 
L 775 -588 
Q 1028 -725 1275 -790 
Q 1522 -856 1778 -856 
Q 2344 -856 2625 -561 
Q 2906 -266 2906 331 
L 2906 616 
Q 2728 306 2450 153 
Q 2172 0 1784 0 
Q 1141 0 747 490 
Q 353 981 353 1791 
Q 353 2603 747 3093 
Q 1141 3584 1784 3584 
Q 2172 3584 2450 3431 
Q 2728 3278 2906 2969 
L 2906 3500 
L 3481 3500 
L 3481 434 
z
" transform="scale(0.015625)"/>
      </defs>
      <use xlink:href="#DejaVuSans-4e"/>
      <use xlink:href="#DejaVuSans-75" x="74.804688"/>
      <use xlink:href="#DejaVuSans-6d" x="138.183594"/>
      <use xlink:href="#DejaVuSans-62" x="235.595703"/>
      <use xlink:href="#DejaVuSans-65" x="299.072266"/>
      <use xlink:href="#DejaVuSans-72" x="360.595703"/>
      <use xlink:href="#DejaVuSans-20" x="401.708984"/>
      <use xlink:href="#DejaVuSans-6f" x="433.496094"/>
      <use xlink:href="#DejaVuSans-66" x="494.677734"/>
      <use xlink:href="#DejaVuSans-20" x="529.882812"/>
      <use xlink:href="#DejaVuSans-63" x="561.669922"/>
      <use xlink:href="#DejaVuSans-75" x="616.650391"/>
      <use xlink:href="#DejaVuSans-6d" x="680.029297"/>
      <use xlink:href="#DejaVuSans-75" x="777.441406"/>
      <use xlink:href="#DejaVuSans-6c" x="840.820312"/>
      <use xlink:href="#DejaVuSans-61" x="868.603516"/>
      <use xlink:href="#DejaVuSans-74" x="929.882812"/>
      <use xlink:href="#DejaVuSans-69" x="969.091797"/>
      <use xlink:href="#DejaVuSans-76" x="996.875"/>
      <use xlink:href="#DejaVuSans-65" x="1056.054688"/>
      <use xlink:href="#DejaVuSans-20" x="1117.578125"/>
      <use xlink:href="#DejaVuSans-63" x="1149.365234"/>
      <use xlink:href="#DejaVuSans-6f" x="1204.345703"/>
      <use xlink:href="#DejaVuSans-72" x="1265.527344"/>
      <use xlink:href="#DejaVuSans-72" x="1304.890625"/>
      <use xlink:href="#DejaVuSans-65" x="1343.753906"/>
      <use xlink:href="#DejaVuSans-63" x="1405.277344"/>
      <use xlink:href="#DejaVuSans-74" x="1460.257812"/>
      <use xlink:href="#DejaVuSans-6c" x="1499.466797"/>
      <use xlink:href="#DejaVuSans-79" x="1527.25"/>
      <use xlink:href="#DejaVuSans-20" x="1586.429688"/>
      <use xlink:href="#DejaVuSans-72" x="1618.216797"/>
      <use xlink:href="#DejaVuSans-65" x="1657.080078"/>
      <use xlink:href="#DejaVuSans-70" x="1718.603516"/>
      <use xlink:href="#DejaVuSans-61" x="1782.080078"/>
      <use xlink:href="#DejaVuSans-69" x="1843.359375"/>
      <use xlink:href="#DejaVuSans-72" x="1871.142578"/>
      <use xlink:href="#DejaVuSans-65" x="1910.005859"/>
      <use xlink:href="#DejaVuSans-64" x="1971.529297"/>
      <use xlink:href="#DejaVuSans-20" x="2035.005859"/>
      <use xlink:href="#DejaVuSans-62" x="2066.792969"/>
      <use xlink:href="#DejaVuSans-75" x="2130.269531"/>
      <use xlink:href="#DejaVuSans-67" x="2193.648438"/>
      <use xlink:href="#DejaVuSans-73" x="2257.125"/>
     </g>
    </g>
   </g>
   <g id="line2d_36">
    <path d="M 63.084545 243.260619 
L 66.806676 233.197388 
L 70.528806 233.197388 
L 74.250937 223.134158 
L 77.973067 213.070928 
L 81.695197 213.070928 
L 85.417328 213.070928 
L 89.139458 213.070928 
L 92.861589 203.007698 
L 96.583719 203.007698 
L 100.305849 203.007698 
L 104.02798 203.007698 
L 107.75011 203.007698 
L 111.472241 203.007698 
L 115.194371 203.007698 
L 118.916501 192.944467 
L 122.638632 192.944467 
L 126.360762 192.944467 
L 130.082893 192.944467 
L 133.805023 192.944467 
L 137.527153 192.944467 
L 141.249284 192.944467 
L 144.971414 182.881237 
L 148.693545 172.818007 
L 152.415675 172.818007 
L 156.137805 172.818007 
L 159.859936 172.818007 
L 163.582066 172.818007 
L 167.304197 172.818007 
L 171.026327 172.818007 
L 174.748457 172.818007 
L 178.470588 172.818007 
L 182.192718 172.818007 
L 185.914848 172.818007 
L 189.636979 172.818007 
L 193.359109 172.818007 
L 197.08124 172.818007 
L 200.80337 172.818007 
L 204.5255 172.818007 
L 208.247631 172.818007 
L 211.969761 172.818007 
L 215.691892 172.818007 
L 219.414022 172.818007 
L 223.136152 172.818007 
L 226.858283 172.818007 
L 230.580413 172.818007 
L 234.302544 172.818007 
L 238.024674 172.818007 
L 241.746804 172.818007 
L 245.468935 172.818007 
L 249.191065 172.818007 
L 252.913196 172.818007 
L 256.635326 172.818007 
L 260.357456 172.818007 
L 264.079587 172.818007 
L 267.801717 172.818007 
L 271.523848 172.818007 
L 275.245978 162.754777 
L 278.968108 162.754777 
L 282.690239 162.754777 
L 286.412369 162.754777 
L 290.1345 162.754777 
L 293.85663 162.754777 
L 297.57876 162.754777 
L 301.300891 162.754777 
L 305.023021 162.754777 
L 308.745152 152.691546 
L 312.467282 152.691546 
L 316.189412 152.691546 
L 319.911543 152.691546 
L 323.633673 152.691546 
L 327.355803 152.691546 
L 331.077934 152.691546 
L 334.800064 152.691546 
L 338.522195 152.691546 
L 342.244325 152.691546 
L 345.966455 152.691546 
L 349.688586 152.691546 
L 353.410716 152.691546 
L 357.132847 152.691546 
L 360.854977 152.691546 
L 364.577107 152.691546 
L 368.299238 152.691546 
L 372.021368 152.691546 
L 375.743499 152.691546 
L 379.465629 152.691546 
L 383.187759 152.691546 
L 386.90989 152.691546 
L 390.63202 152.691546 
L 394.354151 152.691546 
L 398.076281 152.691546 
L 401.798411 152.691546 
L 405.520542 152.691546 
L 409.242672 152.691546 
L 412.964803 152.691546 
L 416.686933 152.691546 
L 420.409063 152.691546 
L 424.131194 152.691546 
L 427.853324 152.691546 
L 431.575455 142.628316 
" clip-path="url(#pd8e1ec5d68)" style="fill: none; stroke: #1f77b4; stroke-width: 1.5; stroke-linecap: square"/>
    <defs>
     <path id="m4ae569caf6" d="M 0 3 
C 0.795609 3 1.55874 2.683901 2.12132 2.12132 
C 2.683901 1.55874 3 0.795609 3 0 
C 3 -0.795609 2.683901 -1.55874 2.12132 -2.12132 
C 1.55874 -2.683901 0.795609 -3 0 -3 
C -0.795609 -3 -1.55874 -2.683901 -2.12132 -2.12132 
C -2.683901 -1.55874 -3 -0.795609 -3 0 
C -3 0.795609 -2.683901 1.55874 -2.12132 2.12132 
C -1.55874 2.683901 -0.795609 3 0 3 
z
" style="stroke: #1f77b4"/>
    </defs>
    <g clip-path="url(#pd8e1ec5d68)">
     <use xlink:href="#m4ae569caf6" x="63.084545" y="243.260619" style="fill: #1f77b4; stroke: #1f77b4"/>
     <use xlink:href="#m4ae569caf6" x="66.806676" y="233.197388" style="fill: #1f77b4; stroke: #1f77b4"/>
     <use xlink:href="#m4ae569caf6" x="70.528806" y="233.197388" style="fill: #1f77b4; stroke: #1f77b4"/>
     <use xlink:href="#m4ae569caf6" x="74.250937" y="223.134158" style="fill: #1f77b4; stroke: #1f77b4"/>
     <use xlink:href="#m4ae569caf6" x="77.973067" y="213.070928" style="fill: #1f77b4; stroke: #1f77b4"/>
     <use xlink:href="#m4ae569caf6" x="81.695197" y="213.070928" style="fill: #1f77b4; stroke: #1f77b4"/>
     <use xlink:href="#m4ae569caf6" x="85.417328" y="213.070928" style="fill: #1f77b4; stroke: #1f77b4"/>
     <use xlink:href="#m4ae569caf6" x="89.139458" y="213.070928" style="fill: #1f77b4; stroke: #1f77b4"/>
     <use xlink:href="#m4ae569caf6" x="92.861589" y="203.007698" style="fill: #1f77b4; stroke: #1f77b4"/>
     <use xlink:href="#m4ae569caf6" x="96.583719" y="203.007698" style="fill: #1f77b4; stroke: #1f77b4"/>
     <use xlink:href="#m4ae569caf6" x="100.305849" y="203.007698" style="fill: #1f77b4; stroke: #1f77b4"/>
     <use xlink:href="#m4ae569caf6" x="104.02798" y="203.007698" style="fill: #1f77b4; stroke: #1f77b4"/>
     <use xlink:href="#m4ae569caf6" x="107.75011" y="203.007698" style="fill: #1f77b4; stroke: #1f77b4"/>
     <use xlink:href="#m4ae569caf6" x="111.472241" y="203.007698" style="fill: #1f77b4; stroke: #1f77b4"/>
     <use xlink:href="#m4ae569caf6" x="115.194371" y="203.007698" style="fill: #1f77b4; stroke: #1f77b4"/>
     <use xlink:href="#m4ae569caf6" x="118.916501" y="192.944467" style="fill: #1f77b4; stroke: #1f77b4"/>
     <use xlink:href="#m4ae569caf6" x="122.638632" y="192.944467" style="fill: #1f77b4; stroke: #1f77b4"/>
     <use xlink:href="#m4ae569caf6" x="126.360762" y="192.944467" style="fill: #1f77b4; stroke: #1f77b4"/>
     <use xlink:href="#m4ae569caf6" x="130.082893" y="192.944467" style="fill: #1f77b4; stroke: #1f77b4"/>
     <use xlink:href="#m4ae569caf6" x="133.805023" y="192.944467" style="fill: #1f77b4; stroke: #1f77b4"/>
     <use xlink:href="#m4ae569caf6" x="137.527153" y="192.944467" style="fill: #1f77b4; stroke: #1f77b4"/>
     <use xlink:href="#m4ae569caf6" x="141.249284" y="192.944467" style="fill: #1f77b4; stroke: #1f77b4"/>
     <use xlink:href="#m4ae569caf6" x="144.971414" y="182.881237" style="fill: #1f77b4; stroke: #1f77b4"/>
     <use xlink:href="#m4ae569caf6" x="148.693545" y="172.818007" style="fill: #1f77b4; stroke: #1f77b4"/>
     <use xlink:href="#m4ae569caf6" x="152.415675" y="172.818007" style="fill: #1f77b4; stroke: #1f77b4"/>
     <use xlink:href="#m4ae569caf6" x="156.137805" y="172.818007" style="fill: #1f77b4; stroke: #1f77b4"/>
     <use xlink:href="#m4ae569caf6" x="159.859936" y="172.818007" style="fill: #1f77b4; stroke: #1f77b4"/>
     <use xlink:href="#m4ae569caf6" x="163.582066" y="172.818007" style="fill: #1f77b4; stroke: #1f77b4"/>
     <use xlink:href="#m4ae569caf6" x="167.304197" y="172.818007" style="fill: #1f77b4; stroke: #1f77b4"/>
     <use xlink:href="#m4ae569caf6" x="171.026327" y="172.818007" style="fill: #1f77b4; stroke: #1f77b4"/>
     <use xlink:href="#m4ae569caf6" x="174.748457" y="172.818007" style="fill: #1f77b4; stroke: #1f77b4"/>
     <use xlink:href="#m4ae569caf6" x="178.470588" y="172.818007" style="fill: #1f77b4; stroke: #1f77b4"/>
     <use xlink:href="#m4ae569caf6" x="182.192718" y="172.818007" style="fill: #1f77b4; stroke: #1f77b4"/>
     <use xlink:href="#m4ae569caf6" x="185.914848" y="172.818007" style="fill: #1f77b4; stroke: #1f77b4"/>
     <use xlink:href="#m4ae569caf6" x="189.636979" y="172.818007" style="fill: #1f77b4; stroke: #1f77b4"/>
     <use xlink:href="#m4ae569caf6" x="193.359109" y="172.818007" style="fill: #1f77b4; stroke: #1f77b4"/>
     <use xlink:href="#m4ae569caf6" x="197.08124" y="172.818007" style="fill: #1f77b4; stroke: #1f77b4"/>
     <use xlink:href="#m4ae569caf6" x="200.80337" y="172.818007" style="fill: #1f77b4; stroke: #1f77b4"/>
     <use xlink:href="#m4ae569caf6" x="204.5255" y="172.818007" style="fill: #1f77b4; stroke: #1f77b4"/>
     <use xlink:href="#m4ae569caf6" x="208.247631" y="172.818007" style="fill: #1f77b4; stroke: #1f77b4"/>
     <use xlink:href="#m4ae569caf6" x="211.969761" y="172.818007" style="fill: #1f77b4; stroke: #1f77b4"/>
     <use xlink:href="#m4ae569caf6" x="215.691892" y="172.818007" style="fill: #1f77b4; stroke: #1f77b4"/>
     <use xlink:href="#m4ae569caf6" x="219.414022" y="172.818007" style="fill: #1f77b4; stroke: #1f77b4"/>
     <use xlink:href="#m4ae569caf6" x="223.136152" y="172.818007" style="fill: #1f77b4; stroke: #1f77b4"/>
     <use xlink:href="#m4ae569caf6" x="226.858283" y="172.818007" style="fill: #1f77b4; stroke: #1f77b4"/>
     <use xlink:href="#m4ae569caf6" x="230.580413" y="172.818007" style="fill: #1f77b4; stroke: #1f77b4"/>
     <use xlink:href="#m4ae569caf6" x="234.302544" y="172.818007" style="fill: #1f77b4; stroke: #1f77b4"/>
     <use xlink:href="#m4ae569caf6" x="238.024674" y="172.818007" style="fill: #1f77b4; stroke: #1f77b4"/>
     <use xlink:href="#m4ae569caf6" x="241.746804" y="172.818007" style="fill: #1f77b4; stroke: #1f77b4"/>
     <use xlink:href="#m4ae569caf6" x="245.468935" y="172.818007" style="fill: #1f77b4; stroke: #1f77b4"/>
     <use xlink:href="#m4ae569caf6" x="249.191065" y="172.818007" style="fill: #1f77b4; stroke: #1f77b4"/>
     <use xlink:href="#m4ae569caf6" x="252.913196" y="172.818007" style="fill: #1f77b4; stroke: #1f77b4"/>
     <use xlink:href="#m4ae569caf6" x="256.635326" y="172.818007" style="fill: #1f77b4; stroke: #1f77b4"/>
     <use xlink:href="#m4ae569caf6" x="260.357456" y="172.818007" style="fill: #1f77b4; stroke: #1f77b4"/>
     <use xlink:href="#m4ae569caf6" x="264.079587" y="172.818007" style="fill: #1f77b4; stroke: #1f77b4"/>
     <use xlink:href="#m4ae569caf6" x="267.801717" y="172.818007" style="fill: #1f77b4; stroke: #1f77b4"/>
     <use xlink:href="#m4ae569caf6" x="271.523848" y="172.818007" style="fill: #1f77b4; stroke: #1f77b4"/>
     <use xlink:href="#m4ae569caf6" x="275.245978" y="162.754777" style="fill: #1f77b4; stroke: #1f77b4"/>
     <use xlink:href="#m4ae569caf6" x="278.968108" y="162.754777" style="fill: #1f77b4; stroke: #1f77b4"/>
     <use xlink:href="#m4ae569caf6" x="282.690239" y="162.754777" style="fill: #1f77b4; stroke: #1f77b4"/>
     <use xlink:href="#m4ae569caf6" x="286.412369" y="162.754777" style="fill: #1f77b4; stroke: #1f77b4"/>
     <use xlink:href="#m4ae569caf6" x="290.1345" y="162.754777" style="fill: #1f77b4; stroke: #1f77b4"/>
     <use xlink:href="#m4ae569caf6" x="293.85663" y="162.754777" style="fill: #1f77b4; stroke: #1f77b4"/>
     <use xlink:href="#m4ae569caf6" x="297.57876" y="162.754777" style="fill: #1f77b4; stroke: #1f77b4"/>
     <use xlink:href="#m4ae569caf6" x="301.300891" y="162.754777" style="fill: #1f77b4; stroke: #1f77b4"/>
     <use xlink:href="#m4ae569caf6" x="305.023021" y="162.754777" style="fill: #1f77b4; stroke: #1f77b4"/>
     <use xlink:href="#m4ae569caf6" x="308.745152" y="152.691546" style="fill: #1f77b4; stroke: #1f77b4"/>
     <use xlink:href="#m4ae569caf6" x="312.467282" y="152.691546" style="fill: #1f77b4; stroke: #1f77b4"/>
     <use xlink:href="#m4ae569caf6" x="316.189412" y="152.691546" style="fill: #1f77b4; stroke: #1f77b4"/>
     <use xlink:href="#m4ae569caf6" x="319.911543" y="152.691546" style="fill: #1f77b4; stroke: #1f77b4"/>
     <use xlink:href="#m4ae569caf6" x="323.633673" y="152.691546" style="fill: #1f77b4; stroke: #1f77b4"/>
     <use xlink:href="#m4ae569caf6" x="327.355803" y="152.691546" style="fill: #1f77b4; stroke: #1f77b4"/>
     <use xlink:href="#m4ae569caf6" x="331.077934" y="152.691546" style="fill: #1f77b4; stroke: #1f77b4"/>
     <use xlink:href="#m4ae569caf6" x="334.800064" y="152.691546" style="fill: #1f77b4; stroke: #1f77b4"/>
     <use xlink:href="#m4ae569caf6" x="338.522195" y="152.691546" style="fill: #1f77b4; stroke: #1f77b4"/>
     <use xlink:href="#m4ae569caf6" x="342.244325" y="152.691546" style="fill: #1f77b4; stroke: #1f77b4"/>
     <use xlink:href="#m4ae569caf6" x="345.966455" y="152.691546" style="fill: #1f77b4; stroke: #1f77b4"/>
     <use xlink:href="#m4ae569caf6" x="349.688586" y="152.691546" style="fill: #1f77b4; stroke: #1f77b4"/>
     <use xlink:href="#m4ae569caf6" x="353.410716" y="152.691546" style="fill: #1f77b4; stroke: #1f77b4"/>
     <use xlink:href="#m4ae569caf6" x="357.132847" y="152.691546" style="fill: #1f77b4; stroke: #1f77b4"/>
     <use xlink:href="#m4ae569caf6" x="360.854977" y="152.691546" style="fill: #1f77b4; stroke: #1f77b4"/>
     <use xlink:href="#m4ae569caf6" x="364.577107" y="152.691546" style="fill: #1f77b4; stroke: #1f77b4"/>
     <use xlink:href="#m4ae569caf6" x="368.299238" y="152.691546" style="fill: #1f77b4; stroke: #1f77b4"/>
     <use xlink:href="#m4ae569caf6" x="372.021368" y="152.691546" style="fill: #1f77b4; stroke: #1f77b4"/>
     <use xlink:href="#m4ae569caf6" x="375.743499" y="152.691546" style="fill: #1f77b4; stroke: #1f77b4"/>
     <use xlink:href="#m4ae569caf6" x="379.465629" y="152.691546" style="fill: #1f77b4; stroke: #1f77b4"/>
     <use xlink:href="#m4ae569caf6" x="383.187759" y="152.691546" style="fill: #1f77b4; stroke: #1f77b4"/>
     <use xlink:href="#m4ae569caf6" x="386.90989" y="152.691546" style="fill: #1f77b4; stroke: #1f77b4"/>
     <use xlink:href="#m4ae569caf6" x="390.63202" y="152.691546" style="fill: #1f77b4; stroke: #1f77b4"/>
     <use xlink:href="#m4ae569caf6" x="394.354151" y="152.691546" style="fill: #1f77b4; stroke: #1f77b4"/>
     <use xlink:href="#m4ae569caf6" x="398.076281" y="152.691546" style="fill: #1f77b4; stroke: #1f77b4"/>
     <use xlink:href="#m4ae569caf6" x="401.798411" y="152.691546" style="fill: #1f77b4; stroke: #1f77b4"/>
     <use xlink:href="#m4ae569caf6" x="405.520542" y="152.691546" style="fill: #1f77b4; stroke: #1f77b4"/>
     <use xlink:href="#m4ae569caf6" x="409.242672" y="152.691546" style="fill: #1f77b4; stroke: #1f77b4"/>
     <use xlink:href="#m4ae569caf6" x="412.964803" y="152.691546" style="fill: #1f77b4; stroke: #1f77b4"/>
     <use xlink:href="#m4ae569caf6" x="416.686933" y="152.691546" style="fill: #1f77b4; stroke: #1f77b4"/>
     <use xlink:href="#m4ae569caf6" x="420.409063" y="152.691546" style="fill: #1f77b4; stroke: #1f77b4"/>
     <use xlink:href="#m4ae569caf6" x="424.131194" y="152.691546" style="fill: #1f77b4; stroke: #1f77b4"/>
     <use xlink:href="#m4ae569caf6" x="427.853324" y="152.691546" style="fill: #1f77b4; stroke: #1f77b4"/>
     <use xlink:href="#m4ae569caf6" x="431.575455" y="142.628316" style="fill: #1f77b4; stroke: #1f77b4"/>
    </g>
   </g>
   <g id="line2d_37">
    <path d="M 63.084545 243.260619 
L 66.806676 233.197388 
L 70.528806 223.134158 
L 74.250937 223.134158 
L 77.973067 223.134158 
L 81.695197 223.134158 
L 85.417328 223.134158 
L 89.139458 223.134158 
L 92.861589 213.070928 
L 96.583719 213.070928 
L 100.305849 213.070928 
L 104.02798 213.070928 
L 107.75011 203.007698 
L 111.472241 192.944467 
L 115.194371 192.944467 
L 118.916501 192.944467 
L 122.638632 182.881237 
L 126.360762 182.881237 
L 130.082893 182.881237 
L 133.805023 182.881237 
L 137.527153 182.881237 
L 141.249284 182.881237 
L 144.971414 182.881237 
L 148.693545 182.881237 
L 152.415675 182.881237 
L 156.137805 182.881237 
L 159.859936 182.881237 
L 163.582066 182.881237 
L 167.304197 182.881237 
L 171.026327 182.881237 
L 174.748457 182.881237 
L 178.470588 182.881237 
L 182.192718 182.881237 
L 185.914848 182.881237 
L 189.636979 182.881237 
L 193.359109 182.881237 
L 197.08124 182.881237 
L 200.80337 182.881237 
L 204.5255 182.881237 
L 208.247631 182.881237 
L 211.969761 182.881237 
L 215.691892 182.881237 
L 219.414022 182.881237 
L 223.136152 182.881237 
L 226.858283 182.881237 
L 230.580413 182.881237 
L 234.302544 182.881237 
L 238.024674 182.881237 
L 241.746804 182.881237 
L 245.468935 182.881237 
L 249.191065 172.818007 
L 252.913196 172.818007 
L 256.635326 172.818007 
L 260.357456 172.818007 
L 264.079587 172.818007 
L 267.801717 172.818007 
L 271.523848 172.818007 
L 275.245978 172.818007 
L 278.968108 172.818007 
L 282.690239 172.818007 
L 286.412369 172.818007 
L 290.1345 172.818007 
L 293.85663 172.818007 
L 297.57876 172.818007 
L 301.300891 172.818007 
L 305.023021 172.818007 
L 308.745152 162.754777 
L 312.467282 162.754777 
L 316.189412 162.754777 
L 319.911543 162.754777 
L 323.633673 162.754777 
L 327.355803 162.754777 
L 331.077934 162.754777 
L 334.800064 162.754777 
L 338.522195 162.754777 
L 342.244325 162.754777 
L 345.966455 162.754777 
L 349.688586 162.754777 
L 353.410716 162.754777 
L 357.132847 162.754777 
L 360.854977 162.754777 
L 364.577107 162.754777 
L 368.299238 162.754777 
L 372.021368 162.754777 
L 375.743499 162.754777 
L 379.465629 162.754777 
L 383.187759 162.754777 
L 386.90989 162.754777 
L 390.63202 162.754777 
L 394.354151 152.691546 
L 398.076281 152.691546 
L 401.798411 142.628316 
L 405.520542 142.628316 
L 409.242672 142.628316 
L 412.964803 142.628316 
L 416.686933 142.628316 
L 420.409063 142.628316 
L 424.131194 142.628316 
L 427.853324 142.628316 
L 431.575455 142.628316 
" clip-path="url(#pd8e1ec5d68)" style="fill: none; stroke: #ff7f0e; stroke-width: 1.5; stroke-linecap: square"/>
    <defs>
     <path id="m4baec423bd" d="M 0 3 
C 0.795609 3 1.55874 2.683901 2.12132 2.12132 
C 2.683901 1.55874 3 0.795609 3 0 
C 3 -0.795609 2.683901 -1.55874 2.12132 -2.12132 
C 1.55874 -2.683901 0.795609 -3 0 -3 
C -0.795609 -3 -1.55874 -2.683901 -2.12132 -2.12132 
C -2.683901 -1.55874 -3 -0.795609 -3 0 
C -3 0.795609 -2.683901 1.55874 -2.12132 2.12132 
C -1.55874 2.683901 -0.795609 3 0 3 
z
" style="stroke: #ff7f0e"/>
    </defs>
    <g clip-path="url(#pd8e1ec5d68)">
     <use xlink:href="#m4baec423bd" x="63.084545" y="243.260619" style="fill: #ff7f0e; stroke: #ff7f0e"/>
     <use xlink:href="#m4baec423bd" x="66.806676" y="233.197388" style="fill: #ff7f0e; stroke: #ff7f0e"/>
     <use xlink:href="#m4baec423bd" x="70.528806" y="223.134158" style="fill: #ff7f0e; stroke: #ff7f0e"/>
     <use xlink:href="#m4baec423bd" x="74.250937" y="223.134158" style="fill: #ff7f0e; stroke: #ff7f0e"/>
     <use xlink:href="#m4baec423bd" x="77.973067" y="223.134158" style="fill: #ff7f0e; stroke: #ff7f0e"/>
     <use xlink:href="#m4baec423bd" x="81.695197" y="223.134158" style="fill: #ff7f0e; stroke: #ff7f0e"/>
     <use xlink:href="#m4baec423bd" x="85.417328" y="223.134158" style="fill: #ff7f0e; stroke: #ff7f0e"/>
     <use xlink:href="#m4baec423bd" x="89.139458" y="223.134158" style="fill: #ff7f0e; stroke: #ff7f0e"/>
     <use xlink:href="#m4baec423bd" x="92.861589" y="213.070928" style="fill: #ff7f0e; stroke: #ff7f0e"/>
     <use xlink:href="#m4baec423bd" x="96.583719" y="213.070928" style="fill: #ff7f0e; stroke: #ff7f0e"/>
     <use xlink:href="#m4baec423bd" x="100.305849" y="213.070928" style="fill: #ff7f0e; stroke: #ff7f0e"/>
     <use xlink:href="#m4baec423bd" x="104.02798" y="213.070928" style="fill: #ff7f0e; stroke: #ff7f0e"/>
     <use xlink:href="#m4baec423bd" x="107.75011" y="203.007698" style="fill: #ff7f0e; stroke: #ff7f0e"/>
     <use xlink:href="#m4baec423bd" x="111.472241" y="192.944467" style="fill: #ff7f0e; stroke: #ff7f0e"/>
     <use xlink:href="#m4baec423bd" x="115.194371" y="192.944467" style="fill: #ff7f0e; stroke: #ff7f0e"/>
     <use xlink:href="#m4baec423bd" x="118.916501" y="192.944467" style="fill: #ff7f0e; stroke: #ff7f0e"/>
     <use xlink:href="#m4baec423bd" x="122.638632" y="182.881237" style="fill: #ff7f0e; stroke: #ff7f0e"/>
     <use xlink:href="#m4baec423bd" x="126.360762" y="182.881237" style="fill: #ff7f0e; stroke: #ff7f0e"/>
     <use xlink:href="#m4baec423bd" x="130.082893" y="182.881237" style="fill: #ff7f0e; stroke: #ff7f0e"/>
     <use xlink:href="#m4baec423bd" x="133.805023" y="182.881237" style="fill: #ff7f0e; stroke: #ff7f0e"/>
     <use xlink:href="#m4baec423bd" x="137.527153" y="182.881237" style="fill: #ff7f0e; stroke: #ff7f0e"/>
     <use xlink:href="#m4baec423bd" x="141.249284" y="182.881237" style="fill: #ff7f0e; stroke: #ff7f0e"/>
     <use xlink:href="#m4baec423bd" x="144.971414" y="182.881237" style="fill: #ff7f0e; stroke: #ff7f0e"/>
     <use xlink:href="#m4baec423bd" x="148.693545" y="182.881237" style="fill: #ff7f0e; stroke: #ff7f0e"/>
     <use xlink:href="#m4baec423bd" x="152.415675" y="182.881237" style="fill: #ff7f0e; stroke: #ff7f0e"/>
     <use xlink:href="#m4baec423bd" x="156.137805" y="182.881237" style="fill: #ff7f0e; stroke: #ff7f0e"/>
     <use xlink:href="#m4baec423bd" x="159.859936" y="182.881237" style="fill: #ff7f0e; stroke: #ff7f0e"/>
     <use xlink:href="#m4baec423bd" x="163.582066" y="182.881237" style="fill: #ff7f0e; stroke: #ff7f0e"/>
     <use xlink:href="#m4baec423bd" x="167.304197" y="182.881237" style="fill: #ff7f0e; stroke: #ff7f0e"/>
     <use xlink:href="#m4baec423bd" x="171.026327" y="182.881237" style="fill: #ff7f0e; stroke: #ff7f0e"/>
     <use xlink:href="#m4baec423bd" x="174.748457" y="182.881237" style="fill: #ff7f0e; stroke: #ff7f0e"/>
     <use xlink:href="#m4baec423bd" x="178.470588" y="182.881237" style="fill: #ff7f0e; stroke: #ff7f0e"/>
     <use xlink:href="#m4baec423bd" x="182.192718" y="182.881237" style="fill: #ff7f0e; stroke: #ff7f0e"/>
     <use xlink:href="#m4baec423bd" x="185.914848" y="182.881237" style="fill: #ff7f0e; stroke: #ff7f0e"/>
     <use xlink:href="#m4baec423bd" x="189.636979" y="182.881237" style="fill: #ff7f0e; stroke: #ff7f0e"/>
     <use xlink:href="#m4baec423bd" x="193.359109" y="182.881237" style="fill: #ff7f0e; stroke: #ff7f0e"/>
     <use xlink:href="#m4baec423bd" x="197.08124" y="182.881237" style="fill: #ff7f0e; stroke: #ff7f0e"/>
     <use xlink:href="#m4baec423bd" x="200.80337" y="182.881237" style="fill: #ff7f0e; stroke: #ff7f0e"/>
     <use xlink:href="#m4baec423bd" x="204.5255" y="182.881237" style="fill: #ff7f0e; stroke: #ff7f0e"/>
     <use xlink:href="#m4baec423bd" x="208.247631" y="182.881237" style="fill: #ff7f0e; stroke: #ff7f0e"/>
     <use xlink:href="#m4baec423bd" x="211.969761" y="182.881237" style="fill: #ff7f0e; stroke: #ff7f0e"/>
     <use xlink:href="#m4baec423bd" x="215.691892" y="182.881237" style="fill: #ff7f0e; stroke: #ff7f0e"/>
     <use xlink:href="#m4baec423bd" x="219.414022" y="182.881237" style="fill: #ff7f0e; stroke: #ff7f0e"/>
     <use xlink:href="#m4baec423bd" x="223.136152" y="182.881237" style="fill: #ff7f0e; stroke: #ff7f0e"/>
     <use xlink:href="#m4baec423bd" x="226.858283" y="182.881237" style="fill: #ff7f0e; stroke: #ff7f0e"/>
     <use xlink:href="#m4baec423bd" x="230.580413" y="182.881237" style="fill: #ff7f0e; stroke: #ff7f0e"/>
     <use xlink:href="#m4baec423bd" x="234.302544" y="182.881237" style="fill: #ff7f0e; stroke: #ff7f0e"/>
     <use xlink:href="#m4baec423bd" x="238.024674" y="182.881237" style="fill: #ff7f0e; stroke: #ff7f0e"/>
     <use xlink:href="#m4baec423bd" x="241.746804" y="182.881237" style="fill: #ff7f0e; stroke: #ff7f0e"/>
     <use xlink:href="#m4baec423bd" x="245.468935" y="182.881237" style="fill: #ff7f0e; stroke: #ff7f0e"/>
     <use xlink:href="#m4baec423bd" x="249.191065" y="172.818007" style="fill: #ff7f0e; stroke: #ff7f0e"/>
     <use xlink:href="#m4baec423bd" x="252.913196" y="172.818007" style="fill: #ff7f0e; stroke: #ff7f0e"/>
     <use xlink:href="#m4baec423bd" x="256.635326" y="172.818007" style="fill: #ff7f0e; stroke: #ff7f0e"/>
     <use xlink:href="#m4baec423bd" x="260.357456" y="172.818007" style="fill: #ff7f0e; stroke: #ff7f0e"/>
     <use xlink:href="#m4baec423bd" x="264.079587" y="172.818007" style="fill: #ff7f0e; stroke: #ff7f0e"/>
     <use xlink:href="#m4baec423bd" x="267.801717" y="172.818007" style="fill: #ff7f0e; stroke: #ff7f0e"/>
     <use xlink:href="#m4baec423bd" x="271.523848" y="172.818007" style="fill: #ff7f0e; stroke: #ff7f0e"/>
     <use xlink:href="#m4baec423bd" x="275.245978" y="172.818007" style="fill: #ff7f0e; stroke: #ff7f0e"/>
     <use xlink:href="#m4baec423bd" x="278.968108" y="172.818007" style="fill: #ff7f0e; stroke: #ff7f0e"/>
     <use xlink:href="#m4baec423bd" x="282.690239" y="172.818007" style="fill: #ff7f0e; stroke: #ff7f0e"/>
     <use xlink:href="#m4baec423bd" x="286.412369" y="172.818007" style="fill: #ff7f0e; stroke: #ff7f0e"/>
     <use xlink:href="#m4baec423bd" x="290.1345" y="172.818007" style="fill: #ff7f0e; stroke: #ff7f0e"/>
     <use xlink:href="#m4baec423bd" x="293.85663" y="172.818007" style="fill: #ff7f0e; stroke: #ff7f0e"/>
     <use xlink:href="#m4baec423bd" x="297.57876" y="172.818007" style="fill: #ff7f0e; stroke: #ff7f0e"/>
     <use xlink:href="#m4baec423bd" x="301.300891" y="172.818007" style="fill: #ff7f0e; stroke: #ff7f0e"/>
     <use xlink:href="#m4baec423bd" x="305.023021" y="172.818007" style="fill: #ff7f0e; stroke: #ff7f0e"/>
     <use xlink:href="#m4baec423bd" x="308.745152" y="162.754777" style="fill: #ff7f0e; stroke: #ff7f0e"/>
     <use xlink:href="#m4baec423bd" x="312.467282" y="162.754777" style="fill: #ff7f0e; stroke: #ff7f0e"/>
     <use xlink:href="#m4baec423bd" x="316.189412" y="162.754777" style="fill: #ff7f0e; stroke: #ff7f0e"/>
     <use xlink:href="#m4baec423bd" x="319.911543" y="162.754777" style="fill: #ff7f0e; stroke: #ff7f0e"/>
     <use xlink:href="#m4baec423bd" x="323.633673" y="162.754777" style="fill: #ff7f0e; stroke: #ff7f0e"/>
     <use xlink:href="#m4baec423bd" x="327.355803" y="162.754777" style="fill: #ff7f0e; stroke: #ff7f0e"/>
     <use xlink:href="#m4baec423bd" x="331.077934" y="162.754777" style="fill: #ff7f0e; stroke: #ff7f0e"/>
     <use xlink:href="#m4baec423bd" x="334.800064" y="162.754777" style="fill: #ff7f0e; stroke: #ff7f0e"/>
     <use xlink:href="#m4baec423bd" x="338.522195" y="162.754777" style="fill: #ff7f0e; stroke: #ff7f0e"/>
     <use xlink:href="#m4baec423bd" x="342.244325" y="162.754777" style="fill: #ff7f0e; stroke: #ff7f0e"/>
     <use xlink:href="#m4baec423bd" x="345.966455" y="162.754777" style="fill: #ff7f0e; stroke: #ff7f0e"/>
     <use xlink:href="#m4baec423bd" x="349.688586" y="162.754777" style="fill: #ff7f0e; stroke: #ff7f0e"/>
     <use xlink:href="#m4baec423bd" x="353.410716" y="162.754777" style="fill: #ff7f0e; stroke: #ff7f0e"/>
     <use xlink:href="#m4baec423bd" x="357.132847" y="162.754777" style="fill: #ff7f0e; stroke: #ff7f0e"/>
     <use xlink:href="#m4baec423bd" x="360.854977" y="162.754777" style="fill: #ff7f0e; stroke: #ff7f0e"/>
     <use xlink:href="#m4baec423bd" x="364.577107" y="162.754777" style="fill: #ff7f0e; stroke: #ff7f0e"/>
     <use xlink:href="#m4baec423bd" x="368.299238" y="162.754777" style="fill: #ff7f0e; stroke: #ff7f0e"/>
     <use xlink:href="#m4baec423bd" x="372.021368" y="162.754777" style="fill: #ff7f0e; stroke: #ff7f0e"/>
     <use xlink:href="#m4baec423bd" x="375.743499" y="162.754777" style="fill: #ff7f0e; stroke: #ff7f0e"/>
     <use xlink:href="#m4baec423bd" x="379.465629" y="162.754777" style="fill: #ff7f0e; stroke: #ff7f0e"/>
     <use xlink:href="#m4baec423bd" x="383.187759" y="162.754777" style="fill: #ff7f0e; stroke: #ff7f0e"/>
     <use xlink:href="#m4baec423bd" x="386.90989" y="162.754777" style="fill: #ff7f0e; stroke: #ff7f0e"/>
     <use xlink:href="#m4baec423bd" x="390.63202" y="162.754777" style="fill: #ff7f0e; stroke: #ff7f0e"/>
     <use xlink:href="#m4baec423bd" x="394.354151" y="152.691546" style="fill: #ff7f0e; stroke: #ff7f0e"/>
     <use xlink:href="#m4baec423bd" x="398.076281" y="152.691546" style="fill: #ff7f0e; stroke: #ff7f0e"/>
     <use xlink:href="#m4baec423bd" x="401.798411" y="142.628316" style="fill: #ff7f0e; stroke: #ff7f0e"/>
     <use xlink:href="#m4baec423bd" x="405.520542" y="142.628316" style="fill: #ff7f0e; stroke: #ff7f0e"/>
     <use xlink:href="#m4baec423bd" x="409.242672" y="142.628316" style="fill: #ff7f0e; stroke: #ff7f0e"/>
     <use xlink:href="#m4baec423bd" x="412.964803" y="142.628316" style="fill: #ff7f0e; stroke: #ff7f0e"/>
     <use xlink:href="#m4baec423bd" x="416.686933" y="142.628316" style="fill: #ff7f0e; stroke: #ff7f0e"/>
     <use xlink:href="#m4baec423bd" x="420.409063" y="142.628316" style="fill: #ff7f0e; stroke: #ff7f0e"/>
     <use xlink:href="#m4baec423bd" x="424.131194" y="142.628316" style="fill: #ff7f0e; stroke: #ff7f0e"/>
     <use xlink:href="#m4baec423bd" x="427.853324" y="142.628316" style="fill: #ff7f0e; stroke: #ff7f0e"/>
     <use xlink:href="#m4baec423bd" x="431.575455" y="142.628316" style="fill: #ff7f0e; stroke: #ff7f0e"/>
    </g>
   </g>
   <g id="line2d_38">
    <path d="M 63.084545 233.197388 
L 66.806676 192.944467 
L 70.528806 182.881237 
L 74.250937 182.881237 
L 77.973067 172.818007 
L 81.695197 172.818007 
L 85.417328 162.754777 
L 89.139458 162.754777 
L 92.861589 162.754777 
L 96.583719 162.754777 
L 100.305849 162.754777 
L 104.02798 162.754777 
L 107.75011 162.754777 
L 111.472241 162.754777 
L 115.194371 162.754777 
L 118.916501 162.754777 
L 122.638632 162.754777 
L 126.360762 162.754777 
L 130.082893 162.754777 
L 133.805023 162.754777 
L 137.527153 152.691546 
L 141.249284 152.691546 
L 144.971414 152.691546 
L 148.693545 152.691546 
L 152.415675 132.565086 
L 156.137805 132.565086 
L 159.859936 132.565086 
L 163.582066 132.565086 
L 167.304197 132.565086 
L 171.026327 132.565086 
L 174.748457 132.565086 
L 178.470588 122.501856 
L 182.192718 122.501856 
L 185.914848 122.501856 
L 189.636979 122.501856 
L 193.359109 122.501856 
L 197.08124 122.501856 
L 200.80337 112.438625 
L 204.5255 112.438625 
L 208.247631 112.438625 
L 211.969761 112.438625 
L 215.691892 102.375395 
L 219.414022 102.375395 
L 223.136152 102.375395 
L 226.858283 102.375395 
L 230.580413 102.375395 
L 234.302544 102.375395 
L 238.024674 102.375395 
L 241.746804 102.375395 
L 245.468935 102.375395 
L 249.191065 102.375395 
L 252.913196 102.375395 
L 256.635326 102.375395 
L 260.357456 102.375395 
L 264.079587 102.375395 
L 267.801717 102.375395 
L 271.523848 102.375395 
L 275.245978 102.375395 
L 278.968108 102.375395 
L 282.690239 102.375395 
L 286.412369 102.375395 
L 290.1345 102.375395 
L 293.85663 102.375395 
L 297.57876 102.375395 
L 301.300891 102.375395 
L 305.023021 102.375395 
L 308.745152 102.375395 
L 312.467282 102.375395 
L 316.189412 102.375395 
L 319.911543 102.375395 
L 323.633673 102.375395 
L 327.355803 102.375395 
L 331.077934 102.375395 
L 334.800064 102.375395 
L 338.522195 102.375395 
L 342.244325 102.375395 
L 345.966455 102.375395 
L 349.688586 102.375395 
L 353.410716 102.375395 
L 357.132847 102.375395 
L 360.854977 102.375395 
L 364.577107 102.375395 
L 368.299238 102.375395 
L 372.021368 102.375395 
L 375.743499 92.312165 
L 379.465629 92.312165 
L 383.187759 92.312165 
L 386.90989 82.248935 
L 390.63202 82.248935 
L 394.354151 82.248935 
L 398.076281 72.185704 
L 401.798411 72.185704 
L 405.520542 72.185704 
L 409.242672 62.122474 
L 412.964803 52.059244 
L 416.686933 52.059244 
L 420.409063 52.059244 
L 424.131194 52.059244 
L 427.853324 41.996014 
L 431.575455 21.869553 
" clip-path="url(#pd8e1ec5d68)" style="fill: none; stroke: #2ca02c; stroke-width: 1.5; stroke-linecap: square"/>
    <defs>
     <path id="mbda3f8a7e2" d="M 0 3 
C 0.795609 3 1.55874 2.683901 2.12132 2.12132 
C 2.683901 1.55874 3 0.795609 3 0 
C 3 -0.795609 2.683901 -1.55874 2.12132 -2.12132 
C 1.55874 -2.683901 0.795609 -3 0 -3 
C -0.795609 -3 -1.55874 -2.683901 -2.12132 -2.12132 
C -2.683901 -1.55874 -3 -0.795609 -3 0 
C -3 0.795609 -2.683901 1.55874 -2.12132 2.12132 
C -1.55874 2.683901 -0.795609 3 0 3 
z
" style="stroke: #2ca02c"/>
    </defs>
    <g clip-path="url(#pd8e1ec5d68)">
     <use xlink:href="#mbda3f8a7e2" x="63.084545" y="233.197388" style="fill: #2ca02c; stroke: #2ca02c"/>
     <use xlink:href="#mbda3f8a7e2" x="66.806676" y="192.944467" style="fill: #2ca02c; stroke: #2ca02c"/>
     <use xlink:href="#mbda3f8a7e2" x="70.528806" y="182.881237" style="fill: #2ca02c; stroke: #2ca02c"/>
     <use xlink:href="#mbda3f8a7e2" x="74.250937" y="182.881237" style="fill: #2ca02c; stroke: #2ca02c"/>
     <use xlink:href="#mbda3f8a7e2" x="77.973067" y="172.818007" style="fill: #2ca02c; stroke: #2ca02c"/>
     <use xlink:href="#mbda3f8a7e2" x="81.695197" y="172.818007" style="fill: #2ca02c; stroke: #2ca02c"/>
     <use xlink:href="#mbda3f8a7e2" x="85.417328" y="162.754777" style="fill: #2ca02c; stroke: #2ca02c"/>
     <use xlink:href="#mbda3f8a7e2" x="89.139458" y="162.754777" style="fill: #2ca02c; stroke: #2ca02c"/>
     <use xlink:href="#mbda3f8a7e2" x="92.861589" y="162.754777" style="fill: #2ca02c; stroke: #2ca02c"/>
     <use xlink:href="#mbda3f8a7e2" x="96.583719" y="162.754777" style="fill: #2ca02c; stroke: #2ca02c"/>
     <use xlink:href="#mbda3f8a7e2" x="100.305849" y="162.754777" style="fill: #2ca02c; stroke: #2ca02c"/>
     <use xlink:href="#mbda3f8a7e2" x="104.02798" y="162.754777" style="fill: #2ca02c; stroke: #2ca02c"/>
     <use xlink:href="#mbda3f8a7e2" x="107.75011" y="162.754777" style="fill: #2ca02c; stroke: #2ca02c"/>
     <use xlink:href="#mbda3f8a7e2" x="111.472241" y="162.754777" style="fill: #2ca02c; stroke: #2ca02c"/>
     <use xlink:href="#mbda3f8a7e2" x="115.194371" y="162.754777" style="fill: #2ca02c; stroke: #2ca02c"/>
     <use xlink:href="#mbda3f8a7e2" x="118.916501" y="162.754777" style="fill: #2ca02c; stroke: #2ca02c"/>
     <use xlink:href="#mbda3f8a7e2" x="122.638632" y="162.754777" style="fill: #2ca02c; stroke: #2ca02c"/>
     <use xlink:href="#mbda3f8a7e2" x="126.360762" y="162.754777" style="fill: #2ca02c; stroke: #2ca02c"/>
     <use xlink:href="#mbda3f8a7e2" x="130.082893" y="162.754777" style="fill: #2ca02c; stroke: #2ca02c"/>
     <use xlink:href="#mbda3f8a7e2" x="133.805023" y="162.754777" style="fill: #2ca02c; stroke: #2ca02c"/>
     <use xlink:href="#mbda3f8a7e2" x="137.527153" y="152.691546" style="fill: #2ca02c; stroke: #2ca02c"/>
     <use xlink:href="#mbda3f8a7e2" x="141.249284" y="152.691546" style="fill: #2ca02c; stroke: #2ca02c"/>
     <use xlink:href="#mbda3f8a7e2" x="144.971414" y="152.691546" style="fill: #2ca02c; stroke: #2ca02c"/>
     <use xlink:href="#mbda3f8a7e2" x="148.693545" y="152.691546" style="fill: #2ca02c; stroke: #2ca02c"/>
     <use xlink:href="#mbda3f8a7e2" x="152.415675" y="132.565086" style="fill: #2ca02c; stroke: #2ca02c"/>
     <use xlink:href="#mbda3f8a7e2" x="156.137805" y="132.565086" style="fill: #2ca02c; stroke: #2ca02c"/>
     <use xlink:href="#mbda3f8a7e2" x="159.859936" y="132.565086" style="fill: #2ca02c; stroke: #2ca02c"/>
     <use xlink:href="#mbda3f8a7e2" x="163.582066" y="132.565086" style="fill: #2ca02c; stroke: #2ca02c"/>
     <use xlink:href="#mbda3f8a7e2" x="167.304197" y="132.565086" style="fill: #2ca02c; stroke: #2ca02c"/>
     <use xlink:href="#mbda3f8a7e2" x="171.026327" y="132.565086" style="fill: #2ca02c; stroke: #2ca02c"/>
     <use xlink:href="#mbda3f8a7e2" x="174.748457" y="132.565086" style="fill: #2ca02c; stroke: #2ca02c"/>
     <use xlink:href="#mbda3f8a7e2" x="178.470588" y="122.501856" style="fill: #2ca02c; stroke: #2ca02c"/>
     <use xlink:href="#mbda3f8a7e2" x="182.192718" y="122.501856" style="fill: #2ca02c; stroke: #2ca02c"/>
     <use xlink:href="#mbda3f8a7e2" x="185.914848" y="122.501856" style="fill: #2ca02c; stroke: #2ca02c"/>
     <use xlink:href="#mbda3f8a7e2" x="189.636979" y="122.501856" style="fill: #2ca02c; stroke: #2ca02c"/>
     <use xlink:href="#mbda3f8a7e2" x="193.359109" y="122.501856" style="fill: #2ca02c; stroke: #2ca02c"/>
     <use xlink:href="#mbda3f8a7e2" x="197.08124" y="122.501856" style="fill: #2ca02c; stroke: #2ca02c"/>
     <use xlink:href="#mbda3f8a7e2" x="200.80337" y="112.438625" style="fill: #2ca02c; stroke: #2ca02c"/>
     <use xlink:href="#mbda3f8a7e2" x="204.5255" y="112.438625" style="fill: #2ca02c; stroke: #2ca02c"/>
     <use xlink:href="#mbda3f8a7e2" x="208.247631" y="112.438625" style="fill: #2ca02c; stroke: #2ca02c"/>
     <use xlink:href="#mbda3f8a7e2" x="211.969761" y="112.438625" style="fill: #2ca02c; stroke: #2ca02c"/>
     <use xlink:href="#mbda3f8a7e2" x="215.691892" y="102.375395" style="fill: #2ca02c; stroke: #2ca02c"/>
     <use xlink:href="#mbda3f8a7e2" x="219.414022" y="102.375395" style="fill: #2ca02c; stroke: #2ca02c"/>
     <use xlink:href="#mbda3f8a7e2" x="223.136152" y="102.375395" style="fill: #2ca02c; stroke: #2ca02c"/>
     <use xlink:href="#mbda3f8a7e2" x="226.858283" y="102.375395" style="fill: #2ca02c; stroke: #2ca02c"/>
     <use xlink:href="#mbda3f8a7e2" x="230.580413" y="102.375395" style="fill: #2ca02c; stroke: #2ca02c"/>
     <use xlink:href="#mbda3f8a7e2" x="234.302544" y="102.375395" style="fill: #2ca02c; stroke: #2ca02c"/>
     <use xlink:href="#mbda3f8a7e2" x="238.024674" y="102.375395" style="fill: #2ca02c; stroke: #2ca02c"/>
     <use xlink:href="#mbda3f8a7e2" x="241.746804" y="102.375395" style="fill: #2ca02c; stroke: #2ca02c"/>
     <use xlink:href="#mbda3f8a7e2" x="245.468935" y="102.375395" style="fill: #2ca02c; stroke: #2ca02c"/>
     <use xlink:href="#mbda3f8a7e2" x="249.191065" y="102.375395" style="fill: #2ca02c; stroke: #2ca02c"/>
     <use xlink:href="#mbda3f8a7e2" x="252.913196" y="102.375395" style="fill: #2ca02c; stroke: #2ca02c"/>
     <use xlink:href="#mbda3f8a7e2" x="256.635326" y="102.375395" style="fill: #2ca02c; stroke: #2ca02c"/>
     <use xlink:href="#mbda3f8a7e2" x="260.357456" y="102.375395" style="fill: #2ca02c; stroke: #2ca02c"/>
     <use xlink:href="#mbda3f8a7e2" x="264.079587" y="102.375395" style="fill: #2ca02c; stroke: #2ca02c"/>
     <use xlink:href="#mbda3f8a7e2" x="267.801717" y="102.375395" style="fill: #2ca02c; stroke: #2ca02c"/>
     <use xlink:href="#mbda3f8a7e2" x="271.523848" y="102.375395" style="fill: #2ca02c; stroke: #2ca02c"/>
     <use xlink:href="#mbda3f8a7e2" x="275.245978" y="102.375395" style="fill: #2ca02c; stroke: #2ca02c"/>
     <use xlink:href="#mbda3f8a7e2" x="278.968108" y="102.375395" style="fill: #2ca02c; stroke: #2ca02c"/>
     <use xlink:href="#mbda3f8a7e2" x="282.690239" y="102.375395" style="fill: #2ca02c; stroke: #2ca02c"/>
     <use xlink:href="#mbda3f8a7e2" x="286.412369" y="102.375395" style="fill: #2ca02c; stroke: #2ca02c"/>
     <use xlink:href="#mbda3f8a7e2" x="290.1345" y="102.375395" style="fill: #2ca02c; stroke: #2ca02c"/>
     <use xlink:href="#mbda3f8a7e2" x="293.85663" y="102.375395" style="fill: #2ca02c; stroke: #2ca02c"/>
     <use xlink:href="#mbda3f8a7e2" x="297.57876" y="102.375395" style="fill: #2ca02c; stroke: #2ca02c"/>
     <use xlink:href="#mbda3f8a7e2" x="301.300891" y="102.375395" style="fill: #2ca02c; stroke: #2ca02c"/>
     <use xlink:href="#mbda3f8a7e2" x="305.023021" y="102.375395" style="fill: #2ca02c; stroke: #2ca02c"/>
     <use xlink:href="#mbda3f8a7e2" x="308.745152" y="102.375395" style="fill: #2ca02c; stroke: #2ca02c"/>
     <use xlink:href="#mbda3f8a7e2" x="312.467282" y="102.375395" style="fill: #2ca02c; stroke: #2ca02c"/>
     <use xlink:href="#mbda3f8a7e2" x="316.189412" y="102.375395" style="fill: #2ca02c; stroke: #2ca02c"/>
     <use xlink:href="#mbda3f8a7e2" x="319.911543" y="102.375395" style="fill: #2ca02c; stroke: #2ca02c"/>
     <use xlink:href="#mbda3f8a7e2" x="323.633673" y="102.375395" style="fill: #2ca02c; stroke: #2ca02c"/>
     <use xlink:href="#mbda3f8a7e2" x="327.355803" y="102.375395" style="fill: #2ca02c; stroke: #2ca02c"/>
     <use xlink:href="#mbda3f8a7e2" x="331.077934" y="102.375395" style="fill: #2ca02c; stroke: #2ca02c"/>
     <use xlink:href="#mbda3f8a7e2" x="334.800064" y="102.375395" style="fill: #2ca02c; stroke: #2ca02c"/>
     <use xlink:href="#mbda3f8a7e2" x="338.522195" y="102.375395" style="fill: #2ca02c; stroke: #2ca02c"/>
     <use xlink:href="#mbda3f8a7e2" x="342.244325" y="102.375395" style="fill: #2ca02c; stroke: #2ca02c"/>
     <use xlink:href="#mbda3f8a7e2" x="345.966455" y="102.375395" style="fill: #2ca02c; stroke: #2ca02c"/>
     <use xlink:href="#mbda3f8a7e2" x="349.688586" y="102.375395" style="fill: #2ca02c; stroke: #2ca02c"/>
     <use xlink:href="#mbda3f8a7e2" x="353.410716" y="102.375395" style="fill: #2ca02c; stroke: #2ca02c"/>
     <use xlink:href="#mbda3f8a7e2" x="357.132847" y="102.375395" style="fill: #2ca02c; stroke: #2ca02c"/>
     <use xlink:href="#mbda3f8a7e2" x="360.854977" y="102.375395" style="fill: #2ca02c; stroke: #2ca02c"/>
     <use xlink:href="#mbda3f8a7e2" x="364.577107" y="102.375395" style="fill: #2ca02c; stroke: #2ca02c"/>
     <use xlink:href="#mbda3f8a7e2" x="368.299238" y="102.375395" style="fill: #2ca02c; stroke: #2ca02c"/>
     <use xlink:href="#mbda3f8a7e2" x="372.021368" y="102.375395" style="fill: #2ca02c; stroke: #2ca02c"/>
     <use xlink:href="#mbda3f8a7e2" x="375.743499" y="92.312165" style="fill: #2ca02c; stroke: #2ca02c"/>
     <use xlink:href="#mbda3f8a7e2" x="379.465629" y="92.312165" style="fill: #2ca02c; stroke: #2ca02c"/>
     <use xlink:href="#mbda3f8a7e2" x="383.187759" y="92.312165" style="fill: #2ca02c; stroke: #2ca02c"/>
     <use xlink:href="#mbda3f8a7e2" x="386.90989" y="82.248935" style="fill: #2ca02c; stroke: #2ca02c"/>
     <use xlink:href="#mbda3f8a7e2" x="390.63202" y="82.248935" style="fill: #2ca02c; stroke: #2ca02c"/>
     <use xlink:href="#mbda3f8a7e2" x="394.354151" y="82.248935" style="fill: #2ca02c; stroke: #2ca02c"/>
     <use xlink:href="#mbda3f8a7e2" x="398.076281" y="72.185704" style="fill: #2ca02c; stroke: #2ca02c"/>
     <use xlink:href="#mbda3f8a7e2" x="401.798411" y="72.185704" style="fill: #2ca02c; stroke: #2ca02c"/>
     <use xlink:href="#mbda3f8a7e2" x="405.520542" y="72.185704" style="fill: #2ca02c; stroke: #2ca02c"/>
     <use xlink:href="#mbda3f8a7e2" x="409.242672" y="62.122474" style="fill: #2ca02c; stroke: #2ca02c"/>
     <use xlink:href="#mbda3f8a7e2" x="412.964803" y="52.059244" style="fill: #2ca02c; stroke: #2ca02c"/>
     <use xlink:href="#mbda3f8a7e2" x="416.686933" y="52.059244" style="fill: #2ca02c; stroke: #2ca02c"/>
     <use xlink:href="#mbda3f8a7e2" x="420.409063" y="52.059244" style="fill: #2ca02c; stroke: #2ca02c"/>
     <use xlink:href="#mbda3f8a7e2" x="424.131194" y="52.059244" style="fill: #2ca02c; stroke: #2ca02c"/>
     <use xlink:href="#mbda3f8a7e2" x="427.853324" y="41.996014" style="fill: #2ca02c; stroke: #2ca02c"/>
     <use xlink:href="#mbda3f8a7e2" x="431.575455" y="21.869553" style="fill: #2ca02c; stroke: #2ca02c"/>
    </g>
   </g>
   <g id="patch_3">
    <path d="M 44.66 303.64 
L 44.66 10.8 
" style="fill: none; stroke: #000000; stroke-width: 0.8; stroke-linejoin: miter; stroke-linecap: square"/>
   </g>
   <g id="patch_4">
    <path d="M 450 303.64 
L 450 10.8 
" style="fill: none; stroke: #000000; stroke-width: 0.8; stroke-linejoin: miter; stroke-linecap: square"/>
   </g>
   <g id="patch_5">
    <path d="M 44.66 303.64 
L 450 303.64 
" style="fill: none; stroke: #000000; stroke-width: 0.8; stroke-linejoin: miter; stroke-linecap: square"/>
   </g>
   <g id="patch_6">
    <path d="M 44.66 10.8 
L 450 10.8 
" style="fill: none; stroke: #000000; stroke-width: 0.8; stroke-linejoin: miter; stroke-linecap: square"/>
   </g>
   <g id="legend_1">
    <g id="patch_7">
     <path d="M 51.66 62.834375 
L 159.263125 62.834375 
Q 161.263125 62.834375 161.263125 60.834375 
L 161.263125 17.8 
Q 161.263125 15.8 159.263125 15.8 
L 51.66 15.8 
Q 49.66 15.8 49.66 17.8 
L 49.66 60.834375 
Q 49.66 62.834375 51.66 62.834375 
z
" style="fill: #ffffff; opacity: 0.8; stroke: #cccccc; stroke-linejoin: miter"/>
    </g>
    <g id="line2d_39">
     <path d="M 53.66 23.898438 
L 63.66 23.898438 
L 73.66 23.898438 
" style="fill: none; stroke: #1f77b4; stroke-width: 1.5; stroke-linecap: square"/>
     <g>
      <use xlink:href="#m4ae569caf6" x="63.66" y="23.898438" style="fill: #1f77b4; stroke: #1f77b4"/>
     </g>
    </g>
    <g id="text_38">
     <!-- BugLab -->
     <g transform="translate(81.66 27.398438)scale(0.1 -0.1)">
      <defs>
       <path id="DejaVuSans-4c" d="M 628 4666 
L 1259 4666 
L 1259 531 
L 3531 531 
L 3531 0 
L 628 0 
L 628 4666 
z
" transform="scale(0.015625)"/>
      </defs>
      <use xlink:href="#DejaVuSans-42"/>
      <use xlink:href="#DejaVuSans-75" x="68.603516"/>
      <use xlink:href="#DejaVuSans-67" x="131.982422"/>
      <use xlink:href="#DejaVuSans-4c" x="195.458984"/>
      <use xlink:href="#DejaVuSans-61" x="251.171875"/>
      <use xlink:href="#DejaVuSans-62" x="312.451172"/>
     </g>
    </g>
    <g id="line2d_40">
     <path d="M 53.66 38.576563 
L 63.66 38.576563 
L 73.66 38.576563 
" style="fill: none; stroke: #ff7f0e; stroke-width: 1.5; stroke-linecap: square"/>
     <g>
      <use xlink:href="#m4baec423bd" x="63.66" y="38.576563" style="fill: #ff7f0e; stroke: #ff7f0e"/>
     </g>
    </g>
    <g id="text_39">
     <!-- Baseline Model -->
     <g transform="translate(81.66 42.076563)scale(0.1 -0.1)">
      <defs>
       <path id="DejaVuSans-4d" d="M 628 4666 
L 1569 4666 
L 2759 1491 
L 3956 4666 
L 4897 4666 
L 4897 0 
L 4281 0 
L 4281 4097 
L 3078 897 
L 2444 897 
L 1241 4097 
L 1241 0 
L 628 0 
L 628 4666 
z
" transform="scale(0.015625)"/>
      </defs>
      <use xlink:href="#DejaVuSans-42"/>
      <use xlink:href="#DejaVuSans-61" x="68.603516"/>
      <use xlink:href="#DejaVuSans-73" x="129.882812"/>
      <use xlink:href="#DejaVuSans-65" x="181.982422"/>
      <use xlink:href="#DejaVuSans-6c" x="243.505859"/>
      <use xlink:href="#DejaVuSans-69" x="271.289062"/>
      <use xlink:href="#DejaVuSans-6e" x="299.072266"/>
      <use xlink:href="#DejaVuSans-65" x="362.451172"/>
      <use xlink:href="#DejaVuSans-20" x="423.974609"/>
      <use xlink:href="#DejaVuSans-4d" x="455.761719"/>
      <use xlink:href="#DejaVuSans-6f" x="542.041016"/>
      <use xlink:href="#DejaVuSans-64" x="603.222656"/>
      <use xlink:href="#DejaVuSans-65" x="666.699219"/>
      <use xlink:href="#DejaVuSans-6c" x="728.222656"/>
     </g>
    </g>
    <g id="line2d_41">
     <path d="M 53.66 53.254688 
L 63.66 53.254688 
L 73.66 53.254688 
" style="fill: none; stroke: #2ca02c; stroke-width: 1.5; stroke-linecap: square"/>
     <g>
      <use xlink:href="#mbda3f8a7e2" x="63.66" y="53.254688" style="fill: #2ca02c; stroke: #2ca02c"/>
     </g>
    </g>
    <g id="text_40">
     <!-- MUFIN -->
     <g transform="translate(81.66 56.754688)scale(0.1 -0.1)">
      <defs>
       <path id="DejaVuSans-55" d="M 556 4666 
L 1191 4666 
L 1191 1831 
Q 1191 1081 1462 751 
Q 1734 422 2344 422 
Q 2950 422 3222 751 
Q 3494 1081 3494 1831 
L 3494 4666 
L 4128 4666 
L 4128 1753 
Q 4128 841 3676 375 
Q 3225 -91 2344 -91 
Q 1459 -91 1007 375 
Q 556 841 556 1753 
L 556 4666 
z
" transform="scale(0.015625)"/>
       <path id="DejaVuSans-46" d="M 628 4666 
L 3309 4666 
L 3309 4134 
L 1259 4134 
L 1259 2759 
L 3109 2759 
L 3109 2228 
L 1259 2228 
L 1259 0 
L 628 0 
L 628 4666 
z
" transform="scale(0.015625)"/>
       <path id="DejaVuSans-49" d="M 628 4666 
L 1259 4666 
L 1259 0 
L 628 0 
L 628 4666 
z
" transform="scale(0.015625)"/>
      </defs>
      <use xlink:href="#DejaVuSans-4d"/>
      <use xlink:href="#DejaVuSans-55" x="86.279297"/>
      <use xlink:href="#DejaVuSans-46" x="159.472656"/>
      <use xlink:href="#DejaVuSans-49" x="216.992188"/>
      <use xlink:href="#DejaVuSans-4e" x="246.484375"/>
     </g>
    </g>
   </g>
  </g>
 </g>
 <defs>
  <clipPath id="pd8e1ec5d68">
   <rect x="44.66" y="10.8" width="405.34" height="292.84"/>
  </clipPath>
 </defs>
</svg>
